<svg width="21" height="22" viewBox="0 0 21 22" fill="none" xmlns="http://www.w3.org/2000/svg">
<path d="M14.6004 5.2343V3.71449C14.6004 3.58276 14.449 3.51002 14.3468 3.59063L5.48356 10.5133C5.40825 10.5719 5.34732 10.6469 5.3054 10.7326C5.26349 10.8183 5.2417 10.9124 5.2417 11.0078C5.2417 11.1032 5.26349 11.1973 5.3054 11.283C5.34732 11.3687 5.40825 11.4437 5.48356 11.5023L14.3468 18.425C14.451 18.5056 14.6004 18.4328 14.6004 18.3011V16.7813C14.6004 16.6849 14.5552 16.5925 14.4805 16.5336L7.40249 11.0088L14.4805 5.48203C14.5552 5.42304 14.6004 5.33064 14.6004 5.2343V5.2343Z" fill="#F3D7BE"/>
</svg>
