<svg width="21" height="22" viewBox="0 0 21 22" fill="none" xmlns="http://www.w3.org/2000/svg">
<path d="M15.5568 10.5139L6.69357 3.59119C6.67041 3.57296 6.64258 3.56163 6.61327 3.5585C6.58396 3.55537 6.55436 3.56058 6.52788 3.57351C6.50139 3.58645 6.47909 3.60659 6.46353 3.63163C6.44798 3.65667 6.4398 3.68558 6.43994 3.71506V5.23487C6.43994 5.33121 6.48516 5.42361 6.55988 5.4826L13.6379 11.0093L6.55988 16.5361C6.4832 16.5951 6.43994 16.6875 6.43994 16.7838V18.3036C6.43994 18.4354 6.59133 18.5081 6.69357 18.4275L15.5568 11.5048C15.6321 11.446 15.6931 11.3709 15.735 11.285C15.7769 11.1992 15.7987 11.1049 15.7987 11.0093C15.7987 10.9138 15.7769 10.8195 15.735 10.7337C15.6931 10.6478 15.6321 10.5726 15.5568 10.5139Z" fill="#F3D7BE"/>
</svg>
