<svg width="13" height="12" viewBox="0 0 13 12" fill="none" xmlns="http://www.w3.org/2000/svg">
<path d="M12.0781 5.99395L6.175 0.870508C6.12969 0.831445 6.07188 0.80957 6.01094 0.80957H4.62813C4.5125 0.80957 4.45937 0.95332 4.54688 1.02832L10.0188 5.77832H0.875C0.80625 5.77832 0.75 5.83457 0.75 5.90332V6.84082C0.75 6.90957 0.80625 6.96582 0.875 6.96582H10.0172L4.54531 11.7158C4.45781 11.7924 4.51094 11.9346 4.62656 11.9346H6.05625C6.08594 11.9346 6.11562 11.9236 6.1375 11.9033L12.0781 6.7502C12.1322 6.70316 12.1756 6.64506 12.2053 6.57983C12.235 6.5146 12.2504 6.44375 12.2504 6.37207C12.2504 6.30039 12.235 6.22954 12.2053 6.16431C12.1756 6.09908 12.1322 6.04098 12.0781 5.99395Z" fill="#E8B995"/>
</svg>
