<svg width="47" height="47" viewBox="0 0 47 47" fill="none" xmlns="http://www.w3.org/2000/svg">
<path d="M28.5568 22.5135L19.6936 15.5908C19.6704 15.5726 19.6426 15.5613 19.6133 15.5581C19.584 15.555 19.5544 15.5602 19.5279 15.5731C19.5014 15.5861 19.4791 15.6062 19.4635 15.6313C19.448 15.6563 19.4398 15.6852 19.4399 15.7147V17.2345C19.4399 17.3308 19.4852 17.4232 19.5599 17.4822L26.6379 23.009L19.5599 28.5357C19.4832 28.5947 19.4399 28.6871 19.4399 28.7835V30.3033C19.4399 30.435 19.5913 30.5077 19.6936 30.4271L28.5568 23.5044C28.6321 23.4457 28.6931 23.3705 28.735 23.2847C28.7769 23.1988 28.7987 23.1045 28.7987 23.009C28.7987 22.9134 28.7769 22.8192 28.735 22.7333C28.6931 22.6474 28.6321 22.5723 28.5568 22.5135Z" fill="#A7BDD1"/>
</svg>
