<svg width="47" height="47" viewBox="0 0 47 47" fill="none" xmlns="http://www.w3.org/2000/svg">
<path d="M27.6004 17.2342V15.7144C27.6004 15.5826 27.449 15.5099 27.3468 15.5905L18.4836 22.5132C18.4083 22.5718 18.3473 22.6467 18.3054 22.7324C18.2635 22.8181 18.2417 22.9123 18.2417 23.0077C18.2417 23.1031 18.2635 23.1972 18.3054 23.2829C18.3473 23.3686 18.4083 23.4436 18.4836 23.5021L27.3468 30.4248C27.451 30.5054 27.6004 30.4327 27.6004 30.301V28.7812C27.6004 28.6848 27.5552 28.5924 27.4805 28.5334L20.4025 23.0087L27.4805 17.4819C27.5552 17.4229 27.6004 17.3305 27.6004 17.2342V17.2342Z" fill="#A7BDD1"/>
</svg>
