<svg width="534" height="287" viewBox="0 0 534 287" fill="none" xmlns="http://www.w3.org/2000/svg">
<g opacity="0.5">
<rect width="534" height="47" transform="translate(13.2036 230.499) rotate(-24.0114)" fill="#DBA73E"/>
<path d="M102.829 224.51L96.6938 210.737L98.7634 209.815C99.6852 209.404 100.451 209.148 101.062 209.047C101.679 208.944 102.253 208.977 102.785 209.146C103.327 209.325 103.828 209.625 104.288 210.048C104.755 210.474 105.11 210.958 105.351 211.499C105.79 212.486 105.785 213.49 105.334 214.51C106.177 214.434 106.949 214.614 107.649 215.051C108.353 215.478 108.888 216.103 109.253 216.923C109.733 218 109.757 219.079 109.327 220.162C109.073 220.823 108.701 221.371 108.209 221.804C107.662 222.254 106.918 222.689 105.978 223.107L102.829 224.51ZM101.407 215.725L102.058 215.435C102.831 215.091 103.321 214.67 103.527 214.172C103.736 213.665 103.692 213.079 103.395 212.413C103.106 211.764 102.703 211.356 102.186 211.187C101.667 211.012 101.056 211.081 100.354 211.394L99.6227 211.72L101.407 215.725ZM104.038 221.631L105.322 221.058C106.262 220.64 106.87 220.148 107.145 219.583C107.432 218.978 107.438 218.369 107.166 217.757C106.901 217.162 106.455 216.762 105.829 216.556C105.217 216.351 104.353 216.498 103.234 216.996L102.182 217.465L104.038 221.631ZM115.792 208.323L117.808 207.425L121.679 216.113L119.662 217.012L119.257 216.102C118.775 217.243 118.058 218.026 117.106 218.449C115.905 218.985 114.719 218.993 113.547 218.474C112.373 217.935 111.491 217.003 110.9 215.676C110.32 214.374 110.226 213.115 110.618 211.9C111.01 210.685 111.792 209.816 112.964 209.294C113.975 208.844 115.067 208.856 116.241 209.331L115.792 208.323ZM112.952 214.762C113.323 215.595 113.848 216.174 114.527 216.498C115.22 216.824 115.915 216.831 116.611 216.521C117.354 216.19 117.841 215.667 118.071 214.951C118.293 214.218 118.223 213.444 117.86 212.629C117.497 211.815 116.969 211.245 116.275 210.919C115.587 210.606 114.877 210.612 114.145 210.938C113.455 211.245 112.995 211.764 112.764 212.494C112.542 213.227 112.605 213.983 112.952 214.762ZM120.341 206.296L122.349 205.402L122.694 206.178C122.891 205.627 123.1 205.217 123.322 204.947C123.547 204.669 123.859 204.441 124.257 204.263C124.787 204.027 125.417 203.953 126.147 204.041L126.047 206.288C125.544 206.184 125.112 206.213 124.749 206.375C123.655 206.862 123.476 207.933 124.212 209.586L126.219 214.091L124.212 214.985L120.341 206.296ZM127.46 203.125L129.467 202.231L129.813 203.007C130.009 202.456 130.219 202.046 130.44 201.776C130.666 201.498 130.977 201.27 131.376 201.092C131.905 200.856 132.535 200.782 133.266 200.87L133.165 203.117C132.663 203.013 132.23 203.042 131.868 203.204C130.773 203.691 130.594 204.761 131.331 206.415L133.338 210.92L131.331 211.814L127.46 203.125ZM136.586 199.06L140.456 207.749L138.449 208.643L134.579 199.954L136.586 199.06ZM132.666 196.476C132.51 196.125 132.502 195.765 132.644 195.396C132.786 195.026 133.035 194.762 133.392 194.603C133.755 194.441 134.121 194.431 134.491 194.573C134.858 194.709 135.122 194.958 135.284 195.321C135.445 195.684 135.455 196.05 135.313 196.42C135.177 196.787 134.928 197.051 134.565 197.212C134.203 197.374 133.836 197.384 133.467 197.242C133.097 197.1 132.83 196.845 132.666 196.476ZM139.128 197.927L141.144 197.029L141.502 197.832C141.894 196.824 142.53 196.123 143.41 195.731C144.421 195.281 145.35 195.248 146.199 195.633C146.928 195.957 147.565 196.731 148.111 197.956L150.483 203.282L148.467 204.18L146.305 199.327C145.924 198.471 145.541 197.932 145.158 197.711C144.777 197.481 144.281 197.503 143.668 197.776C143.002 198.072 142.627 198.503 142.544 199.068C142.464 199.624 142.665 200.443 143.147 201.525L145.015 205.718L142.999 206.616L139.128 197.927ZM146.314 187.083L148.321 186.189L151.484 193.289C151.911 192.329 152.556 191.657 153.419 191.273C154.4 190.836 155.327 190.804 156.199 191.178C156.945 191.509 157.588 192.281 158.128 193.494L160.501 198.819L158.494 199.713L156.205 194.575C155.895 193.879 155.546 193.433 155.158 193.235C154.774 193.028 154.309 193.047 153.761 193.29C153.06 193.603 152.663 194.04 152.571 194.601C152.487 195.166 152.684 195.983 153.161 197.054L155.032 201.255L153.025 202.149L146.314 187.083ZM165.586 186.141L167.603 185.243L171.473 193.932L169.457 194.83L169.052 193.92C168.569 195.061 167.853 195.844 166.901 196.268C165.7 196.803 164.513 196.811 163.341 196.292C162.168 195.753 161.285 194.821 160.695 193.495C160.114 192.192 160.02 190.933 160.413 189.718C160.805 188.503 161.587 187.634 162.758 187.112C163.769 186.662 164.862 186.674 166.036 187.149L165.586 186.141ZM162.746 192.581C163.117 193.413 163.642 193.992 164.321 194.316C165.015 194.642 165.71 194.649 166.406 194.339C167.149 194.008 167.636 193.485 167.866 192.77C168.088 192.036 168.018 191.262 167.655 190.448C167.292 189.633 166.763 189.063 166.07 188.737C165.381 188.424 164.671 188.43 163.94 188.756C163.25 189.063 162.79 189.582 162.559 190.312C162.337 191.045 162.399 191.802 162.746 192.581ZM179.511 189.153C179.363 188.82 179.356 188.478 179.492 188.125C179.627 187.773 179.864 187.521 180.203 187.37C180.542 187.219 180.888 187.211 181.24 187.346C181.593 187.481 181.844 187.719 181.995 188.058C182.149 188.402 182.158 188.751 182.023 189.104C181.891 189.447 181.653 189.696 181.308 189.85C180.957 190.006 180.609 190.018 180.266 189.886C179.922 189.755 179.67 189.51 179.511 189.153ZM191.303 185.098L185.168 171.324L187.237 170.403C188.159 169.992 188.925 169.736 189.536 169.635C190.153 169.531 190.727 169.564 191.259 169.734C191.801 169.912 192.302 170.213 192.762 170.636C193.229 171.062 193.584 171.545 193.825 172.086C194.264 173.074 194.259 174.077 193.808 175.098C194.651 175.022 195.423 175.202 196.123 175.638C196.827 176.066 197.362 176.69 197.727 177.511C198.207 178.587 198.231 179.667 197.801 180.749C197.547 181.411 197.175 181.958 196.683 182.391C196.136 182.842 195.392 183.276 194.452 183.695L191.303 185.098ZM189.881 176.313L190.532 176.023C191.305 175.678 191.795 175.257 192.001 174.759C192.21 174.253 192.166 173.666 191.869 173C191.58 172.352 191.177 171.944 190.66 171.775C190.141 171.6 189.53 171.669 188.828 171.982L188.097 172.308L189.881 176.313ZM192.512 182.218L193.796 181.646C194.736 181.227 195.344 180.736 195.619 180.171C195.906 179.566 195.912 178.957 195.64 178.345C195.375 177.75 194.929 177.35 194.303 177.144C193.691 176.939 192.827 177.085 191.708 177.583L190.656 178.052L192.512 182.218ZM204.266 168.911L206.282 168.012L210.153 176.701L208.136 177.599L207.731 176.689C207.249 177.831 206.532 178.613 205.581 179.037C204.379 179.572 203.193 179.581 202.021 179.062C200.847 178.523 199.965 177.59 199.374 176.264C198.794 174.962 198.7 173.703 199.092 172.488C199.484 171.272 200.266 170.404 201.438 169.882C202.449 169.431 203.541 169.444 204.715 169.919L204.266 168.911ZM201.426 175.35C201.797 176.183 202.322 176.761 203.001 177.086C203.695 177.411 204.389 177.419 205.085 177.109C205.828 176.778 206.315 176.255 206.545 175.539C206.767 174.806 206.697 174.032 206.334 173.217C205.971 172.402 205.443 171.832 204.749 171.507C204.061 171.194 203.351 171.2 202.619 171.526C201.929 171.833 201.469 172.352 201.238 173.082C201.016 173.815 201.079 174.571 201.426 175.35ZM208.815 166.884L210.823 165.99L211.168 166.766C211.365 166.215 211.574 165.805 211.796 165.535C212.021 165.256 212.333 165.028 212.731 164.851C213.261 164.615 213.891 164.541 214.621 164.629L214.521 166.876C214.018 166.772 213.586 166.801 213.223 166.962C212.129 167.45 211.95 168.52 212.686 170.174L214.693 174.678L212.686 175.573L208.815 166.884ZM215.934 163.713L217.941 162.819L218.287 163.595C218.483 163.044 218.693 162.634 218.914 162.364C219.14 162.085 219.451 161.857 219.85 161.68C220.379 161.444 221.009 161.37 221.74 161.458L221.639 163.705C221.137 163.601 220.704 163.63 220.342 163.791C219.247 164.279 219.068 165.349 219.805 167.002L221.812 171.507L219.805 172.401L215.934 163.713ZM225.06 159.648L228.93 168.336L226.923 169.23L223.053 160.542L225.06 159.648ZM221.14 157.064C220.984 156.713 220.976 156.353 221.118 155.983C221.26 155.614 221.509 155.349 221.866 155.19C222.229 155.029 222.595 155.019 222.965 155.161C223.332 155.297 223.596 155.546 223.758 155.909C223.919 156.271 223.929 156.638 223.787 157.007C223.651 157.374 223.402 157.638 223.039 157.8C222.677 157.962 222.31 157.972 221.941 157.83C221.571 157.688 221.304 157.433 221.14 157.064ZM227.602 158.515L229.618 157.617L229.976 158.42C230.368 157.411 231.004 156.711 231.884 156.319C232.895 155.869 233.824 155.836 234.673 156.221C235.402 156.544 236.039 157.319 236.585 158.544L238.957 163.87L236.941 164.768L234.779 159.915C234.398 159.059 234.015 158.52 233.632 158.299C233.251 158.069 232.755 158.091 232.142 158.363C231.476 158.66 231.101 159.091 231.018 159.655C230.938 160.211 231.139 161.031 231.621 162.113L233.489 166.306L231.473 167.204L227.602 158.515ZM234.788 147.67L236.795 146.776L239.958 153.877C240.385 152.917 241.03 152.245 241.893 151.86C242.874 151.423 243.801 151.392 244.673 151.766C245.419 152.096 246.062 152.868 246.602 154.081L248.975 159.407L246.968 160.301L244.679 155.163C244.369 154.467 244.02 154.02 243.632 153.822C243.248 153.616 242.783 153.634 242.235 153.878C241.534 154.191 241.137 154.628 241.045 155.189C240.961 155.753 241.158 156.571 241.635 157.641L243.506 161.843L241.499 162.737L234.788 147.67ZM254.06 146.729L256.077 145.831L259.947 154.519L257.931 155.417L257.526 154.507C257.043 155.649 256.327 156.431 255.375 156.855C254.174 157.39 252.987 157.399 251.815 156.88C250.642 156.341 249.759 155.408 249.169 154.082C248.588 152.78 248.494 151.521 248.887 150.306C249.279 149.09 250.061 148.222 251.232 147.7C252.243 147.25 253.336 147.262 254.51 147.737L254.06 146.729ZM251.22 153.168C251.591 154.001 252.116 154.579 252.795 154.904C253.489 155.229 254.184 155.237 254.88 154.927C255.623 154.596 256.11 154.073 256.34 153.357C256.562 152.624 256.492 151.85 256.129 151.035C255.766 150.22 255.237 149.65 254.544 149.325C253.855 149.012 253.145 149.018 252.414 149.344C251.724 149.651 251.264 150.17 251.033 150.9C250.811 151.633 250.873 152.389 251.22 153.168ZM267.985 149.741C267.837 149.408 267.83 149.065 267.966 148.713C268.101 148.36 268.338 148.109 268.677 147.958C269.016 147.807 269.362 147.799 269.714 147.934C270.067 148.069 270.318 148.306 270.469 148.645C270.623 148.99 270.632 149.339 270.497 149.691C270.365 150.035 270.127 150.284 269.782 150.438C269.431 150.594 269.083 150.606 268.74 150.474C268.396 150.342 268.144 150.098 267.985 149.741ZM279.777 145.685L273.642 131.912L275.711 130.99C276.633 130.58 277.399 130.324 278.01 130.223C278.627 130.119 279.201 130.152 279.733 130.321C280.275 130.5 280.776 130.801 281.236 131.223C281.703 131.649 282.058 132.133 282.299 132.674C282.738 133.661 282.733 134.665 282.282 135.686C283.125 135.609 283.897 135.79 284.597 136.226C285.301 136.654 285.836 137.278 286.201 138.099C286.681 139.175 286.705 140.254 286.275 141.337C286.021 141.999 285.649 142.546 285.157 142.979C284.61 143.43 283.866 143.864 282.926 144.283L279.777 145.685ZM278.355 136.901L279.006 136.61C279.779 136.266 280.269 135.845 280.475 135.347C280.684 134.84 280.64 134.254 280.343 133.588C280.054 132.94 279.651 132.531 279.134 132.363C278.615 132.188 278.004 132.257 277.302 132.569L276.571 132.895L278.355 136.901ZM280.986 142.806L282.27 142.234C283.21 141.815 283.818 141.323 284.093 140.759C284.38 140.154 284.387 139.545 284.114 138.932C283.849 138.338 283.403 137.937 282.777 137.732C282.165 137.527 281.301 137.673 280.182 138.171L279.13 138.64L280.986 142.806ZM292.74 129.498L294.756 128.6L298.627 137.289L296.61 138.187L296.205 137.277C295.723 138.418 295.006 139.201 294.055 139.625C292.853 140.16 291.667 140.168 290.495 139.65C289.321 139.111 288.439 138.178 287.848 136.852C287.268 135.549 287.174 134.291 287.566 133.075C287.958 131.86 288.74 130.991 289.912 130.469C290.923 130.019 292.015 130.031 293.189 130.506L292.74 129.498ZM289.9 135.938C290.271 136.77 290.796 137.349 291.475 137.674C292.169 137.999 292.863 138.007 293.559 137.697C294.302 137.366 294.789 136.842 295.019 136.127C295.241 135.394 295.171 134.62 294.808 133.805C294.445 132.99 293.917 132.42 293.223 132.095C292.535 131.781 291.825 131.788 291.093 132.113C290.403 132.421 289.943 132.939 289.712 133.669C289.49 134.403 289.553 135.159 289.9 135.938ZM297.289 127.472L299.297 126.577L299.642 127.354C299.839 126.803 300.048 126.392 300.27 126.123C300.495 125.844 300.807 125.616 301.205 125.439C301.735 125.203 302.365 125.129 303.095 125.217L302.995 127.464C302.492 127.36 302.06 127.389 301.697 127.55C300.603 128.038 300.424 129.108 301.16 130.761L303.167 135.266L301.16 136.16L297.289 127.472ZM304.408 124.3L306.415 123.406L306.761 124.182C306.957 123.632 307.167 123.221 307.389 122.951C307.614 122.673 307.925 122.445 308.324 122.267C308.853 122.032 309.483 121.958 310.214 122.046L310.113 124.293C309.611 124.189 309.178 124.217 308.816 124.379C307.721 124.866 307.542 125.937 308.279 127.59L310.286 132.095L308.279 132.989L304.408 124.3ZM313.534 120.235L317.404 128.924L315.397 129.818L311.527 121.129L313.534 120.235ZM309.614 117.652C309.458 117.301 309.45 116.941 309.592 116.571C309.734 116.201 309.983 115.937 310.34 115.778C310.703 115.616 311.069 115.607 311.439 115.748C311.806 115.884 312.07 116.133 312.232 116.496C312.393 116.859 312.403 117.225 312.261 117.595C312.126 117.962 311.876 118.226 311.513 118.388C311.151 118.549 310.784 118.559 310.415 118.417C310.045 118.276 309.778 118.02 309.614 117.652ZM316.076 119.103L318.092 118.205L318.45 119.008C318.842 117.999 319.478 117.299 320.358 116.907C321.369 116.456 322.298 116.424 323.147 116.808C323.876 117.132 324.513 117.907 325.059 119.132L327.431 124.457L325.415 125.355L323.253 120.503C322.872 119.646 322.489 119.108 322.106 118.886C321.725 118.657 321.229 118.678 320.616 118.951C319.95 119.248 319.575 119.678 319.492 120.243C319.412 120.799 319.613 121.618 320.095 122.701L321.963 126.893L319.947 127.791L316.076 119.103ZM323.262 108.258L325.269 107.364L328.432 114.465C328.859 113.504 329.504 112.832 330.367 112.448C331.348 112.011 332.275 111.979 333.147 112.354C333.893 112.684 334.536 113.456 335.076 114.669L337.449 119.995L335.442 120.889L333.153 115.751C332.843 115.055 332.494 114.608 332.106 114.41C331.722 114.203 331.257 114.222 330.709 114.466C330.008 114.778 329.611 115.215 329.519 115.777C329.435 116.341 329.632 117.159 330.109 118.229L331.98 122.431L329.973 123.325L323.262 108.258ZM342.535 107.316L344.551 106.418L348.421 115.107L346.405 116.005L346 115.095C345.517 116.236 344.801 117.019 343.849 117.443C342.648 117.978 341.461 117.986 340.289 117.468C339.116 116.929 338.233 115.996 337.643 114.67C337.062 113.368 336.968 112.109 337.361 110.893C337.753 109.678 338.535 108.809 339.706 108.288C340.717 107.837 341.81 107.849 342.984 108.324L342.535 107.316ZM339.694 113.756C340.065 114.589 340.59 115.167 341.269 115.492C341.963 115.817 342.658 115.825 343.354 115.515C344.097 115.184 344.584 114.66 344.814 113.945C345.036 113.212 344.966 112.438 344.603 111.623C344.24 110.808 343.711 110.238 343.018 109.913C342.329 109.599 341.619 109.606 340.888 109.932C340.198 110.239 339.738 110.757 339.507 111.487C339.285 112.221 339.347 112.977 339.694 113.756ZM356.459 110.329C356.311 109.996 356.304 109.653 356.44 109.301C356.575 108.948 356.812 108.696 357.151 108.545C357.49 108.394 357.836 108.386 358.188 108.522C358.541 108.657 358.792 108.894 358.943 109.233C359.097 109.578 359.106 109.927 358.971 110.279C358.839 110.623 358.601 110.872 358.256 111.025C357.905 111.182 357.557 111.194 357.214 111.062C356.87 110.93 356.618 110.686 356.459 110.329ZM368.251 106.273L362.116 92.4998L364.185 91.5779C365.107 91.1673 365.873 90.9114 366.484 90.8104C367.101 90.7068 367.675 90.7397 368.207 90.9091C368.749 91.0878 369.25 91.3885 369.71 91.8111C370.177 92.2371 370.532 92.7207 370.773 93.2619C371.213 94.2491 371.207 95.2528 370.756 96.2732C371.599 96.1971 372.371 96.3773 373.071 96.8136C373.775 97.2414 374.31 97.8656 374.675 98.6863C375.155 99.7627 375.179 100.842 374.749 101.925C374.495 102.587 374.123 103.134 373.631 103.567C373.084 104.017 372.34 104.452 371.4 104.87L368.251 106.273ZM366.829 97.4882L367.48 97.1981C368.253 96.8537 368.743 96.4326 368.949 95.9346C369.158 95.4281 369.114 94.8418 368.817 94.1758C368.528 93.5275 368.126 93.119 367.608 92.9502C367.089 92.7755 366.478 92.8444 365.776 93.1571L365.045 93.4829L366.829 97.4882ZM369.46 103.394L370.744 102.821C371.684 102.403 372.292 101.911 372.567 101.346C372.854 100.741 372.861 100.133 372.588 99.52C372.323 98.9253 371.877 98.525 371.251 98.3193C370.639 98.1143 369.775 98.2608 368.657 98.7588L367.604 99.2277L369.46 103.394ZM381.214 90.0859L383.23 89.1878L387.101 97.8765L385.085 98.7745L384.679 97.8646C384.197 99.006 383.48 99.7886 382.529 100.212C381.327 100.748 380.141 100.756 378.969 100.237C377.795 99.6983 376.913 98.7657 376.322 97.4395C375.742 96.1371 375.648 94.8782 376.04 93.6629C376.432 92.4476 377.214 91.579 378.386 91.0571C379.397 90.6067 380.489 90.619 381.663 91.094L381.214 90.0859ZM378.374 96.5255C378.745 97.3581 379.27 97.9367 379.949 98.2613C380.643 98.5866 381.337 98.5943 382.033 98.2844C382.776 97.9532 383.263 97.4299 383.493 96.7145C383.715 95.9812 383.645 95.2072 383.282 94.3924C382.919 93.5777 382.391 93.0077 381.697 92.6824C381.009 92.369 380.299 92.3752 379.567 92.7011C378.877 93.0084 378.417 93.527 378.186 94.257C377.964 94.9903 378.027 95.7464 378.374 96.5255ZM385.763 88.0593L387.771 87.1652L388.116 87.9413C388.313 87.3905 388.522 86.9801 388.744 86.7102C388.969 86.4317 389.281 86.2037 389.679 86.0262C390.209 85.7905 390.839 85.7165 391.569 85.8045L391.469 88.0514C390.966 87.9474 390.534 87.9762 390.171 88.1378C389.077 88.6253 388.898 89.6956 389.634 91.3489L391.641 95.8538L389.634 96.7479L385.763 88.0593ZM392.882 84.8882L394.889 83.9941L395.235 84.7702C395.431 84.2193 395.641 83.809 395.863 83.5391C396.088 83.2606 396.4 83.0326 396.798 82.8551C397.327 82.6193 397.957 82.5454 398.688 82.6334L398.587 84.8803C398.085 84.7763 397.652 84.8051 397.29 84.9667C396.195 85.4542 396.016 86.5245 396.753 88.1778L398.76 92.6827L396.753 93.5768L392.882 84.8882ZM402.008 80.823L405.878 89.5116L403.871 90.4057L400.001 81.7171L402.008 80.823ZM398.088 78.2394C397.932 77.8885 397.924 77.5282 398.066 77.1586C398.208 76.7889 398.457 76.5247 398.814 76.3657C399.177 76.2041 399.543 76.1942 399.913 76.336C400.28 76.4719 400.544 76.7212 400.706 77.0839C400.867 77.4467 400.877 77.8129 400.735 78.1826C400.6 78.5495 400.35 78.8138 399.987 78.9754C399.625 79.137 399.258 79.1469 398.889 79.0051C398.519 78.8633 398.252 78.6081 398.088 78.2394ZM404.55 79.6904L406.566 78.7923L406.924 79.5952C407.316 78.5868 407.952 77.8865 408.832 77.4944C409.843 77.0441 410.772 77.0112 411.621 77.3959C412.35 77.7198 412.987 78.4943 413.533 79.7194L415.905 85.045L413.889 85.9431L411.727 81.0903C411.346 80.2339 410.963 79.6952 410.58 79.4741C410.199 79.2444 409.703 79.2659 409.09 79.5388C408.424 79.8355 408.05 80.2662 407.966 80.8308C407.886 81.3868 408.087 82.2059 408.569 83.2883L410.437 87.481L408.421 88.379L404.55 79.6904ZM411.736 68.8457L413.743 67.9515L416.906 75.0523C417.333 74.0921 417.978 73.42 418.841 73.0358C419.822 72.5987 420.749 72.5672 421.621 72.9412C422.367 73.2718 423.01 74.0436 423.55 75.2568L425.923 80.5824L423.916 81.4765L421.627 76.3383C421.317 75.6425 420.968 75.1956 420.581 74.9976C420.196 74.791 419.731 74.8096 419.183 75.0533C418.482 75.3659 418.085 75.8029 417.993 76.3642C417.909 76.9288 418.106 77.7463 418.583 78.8168L420.454 83.0184L418.447 83.9125L411.736 68.8457ZM431.009 67.9041L433.025 67.006L436.895 75.6946L434.879 76.5927L434.474 75.6828C433.991 76.8242 433.275 77.6068 432.323 78.0306C431.122 78.5658 429.935 78.5741 428.763 78.0555C427.59 77.5164 426.707 76.5838 426.117 75.2576C425.536 73.9552 425.442 72.6964 425.835 71.4811C426.227 70.2657 427.009 69.3971 428.18 68.8752C429.191 68.4249 430.284 68.4372 431.458 68.9121L431.009 67.9041ZM428.168 74.3436C428.539 75.1762 429.064 75.7548 429.743 76.0795C430.437 76.4048 431.132 76.4125 431.828 76.1025C432.571 75.7714 433.058 75.2481 433.288 74.5326C433.51 73.7993 433.44 73.0253 433.077 72.2106C432.714 71.3959 432.185 70.8258 431.492 70.5005C430.803 70.1871 430.093 70.1934 429.362 70.5192C428.672 70.8265 428.212 71.3452 427.981 72.0751C427.759 72.8084 427.821 73.5646 428.168 74.3436Z" fill="black"/>
</g>
</svg>
