<svg width="749" height="559" viewBox="0 0 749 559" fill="none" xmlns="http://www.w3.org/2000/svg">
<path fill-rule="evenodd" clip-rule="evenodd" d="M553.624 427.094C535.001 506.272 501.825 558.971 463.999 558.971C426.173 558.971 392.997 506.271 374.374 427.093C355.752 506.271 322.576 558.971 284.75 558.971C246.924 558.971 213.748 506.272 195.125 427.093C176.503 506.272 143.327 558.971 105.501 558.971C47.2343 558.971 0 433.926 0 279.674C0 125.422 47.2343 0.376465 105.501 0.376465C143.327 0.376465 176.503 53.0762 195.125 132.254C213.748 53.0762 246.924 0.376465 284.75 0.376465C322.576 0.376465 355.752 53.0763 374.374 132.255C392.997 53.0763 426.173 0.376365 463.999 0.376365C501.825 0.376365 535.001 53.076 553.624 132.254C572.246 53.076 605.422 0.376365 643.248 0.376365C701.515 0.376365 748.749 125.422 748.749 279.674C748.749 433.926 701.515 558.971 643.248 558.971C605.422 558.971 572.246 506.272 553.624 427.094Z" fill="#D9D9D9"/>
<path d="M99.8828 301.434C96.242 301.434 93.1821 300.698 90.7033 299.226C88.2244 297.716 86.3459 295.605 85.0677 292.894C83.7896 290.182 83.1505 287.026 83.1505 283.423V268.202C83.1505 264.987 83.6928 262.411 84.7773 260.475C85.9005 258.538 87.5272 256.853 89.6575 255.42C87.7596 254.064 86.3072 252.535 85.3001 250.83C84.3318 249.087 83.8477 246.744 83.8477 243.8V230.205C83.8477 226.72 84.4674 223.795 85.7068 221.433C86.9463 219.031 88.7473 217.23 91.11 216.029C93.5114 214.79 96.4357 214.17 99.8828 214.17C103.446 214.17 106.409 214.79 108.772 216.029C111.135 217.23 112.916 219.031 114.117 221.433C115.318 223.795 115.918 226.72 115.918 230.205V243.8C115.918 246.744 115.434 249.087 114.465 250.83C113.497 252.535 112.045 254.064 110.108 255.42C112.277 256.853 113.904 258.538 114.988 260.475C116.073 262.411 116.615 264.987 116.615 268.202V283.423C116.615 287.064 115.976 290.24 114.698 292.952C113.42 295.663 111.541 297.754 109.062 299.226C106.583 300.698 103.524 301.434 99.8828 301.434ZM99.8828 289.931C101.006 289.931 101.897 289.64 102.555 289.059C103.253 288.478 103.679 287.645 103.834 286.561C104.027 285.438 104.163 283.908 104.24 281.971C104.356 280.034 104.414 278.078 104.414 276.103C104.414 274.283 104.356 272.424 104.24 270.526C104.163 268.628 104.027 267.079 103.834 265.878C103.601 264.638 103.156 263.709 102.497 263.089C101.878 262.469 101.006 262.16 99.8828 262.16C98.7983 262.16 97.9268 262.469 97.2684 263.089C96.6487 263.709 96.242 264.638 96.0483 265.878C95.8547 266.962 95.6997 268.492 95.5835 270.468C95.4673 272.404 95.4092 274.302 95.4092 276.161C95.4092 278.059 95.448 279.996 95.5254 281.971C95.6416 283.908 95.7772 285.438 95.9321 286.561C96.0871 287.645 96.5712 288.478 97.3846 289.059C98.198 289.64 99.0307 289.931 99.8828 289.931ZM99.8828 249.843C100.696 249.843 101.355 249.591 101.858 249.087C102.4 248.545 102.788 247.751 103.02 246.705C103.214 245.698 103.349 244.381 103.427 242.755C103.543 241.128 103.601 239.191 103.601 236.945C103.601 234.97 103.543 233.246 103.427 231.774C103.349 230.302 103.214 229.082 103.02 228.114C102.788 227.107 102.4 226.371 101.858 225.906C101.355 225.441 100.696 225.209 99.8828 225.209C99.1856 225.209 98.6047 225.422 98.1399 225.848C97.6751 226.235 97.3265 226.874 97.0941 227.765C96.823 228.695 96.6099 230.128 96.455 232.065C96.3001 233.962 96.2226 235.938 96.2226 237.991C96.2226 239.734 96.2807 241.399 96.3969 242.987C96.5131 244.536 96.668 245.776 96.8617 246.705C97.0554 247.751 97.404 248.545 97.9075 249.087C98.411 249.591 99.0694 249.843 99.8828 249.843Z" fill="#1D090B"/>
<path d="M23.5739 343.705H26.4356V353.829C27.4532 352.914 28.5767 352.456 29.8062 352.456C31.2053 352.456 32.3245 352.909 33.164 353.817C33.8762 354.605 34.2324 355.864 34.2324 357.594V365.188H31.3706V357.861C31.3706 356.869 31.1925 356.153 30.8364 355.712C30.4887 355.262 29.9249 355.038 29.1448 355.038C28.1442 355.038 27.4404 355.347 27.0334 355.966C26.6349 356.594 26.4356 357.671 26.4356 359.197V365.188H23.5739V343.705ZM37.2849 358.904C37.2849 357.115 37.9251 355.593 39.2055 354.338C40.4859 353.083 42.0461 352.456 43.8861 352.456C45.7346 352.456 47.3032 353.088 48.5921 354.351C49.864 355.614 50.4999 357.166 50.4999 359.006C50.4999 360.863 49.8598 362.419 48.5794 363.674C47.2905 364.92 45.7091 365.544 43.8352 365.544C41.9782 365.544 40.4223 364.908 39.1673 363.636C37.9124 362.381 37.2849 360.804 37.2849 358.904ZM40.2103 358.955C40.2103 360.193 40.541 361.173 41.2024 361.893C41.8807 362.623 42.7753 362.987 43.8861 362.987C45.0053 362.987 45.8999 362.627 46.5698 361.906C47.2396 361.185 47.5746 360.223 47.5746 359.019C47.5746 357.815 47.2396 356.852 46.5698 356.132C45.8914 355.402 44.9969 355.038 43.8861 355.038C42.7922 355.038 41.9062 355.402 41.2278 356.132C40.5495 356.861 40.2103 357.802 40.2103 358.955ZM60.7387 354.911L58.373 356.17C57.9999 355.407 57.5378 355.025 56.9866 355.025C56.7238 355.025 56.4991 355.114 56.3125 355.292C56.126 355.462 56.0327 355.682 56.0327 355.954C56.0327 356.428 56.5839 356.899 57.6862 357.365C59.204 358.018 60.2257 358.62 60.7514 359.171C61.2772 359.723 61.54 360.465 61.54 361.397C61.54 362.593 61.0991 363.593 60.2172 364.399C59.3608 365.162 58.3264 365.544 57.1138 365.544C55.0364 365.544 53.5652 364.53 52.7003 362.504L55.1424 361.372C55.4815 361.965 55.7402 362.343 55.9182 362.504C56.2659 362.826 56.6814 362.987 57.1647 362.987C58.1313 362.987 58.6146 362.546 58.6146 361.664C58.6146 361.156 58.2416 360.681 57.4954 360.24C57.2071 360.096 56.9188 359.956 56.6305 359.82C56.3422 359.684 56.0497 359.545 55.7529 359.4C54.9219 358.993 54.3368 358.586 53.9977 358.179C53.5652 357.662 53.349 356.996 53.349 356.182C53.349 355.106 53.7178 354.215 54.4555 353.511C55.2102 352.808 56.126 352.456 57.2028 352.456C58.7885 352.456 59.9671 353.274 60.7387 354.911ZM66.9837 371.929H64.122V352.799H66.9837V354.147C68.1115 353.02 69.3919 352.456 70.8249 352.456C72.5292 352.456 73.9325 353.083 75.0349 354.338C76.1541 355.585 76.7138 357.158 76.7138 359.057C76.7138 360.914 76.1584 362.461 75.0476 363.699C73.9453 364.929 72.5546 365.544 70.8757 365.544C69.4258 365.544 68.1284 364.963 66.9837 363.801V371.929ZM73.7884 359.07C73.7884 357.883 73.4662 356.916 72.8217 356.17C72.1688 355.415 71.3463 355.038 70.3543 355.038C69.3028 355.038 68.4507 355.402 67.7978 356.132C67.1448 356.861 66.8184 357.819 66.8184 359.006C66.8184 360.168 67.1448 361.126 67.7978 361.881C68.4422 362.618 69.2901 362.987 70.3415 362.987C71.3336 362.987 72.1519 362.614 72.7963 361.868C73.4577 361.122 73.7884 360.189 73.7884 359.07ZM91.0226 359.667H82.1448C82.2211 360.685 82.5518 361.495 83.1368 362.097C83.7219 362.69 84.4723 362.987 85.3881 362.987C86.1004 362.987 86.6897 362.818 87.156 362.478C87.6139 362.139 88.1354 361.512 88.7205 360.596L91.1371 361.944C90.764 362.58 90.3697 363.127 89.9542 363.585C89.5387 364.034 89.0936 364.407 88.6187 364.704C88.1439 364.992 87.6309 365.204 87.0797 365.34C86.5286 365.476 85.9308 365.544 85.2863 365.544C83.4379 365.544 81.954 364.95 80.8347 363.763C79.7154 362.567 79.1558 360.982 79.1558 359.006C79.1558 357.047 79.6985 355.462 80.7838 354.249C81.8777 353.054 83.3276 352.456 85.1337 352.456C86.9568 352.456 88.3983 353.037 89.4582 354.198C90.5096 355.351 91.0353 356.95 91.0353 358.993L91.0226 359.667ZM88.0845 357.327C87.686 355.801 86.7236 355.038 85.1973 355.038C84.8497 355.038 84.5232 355.093 84.218 355.203C83.9127 355.305 83.6329 355.457 83.3785 355.661C83.1326 355.856 82.9206 356.093 82.7426 356.373C82.5645 356.653 82.4288 356.971 82.3355 357.327H88.0845ZM103.296 343.705H106.171V365.188H103.296V363.89C102.169 364.992 100.893 365.544 99.468 365.544C97.7721 365.544 96.3646 364.925 95.2453 363.687C94.1345 362.423 93.5791 360.846 93.5791 358.955C93.5791 357.107 94.1345 355.563 95.2453 354.325C96.3476 353.079 97.734 352.456 99.4044 352.456C100.854 352.456 102.152 353.049 103.296 354.236V343.705ZM96.5045 358.955C96.5045 360.142 96.8225 361.109 97.4584 361.855C98.1113 362.61 98.9338 362.987 99.9259 362.987C100.986 362.987 101.842 362.623 102.495 361.893C103.148 361.139 103.474 360.18 103.474 359.019C103.474 357.857 103.148 356.899 102.495 356.144C101.842 355.407 100.994 355.038 99.9513 355.038C98.9677 355.038 98.1452 355.411 97.4838 356.157C96.8309 356.912 96.5045 357.844 96.5045 358.955ZM118.915 352.799H121.79V365.188H118.915V363.89C117.737 364.992 116.469 365.544 115.112 365.544C113.4 365.544 111.983 364.925 110.864 363.687C109.753 362.423 109.198 360.846 109.198 358.955C109.198 357.098 109.753 355.551 110.864 354.313C111.975 353.075 113.366 352.456 115.036 352.456C116.478 352.456 117.771 353.049 118.915 354.236V352.799ZM112.123 358.955C112.123 360.142 112.441 361.109 113.077 361.855C113.73 362.61 114.553 362.987 115.545 362.987C116.605 362.987 117.461 362.623 118.114 361.893C118.767 361.139 119.093 360.18 119.093 359.019C119.093 357.857 118.767 356.899 118.114 356.144C117.461 355.407 116.613 355.038 115.57 355.038C114.587 355.038 113.764 355.411 113.103 356.157C112.45 356.912 112.123 357.844 112.123 358.955ZM137.383 364.895C137.383 365.48 137.362 365.993 137.32 366.434C137.286 366.883 137.235 367.278 137.167 367.617C136.964 368.55 136.565 369.351 135.971 370.021C134.852 371.31 133.313 371.954 131.354 371.954C129.701 371.954 128.34 371.509 127.272 370.619C126.169 369.703 125.533 368.435 125.364 366.816H128.238C128.349 367.426 128.531 367.897 128.785 368.227C129.379 368.999 130.244 369.385 131.38 369.385C133.474 369.385 134.522 368.1 134.522 365.531V363.801C133.385 364.963 132.075 365.544 130.591 365.544C128.904 365.544 127.522 364.933 126.445 363.712C125.36 362.474 124.817 360.927 124.817 359.07C124.817 357.264 125.321 355.729 126.33 354.465C127.416 353.126 128.849 352.456 130.63 352.456C132.19 352.456 133.487 353.037 134.522 354.198V352.799H137.383V364.895ZM134.636 359.019C134.636 357.815 134.314 356.852 133.669 356.132C133.016 355.394 132.181 355.025 131.164 355.025C130.078 355.025 129.222 355.428 128.594 356.233C128.026 356.954 127.742 357.887 127.742 359.032C127.742 360.159 128.026 361.084 128.594 361.804C129.213 362.593 130.07 362.987 131.164 362.987C132.258 362.987 133.122 362.589 133.758 361.792C134.343 361.071 134.636 360.147 134.636 359.019ZM152.277 359.667H143.399C143.476 360.685 143.806 361.495 144.391 362.097C144.977 362.69 145.727 362.987 146.643 362.987C147.355 362.987 147.944 362.818 148.411 362.478C148.869 362.139 149.39 361.512 149.975 360.596L152.392 361.944C152.019 362.58 151.624 363.127 151.209 363.585C150.793 364.034 150.348 364.407 149.873 364.704C149.398 364.992 148.885 365.204 148.334 365.34C147.783 365.476 147.185 365.544 146.541 365.544C144.692 365.544 143.209 364.95 142.089 363.763C140.97 362.567 140.41 360.982 140.41 359.006C140.41 357.047 140.953 355.462 142.038 354.249C143.132 353.054 144.582 352.456 146.388 352.456C148.211 352.456 149.653 353.037 150.713 354.198C151.764 355.351 152.29 356.95 152.29 358.993L152.277 359.667ZM149.339 357.327C148.941 355.801 147.978 355.038 146.452 355.038C146.104 355.038 145.778 355.093 145.473 355.203C145.167 355.305 144.887 355.457 144.633 355.661C144.387 355.856 144.175 356.093 143.997 356.373C143.819 356.653 143.683 356.971 143.59 357.327H149.339ZM155.419 352.799H158.293V353.944C159.294 352.952 160.422 352.456 161.677 352.456C163.118 352.456 164.242 352.909 165.047 353.817C165.742 354.588 166.09 355.848 166.09 357.594V365.188H163.216V358.268C163.216 357.047 163.046 356.204 162.707 355.737C162.376 355.262 161.774 355.025 160.901 355.025C159.951 355.025 159.277 355.339 158.878 355.966C158.488 356.585 158.293 357.666 158.293 359.21V365.188H155.419V352.799ZM176.914 354.911L174.548 356.17C174.175 355.407 173.713 355.025 173.162 355.025C172.899 355.025 172.674 355.114 172.488 355.292C172.301 355.462 172.208 355.682 172.208 355.954C172.208 356.428 172.759 356.899 173.861 357.365C175.379 358.018 176.401 358.62 176.927 359.171C177.452 359.723 177.715 360.465 177.715 361.397C177.715 362.593 177.274 363.593 176.392 364.399C175.536 365.162 174.502 365.544 173.289 365.544C171.212 365.544 169.74 364.53 168.875 362.504L171.318 361.372C171.657 361.965 171.915 362.343 172.093 362.504C172.441 362.826 172.857 362.987 173.34 362.987C174.306 362.987 174.79 362.546 174.79 361.664C174.79 361.156 174.417 360.681 173.671 360.24C173.382 360.096 173.094 359.956 172.806 359.82C172.517 359.684 172.225 359.545 171.928 359.4C171.097 358.993 170.512 358.586 170.173 358.179C169.74 357.662 169.524 356.996 169.524 356.182C169.524 355.106 169.893 354.215 170.631 353.511C171.385 352.808 172.301 352.456 173.378 352.456C174.964 352.456 176.142 353.274 176.914 354.911Z" fill="#1D090B"/>
<path d="M283.041 301.434C279.71 301.434 276.96 300.834 274.791 299.633C272.661 298.432 270.996 296.709 269.795 294.462C268.633 292.177 267.819 289.446 267.355 286.27C266.89 283.094 266.658 279.55 266.658 275.638H279.207V279.008C279.207 282.184 279.4 284.895 279.788 287.142C280.175 289.388 281.26 290.511 283.041 290.511C284.203 290.511 285.055 289.969 285.598 288.885C286.14 287.762 286.488 286.328 286.643 284.585C286.798 282.843 286.876 281.022 286.876 279.124V260.068C286.876 258.248 286.643 256.756 286.179 255.594C285.753 254.394 284.862 253.793 283.506 253.793C282.189 253.793 281.143 254.413 280.369 255.653C279.594 256.892 279.11 258.364 278.916 260.068H267.471V215.1H297.798V227.533H278.277V245.892C279.013 245.001 279.962 244.207 281.124 243.51C282.325 242.774 283.951 242.406 286.004 242.406C288.909 242.406 291.349 243.123 293.325 244.556C295.339 245.95 296.849 247.964 297.856 250.598C298.902 253.232 299.425 256.388 299.425 260.068V279.124C299.425 282.145 299.173 285.012 298.67 287.723C298.205 290.395 297.372 292.758 296.171 294.811C294.971 296.864 293.305 298.49 291.175 299.691C289.045 300.853 286.333 301.434 283.041 301.434Z" fill="#1D090B"/>
<path d="M221.627 356.698H212.75C212.826 357.716 213.157 358.526 213.742 359.128C214.327 359.721 215.077 360.018 215.993 360.018C216.705 360.018 217.295 359.848 217.761 359.509C218.219 359.17 218.74 358.542 219.325 357.627L221.742 358.975C221.369 359.611 220.975 360.158 220.559 360.616C220.144 361.065 219.698 361.438 219.224 361.735C218.749 362.023 218.236 362.235 217.685 362.371C217.133 362.507 216.536 362.574 215.891 362.574C214.043 362.574 212.559 361.981 211.44 360.794C210.32 359.598 209.761 358.013 209.761 356.037C209.761 354.078 210.303 352.492 211.389 351.28C212.483 350.084 213.932 349.487 215.739 349.487C217.562 349.487 219.003 350.067 220.063 351.229C221.114 352.382 221.64 353.981 221.64 356.024L221.627 356.698ZM218.689 354.358C218.291 352.832 217.328 352.069 215.802 352.069C215.455 352.069 215.128 352.124 214.823 352.234C214.518 352.336 214.238 352.488 213.983 352.692C213.737 352.887 213.525 353.124 213.347 353.404C213.169 353.684 213.034 354.002 212.94 354.358H218.689ZM228.101 355.515L223.65 349.83H227.058L229.818 353.442L232.629 349.83H236.14L231.561 355.515L236.865 362.218H233.456L229.818 357.589L226.092 362.218H222.594L228.101 355.515ZM241.673 368.959H238.811V349.83H241.673V351.178C242.8 350.05 244.081 349.487 245.514 349.487C247.218 349.487 248.621 350.114 249.724 351.369C250.843 352.615 251.403 354.188 251.403 356.088C251.403 357.945 250.847 359.492 249.736 360.73C248.634 361.96 247.243 362.574 245.565 362.574C244.115 362.574 242.817 361.994 241.673 360.832V368.959ZM248.477 356.1C248.477 354.913 248.155 353.947 247.511 353.201C246.858 352.446 246.035 352.069 245.043 352.069C243.992 352.069 243.139 352.433 242.487 353.162C241.834 353.892 241.507 354.85 241.507 356.037C241.507 357.199 241.834 358.157 242.487 358.911C243.131 359.649 243.979 360.018 245.03 360.018C246.022 360.018 246.841 359.645 247.485 358.899C248.147 358.152 248.477 357.22 248.477 356.1ZM265.711 356.698H256.834C256.91 357.716 257.241 358.526 257.826 359.128C258.411 359.721 259.161 360.018 260.077 360.018C260.789 360.018 261.379 359.848 261.845 359.509C262.303 359.17 262.824 358.542 263.409 357.627L265.826 358.975C265.453 359.611 265.059 360.158 264.643 360.616C264.228 361.065 263.782 361.438 263.308 361.735C262.833 362.023 262.32 362.235 261.769 362.371C261.217 362.507 260.62 362.574 259.975 362.574C258.127 362.574 256.643 361.981 255.524 360.794C254.404 359.598 253.845 358.013 253.845 356.037C253.845 354.078 254.387 352.492 255.473 351.28C256.566 350.084 258.016 349.487 259.823 349.487C261.646 349.487 263.087 350.067 264.147 351.229C265.198 352.382 265.724 353.981 265.724 356.024L265.711 356.698ZM262.773 354.358C262.375 352.832 261.412 352.069 259.886 352.069C259.538 352.069 259.212 352.124 258.907 352.234C258.602 352.336 258.322 352.488 258.067 352.692C257.821 352.887 257.609 353.124 257.431 353.404C257.253 353.684 257.118 354.002 257.024 354.358H262.773ZM268.853 349.83H271.715V350.937C272.241 350.385 272.707 350.008 273.114 349.805C273.529 349.593 274.021 349.487 274.589 349.487C275.344 349.487 276.133 349.732 276.955 350.224L275.645 352.844C275.102 352.454 274.572 352.259 274.055 352.259C272.495 352.259 271.715 353.438 271.715 355.795V362.218H268.853V349.83ZM281.865 349.83V362.218H279.003V349.83H281.865ZM278.57 344.679C278.57 344.179 278.753 343.746 279.117 343.381C279.482 343.017 279.919 342.835 280.427 342.835C280.945 342.835 281.385 343.017 281.75 343.381C282.115 343.738 282.297 344.174 282.297 344.692C282.297 345.209 282.115 345.65 281.75 346.014C281.394 346.379 280.957 346.561 280.44 346.561C279.923 346.561 279.482 346.379 279.117 346.014C278.753 345.65 278.57 345.205 278.57 344.679ZM296.771 356.698H287.893C287.97 357.716 288.3 358.526 288.885 359.128C289.47 359.721 290.221 360.018 291.137 360.018C291.849 360.018 292.438 359.848 292.905 359.509C293.362 359.17 293.884 358.542 294.469 357.627L296.886 358.975C296.513 359.611 296.118 360.158 295.703 360.616C295.287 361.065 294.842 361.438 294.367 361.735C293.892 362.023 293.379 362.235 292.828 362.371C292.277 362.507 291.679 362.574 291.035 362.574C289.186 362.574 287.703 361.981 286.583 360.794C285.464 359.598 284.904 358.013 284.904 356.037C284.904 354.078 285.447 352.492 286.532 351.28C287.626 350.084 289.076 349.487 290.882 349.487C292.705 349.487 294.147 350.067 295.207 351.229C296.258 352.382 296.784 353.981 296.784 356.024L296.771 356.698ZM293.833 354.358C293.435 352.832 292.472 352.069 290.946 352.069C290.598 352.069 290.272 352.124 289.967 352.234C289.661 352.336 289.381 352.488 289.127 352.692C288.881 352.887 288.669 353.124 288.491 353.404C288.313 353.684 288.177 354.002 288.084 354.358H293.833ZM286.507 346.409L290.971 342.326L295.499 346.409L293.541 347.922L290.971 345.506L288.44 347.922L286.507 346.409ZM299.913 349.83H302.787V350.975C303.788 349.983 304.916 349.487 306.171 349.487C307.612 349.487 308.736 349.94 309.541 350.847C310.236 351.619 310.584 352.878 310.584 354.625V362.218H307.71V355.299C307.71 354.078 307.54 353.234 307.201 352.768C306.87 352.293 306.268 352.056 305.395 352.056C304.445 352.056 303.771 352.37 303.372 352.997C302.982 353.616 302.787 354.697 302.787 356.24V362.218H299.913V349.83ZM323.85 350.364V354.167C323.197 353.37 322.612 352.823 322.095 352.526C321.586 352.221 320.988 352.069 320.301 352.069C319.224 352.069 318.33 352.446 317.618 353.201C316.905 353.955 316.549 354.901 316.549 356.037C316.549 357.199 316.893 358.152 317.579 358.899C318.275 359.645 319.161 360.018 320.238 360.018C320.925 360.018 321.531 359.869 322.057 359.573C322.565 359.284 323.163 358.725 323.85 357.894V361.671C322.688 362.273 321.527 362.574 320.365 362.574C318.449 362.574 316.846 361.955 315.557 360.717C314.268 359.471 313.624 357.923 313.624 356.075C313.624 354.227 314.277 352.666 315.583 351.394C316.888 350.123 318.491 349.487 320.39 349.487C321.611 349.487 322.765 349.779 323.85 350.364ZM329.484 349.83V362.218H326.623V349.83H329.484ZM326.19 344.679C326.19 344.179 326.372 343.746 326.737 343.381C327.102 343.017 327.538 342.835 328.047 342.835C328.564 342.835 329.005 343.017 329.37 343.381C329.735 343.738 329.917 344.174 329.917 344.692C329.917 345.209 329.735 345.65 329.37 346.014C329.014 346.379 328.577 346.561 328.06 346.561C327.543 346.561 327.102 346.379 326.737 346.014C326.372 345.65 326.19 345.205 326.19 344.679ZM342.242 349.83H345.116V362.218H342.242V360.921C341.063 362.023 339.795 362.574 338.439 362.574C336.726 362.574 335.31 361.955 334.19 360.717C333.08 359.454 332.524 357.877 332.524 355.986C332.524 354.129 333.08 352.582 334.19 351.344C335.301 350.106 336.692 349.487 338.362 349.487C339.804 349.487 341.097 350.08 342.242 351.267V349.83ZM335.45 355.986C335.45 357.173 335.768 358.14 336.404 358.886C337.056 359.641 337.879 360.018 338.871 360.018C339.931 360.018 340.787 359.653 341.44 358.924C342.093 358.169 342.42 357.211 342.42 356.05C342.42 354.888 342.093 353.93 341.44 353.175C340.787 352.437 339.939 352.069 338.896 352.069C337.913 352.069 337.09 352.442 336.429 353.188C335.776 353.942 335.45 354.875 335.45 355.986ZM355.927 351.941L353.561 353.201C353.188 352.437 352.726 352.056 352.175 352.056C351.912 352.056 351.687 352.145 351.501 352.323C351.314 352.492 351.221 352.713 351.221 352.984C351.221 353.459 351.772 353.93 352.875 354.396C354.392 355.049 355.414 355.651 355.94 356.202C356.466 356.753 356.728 357.495 356.728 358.428C356.728 359.624 356.288 360.624 355.406 361.43C354.549 362.193 353.515 362.574 352.302 362.574C350.225 362.574 348.754 361.561 347.889 359.535L350.331 358.403C350.67 358.996 350.929 359.373 351.107 359.535C351.454 359.857 351.87 360.018 352.353 360.018C353.32 360.018 353.803 359.577 353.803 358.695C353.803 358.186 353.43 357.712 352.684 357.271C352.396 357.126 352.107 356.987 351.819 356.851C351.531 356.715 351.238 356.575 350.941 356.431C350.11 356.024 349.525 355.617 349.186 355.21C348.754 354.693 348.537 354.027 348.537 353.213C348.537 352.136 348.906 351.246 349.644 350.542C350.399 349.838 351.314 349.487 352.391 349.487C353.977 349.487 355.156 350.305 355.927 351.941ZM237.641 391.698H228.763C228.839 392.716 229.17 393.526 229.755 394.128C230.34 394.721 231.09 395.018 232.006 395.018C232.718 395.018 233.308 394.848 233.774 394.509C234.232 394.17 234.753 393.542 235.339 392.627L237.755 393.975C237.382 394.611 236.988 395.158 236.572 395.616C236.157 396.065 235.712 396.438 235.237 396.735C234.762 397.023 234.249 397.235 233.698 397.371C233.147 397.507 232.549 397.574 231.904 397.574C230.056 397.574 228.572 396.981 227.453 395.794C226.333 394.598 225.774 393.013 225.774 391.037C225.774 389.078 226.317 387.492 227.402 386.28C228.496 385.084 229.946 384.487 231.752 384.487C233.575 384.487 235.016 385.067 236.076 386.229C237.128 387.382 237.653 388.981 237.653 391.024L237.641 391.698ZM234.703 389.358C234.304 387.832 233.342 387.069 231.815 387.069C231.468 387.069 231.141 387.124 230.836 387.234C230.531 387.336 230.251 387.488 229.997 387.692C229.751 387.887 229.539 388.124 229.361 388.404C229.183 388.684 229.047 389.002 228.954 389.358H234.703ZM244.115 390.515L239.663 384.83H243.072L245.832 388.442L248.643 384.83H252.153L247.574 390.515L252.878 397.218H249.469L245.832 392.589L242.105 397.218H238.607L244.115 390.515ZM263.931 385.364V389.167C263.278 388.37 262.693 387.823 262.176 387.526C261.667 387.221 261.069 387.069 260.382 387.069C259.305 387.069 258.411 387.446 257.698 388.201C256.986 388.955 256.63 389.901 256.63 391.037C256.63 392.199 256.974 393.152 257.66 393.899C258.356 394.645 259.242 395.018 260.319 395.018C261.005 395.018 261.612 394.869 262.137 394.573C262.646 394.284 263.244 393.725 263.931 392.894V396.671C262.769 397.273 261.607 397.574 260.446 397.574C258.529 397.574 256.927 396.955 255.638 395.717C254.349 394.471 253.705 392.923 253.705 391.075C253.705 389.227 254.358 387.666 255.663 386.394C256.969 385.123 258.572 384.487 260.471 384.487C261.692 384.487 262.845 384.779 263.931 385.364ZM269.565 375.736V397.218H266.704V375.736H269.565ZM276.052 384.83V391.94C276.052 393.992 276.862 395.018 278.481 395.018C280.101 395.018 280.911 393.992 280.911 391.94V384.83H283.772V392.003C283.772 392.996 283.649 393.852 283.404 394.573C283.166 395.217 282.755 395.798 282.17 396.315C281.203 397.155 279.974 397.574 278.481 397.574C276.997 397.574 275.772 397.155 274.806 396.315C274.212 395.798 273.792 395.217 273.546 394.573C273.309 393.996 273.19 393.14 273.19 392.003V384.83H276.052ZM294.584 386.941L292.218 388.201C291.845 387.437 291.383 387.056 290.831 387.056C290.569 387.056 290.344 387.145 290.157 387.323C289.971 387.492 289.878 387.713 289.878 387.984C289.878 388.459 290.429 388.93 291.531 389.396C293.049 390.049 294.071 390.651 294.596 391.202C295.122 391.753 295.385 392.495 295.385 393.428C295.385 394.624 294.944 395.624 294.062 396.43C293.206 397.193 292.171 397.574 290.959 397.574C288.881 397.574 287.41 396.561 286.545 394.535L288.987 393.403C289.326 393.996 289.585 394.373 289.763 394.535C290.111 394.857 290.526 395.018 291.009 395.018C291.976 395.018 292.459 394.577 292.459 393.695C292.459 393.186 292.086 392.712 291.34 392.271C291.052 392.126 290.764 391.987 290.475 391.851C290.187 391.715 289.894 391.575 289.598 391.431C288.767 391.024 288.182 390.617 287.842 390.21C287.41 389.693 287.194 389.027 287.194 388.213C287.194 387.136 287.563 386.246 288.3 385.542C289.055 384.838 289.971 384.487 291.048 384.487C292.633 384.487 293.812 385.305 294.584 386.941ZM300.829 384.83V397.218H297.967V384.83H300.829ZM297.534 379.679C297.534 379.179 297.717 378.746 298.081 378.381C298.446 378.017 298.883 377.835 299.391 377.835C299.909 377.835 300.349 378.017 300.714 378.381C301.079 378.738 301.261 379.174 301.261 379.692C301.261 380.209 301.079 380.65 300.714 381.014C300.358 381.379 299.921 381.561 299.404 381.561C298.887 381.561 298.446 381.379 298.081 381.014C297.717 380.65 297.534 380.205 297.534 379.679ZM305.992 384.83L309.198 391.787L312.39 384.83H315.608L309.172 398.07L302.787 384.83H305.992ZM326.228 384.83H329.103V397.218H326.228V395.921C325.05 397.023 323.782 397.574 322.425 397.574C320.713 397.574 319.297 396.955 318.177 395.717C317.066 394.454 316.511 392.877 316.511 390.986C316.511 389.129 317.066 387.582 318.177 386.344C319.288 385.106 320.679 384.487 322.349 384.487C323.791 384.487 325.084 385.08 326.228 386.267V384.83ZM319.436 390.986C319.436 392.173 319.754 393.14 320.39 393.886C321.043 394.641 321.866 395.018 322.858 395.018C323.918 395.018 324.774 394.653 325.427 393.924C326.08 393.169 326.406 392.211 326.406 391.05C326.406 389.888 326.08 388.93 325.427 388.175C324.774 387.437 323.926 387.069 322.883 387.069C321.9 387.069 321.077 387.442 320.416 388.188C319.763 388.942 319.436 389.875 319.436 390.986ZM339.914 386.941L337.548 388.201C337.175 387.437 336.713 387.056 336.162 387.056C335.899 387.056 335.674 387.145 335.488 387.323C335.301 387.492 335.208 387.713 335.208 387.984C335.208 388.459 335.759 388.93 336.861 389.396C338.379 390.049 339.401 390.651 339.927 391.202C340.452 391.753 340.715 392.495 340.715 393.428C340.715 394.624 340.274 395.624 339.392 396.43C338.536 397.193 337.502 397.574 336.289 397.574C334.212 397.574 332.74 396.561 331.876 394.535L334.318 393.403C334.657 393.996 334.915 394.373 335.093 394.535C335.441 394.857 335.857 395.018 336.34 395.018C337.307 395.018 337.79 394.577 337.79 393.695C337.79 393.186 337.417 392.712 336.671 392.271C336.382 392.126 336.094 391.987 335.806 391.851C335.517 391.715 335.225 391.575 334.928 391.431C334.097 391.024 333.512 390.617 333.173 390.21C332.74 389.693 332.524 389.027 332.524 388.213C332.524 387.136 332.893 386.246 333.631 385.542C334.385 384.838 335.301 384.487 336.378 384.487C337.964 384.487 339.142 385.305 339.914 386.941Z" fill="#1D090B"/>
<path d="M442.604 300.504V233.575H434.238V225.558C437.182 224.977 439.816 223.795 442.14 222.014C444.464 220.232 446.284 217.927 447.601 215.1H455.154V300.504H442.604ZM479.698 301.434C476.367 301.434 473.617 300.834 471.448 299.633C469.318 298.432 467.653 296.709 466.452 294.462C465.29 292.177 464.477 289.446 464.012 286.27C463.547 283.094 463.315 279.55 463.315 275.638H475.864V279.008C475.864 282.184 476.058 284.895 476.445 287.142C476.832 289.388 477.917 290.511 479.698 290.511C480.86 290.511 481.712 289.969 482.255 288.885C482.797 287.762 483.146 286.328 483.3 284.585C483.455 282.843 483.533 281.022 483.533 279.124V260.068C483.533 258.248 483.3 256.756 482.836 255.594C482.41 254.394 481.519 253.793 480.163 253.793C478.846 253.793 477.8 254.413 477.026 255.653C476.251 256.892 475.767 258.364 475.573 260.068H464.128V215.1H494.455V227.533H474.934V245.892C475.67 245.001 476.619 244.207 477.781 243.51C478.982 242.774 480.609 242.406 482.661 242.406C485.566 242.406 488.006 243.123 489.982 244.556C491.996 245.95 493.506 247.964 494.513 250.598C495.559 253.232 496.082 256.388 496.082 260.068V279.124C496.082 282.145 495.83 285.012 495.327 287.723C494.862 290.395 494.029 292.758 492.829 294.811C491.628 296.864 489.962 298.49 487.832 299.691C485.702 300.853 482.991 301.434 479.698 301.434Z" fill="#1D090B"/>
<path d="M434.562 359.667H425.684C425.76 360.685 426.091 361.495 426.676 362.097C427.261 362.69 428.012 362.987 428.928 362.987C429.64 362.987 430.229 362.818 430.695 362.478C431.153 362.139 431.675 361.512 432.26 360.596L434.676 361.944C434.303 362.58 433.909 363.127 433.494 363.585C433.078 364.034 432.633 364.407 432.158 364.704C431.683 364.992 431.17 365.204 430.619 365.34C430.068 365.476 429.47 365.544 428.826 365.544C426.977 365.544 425.493 364.95 424.374 363.763C423.255 362.567 422.695 360.982 422.695 359.006C422.695 357.047 423.238 355.462 424.323 354.249C425.417 353.054 426.867 352.456 428.673 352.456C430.496 352.456 431.938 353.037 432.998 354.198C434.049 355.351 434.575 356.95 434.575 358.993L434.562 359.667ZM431.624 357.327C431.225 355.801 430.263 355.038 428.737 355.038C428.389 355.038 428.063 355.093 427.757 355.203C427.452 355.305 427.172 355.457 426.918 355.661C426.672 355.856 426.46 356.093 426.282 356.373C426.104 356.653 425.968 356.971 425.875 357.327H431.624ZM438.785 352.799L441.99 359.756L445.182 352.799H448.4L441.964 366.04L435.58 352.799H438.785ZM461.17 359.667H452.292C452.369 360.685 452.699 361.495 453.284 362.097C453.869 362.69 454.62 362.987 455.536 362.987C456.248 362.987 456.837 362.818 457.304 362.478C457.761 362.139 458.283 361.512 458.868 360.596L461.285 361.944C460.912 362.58 460.517 363.127 460.102 363.585C459.686 364.034 459.241 364.407 458.766 364.704C458.291 364.992 457.778 365.204 457.227 365.34C456.676 365.476 456.078 365.544 455.434 365.544C453.585 365.544 452.101 364.95 450.982 363.763C449.863 362.567 449.303 360.982 449.303 359.006C449.303 357.047 449.846 355.462 450.931 354.249C452.025 353.054 453.475 352.456 455.281 352.456C457.104 352.456 458.546 353.037 459.606 354.198C460.657 355.351 461.183 356.95 461.183 358.993L461.17 359.667ZM458.232 357.327C457.834 355.801 456.871 355.038 455.345 355.038C454.997 355.038 454.671 355.093 454.365 355.203C454.06 355.305 453.78 355.457 453.526 355.661C453.28 355.856 453.068 356.093 452.89 356.373C452.712 356.653 452.576 356.971 452.483 357.327H458.232ZM464.312 352.799H467.186V353.944C468.187 352.952 469.315 352.456 470.569 352.456C472.011 352.456 473.134 352.909 473.94 353.817C474.635 354.588 474.983 355.848 474.983 357.594V365.188H472.108V358.268C472.108 357.047 471.939 356.204 471.6 355.737C471.269 355.262 470.667 355.025 469.794 355.025C468.844 355.025 468.17 355.339 467.771 355.966C467.381 356.585 467.186 357.666 467.186 359.21V365.188H464.312V352.799ZM481.559 355.47V365.188H478.697V355.47H477.476V352.799H478.697V348.259H481.559V352.799H483.784V355.47H481.559ZM485.323 358.904C485.323 357.115 485.964 355.593 487.244 354.338C488.524 353.083 490.085 352.456 491.925 352.456C493.773 352.456 495.342 353.088 496.631 354.351C497.903 355.614 498.538 357.166 498.538 359.006C498.538 360.863 497.898 362.419 496.618 363.674C495.329 364.92 493.748 365.544 491.874 365.544C490.017 365.544 488.461 364.908 487.206 363.636C485.951 362.381 485.323 360.804 485.323 358.904ZM488.249 358.955C488.249 360.193 488.58 361.173 489.241 361.893C489.919 362.623 490.814 362.987 491.925 362.987C493.044 362.987 493.938 362.627 494.608 361.906C495.278 361.185 495.613 360.223 495.613 359.019C495.613 357.815 495.278 356.852 494.608 356.132C493.93 355.402 493.035 355.038 491.925 355.038C490.831 355.038 489.945 355.402 489.266 356.132C488.588 356.861 488.249 357.802 488.249 358.955ZM508.777 354.911L506.412 356.17C506.038 355.407 505.576 355.025 505.025 355.025C504.762 355.025 504.538 355.114 504.351 355.292C504.165 355.462 504.071 355.682 504.071 355.954C504.071 356.428 504.622 356.899 505.725 357.365C507.243 358.018 508.264 358.62 508.79 359.171C509.316 359.723 509.579 360.465 509.579 361.397C509.579 362.593 509.138 363.593 508.256 364.399C507.399 365.162 506.365 365.544 505.152 365.544C503.075 365.544 501.604 364.53 500.739 362.504L503.181 361.372C503.52 361.965 503.779 362.343 503.957 362.504C504.304 362.826 504.72 362.987 505.203 362.987C506.17 362.987 506.653 362.546 506.653 361.664C506.653 361.156 506.28 360.681 505.534 360.24C505.246 360.096 504.957 359.956 504.669 359.82C504.381 359.684 504.088 359.545 503.791 359.4C502.96 358.993 502.375 358.586 502.036 358.179C501.604 357.662 501.388 356.996 501.388 356.182C501.388 355.106 501.756 354.215 502.494 353.511C503.249 352.808 504.165 352.456 505.241 352.456C506.827 352.456 508.006 353.274 508.777 354.911ZM438.454 387.799H441.329V400.188H438.454V398.89C437.275 399.992 436.008 400.544 434.651 400.544C432.938 400.544 431.522 399.925 430.403 398.687C429.292 397.423 428.737 395.846 428.737 393.955C428.737 392.098 429.292 390.551 430.403 389.313C431.514 388.075 432.904 387.456 434.575 387.456C436.016 387.456 437.309 388.049 438.454 389.236V387.799ZM431.662 393.955C431.662 395.142 431.98 396.109 432.616 396.855C433.269 397.61 434.091 397.987 435.084 397.987C436.143 397.987 437 397.623 437.653 396.893C438.306 396.139 438.632 395.18 438.632 394.019C438.632 392.857 438.306 391.899 437.653 391.144C437 390.407 436.152 390.038 435.109 390.038C434.125 390.038 433.303 390.411 432.641 391.157C431.989 391.912 431.662 392.844 431.662 393.955ZM444.941 387.799H447.815V388.944C448.816 387.952 449.944 387.456 451.198 387.456C452.64 387.456 453.763 387.909 454.569 388.817C455.264 389.588 455.612 390.848 455.612 392.594V400.188H452.737V393.268C452.737 392.047 452.568 391.204 452.229 390.737C451.898 390.262 451.296 390.025 450.423 390.025C449.473 390.025 448.799 390.339 448.4 390.966C448.01 391.585 447.815 392.666 447.815 394.21V400.188H444.941V387.799ZM462.099 387.799V394.909C462.099 396.961 462.908 397.987 464.528 397.987C466.147 397.987 466.957 396.961 466.957 394.909V387.799H469.819V394.973C469.819 395.965 469.696 396.821 469.45 397.542C469.213 398.186 468.802 398.767 468.216 399.284C467.25 400.124 466.02 400.544 464.528 400.544C463.044 400.544 461.819 400.124 460.852 399.284C460.259 398.767 459.839 398.186 459.593 397.542C459.356 396.965 459.237 396.109 459.237 394.973V387.799H462.099ZM482.563 387.799H485.438V400.188H482.563V398.89C481.385 399.992 480.117 400.544 478.76 400.544C477.048 400.544 475.632 399.925 474.512 398.687C473.402 397.423 472.846 395.846 472.846 393.955C472.846 392.098 473.402 390.551 474.512 389.313C475.623 388.075 477.014 387.456 478.684 387.456C480.126 387.456 481.419 388.049 482.563 389.236V387.799ZM475.772 393.955C475.772 395.142 476.089 396.109 476.725 396.855C477.378 397.61 478.201 397.987 479.193 397.987C480.253 397.987 481.109 397.623 481.762 396.893C482.415 396.139 482.742 395.18 482.742 394.019C482.742 392.857 482.415 391.899 481.762 391.144C481.109 390.407 480.261 390.038 479.218 390.038C478.235 390.038 477.412 390.411 476.751 391.157C476.098 391.912 475.772 392.844 475.772 393.955ZM491.912 387.799V400.188H489.05V387.799H491.912ZM488.618 382.648C488.618 382.148 488.8 381.715 489.165 381.351C489.529 380.986 489.966 380.804 490.475 380.804C490.992 380.804 491.433 380.986 491.797 381.351C492.162 381.707 492.344 382.144 492.344 382.661C492.344 383.178 492.162 383.619 491.797 383.984C491.441 384.348 491.005 384.53 490.487 384.53C489.97 384.53 489.529 384.348 489.165 383.984C488.8 383.619 488.618 383.174 488.618 382.648ZM502.736 389.911L500.37 391.17C499.997 390.407 499.535 390.025 498.984 390.025C498.721 390.025 498.496 390.114 498.31 390.292C498.123 390.462 498.03 390.682 498.03 390.954C498.03 391.428 498.581 391.899 499.683 392.365C501.201 393.018 502.223 393.62 502.748 394.171C503.274 394.723 503.537 395.465 503.537 396.397C503.537 397.593 503.096 398.593 502.214 399.399C501.358 400.162 500.323 400.544 499.111 400.544C497.033 400.544 495.562 399.53 494.697 397.504L497.139 396.372C497.479 396.965 497.737 397.343 497.915 397.504C498.263 397.826 498.678 397.987 499.162 397.987C500.128 397.987 500.612 397.546 500.612 396.664C500.612 396.156 500.239 395.681 499.492 395.24C499.204 395.096 498.916 394.956 498.628 394.82C498.339 394.684 498.047 394.545 497.75 394.4C496.919 393.993 496.334 393.586 495.995 393.179C495.562 392.662 495.346 391.996 495.346 391.182C495.346 390.106 495.715 389.215 496.453 388.511C497.207 387.808 498.123 387.456 499.2 387.456C500.786 387.456 501.964 388.274 502.736 389.911Z" fill="#1D090B"/>
<path d="M574.997 300.504V233.575H566.631V225.558C569.574 224.977 572.208 223.795 574.532 222.014C576.856 220.232 578.676 217.927 579.993 215.1H587.546V300.504H574.997ZM612.788 301.434C609.224 301.434 606.184 300.621 603.666 298.994C601.188 297.367 599.29 295.159 597.973 292.371C596.695 289.543 596.056 286.406 596.056 282.959V232.646C596.056 229.16 596.714 226.022 598.031 223.234C599.387 220.445 601.323 218.237 603.841 216.61C606.358 214.984 609.341 214.17 612.788 214.17C616.274 214.17 619.256 215.003 621.735 216.669C624.253 218.295 626.17 220.503 627.487 223.292C628.842 226.08 629.52 229.198 629.52 232.646V282.959C629.52 286.406 628.842 289.543 627.487 292.371C626.131 295.159 624.194 297.367 621.677 298.994C619.198 300.621 616.235 301.434 612.788 301.434ZM612.788 289.233C614.26 289.233 615.325 288.614 615.983 287.374C616.642 286.096 616.971 284.624 616.971 282.959V232.646C616.971 230.941 616.642 229.47 615.983 228.23C615.325 226.991 614.26 226.371 612.788 226.371C611.316 226.371 610.251 227.029 609.592 228.346C608.934 229.624 608.605 231.058 608.605 232.646V282.959C608.605 284.624 608.934 286.096 609.592 287.374C610.251 288.614 611.316 289.233 612.788 289.233ZM653.865 301.434C650.302 301.434 647.261 300.621 644.744 298.994C642.265 297.367 640.367 295.159 639.05 292.371C637.772 289.543 637.133 286.406 637.133 282.959V232.646C637.133 229.16 637.791 226.022 639.108 223.234C640.464 220.445 642.4 218.237 644.918 216.61C647.436 214.984 650.418 214.17 653.865 214.17C657.351 214.17 660.333 215.003 662.812 216.669C665.33 218.295 667.247 220.503 668.564 223.292C669.92 226.08 670.597 229.198 670.597 232.646V282.959C670.597 286.406 669.92 289.543 668.564 292.371C667.208 295.159 665.272 297.367 662.754 298.994C660.275 300.621 657.312 301.434 653.865 301.434ZM653.865 289.233C655.337 289.233 656.402 288.614 657.061 287.374C657.719 286.096 658.048 284.624 658.048 282.959V232.646C658.048 230.941 657.719 229.47 657.061 228.23C656.402 226.991 655.337 226.371 653.865 226.371C652.393 226.371 651.328 227.029 650.67 228.346C650.011 229.624 649.682 231.058 649.682 232.646V282.959C649.682 284.624 650.011 286.096 650.67 287.374C651.328 288.614 652.393 289.233 653.865 289.233ZM683.846 300.504L715.219 215.1H722.655L691.631 300.504H683.846ZM687.099 259.371C684.233 259.371 681.967 258.422 680.302 256.524C678.675 254.587 677.862 252.128 677.862 249.145V224.454C677.862 221.471 678.675 219.012 680.302 217.075C681.967 215.139 684.233 214.17 687.099 214.17C689.927 214.17 692.173 215.139 693.839 217.075C695.504 219.012 696.337 221.471 696.337 224.454V249.145C696.337 252.128 695.504 254.587 693.839 256.524C692.173 258.422 689.927 259.371 687.099 259.371ZM687.099 253.154C687.99 253.154 688.61 252.786 688.958 252.05C689.307 251.276 689.481 250.307 689.481 249.145V224.454C689.481 223.253 689.307 222.285 688.958 221.549C688.61 220.813 687.99 220.445 687.099 220.445C686.17 220.445 685.511 220.813 685.124 221.549C684.775 222.246 684.601 223.214 684.601 224.454V249.145C684.601 250.346 684.775 251.315 685.124 252.05C685.511 252.786 686.17 253.154 687.099 253.154ZM719.75 301.434C716.884 301.434 714.618 300.485 712.953 298.587C711.326 296.651 710.513 294.191 710.513 291.209V266.517C710.513 263.535 711.326 261.075 712.953 259.138C714.618 257.202 716.884 256.233 719.75 256.233C722.578 256.233 724.824 257.202 726.49 259.138C728.155 261.075 728.988 263.535 728.988 266.517V291.209C728.988 294.191 728.155 296.651 726.49 298.587C724.824 300.485 722.578 301.434 719.75 301.434ZM719.75 295.217C720.641 295.217 721.261 294.849 721.61 294.114C721.958 293.339 722.132 292.371 722.132 291.209V266.517C722.132 265.316 721.958 264.348 721.61 263.612C721.261 262.876 720.641 262.508 719.75 262.508C718.821 262.508 718.162 262.876 717.775 263.612C717.427 264.309 717.252 265.277 717.252 266.517V291.209C717.252 292.409 717.427 293.378 717.775 294.114C718.162 294.849 718.821 295.217 719.75 295.217Z" fill="#1D090B"/>
<path d="M589.956 352.799V365.188H587.094V352.799H589.956ZM586.662 347.648C586.662 347.148 586.844 346.715 587.209 346.351C587.573 345.986 588.01 345.804 588.519 345.804C589.036 345.804 589.477 345.986 589.841 346.351C590.206 346.707 590.388 347.144 590.388 347.661C590.388 348.178 590.206 348.619 589.841 348.984C589.485 349.348 589.049 349.53 588.531 349.53C588.014 349.53 587.573 349.348 587.209 348.984C586.844 348.619 586.662 348.174 586.662 347.648ZM593.581 352.799H596.455V353.944C597.456 352.952 598.584 352.456 599.839 352.456C601.28 352.456 602.404 352.909 603.209 353.817C603.904 354.588 604.252 355.848 604.252 357.594V365.188H601.378V358.268C601.378 357.047 601.208 356.204 600.869 355.737C600.538 355.262 599.936 355.025 599.063 355.025C598.113 355.025 597.439 355.339 597.04 355.966C596.65 356.585 596.455 357.666 596.455 359.21V365.188H593.581V352.799ZM610.828 355.47V365.188H607.966V355.47H606.745V352.799H607.966V348.259H610.828V352.799H613.054V355.47H610.828ZM626.51 359.667H617.632C617.709 360.685 618.039 361.495 618.625 362.097C619.21 362.69 619.96 362.987 620.876 362.987C621.588 362.987 622.177 362.818 622.644 362.478C623.102 362.139 623.623 361.512 624.208 360.596L626.625 361.944C626.252 362.58 625.857 363.127 625.442 363.585C625.026 364.034 624.581 364.407 624.106 364.704C623.632 364.992 623.119 365.204 622.567 365.34C622.016 365.476 621.418 365.544 620.774 365.544C618.926 365.544 617.442 364.95 616.322 363.763C615.203 362.567 614.643 360.982 614.643 359.006C614.643 357.047 615.186 355.462 616.271 354.249C617.365 353.054 618.815 352.456 620.621 352.456C622.444 352.456 623.886 353.037 624.946 354.198C625.997 355.351 626.523 356.95 626.523 358.993L626.51 359.667ZM623.572 357.327C623.174 355.801 622.211 355.038 620.685 355.038C620.337 355.038 620.011 355.093 619.706 355.203C619.4 355.305 619.121 355.457 618.866 355.661C618.62 355.856 618.408 356.093 618.23 356.373C618.052 356.653 617.916 356.971 617.823 357.327H623.572ZM641.633 364.895C641.633 365.48 641.612 365.993 641.57 366.434C641.536 366.883 641.485 367.278 641.417 367.617C641.213 368.55 640.815 369.351 640.221 370.021C639.102 371.31 637.563 371.954 635.604 371.954C633.951 371.954 632.59 371.509 631.522 370.619C630.419 369.703 629.783 368.435 629.614 366.816H632.488C632.598 367.426 632.781 367.897 633.035 368.227C633.629 368.999 634.494 369.385 635.63 369.385C637.724 369.385 638.771 368.1 638.771 365.531V363.801C637.635 364.963 636.325 365.544 634.841 365.544C633.154 365.544 631.772 364.933 630.695 363.712C629.609 362.474 629.067 360.927 629.067 359.07C629.067 357.264 629.571 355.729 630.58 354.465C631.666 353.126 633.099 352.456 634.879 352.456C636.44 352.456 637.737 353.037 638.771 354.198V352.799H641.633V364.895ZM638.886 359.019C638.886 357.815 638.564 356.852 637.919 356.132C637.266 355.394 636.431 355.025 635.414 355.025C634.328 355.025 633.472 355.428 632.844 356.233C632.276 356.954 631.992 357.887 631.992 359.032C631.992 360.159 632.276 361.084 632.844 361.804C633.463 362.593 634.32 362.987 635.414 362.987C636.507 362.987 637.372 362.589 638.008 361.792C638.593 361.071 638.886 360.147 638.886 359.019ZM645.245 352.799H648.107V353.906C648.633 353.355 649.099 352.977 649.506 352.774C649.922 352.562 650.413 352.456 650.982 352.456C651.736 352.456 652.525 352.702 653.347 353.194L652.037 355.814C651.495 355.424 650.965 355.229 650.447 355.229C648.887 355.229 648.107 356.407 648.107 358.764V365.188H645.245V352.799ZM663.942 352.799H666.817V365.188H663.942V363.89C662.764 364.992 661.496 365.544 660.139 365.544C658.426 365.544 657.01 364.925 655.891 363.687C654.78 362.423 654.225 360.846 654.225 358.955C654.225 357.098 654.78 355.551 655.891 354.313C657.002 353.075 658.393 352.456 660.063 352.456C661.504 352.456 662.798 353.049 663.942 354.236V352.799ZM657.15 358.955C657.15 360.142 657.468 361.109 658.104 361.855C658.757 362.61 659.58 362.987 660.572 362.987C661.632 362.987 662.488 362.623 663.141 361.893C663.794 361.139 664.12 360.18 664.12 359.019C664.12 357.857 663.794 356.899 663.141 356.144C662.488 355.407 661.64 355.038 660.597 355.038C659.614 355.038 658.791 355.411 658.13 356.157C657.477 356.912 657.15 357.844 657.15 358.955ZM680.07 353.333V357.136C679.417 356.339 678.832 355.792 678.315 355.496C677.806 355.19 677.208 355.038 676.521 355.038C675.444 355.038 674.55 355.415 673.838 356.17C673.125 356.924 672.769 357.87 672.769 359.006C672.769 360.168 673.113 361.122 673.799 361.868C674.495 362.614 675.381 362.987 676.458 362.987C677.145 362.987 677.751 362.839 678.277 362.542C678.785 362.254 679.383 361.694 680.07 360.863V364.641C678.908 365.243 677.747 365.544 676.585 365.544C674.669 365.544 673.066 364.925 671.777 363.687C670.488 362.44 669.844 360.893 669.844 359.044C669.844 357.196 670.497 355.636 671.803 354.364C673.108 353.092 674.711 352.456 676.61 352.456C677.831 352.456 678.985 352.748 680.07 353.333ZM677.704 367.719L674.664 371.611L672.807 370.682L675.338 366.752L677.704 367.719ZM691.975 352.799H694.849V365.188H691.975V363.89C690.796 364.992 689.529 365.544 688.172 365.544C686.459 365.544 685.043 364.925 683.924 363.687C682.813 362.423 682.258 360.846 682.258 358.955C682.258 357.098 682.813 355.551 683.924 354.313C685.035 353.075 686.425 352.456 688.096 352.456C689.537 352.456 690.83 353.049 691.975 354.236V352.799ZM685.183 358.955C685.183 360.142 685.501 361.109 686.137 361.855C686.79 362.61 687.612 362.987 688.604 362.987C689.664 362.987 690.521 362.623 691.174 361.893C691.826 361.139 692.153 360.18 692.153 359.019C692.153 357.857 691.826 356.899 691.174 356.144C690.521 355.407 689.673 355.038 688.63 355.038C687.646 355.038 686.824 355.411 686.162 356.157C685.509 356.912 685.183 357.844 685.183 358.955ZM685.488 350.688L683.822 349.276L684.191 348.755C684.428 348.415 684.657 348.131 684.878 347.902C685.098 347.665 685.323 347.474 685.552 347.33C685.781 347.177 686.018 347.071 686.264 347.012C686.51 346.944 686.777 346.91 687.065 346.91C687.727 346.91 688.494 347.131 689.367 347.572C690.249 348.021 690.817 348.246 691.072 348.246C691.547 348.246 692.072 347.788 692.649 346.872L694.264 348.22C693.45 349.848 692.348 350.662 690.957 350.662C690.482 350.662 689.707 350.425 688.63 349.95C687.858 349.56 687.282 349.365 686.9 349.365C686.434 349.365 685.963 349.806 685.488 350.688ZM697.876 358.904C697.876 357.115 698.517 355.593 699.797 354.338C701.077 353.083 702.638 352.456 704.478 352.456C706.326 352.456 707.895 353.088 709.184 354.351C710.456 355.614 711.091 357.166 711.091 359.006C711.091 360.863 710.451 362.419 709.171 363.674C707.882 364.92 706.301 365.544 704.427 365.544C702.57 365.544 701.014 364.908 699.759 363.636C698.504 362.381 697.876 360.804 697.876 358.904ZM700.802 358.955C700.802 360.193 701.133 361.173 701.794 361.893C702.472 362.623 703.367 362.987 704.478 362.987C705.597 362.987 706.491 362.627 707.161 361.906C707.831 361.185 708.166 360.223 708.166 359.019C708.166 357.815 707.831 356.852 707.161 356.132C706.483 355.402 705.588 355.038 704.478 355.038C703.384 355.038 702.498 355.402 701.819 356.132C701.141 356.861 700.802 357.802 700.802 358.955ZM590.808 388.333V392.136C590.155 391.339 589.57 390.792 589.053 390.496C588.544 390.19 587.946 390.038 587.26 390.038C586.183 390.038 585.288 390.415 584.576 391.17C583.864 391.924 583.507 392.87 583.507 394.006C583.507 395.168 583.851 396.122 584.538 396.868C585.233 397.614 586.119 397.987 587.196 397.987C587.883 397.987 588.489 397.839 589.015 397.542C589.523 397.254 590.121 396.694 590.808 395.863V399.641C589.646 400.243 588.485 400.544 587.323 400.544C585.407 400.544 583.804 399.925 582.515 398.687C581.226 397.44 580.582 395.893 580.582 394.044C580.582 392.196 581.235 390.636 582.541 389.364C583.847 388.092 585.449 387.456 587.349 387.456C588.57 387.456 589.723 387.748 590.808 388.333ZM592.996 393.904C592.996 392.115 593.636 390.593 594.916 389.338C596.197 388.083 597.757 387.456 599.597 387.456C601.445 387.456 603.014 388.088 604.303 389.351C605.575 390.614 606.211 392.166 606.211 394.006C606.211 395.863 605.571 397.419 604.29 398.674C603.001 399.92 601.42 400.544 599.546 400.544C597.689 400.544 596.133 399.908 594.878 398.636C593.623 397.381 592.996 395.804 592.996 393.904ZM595.921 393.955C595.921 395.193 596.252 396.173 596.913 396.893C597.592 397.623 598.486 397.987 599.597 397.987C600.716 397.987 601.611 397.627 602.281 396.906C602.95 396.185 603.285 395.223 603.285 394.019C603.285 392.815 602.95 391.852 602.281 391.132C601.602 390.402 600.708 390.038 599.597 390.038C598.503 390.038 597.617 390.402 596.939 391.132C596.26 391.861 595.921 392.802 595.921 393.955ZM609.251 387.799H612.112V388.944C612.664 388.367 613.134 387.977 613.524 387.774C613.94 387.562 614.461 387.456 615.089 387.456C616.488 387.456 617.594 388.066 618.408 389.287C619.307 388.066 620.524 387.456 622.059 387.456C624.848 387.456 626.243 389.147 626.243 392.531V400.188H623.369V393.307C623.369 392.119 623.225 391.28 622.936 390.788C622.639 390.288 622.152 390.038 621.474 390.038C620.685 390.038 620.108 390.335 619.744 390.928C619.388 391.522 619.21 392.476 619.21 393.79V400.188H616.335V393.345C616.335 391.14 615.699 390.038 614.427 390.038C613.622 390.038 613.032 390.339 612.659 390.941C612.295 391.543 612.112 392.493 612.112 393.79V400.188H609.251V387.799ZM632.717 387.799V394.909C632.717 396.961 633.527 397.987 635.146 397.987C636.766 397.987 637.576 396.961 637.576 394.909V387.799H640.438V394.973C640.438 395.965 640.315 396.821 640.069 397.542C639.831 398.186 639.42 398.767 638.835 399.284C637.868 400.124 636.639 400.544 635.146 400.544C633.663 400.544 632.437 400.124 631.471 399.284C630.877 398.767 630.457 398.186 630.211 397.542C629.974 396.965 629.855 396.109 629.855 394.973V387.799H632.717ZM644.05 387.799H646.924V388.944C647.925 387.952 649.053 387.456 650.307 387.456C651.749 387.456 652.872 387.909 653.678 388.817C654.373 389.588 654.721 390.848 654.721 392.594V400.188H651.846V393.268C651.846 392.047 651.677 391.204 651.338 390.737C651.007 390.262 650.405 390.025 649.532 390.025C648.582 390.025 647.908 390.339 647.509 390.966C647.119 391.585 646.924 392.666 646.924 394.21V400.188H644.05V387.799ZM661.208 387.799V400.188H658.346V387.799H661.208ZM657.913 382.648C657.913 382.148 658.096 381.715 658.46 381.351C658.825 380.986 659.262 380.804 659.77 380.804C660.288 380.804 660.729 380.986 661.093 381.351C661.458 381.707 661.64 382.144 661.64 382.661C661.64 383.178 661.458 383.619 661.093 383.984C660.737 384.348 660.3 384.53 659.783 384.53C659.266 384.53 658.825 384.348 658.46 383.984C658.096 383.619 657.913 383.174 657.913 382.648ZM667.783 390.47V400.188H664.922V390.47H663.701V387.799H664.922V383.259H667.783V387.799H670.009V390.47H667.783ZM681.316 387.799H684.191V400.188H681.316V398.89C680.138 399.992 678.87 400.544 677.513 400.544C675.801 400.544 674.384 399.925 673.265 398.687C672.154 397.423 671.599 395.846 671.599 393.955C671.599 392.098 672.154 390.551 673.265 389.313C674.376 388.075 675.767 387.456 677.437 387.456C678.879 387.456 680.172 388.049 681.316 389.236V387.799ZM674.524 393.955C674.524 395.142 674.842 396.109 675.478 396.855C676.131 397.61 676.954 397.987 677.946 397.987C679.006 397.987 679.862 397.623 680.515 396.893C681.168 396.139 681.494 395.18 681.494 394.019C681.494 392.857 681.168 391.899 680.515 391.144C679.862 390.407 679.014 390.038 677.971 390.038C676.988 390.038 676.165 390.411 675.504 391.157C674.851 391.912 674.524 392.844 674.524 393.955ZM682.576 381.694L677.946 385.891L676.381 384.925L679.879 380.295L682.576 381.694ZM687.803 387.799H690.665V388.906C691.191 388.355 691.657 387.977 692.064 387.774C692.479 387.562 692.971 387.456 693.539 387.456C694.294 387.456 695.083 387.702 695.905 388.194L694.595 390.814C694.052 390.424 693.522 390.229 693.005 390.229C691.445 390.229 690.665 391.407 690.665 393.764V400.188H687.803V387.799ZM700.815 387.799V400.188H697.953V387.799H700.815ZM697.52 382.648C697.52 382.148 697.703 381.715 698.067 381.351C698.432 380.986 698.869 380.804 699.377 380.804C699.895 380.804 700.335 380.986 700.7 381.351C701.065 381.707 701.247 382.144 701.247 382.661C701.247 383.178 701.065 383.619 700.7 383.984C700.344 384.348 699.907 384.53 699.39 384.53C698.873 384.53 698.432 384.348 698.067 383.984C697.703 383.619 697.52 383.174 697.52 382.648ZM713.572 387.799H716.446V400.188H713.572V398.89C712.393 399.992 711.125 400.544 709.769 400.544C708.056 400.544 706.64 399.925 705.521 398.687C704.41 397.423 703.854 395.846 703.854 393.955C703.854 392.098 704.41 390.551 705.521 389.313C706.631 388.075 708.022 387.456 709.692 387.456C711.134 387.456 712.427 388.049 713.572 389.236V387.799ZM706.78 393.955C706.78 395.142 707.098 396.109 707.734 396.855C708.387 397.61 709.209 397.987 710.201 397.987C711.261 397.987 712.117 397.623 712.77 396.893C713.423 396.139 713.75 395.18 713.75 394.019C713.75 392.857 713.423 391.899 712.77 391.144C712.117 390.407 711.27 390.038 710.227 390.038C709.243 390.038 708.42 390.411 707.759 391.157C707.106 391.912 706.78 392.844 706.78 393.955Z" fill="#1D090B"/>
</svg>
