<svg width="18" height="18" viewBox="0 0 18 18" fill="none" xmlns="http://www.w3.org/2000/svg">
<path d="M12.4481 8.48764H9.50546V5.54499C9.50546 5.45981 9.43576 5.39012 9.35058 5.39012H8.42132C8.33614 5.39012 8.26645 5.45981 8.26645 5.54499V8.48764H5.3238C5.23862 8.48764 5.16893 8.55733 5.16893 8.64252V9.57177C5.16893 9.65695 5.23862 9.72665 5.3238 9.72665H8.26645V12.6693C8.26645 12.7545 8.33614 12.8242 8.42132 12.8242H9.35058C9.43576 12.8242 9.50546 12.7545 9.50546 12.6693V9.72665H12.4481C12.5333 9.72665 12.603 9.65695 12.603 9.57177V8.64252C12.603 8.55733 12.5333 8.48764 12.4481 8.48764Z" fill="black" fill-opacity="0.45"/>
<path d="M8.88595 0.434082C4.09641 0.434082 0.212891 4.3176 0.212891 9.10714C0.212891 13.8967 4.09641 17.7802 8.88595 17.7802C13.6755 17.7802 17.559 13.8967 17.559 9.10714C17.559 4.3176 13.6755 0.434082 8.88595 0.434082ZM8.88595 16.3089C4.90951 16.3089 1.68421 13.0836 1.68421 9.10714C1.68421 5.1307 4.90951 1.9054 8.88595 1.9054C12.8624 1.9054 16.0877 5.1307 16.0877 9.10714C16.0877 13.0836 12.8624 16.3089 8.88595 16.3089Z" fill="black" fill-opacity="0.45"/>
</svg>
