<svg width="17" height="18" viewBox="0 0 17 18" fill="none" xmlns="http://www.w3.org/2000/svg">
<path d="M8.5 0.89209C3.80603 0.89209 0 4.69812 0 9.39209C0 14.0861 3.80603 17.8921 8.5 17.8921C13.194 17.8921 17 14.0861 17 9.39209C17 4.69812 13.194 0.89209 8.5 0.89209ZM8.5 16.4501C4.6029 16.4501 1.44196 13.2892 1.44196 9.39209C1.44196 5.49499 4.6029 2.33405 8.5 2.33405C12.3971 2.33405 15.558 5.49499 15.558 9.39209C15.558 13.2892 12.3971 16.4501 8.5 16.4501Z" fill="#210600"/>
<path d="M7.58929 12.7314C7.58929 12.9729 7.68524 13.2046 7.85603 13.3753C8.02682 13.5461 8.25846 13.6421 8.5 13.6421C8.74154 13.6421 8.97318 13.5461 9.14397 13.3753C9.31476 13.2046 9.41071 12.9729 9.41071 12.7314C9.41071 12.4898 9.31476 12.2582 9.14397 12.0874C8.97318 11.9166 8.74154 11.8207 8.5 11.8207C8.25846 11.8207 8.02682 11.9166 7.85603 12.0874C7.68524 12.2582 7.58929 12.4898 7.58929 12.7314ZM8.04464 10.6064H8.95536C9.03884 10.6064 9.10714 10.5381 9.10714 10.4546V5.29388C9.10714 5.21039 9.03884 5.14209 8.95536 5.14209H8.04464C7.96116 5.14209 7.89286 5.21039 7.89286 5.29388V10.4546C7.89286 10.5381 7.96116 10.6064 8.04464 10.6064Z" fill="#210600"/>
</svg>
