<svg width="995" height="64" viewBox="0 0 995 64" fill="none" xmlns="http://www.w3.org/2000/svg">
<path d="M47.726 2.74C44.366 8.14 41.266 12.94 38.426 17.14C35.626 21.34 33.186 25.02 31.106 28.18C29.066 31.3 27.466 33.94 26.306 36.1C25.186 38.26 24.626 40 24.626 41.32C24.626 42.2 24.826 42.92 25.226 43.48C25.666 44 26.366 44.26 27.326 44.26C28.766 44.26 30.326 43.76 32.006 42.76C33.686 41.72 35.366 40.42 37.046 38.86C38.726 37.3 40.366 35.6 41.966 33.76C43.566 31.92 45.026 30.18 46.346 28.54L46.826 28.72C45.266 30.72 43.646 32.7 41.966 34.66C40.326 36.58 38.646 38.32 36.926 39.88C35.206 41.4 33.466 42.64 31.706 43.6C29.986 44.52 28.266 44.98 26.546 44.98C24.866 44.98 23.646 44.5 22.886 43.54C22.126 42.58 21.746 41.32 21.746 39.76C21.746 38.88 21.946 37.94 22.346 36.94C22.786 35.94 23.226 35.1 23.666 34.42L23.546 34.3C22.586 35.34 21.446 36.48 20.126 37.72C18.806 38.96 17.406 40.12 15.926 41.2C14.446 42.28 12.926 43.18 11.366 43.9C9.80602 44.62 8.28602 44.98 6.80602 44.98C5.40602 44.98 4.28602 44.62 3.44602 43.9C2.64602 43.18 2.24602 42.14 2.24602 40.78C2.24602 39.42 2.72602 37.78 3.68602 35.86C4.64602 33.94 5.82602 31.88 7.22602 29.68C8.66602 27.48 10.226 25.22 11.906 22.9C13.586 20.54 15.126 18.26 16.526 16.06C17.966 13.86 19.166 11.82 20.126 9.94C21.086 8.06 21.566 6.46 21.566 5.14C21.566 4.14 21.206 3.46 20.486 3.1C19.806 2.7 19.006 2.5 18.086 2.5C16.086 2.5 14.046 2.98 11.966 3.94C9.92602 4.86 8.06602 6.08 6.38602 7.6C4.74602 9.08 3.38602 10.76 2.30602 12.64C1.26602 14.48 0.746016 16.3 0.746016 18.1C0.746016 19.38 1.06602 20.44 1.70602 21.28C2.38602 22.12 3.52602 22.54 5.12602 22.54C5.92602 22.54 6.66602 22.4 7.34602 22.12C8.06602 21.84 8.72602 21.48 9.32602 21.04C9.92602 20.6 10.446 20.12 10.886 19.6C11.366 19.08 11.766 18.56 12.086 18.04L12.746 18.16C12.386 18.76 11.926 19.38 11.366 20.02C10.806 20.62 10.186 21.16 9.50602 21.64C8.86602 22.12 8.16602 22.52 7.40602 22.84C6.64602 23.12 5.86602 23.26 5.06602 23.26C3.50602 23.26 2.26602 22.84 1.34602 22C0.466016 21.12 0.0260162 19.84 0.0260162 18.16C0.0260162 16.36 0.546016 14.5 1.58602 12.58C2.66602 10.62 4.06602 8.84 5.78602 7.24C7.54602 5.64 9.54602 4.34 11.786 3.34C14.026 2.3 16.346 1.78 18.746 1.78C20.426 1.78 21.786 2.18 22.826 2.98C23.906 3.78 24.446 4.96 24.446 6.52C24.446 7.84 23.966 9.46 23.006 11.38C22.086 13.26 20.926 15.3 19.526 17.5C18.126 19.66 16.606 21.9 14.966 24.22C13.326 26.5 11.806 28.72 10.406 30.88C9.00602 33 7.82602 34.98 6.86602 36.82C5.94602 38.62 5.48602 40.14 5.48602 41.38C5.48602 42.34 5.72602 43.02 6.20602 43.42C6.68602 43.82 7.20602 44.02 7.76602 44.02C9.20602 44.02 10.806 43.52 12.566 42.52C14.326 41.52 16.046 40.32 17.726 38.92C19.406 37.52 20.946 36.08 22.346 34.6C23.786 33.08 24.866 31.82 25.586 30.82C27.506 28.22 29.946 24.58 32.906 19.9C35.866 15.18 39.466 9.46 43.706 2.74H47.726ZM35.6665 44.5C36.5465 43.02 37.5665 41.4 38.7265 39.64C39.8465 37.88 40.9865 36.1 42.1465 34.3C43.3465 32.46 44.5065 30.66 45.6265 28.9C46.7865 27.1 47.8265 25.42 48.7465 23.86H52.4065L44.4865 35.02L44.6065 35.14C45.3665 34.22 46.2865 33.1 47.3665 31.78C48.4465 30.42 49.6265 29.12 50.9065 27.88C52.2265 26.64 53.6265 25.58 55.1065 24.7C56.5865 23.82 58.1065 23.38 59.6665 23.38C60.6265 23.38 61.4065 23.64 62.0065 24.16C62.6465 24.64 62.9665 25.36 62.9665 26.32C62.9665 26.88 62.7665 27.56 62.3665 28.36C61.9665 29.16 61.4865 29.98 60.9265 30.82C60.4065 31.62 59.8665 32.4 59.3065 33.16C58.7465 33.92 58.3065 34.54 57.9865 35.02L58.1065 35.14C58.9465 33.94 59.9465 32.66 61.1065 31.3C62.3065 29.94 63.5665 28.68 64.8865 27.52C66.2465 26.32 67.6265 25.34 69.0265 24.58C70.4665 23.78 71.8465 23.38 73.1665 23.38C74.3265 23.38 75.1865 23.66 75.7465 24.22C76.3465 24.78 76.6465 25.56 76.6465 26.56C76.6465 27.24 76.4065 28.04 75.9265 28.96C75.4865 29.88 74.9065 30.86 74.1865 31.9C73.5065 32.9 72.7665 33.92 71.9665 34.96C71.1665 36 70.4065 37 69.6865 37.96C69.0065 38.92 68.4265 39.82 67.9465 40.66C67.5065 41.46 67.2865 42.14 67.2865 42.7C67.2865 43.18 67.4265 43.56 67.7065 43.84C68.0265 44.12 68.4065 44.26 68.8465 44.26C69.8065 44.26 70.9265 43.88 72.2065 43.12C73.5265 42.36 74.9265 41.3 76.4065 39.94C77.9265 38.58 79.5065 36.96 81.1465 35.08C82.7865 33.16 84.4465 31.06 86.1265 28.78L86.6065 29.02C84.9665 31.26 83.3265 33.36 81.6865 35.32C80.0465 37.24 78.4465 38.92 76.8865 40.36C75.3665 41.8 73.8865 42.94 72.4465 43.78C71.0465 44.58 69.7465 44.98 68.5465 44.98C67.3065 44.98 66.3865 44.64 65.7865 43.96C65.1865 43.24 64.8865 42.36 64.8865 41.32C64.8865 40.56 65.1065 39.72 65.5465 38.8C66.0265 37.84 66.6065 36.86 67.2865 35.86C68.0065 34.86 68.7665 33.86 69.5665 32.86C70.3665 31.86 71.1065 30.9 71.7865 29.98C72.5065 29.06 73.0865 28.22 73.5265 27.46C74.0065 26.7 74.2465 26.08 74.2465 25.6C74.2465 25.04 74.0865 24.66 73.7665 24.46C73.4865 24.22 73.1265 24.1 72.6865 24.1C71.8865 24.1 70.9465 24.38 69.8665 24.94C68.7865 25.46 67.6465 26.22 66.4465 27.22C65.2865 28.18 64.0865 29.32 62.8465 30.64C61.6065 31.92 60.3865 33.32 59.1865 34.84C58.0265 36.32 56.9265 37.9 55.8865 39.58C54.8465 41.22 53.9465 42.86 53.1865 44.5H49.3465C50.4665 42.5 51.6665 40.5 52.9465 38.5C54.2665 36.5 55.4865 34.66 56.6065 32.98C57.7265 31.26 58.6665 29.78 59.4265 28.54C60.1865 27.26 60.5665 26.32 60.5665 25.72C60.5665 24.64 60.0065 24.1 58.8865 24.1C57.8865 24.1 56.7665 24.48 55.5265 25.24C54.2865 25.96 53.0265 26.92 51.7465 28.12C50.4665 29.28 49.2065 30.62 47.9665 32.14C46.7265 33.62 45.5465 35.12 44.4265 36.64C43.3465 38.16 42.3865 39.62 41.5465 41.02C40.7065 42.38 40.0465 43.54 39.5665 44.5H35.6665ZM102.386 23.86H106.286C104.806 25.94 103.386 27.96 102.026 29.92C100.666 31.88 99.446 33.7 98.366 35.38C97.326 37.02 96.486 38.48 95.846 39.76C95.206 41 94.886 41.98 94.886 42.7C94.886 43.74 95.426 44.26 96.506 44.26C97.346 44.26 98.406 43.86 99.686 43.06C101.006 42.22 102.426 41.08 103.946 39.64C105.466 38.2 107.026 36.52 108.626 34.6C110.226 32.68 111.746 30.64 113.186 28.48L113.546 28.6C112.466 30.24 111.186 32.02 109.706 33.94C108.266 35.82 106.746 37.58 105.146 39.22C103.546 40.86 101.946 42.24 100.346 43.36C98.746 44.44 97.246 44.98 95.846 44.98C94.686 44.98 93.826 44.7 93.266 44.14C92.746 43.54 92.486 42.84 92.486 42.04C92.486 41.48 92.566 40.94 92.726 40.42C92.926 39.86 93.126 39.3 93.326 38.74L93.206 38.68C92.686 39.24 92.026 39.9 91.226 40.66C90.466 41.38 89.626 42.06 88.706 42.7C87.826 43.34 86.906 43.88 85.946 44.32C84.986 44.76 84.066 44.98 83.186 44.98C81.706 44.98 80.666 44.52 80.066 43.6C79.466 42.68 79.166 41.64 79.166 40.48C79.166 38.84 79.686 37.04 80.726 35.08C81.766 33.08 83.086 31.22 84.686 29.5C86.286 27.74 88.026 26.28 89.906 25.12C91.786 23.96 93.566 23.38 95.246 23.38C96.046 23.38 96.746 23.5 97.346 23.74C97.946 23.94 98.446 24.24 98.846 24.64C99.246 25 99.546 25.42 99.746 25.9C99.986 26.38 100.166 26.88 100.286 27.4H100.406L102.386 23.86ZM82.766 40.66C82.766 41.58 82.946 42.3 83.306 42.82C83.706 43.3 84.246 43.54 84.926 43.54C85.606 43.54 86.406 43.3 87.326 42.82C88.246 42.3 89.206 41.62 90.206 40.78C91.206 39.94 92.186 38.98 93.146 37.9C94.146 36.78 95.026 35.6 95.786 34.36C96.546 33.12 97.166 31.86 97.646 30.58C98.126 29.3 98.366 28.08 98.366 26.92C98.366 26 98.106 25.3 97.586 24.82C97.066 24.34 96.426 24.1 95.666 24.1C94.466 24.1 93.126 24.62 91.646 25.66C90.166 26.7 88.766 28.04 87.446 29.68C86.126 31.28 85.006 33.06 84.086 35.02C83.206 36.98 82.766 38.86 82.766 40.66ZM138.826 25.78C138.826 25.22 138.666 24.8 138.346 24.52C138.066 24.24 137.706 24.1 137.266 24.1C136.426 24.1 135.506 24.44 134.506 25.12C133.546 25.76 132.586 26.58 131.626 27.58C130.666 28.54 129.786 29.58 128.986 30.7C128.226 31.82 127.646 32.82 127.246 33.7C128.126 33.54 129.226 33.24 130.546 32.8C131.866 32.32 133.126 31.74 134.326 31.06C135.566 30.38 136.626 29.6 137.506 28.72C138.386 27.8 138.826 26.82 138.826 25.78ZM148.546 28.96C147.946 29.96 147.186 31.06 146.266 32.26C145.386 33.46 144.366 34.66 143.206 35.86C142.086 37.02 140.866 38.16 139.546 39.28C138.266 40.36 136.926 41.34 135.526 42.22C134.126 43.06 132.706 43.74 131.266 44.26C129.866 44.74 128.486 44.98 127.126 44.98C125.446 44.98 124.146 44.56 123.226 43.72C122.306 42.84 121.846 41.6 121.846 40C121.846 38.24 122.366 36.4 123.406 34.48C124.486 32.52 125.846 30.72 127.486 29.08C129.126 27.44 130.926 26.08 132.886 25C134.846 23.92 136.726 23.38 138.526 23.38C139.526 23.38 140.306 23.6 140.866 24.04C141.426 24.44 141.706 25.04 141.706 25.84C141.706 26.8 141.186 27.74 140.146 28.66C139.106 29.54 137.826 30.36 136.306 31.12C134.826 31.84 133.226 32.5 131.506 33.1C129.786 33.66 128.266 34.08 126.946 34.36C126.506 35.16 126.146 36.06 125.866 37.06C125.586 38.06 125.446 39.06 125.446 40.06C125.446 40.54 125.486 41.02 125.566 41.5C125.686 41.94 125.846 42.36 126.046 42.76C126.286 43.12 126.586 43.42 126.946 43.66C127.346 43.9 127.826 44.02 128.386 44.02C129.706 44.02 131.246 43.6 133.006 42.76C134.806 41.88 136.626 40.72 138.466 39.28C140.306 37.84 142.066 36.2 143.746 34.36C145.426 32.52 146.866 30.62 148.066 28.66L148.546 28.96ZM178.487 28.54C177.607 30.1 176.367 31.84 174.767 33.76C173.167 35.64 171.427 37.42 169.547 39.1C167.667 40.78 165.727 42.18 163.727 43.3C161.767 44.42 159.927 44.98 158.207 44.98C156.767 44.98 155.667 44.64 154.907 43.96C154.147 43.28 153.767 42.42 153.767 41.38C153.767 40.38 153.987 39.44 154.427 38.56L154.307 38.44C153.667 39.28 152.927 40.1 152.087 40.9C151.287 41.66 150.407 42.36 149.447 43C148.527 43.6 147.547 44.08 146.507 44.44C145.467 44.8 144.407 44.98 143.327 44.98C141.447 44.98 139.987 44.52 138.947 43.6C137.867 42.68 137.327 41.46 137.327 39.94C137.327 38.9 137.627 38.02 138.227 37.3C138.827 36.58 139.547 36.22 140.387 36.22C141.147 36.22 141.687 36.42 142.007 36.82C142.327 37.22 142.487 37.68 142.487 38.2C142.487 38.72 142.327 39.16 142.007 39.52C141.727 39.88 141.307 40.06 140.747 40.06C139.987 40.06 139.487 39.78 139.247 39.22C138.767 39.62 138.527 40.14 138.527 40.78C138.527 41.9 138.987 42.76 139.907 43.36C140.787 43.96 141.927 44.26 143.327 44.26C144.367 44.26 145.447 43.98 146.567 43.42C147.727 42.82 148.827 42.06 149.867 41.14C150.947 40.18 151.967 39.1 152.927 37.9C153.887 36.66 154.727 35.4 155.447 34.12C156.167 32.84 156.727 31.58 157.127 30.34C157.567 29.1 157.787 28 157.787 27.04C157.787 26.08 157.547 25.28 157.067 24.64C156.627 23.96 155.927 23.62 154.967 23.62C154.207 23.62 153.487 23.82 152.807 24.22C152.167 24.58 151.567 25.06 151.007 25.66C150.447 26.22 149.947 26.82 149.507 27.46C149.107 28.06 148.747 28.6 148.427 29.08L147.887 28.72C148.367 27.96 148.847 27.24 149.327 26.56C149.847 25.84 150.407 25.22 151.007 24.7C151.607 24.14 152.287 23.7 153.047 23.38C153.807 23.06 154.667 22.9 155.627 22.9C156.547 22.9 157.327 23.06 157.967 23.38C158.647 23.66 159.207 24.06 159.647 24.58C160.087 25.1 160.427 25.68 160.667 26.32C160.907 26.96 161.027 27.64 161.027 28.36C161.507 27.84 162.087 27.3 162.767 26.74C163.487 26.14 164.267 25.6 165.107 25.12C165.947 24.6 166.847 24.18 167.807 23.86C168.767 23.54 169.747 23.38 170.747 23.38C172.027 23.38 173.027 23.7 173.747 24.34C174.507 24.94 174.887 25.68 174.887 26.56C174.887 27.12 174.627 27.64 174.107 28.12C173.587 28.6 172.907 28.84 172.067 28.84C171.907 28.84 171.627 28.8 171.227 28.72C171.427 28.16 171.607 27.66 171.767 27.22C171.927 26.74 172.007 26.3 172.007 25.9C172.007 24.7 171.447 24.1 170.327 24.1C169.407 24.1 168.427 24.38 167.387 24.94C166.347 25.46 165.327 26.18 164.327 27.1C163.327 27.98 162.347 29 161.387 30.16C160.467 31.28 159.647 32.46 158.927 33.7C158.247 34.9 157.687 36.08 157.247 37.24C156.847 38.4 156.647 39.46 156.647 40.42C156.647 41.58 156.867 42.48 157.307 43.12C157.787 43.72 158.547 44.02 159.587 44.02C160.467 44.02 161.447 43.76 162.527 43.24C163.607 42.72 164.747 42.04 165.947 41.2C167.147 40.36 168.347 39.4 169.547 38.32C170.747 37.2 171.887 36.06 172.967 34.9C174.047 33.74 175.027 32.6 175.907 31.48C176.787 30.32 177.487 29.28 178.007 28.36L178.487 28.54ZM192.287 12.22C190.167 15.46 187.967 18.64 185.687 21.76C183.407 24.88 181.227 28.08 179.147 31.36L179.267 31.48C179.867 30.68 180.567 29.82 181.367 28.9C182.167 27.94 183.027 27.06 183.947 26.26C184.867 25.42 185.867 24.74 186.947 24.22C188.027 23.66 189.127 23.38 190.247 23.38C191.527 23.38 192.607 23.72 193.487 24.4C194.367 25.08 194.807 26.26 194.807 27.94C194.807 28.98 194.667 29.98 194.387 30.94C194.107 31.86 193.727 32.74 193.247 33.58C192.807 34.38 192.287 35.14 191.687 35.86C191.127 36.54 190.547 37.18 189.947 37.78L190.067 37.9C192.947 37.38 195.547 36.4 197.867 34.96C200.227 33.52 202.567 31.36 204.887 28.48L205.367 28.72C203.567 30.92 201.887 32.64 200.327 33.88C198.767 35.12 197.327 36.06 196.007 36.7C194.687 37.3 193.467 37.72 192.347 37.96C191.227 38.2 190.167 38.44 189.167 38.68C188.487 39.2 187.707 39.82 186.827 40.54C185.987 41.26 185.087 41.96 184.127 42.64C183.167 43.28 182.167 43.84 181.127 44.32C180.087 44.76 179.027 44.98 177.947 44.98C177.387 44.98 176.827 44.82 176.267 44.5C175.747 44.22 175.487 43.74 175.487 43.06C175.487 42.22 175.887 41.52 176.687 40.96C177.527 40.4 178.527 39.96 179.687 39.64C180.887 39.28 182.127 39.02 183.407 38.86C184.687 38.66 185.767 38.52 186.647 38.44C187.167 37.84 187.687 37.12 188.207 36.28C188.767 35.4 189.267 34.48 189.707 33.52C190.147 32.56 190.507 31.58 190.787 30.58C191.067 29.54 191.207 28.58 191.207 27.7C191.207 26.3 191.007 25.4 190.607 25C190.207 24.56 189.727 24.34 189.167 24.34C188.247 24.34 187.267 24.68 186.227 25.36C185.227 26 184.207 26.86 183.167 27.94C182.127 28.98 181.087 30.16 180.047 31.48C179.047 32.76 178.107 34.04 177.227 35.32C176.347 36.6 175.547 37.8 174.827 38.92C174.107 40 173.507 40.86 173.027 41.5C172.667 42.02 172.147 42.78 171.467 43.78C170.787 44.78 170.027 45.92 169.187 47.2C168.347 48.48 167.467 49.86 166.547 51.34C165.587 52.82 164.647 54.3 163.727 55.78C162.807 57.3 161.927 58.76 161.087 60.16C160.247 61.56 159.507 62.82 158.867 63.94H155.147C160.547 55.26 166.047 46.66 171.647 38.14C177.287 29.58 182.847 20.94 188.327 12.22H192.287ZM178.787 44.26C179.387 44.26 180.047 44.06 180.767 43.66C181.527 43.26 182.247 42.78 182.927 42.22C183.647 41.66 184.287 41.1 184.847 40.54C185.407 39.98 185.807 39.56 186.047 39.28L185.927 39.16C185.247 39.28 184.387 39.42 183.347 39.58C182.347 39.7 181.367 39.88 180.407 40.12C179.487 40.36 178.687 40.7 178.007 41.14C177.367 41.54 177.047 42.1 177.047 42.82C177.047 43.3 177.227 43.66 177.587 43.9C177.947 44.14 178.347 44.26 178.787 44.26ZM215.467 25.78C215.467 25.22 215.307 24.8 214.987 24.52C214.707 24.24 214.347 24.1 213.907 24.1C213.067 24.1 212.147 24.44 211.147 25.12C210.187 25.76 209.227 26.58 208.267 27.58C207.307 28.54 206.427 29.58 205.627 30.7C204.867 31.82 204.287 32.82 203.887 33.7C204.767 33.54 205.867 33.24 207.187 32.8C208.507 32.32 209.767 31.74 210.967 31.06C212.207 30.38 213.267 29.6 214.147 28.72C215.027 27.8 215.467 26.82 215.467 25.78ZM225.187 28.96C224.587 29.96 223.827 31.06 222.907 32.26C222.027 33.46 221.007 34.66 219.847 35.86C218.727 37.02 217.507 38.16 216.187 39.28C214.907 40.36 213.567 41.34 212.167 42.22C210.767 43.06 209.347 43.74 207.907 44.26C206.507 44.74 205.127 44.98 203.767 44.98C202.087 44.98 200.787 44.56 199.867 43.72C198.947 42.84 198.487 41.6 198.487 40C198.487 38.24 199.007 36.4 200.047 34.48C201.127 32.52 202.487 30.72 204.127 29.08C205.767 27.44 207.567 26.08 209.527 25C211.487 23.92 213.367 23.38 215.167 23.38C216.167 23.38 216.947 23.6 217.507 24.04C218.067 24.44 218.347 25.04 218.347 25.84C218.347 26.8 217.827 27.74 216.787 28.66C215.747 29.54 214.467 30.36 212.947 31.12C211.467 31.84 209.867 32.5 208.147 33.1C206.427 33.66 204.907 34.08 203.587 34.36C203.147 35.16 202.787 36.06 202.507 37.06C202.227 38.06 202.087 39.06 202.087 40.06C202.087 40.54 202.127 41.02 202.207 41.5C202.327 41.94 202.487 42.36 202.687 42.76C202.927 43.12 203.227 43.42 203.587 43.66C203.987 43.9 204.467 44.02 205.027 44.02C206.347 44.02 207.887 43.6 209.647 42.76C211.447 41.88 213.267 40.72 215.107 39.28C216.947 37.84 218.707 36.2 220.387 34.36C222.067 32.52 223.507 30.62 224.707 28.66L225.187 28.96ZM230.767 23.86L223.147 34.96L223.267 35.08C223.827 34.4 224.527 33.62 225.367 32.74C226.247 31.82 227.187 30.9 228.187 29.98C229.227 29.02 230.307 28.08 231.427 27.16C232.547 26.24 233.647 25.42 234.727 24.7C234.927 24.3 235.147 23.98 235.387 23.74C235.627 23.5 236.107 23.38 236.827 23.38C237.267 23.38 237.647 23.4 237.967 23.44C238.327 23.44 238.687 23.46 239.047 23.5C238.367 24.18 237.707 25.02 237.067 26.02C236.427 26.98 236.107 28.04 236.107 29.2C236.107 30.12 236.327 30.84 236.767 31.36C237.247 31.88 237.827 32.14 238.507 32.14C239.107 32.14 239.687 32.02 240.247 31.78C240.847 31.54 241.407 31.24 241.927 30.88C242.447 30.52 242.947 30.14 243.427 29.74C243.907 29.34 244.327 28.98 244.687 28.66L245.047 28.9C244.647 29.3 244.187 29.74 243.667 30.22C243.147 30.66 242.587 31.08 241.987 31.48C241.387 31.88 240.747 32.22 240.067 32.5C239.387 32.74 238.687 32.86 237.967 32.86C236.687 32.86 235.647 32.48 234.847 31.72C234.087 30.92 233.707 29.82 233.707 28.42C233.707 27.46 233.927 26.6 234.367 25.84L234.247 25.72C232.607 26.84 230.807 28.32 228.847 30.16C226.887 31.96 224.807 34.1 222.607 36.58C221.807 37.46 220.967 38.62 220.087 40.06C219.247 41.5 218.507 42.98 217.867 44.5H213.967C216.127 41.06 218.287 37.64 220.447 34.24C222.607 30.84 224.827 27.38 227.107 23.86H230.767ZM251.348 23.86C249.148 27.02 247.288 29.68 245.768 31.84C244.248 34 243.008 35.8 242.048 37.24C241.128 38.68 240.448 39.82 240.008 40.66C239.608 41.5 239.408 42.18 239.408 42.7C239.408 43.74 239.828 44.26 240.668 44.26C241.468 44.26 242.388 43.98 243.428 43.42C244.508 42.82 245.628 42.06 246.788 41.14C247.948 40.22 249.108 39.18 250.268 38.02C251.428 36.86 252.508 35.72 253.508 34.6C254.548 33.44 255.448 32.34 256.208 31.3C257.008 30.22 257.588 29.34 257.948 28.66L258.428 28.96C257.948 29.76 257.288 30.72 256.448 31.84C255.648 32.96 254.728 34.12 253.688 35.32C252.648 36.48 251.548 37.64 250.388 38.8C249.228 39.96 248.048 41 246.848 41.92C245.648 42.84 244.468 43.58 243.308 44.14C242.188 44.7 241.148 44.98 240.188 44.98C239.108 44.98 238.308 44.68 237.788 44.08C237.268 43.48 237.008 42.82 237.008 42.1C237.008 41.26 237.188 40.38 237.548 39.46C237.948 38.5 238.568 37.34 239.408 35.98C240.248 34.62 241.328 32.98 242.648 31.06C244.008 29.1 245.628 26.7 247.508 23.86H251.348ZM254.828 12.7C255.388 12.7 255.848 12.9 256.208 13.3C256.568 13.66 256.748 14.12 256.748 14.68C256.748 15.24 256.568 15.72 256.208 16.12C255.848 16.48 255.388 16.66 254.828 16.66C254.268 16.66 253.808 16.48 253.448 16.12C253.088 15.72 252.908 15.24 252.908 14.68C252.908 14.12 253.088 13.66 253.448 13.3C253.808 12.9 254.268 12.7 254.828 12.7ZM268.729 25.78C268.729 25.22 268.569 24.8 268.249 24.52C267.969 24.24 267.609 24.1 267.169 24.1C266.329 24.1 265.409 24.44 264.409 25.12C263.449 25.76 262.489 26.58 261.529 27.58C260.569 28.54 259.689 29.58 258.889 30.7C258.129 31.82 257.549 32.82 257.149 33.7C258.029 33.54 259.129 33.24 260.449 32.8C261.769 32.32 263.029 31.74 264.229 31.06C265.469 30.38 266.529 29.6 267.409 28.72C268.289 27.8 268.729 26.82 268.729 25.78ZM278.449 28.96C277.849 29.96 277.089 31.06 276.169 32.26C275.289 33.46 274.269 34.66 273.109 35.86C271.989 37.02 270.769 38.16 269.449 39.28C268.169 40.36 266.829 41.34 265.429 42.22C264.029 43.06 262.609 43.74 261.169 44.26C259.769 44.74 258.389 44.98 257.029 44.98C255.349 44.98 254.049 44.56 253.129 43.72C252.209 42.84 251.749 41.6 251.749 40C251.749 38.24 252.269 36.4 253.309 34.48C254.389 32.52 255.749 30.72 257.389 29.08C259.029 27.44 260.829 26.08 262.789 25C264.749 23.92 266.629 23.38 268.429 23.38C269.429 23.38 270.209 23.6 270.769 24.04C271.329 24.44 271.609 25.04 271.609 25.84C271.609 26.8 271.089 27.74 270.049 28.66C269.009 29.54 267.729 30.36 266.209 31.12C264.729 31.84 263.129 32.5 261.409 33.1C259.689 33.66 258.169 34.08 256.849 34.36C256.409 35.16 256.049 36.06 255.769 37.06C255.489 38.06 255.349 39.06 255.349 40.06C255.349 40.54 255.389 41.02 255.469 41.5C255.589 41.94 255.749 42.36 255.949 42.76C256.189 43.12 256.489 43.42 256.849 43.66C257.249 43.9 257.729 44.02 258.289 44.02C259.609 44.02 261.149 43.6 262.909 42.76C264.709 41.88 266.529 40.72 268.369 39.28C270.209 37.84 271.969 36.2 273.649 34.36C275.329 32.52 276.769 30.62 277.969 28.66L278.449 28.96ZM262.069 19.72C263.629 18.24 265.129 16.72 266.569 15.16C268.049 13.56 269.429 11.9 270.709 10.18H271.669C271.669 11.94 271.969 13.6 272.569 15.16C273.169 16.68 273.989 18.28 275.029 19.96L274.549 20.26C273.509 19.1 272.629 18.02 271.909 17.02C271.229 15.98 270.589 14.88 269.989 13.72C268.789 14.88 267.549 16.02 266.269 17.14C265.029 18.22 263.709 19.22 262.309 20.14L262.069 19.72ZM283.909 23.86L275.989 34.84L276.109 34.96C276.949 33.96 277.929 32.8 279.049 31.48C280.169 30.12 281.369 28.84 282.649 27.64C283.929 26.44 285.249 25.44 286.609 24.64C288.009 23.8 289.389 23.38 290.749 23.38C291.949 23.38 292.869 23.72 293.509 24.4C294.189 25.04 294.529 25.88 294.529 26.92C294.529 27.56 294.289 28.32 293.809 29.2C293.369 30.08 292.809 31.02 292.129 32.02C291.449 33.02 290.709 34.04 289.909 35.08C289.109 36.12 288.369 37.12 287.689 38.08C287.009 39 286.429 39.86 285.949 40.66C285.509 41.42 285.289 42.06 285.289 42.58C285.289 43.7 285.849 44.26 286.969 44.26C288.249 44.26 289.609 43.84 291.049 43C292.489 42.12 294.209 40.66 296.209 38.62C297.009 37.82 297.809 36.94 298.609 35.98C299.449 35.02 300.249 34.08 301.009 33.16C301.769 32.2 302.449 31.3 303.049 30.46C303.689 29.62 304.189 28.92 304.549 28.36L304.969 28.6C304.169 29.8 303.129 31.24 301.849 32.92C300.609 34.56 299.249 36.18 297.769 37.78C296.889 38.74 295.989 39.66 295.069 40.54C294.149 41.42 293.229 42.2 292.309 42.88C291.389 43.52 290.469 44.04 289.549 44.44C288.669 44.8 287.789 44.98 286.909 44.98C285.749 44.98 284.789 44.66 284.029 44.02C283.269 43.38 282.889 42.5 282.889 41.38C282.889 40.18 283.369 38.88 284.329 37.48C285.289 36.04 286.349 34.6 287.509 33.16C288.669 31.72 289.729 30.34 290.689 29.02C291.649 27.7 292.129 26.54 292.129 25.54C292.129 25.06 291.969 24.7 291.649 24.46C291.329 24.22 290.909 24.1 290.389 24.1C289.389 24.1 288.269 24.48 287.029 25.24C285.789 25.96 284.509 26.94 283.189 28.18C281.909 29.38 280.609 30.74 279.289 32.26C278.009 33.74 276.809 35.24 275.689 36.76C274.569 38.24 273.569 39.68 272.689 41.08C271.809 42.44 271.149 43.58 270.709 44.5H266.989C268.029 42.74 269.149 40.96 270.349 39.16C271.509 37.32 272.669 35.52 273.829 33.76C274.989 31.96 276.089 30.24 277.129 28.6C278.209 26.92 279.169 25.4 280.009 24.04L283.909 23.86ZM324.669 29.44C323.749 30.92 322.529 32.52 321.009 34.24C319.529 35.92 317.909 37.5 316.149 38.98C313.989 40.78 311.829 42.24 309.669 43.36C307.509 44.44 305.389 44.98 303.309 44.98C301.829 44.98 300.589 44.6 299.589 43.84C298.589 43.04 298.089 41.88 298.089 40.36C298.089 38.44 298.629 36.48 299.709 34.48C300.829 32.48 302.209 30.66 303.849 29.02C305.529 27.34 307.349 25.98 309.309 24.94C311.309 23.9 313.189 23.38 314.949 23.38C316.109 23.38 317.109 23.6 317.949 24.04C318.829 24.44 319.269 25.16 319.269 26.2C319.269 26.68 319.129 27.08 318.849 27.4C318.609 27.72 318.289 27.98 317.889 28.18C317.529 28.38 317.109 28.54 316.629 28.66C316.189 28.74 315.789 28.8 315.429 28.84C315.589 28.44 315.729 28.04 315.849 27.64C315.969 27.2 316.029 26.76 316.029 26.32C316.029 24.84 315.329 24.1 313.929 24.1C312.889 24.1 311.649 24.62 310.209 25.66C308.809 26.66 307.469 27.94 306.189 29.5C304.949 31.06 303.889 32.78 303.009 34.66C302.129 36.54 301.689 38.36 301.689 40.12C301.689 41.2 301.929 42.12 302.409 42.88C302.929 43.64 303.709 44.02 304.749 44.02C306.149 44.02 307.749 43.56 309.549 42.64C311.389 41.72 313.169 40.58 314.889 39.22C316.689 37.82 318.409 36.22 320.049 34.42C321.729 32.58 323.129 30.8 324.249 29.08L324.669 29.44ZM331.27 23.86C329.07 27.02 327.21 29.68 325.69 31.84C324.17 34 322.93 35.8 321.97 37.24C321.05 38.68 320.37 39.82 319.93 40.66C319.53 41.5 319.33 42.18 319.33 42.7C319.33 43.74 319.75 44.26 320.59 44.26C321.39 44.26 322.31 43.98 323.35 43.42C324.43 42.82 325.55 42.06 326.71 41.14C327.87 40.22 329.03 39.18 330.19 38.02C331.35 36.86 332.43 35.72 333.43 34.6C334.47 33.44 335.37 32.34 336.13 31.3C336.93 30.22 337.51 29.34 337.87 28.66L338.35 28.96C337.87 29.76 337.21 30.72 336.37 31.84C335.57 32.96 334.65 34.12 333.61 35.32C332.57 36.48 331.47 37.64 330.31 38.8C329.15 39.96 327.97 41 326.77 41.92C325.57 42.84 324.39 43.58 323.23 44.14C322.11 44.7 321.07 44.98 320.11 44.98C319.03 44.98 318.23 44.68 317.71 44.08C317.19 43.48 316.93 42.82 316.93 42.1C316.93 41.26 317.11 40.38 317.47 39.46C317.87 38.5 318.49 37.34 319.33 35.98C320.17 34.62 321.25 32.98 322.57 31.06C323.93 29.1 325.55 26.7 327.43 23.86H331.27ZM334.75 12.7C335.31 12.7 335.77 12.9 336.13 13.3C336.49 13.66 336.67 14.12 336.67 14.68C336.67 15.24 336.49 15.72 336.13 16.12C335.77 16.48 335.31 16.66 334.75 16.66C334.19 16.66 333.73 16.48 333.37 16.12C333.01 15.72 332.83 15.24 332.83 14.68C332.83 14.12 333.01 13.66 333.37 13.3C333.73 12.9 334.19 12.7 334.75 12.7ZM353.87 23.86H357.77C356.29 25.94 354.87 27.96 353.51 29.92C352.15 31.88 350.93 33.7 349.85 35.38C348.81 37.02 347.97 38.48 347.33 39.76C346.69 41 346.37 41.98 346.37 42.7C346.37 43.74 346.91 44.26 347.99 44.26C348.83 44.26 349.89 43.86 351.17 43.06C352.49 42.22 353.91 41.08 355.43 39.64C356.95 38.2 358.51 36.52 360.11 34.6C361.71 32.68 363.23 30.64 364.67 28.48L365.03 28.6C363.95 30.24 362.67 32.02 361.19 33.94C359.75 35.82 358.23 37.58 356.63 39.22C355.03 40.86 353.43 42.24 351.83 43.36C350.23 44.44 348.73 44.98 347.33 44.98C346.17 44.98 345.31 44.7 344.75 44.14C344.23 43.54 343.97 42.84 343.97 42.04C343.97 41.48 344.05 40.94 344.21 40.42C344.41 39.86 344.61 39.3 344.81 38.74L344.69 38.68C344.17 39.24 343.51 39.9 342.71 40.66C341.95 41.38 341.11 42.06 340.19 42.7C339.31 43.34 338.39 43.88 337.43 44.32C336.47 44.76 335.55 44.98 334.67 44.98C333.19 44.98 332.15 44.52 331.55 43.6C330.95 42.68 330.65 41.64 330.65 40.48C330.65 38.84 331.17 37.04 332.21 35.08C333.25 33.08 334.57 31.22 336.17 29.5C337.77 27.74 339.51 26.28 341.39 25.12C343.27 23.96 345.05 23.38 346.73 23.38C347.53 23.38 348.23 23.5 348.83 23.74C349.43 23.94 349.93 24.24 350.33 24.64C350.73 25 351.03 25.42 351.23 25.9C351.47 26.38 351.65 26.88 351.77 27.4H351.89L353.87 23.86ZM334.25 40.66C334.25 41.58 334.43 42.3 334.79 42.82C335.19 43.3 335.73 43.54 336.41 43.54C337.09 43.54 337.89 43.3 338.81 42.82C339.73 42.3 340.69 41.62 341.69 40.78C342.69 39.94 343.67 38.98 344.63 37.9C345.63 36.78 346.51 35.6 347.27 34.36C348.03 33.12 348.65 31.86 349.13 30.58C349.61 29.3 349.85 28.08 349.85 26.92C349.85 26 349.59 25.3 349.07 24.82C348.55 24.34 347.91 24.1 347.15 24.1C345.95 24.1 344.61 24.62 343.13 25.66C341.65 26.7 340.25 28.04 338.93 29.68C337.61 31.28 336.49 33.06 335.57 35.02C334.69 36.98 334.25 38.86 334.25 40.66ZM395.531 23.86H399.431C397.951 25.94 396.531 27.96 395.171 29.92C393.811 31.88 392.591 33.7 391.511 35.38C390.471 37.02 389.631 38.48 388.991 39.76C388.351 41 388.031 41.98 388.031 42.7C388.031 43.74 388.571 44.26 389.651 44.26C390.491 44.26 391.551 43.86 392.831 43.06C394.151 42.22 395.571 41.08 397.091 39.64C398.611 38.2 400.171 36.52 401.771 34.6C403.371 32.68 404.891 30.64 406.331 28.48L406.691 28.6C405.611 30.24 404.331 32.02 402.851 33.94C401.411 35.82 399.891 37.58 398.291 39.22C396.691 40.86 395.091 42.24 393.491 43.36C391.891 44.44 390.391 44.98 388.991 44.98C387.831 44.98 386.971 44.7 386.411 44.14C385.891 43.54 385.631 42.84 385.631 42.04C385.631 41.48 385.711 40.94 385.871 40.42C386.071 39.86 386.271 39.3 386.471 38.74L386.351 38.68C385.831 39.24 385.171 39.9 384.371 40.66C383.611 41.38 382.771 42.06 381.851 42.7C380.971 43.34 380.051 43.88 379.091 44.32C378.131 44.76 377.211 44.98 376.331 44.98C374.851 44.98 373.811 44.52 373.211 43.6C372.611 42.68 372.311 41.64 372.311 40.48C372.311 38.84 372.831 37.04 373.871 35.08C374.911 33.08 376.231 31.22 377.831 29.5C379.431 27.74 381.171 26.28 383.051 25.12C384.931 23.96 386.711 23.38 388.391 23.38C389.191 23.38 389.891 23.5 390.491 23.74C391.091 23.94 391.591 24.24 391.991 24.64C392.391 25 392.691 25.42 392.891 25.9C393.131 26.38 393.311 26.88 393.431 27.4H393.551L395.531 23.86ZM375.911 40.66C375.911 41.58 376.091 42.3 376.451 42.82C376.851 43.3 377.391 43.54 378.071 43.54C378.751 43.54 379.551 43.3 380.471 42.82C381.391 42.3 382.351 41.62 383.351 40.78C384.351 39.94 385.331 38.98 386.291 37.9C387.291 36.78 388.171 35.6 388.931 34.36C389.691 33.12 390.311 31.86 390.791 30.58C391.271 29.3 391.511 28.08 391.511 26.92C391.511 26 391.251 25.3 390.731 24.82C390.211 24.34 389.571 24.1 388.811 24.1C387.611 24.1 386.271 24.62 384.791 25.66C383.311 26.7 381.911 28.04 380.591 29.68C379.271 31.28 378.151 33.06 377.231 35.02C376.351 36.98 375.911 38.86 375.911 40.66ZM412.891 23.86C411.331 25.98 409.831 28 408.391 29.92C406.951 31.84 405.671 33.6 404.551 35.2C403.431 36.8 402.531 38.2 401.851 39.4C401.211 40.56 400.891 41.48 400.891 42.16C400.891 42.8 401.051 43.28 401.371 43.6C401.691 43.88 402.111 44.02 402.631 44.02C403.391 44.02 404.211 43.78 405.091 43.3C406.011 42.82 406.931 42.2 407.851 41.44C408.811 40.68 409.731 39.84 410.611 38.92C411.531 38 412.371 37.1 413.131 36.22C413.931 35.3 414.611 34.46 415.171 33.7C415.771 32.94 416.211 32.34 416.491 31.9L421.771 23.86H425.911C423.751 26.82 421.911 29.34 420.391 31.42C418.911 33.46 417.691 35.2 416.731 36.64C415.811 38.08 415.151 39.26 414.751 40.18C414.351 41.06 414.151 41.84 414.151 42.52C414.151 43 414.291 43.42 414.571 43.78C414.851 44.1 415.251 44.26 415.771 44.26C416.571 44.26 417.491 43.98 418.531 43.42C419.571 42.82 420.651 42.06 421.771 41.14C422.891 40.18 423.991 39.12 425.071 37.96C426.191 36.76 427.231 35.58 428.191 34.42C429.191 33.26 430.091 32.18 430.891 31.18C431.691 30.14 432.311 29.3 432.751 28.66L433.351 28.84C432.871 29.52 432.231 30.4 431.431 31.48C430.631 32.52 429.731 33.64 428.731 34.84C427.731 36 426.671 37.2 425.551 38.44C424.431 39.64 423.271 40.72 422.071 41.68C420.911 42.64 419.751 43.44 418.591 44.08C417.471 44.68 416.411 44.98 415.411 44.98C414.291 44.98 413.391 44.68 412.711 44.08C412.071 43.44 411.751 42.6 411.751 41.56C411.751 40.76 411.871 40 412.111 39.28C412.391 38.52 412.591 38.04 412.711 37.84L412.591 37.72C411.751 38.68 410.871 39.6 409.951 40.48C409.031 41.36 408.111 42.14 407.191 42.82C406.271 43.46 405.331 43.98 404.371 44.38C403.451 44.78 402.531 44.98 401.611 44.98C400.331 44.98 399.411 44.7 398.851 44.14C398.291 43.54 398.011 42.84 398.011 42.04C398.011 41.04 398.291 39.96 398.851 38.8C399.371 37.64 400.111 36.34 401.071 34.9C402.031 33.46 403.171 31.84 404.491 30.04C405.851 28.24 407.331 26.18 408.931 23.86H412.891ZM443.391 16.9L438.651 23.86H446.571L446.211 24.58H438.171C436.571 27.18 435.131 29.44 433.851 31.36C432.611 33.24 431.551 34.88 430.671 36.28C429.831 37.64 429.191 38.8 428.751 39.76C428.311 40.68 428.091 41.5 428.091 42.22C428.091 42.98 428.351 43.52 428.871 43.84C429.391 44.12 429.991 44.26 430.671 44.26C432.111 44.26 433.691 43.72 435.411 42.64C437.171 41.52 438.911 40.16 440.631 38.56C442.351 36.96 443.991 35.26 445.551 33.46C447.111 31.66 448.431 30.04 449.511 28.6L449.871 28.84C448.511 30.56 447.011 32.38 445.371 34.3C443.771 36.18 442.111 37.92 440.391 39.52C438.671 41.08 436.931 42.38 435.171 43.42C433.451 44.46 431.811 44.98 430.251 44.98C429.011 44.98 427.931 44.6 427.011 43.84C426.131 43.08 425.691 42.02 425.691 40.66C425.691 39.74 425.951 38.72 426.471 37.6C426.991 36.44 427.671 35.2 428.511 33.88C429.351 32.56 430.291 31.12 431.331 29.56C432.411 28 433.511 26.34 434.631 24.58H431.391L431.751 23.86H435.111L439.791 16.9H443.391ZM460.33 25.78C460.33 25.22 460.17 24.8 459.85 24.52C459.57 24.24 459.21 24.1 458.77 24.1C457.93 24.1 457.01 24.44 456.01 25.12C455.05 25.76 454.09 26.58 453.13 27.58C452.17 28.54 451.29 29.58 450.49 30.7C449.73 31.82 449.15 32.82 448.75 33.7C449.63 33.54 450.73 33.24 452.05 32.8C453.37 32.32 454.63 31.74 455.83 31.06C457.07 30.38 458.13 29.6 459.01 28.72C459.89 27.8 460.33 26.82 460.33 25.78ZM470.05 28.96C469.45 29.96 468.69 31.06 467.77 32.26C466.89 33.46 465.87 34.66 464.71 35.86C463.59 37.02 462.37 38.16 461.05 39.28C459.77 40.36 458.43 41.34 457.03 42.22C455.63 43.06 454.21 43.74 452.77 44.26C451.37 44.74 449.99 44.98 448.63 44.98C446.95 44.98 445.65 44.56 444.73 43.72C443.81 42.84 443.35 41.6 443.35 40C443.35 38.24 443.87 36.4 444.91 34.48C445.99 32.52 447.35 30.72 448.99 29.08C450.63 27.44 452.43 26.08 454.39 25C456.35 23.92 458.23 23.38 460.03 23.38C461.03 23.38 461.81 23.6 462.37 24.04C462.93 24.44 463.21 25.04 463.21 25.84C463.21 26.8 462.69 27.74 461.65 28.66C460.61 29.54 459.33 30.36 457.81 31.12C456.33 31.84 454.73 32.5 453.01 33.1C451.29 33.66 449.77 34.08 448.45 34.36C448.01 35.16 447.65 36.06 447.37 37.06C447.09 38.06 446.95 39.06 446.95 40.06C446.95 40.54 446.99 41.02 447.07 41.5C447.19 41.94 447.35 42.36 447.55 42.76C447.79 43.12 448.09 43.42 448.45 43.66C448.85 43.9 449.33 44.02 449.89 44.02C451.21 44.02 452.75 43.6 454.51 42.76C456.31 41.88 458.13 40.72 459.97 39.28C461.81 37.84 463.57 36.2 465.25 34.36C466.93 32.52 468.37 30.62 469.57 28.66L470.05 28.96ZM453.67 19.72C455.23 18.24 456.73 16.72 458.17 15.16C459.65 13.56 461.03 11.9 462.31 10.18H463.27C463.27 11.94 463.57 13.6 464.17 15.16C464.77 16.68 465.59 18.28 466.63 19.96L466.15 20.26C465.11 19.1 464.23 18.02 463.51 17.02C462.83 15.98 462.19 14.88 461.59 13.72C460.39 14.88 459.15 16.02 457.87 17.14C456.63 18.22 455.31 19.22 453.91 20.14L453.67 19.72ZM475.511 23.86L467.591 34.84L467.711 34.96C468.551 33.96 469.531 32.8 470.651 31.48C471.771 30.12 472.971 28.84 474.251 27.64C475.531 26.44 476.851 25.44 478.211 24.64C479.611 23.8 480.991 23.38 482.351 23.38C483.551 23.38 484.471 23.72 485.111 24.4C485.791 25.04 486.131 25.88 486.131 26.92C486.131 27.56 485.891 28.32 485.411 29.2C484.971 30.08 484.411 31.02 483.731 32.02C483.051 33.02 482.311 34.04 481.511 35.08C480.711 36.12 479.971 37.12 479.291 38.08C478.611 39 478.031 39.86 477.551 40.66C477.111 41.42 476.891 42.06 476.891 42.58C476.891 43.7 477.451 44.26 478.571 44.26C479.851 44.26 481.211 43.84 482.651 43C484.091 42.12 485.811 40.66 487.811 38.62C488.611 37.82 489.411 36.94 490.211 35.98C491.051 35.02 491.851 34.08 492.611 33.16C493.371 32.2 494.051 31.3 494.651 30.46C495.291 29.62 495.791 28.92 496.151 28.36L496.571 28.6C495.771 29.8 494.731 31.24 493.451 32.92C492.211 34.56 490.851 36.18 489.371 37.78C488.491 38.74 487.591 39.66 486.671 40.54C485.751 41.42 484.831 42.2 483.911 42.88C482.991 43.52 482.071 44.04 481.151 44.44C480.271 44.8 479.391 44.98 478.511 44.98C477.351 44.98 476.391 44.66 475.631 44.02C474.871 43.38 474.491 42.5 474.491 41.38C474.491 40.18 474.971 38.88 475.931 37.48C476.891 36.04 477.951 34.6 479.111 33.16C480.271 31.72 481.331 30.34 482.291 29.02C483.251 27.7 483.731 26.54 483.731 25.54C483.731 25.06 483.571 24.7 483.251 24.46C482.931 24.22 482.511 24.1 481.991 24.1C480.991 24.1 479.871 24.48 478.631 25.24C477.391 25.96 476.111 26.94 474.791 28.18C473.511 29.38 472.211 30.74 470.891 32.26C469.611 33.74 468.411 35.24 467.291 36.76C466.171 38.24 465.171 39.68 464.291 41.08C463.411 42.44 462.751 43.58 462.311 44.5H458.591C459.631 42.74 460.751 40.96 461.951 39.16C463.111 37.32 464.271 35.52 465.431 33.76C466.591 31.96 467.691 30.24 468.731 28.6C469.811 26.92 470.771 25.4 471.611 24.04L475.511 23.86ZM506.731 16.9L501.991 23.86H509.911L509.551 24.58H501.511C499.911 27.18 498.471 29.44 497.191 31.36C495.951 33.24 494.891 34.88 494.011 36.28C493.171 37.64 492.531 38.8 492.091 39.76C491.651 40.68 491.431 41.5 491.431 42.22C491.431 42.98 491.691 43.52 492.211 43.84C492.731 44.12 493.331 44.26 494.011 44.26C495.451 44.26 497.031 43.72 498.751 42.64C500.511 41.52 502.251 40.16 503.971 38.56C505.691 36.96 507.331 35.26 508.891 33.46C510.451 31.66 511.771 30.04 512.851 28.6L513.211 28.84C511.851 30.56 510.351 32.38 508.711 34.3C507.111 36.18 505.451 37.92 503.731 39.52C502.011 41.08 500.271 42.38 498.511 43.42C496.791 44.46 495.151 44.98 493.591 44.98C492.351 44.98 491.271 44.6 490.351 43.84C489.471 43.08 489.031 42.02 489.031 40.66C489.031 39.74 489.291 38.72 489.811 37.6C490.331 36.44 491.011 35.2 491.851 33.88C492.691 32.56 493.631 31.12 494.671 29.56C495.751 28 496.851 26.34 497.971 24.58H494.731L495.091 23.86H498.451L503.131 16.9H506.731ZM519.59 23.86C517.39 27.02 515.53 29.68 514.01 31.84C512.49 34 511.25 35.8 510.29 37.24C509.37 38.68 508.69 39.82 508.25 40.66C507.85 41.5 507.65 42.18 507.65 42.7C507.65 43.74 508.07 44.26 508.91 44.26C509.71 44.26 510.63 43.98 511.67 43.42C512.75 42.82 513.87 42.06 515.03 41.14C516.19 40.22 517.35 39.18 518.51 38.02C519.67 36.86 520.75 35.72 521.75 34.6C522.79 33.44 523.69 32.34 524.45 31.3C525.25 30.22 525.83 29.34 526.19 28.66L526.67 28.96C526.19 29.76 525.53 30.72 524.69 31.84C523.89 32.96 522.97 34.12 521.93 35.32C520.89 36.48 519.79 37.64 518.63 38.8C517.47 39.96 516.29 41 515.09 41.92C513.89 42.84 512.71 43.58 511.55 44.14C510.43 44.7 509.39 44.98 508.43 44.98C507.35 44.98 506.55 44.68 506.03 44.08C505.51 43.48 505.25 42.82 505.25 42.1C505.25 41.26 505.43 40.38 505.79 39.46C506.19 38.5 506.81 37.34 507.65 35.98C508.49 34.62 509.57 32.98 510.89 31.06C512.25 29.1 513.87 26.7 515.75 23.86H519.59ZM523.07 12.7C523.63 12.7 524.09 12.9 524.45 13.3C524.81 13.66 524.99 14.12 524.99 14.68C524.99 15.24 524.81 15.72 524.45 16.12C524.09 16.48 523.63 16.66 523.07 16.66C522.51 16.66 522.05 16.48 521.69 16.12C521.33 15.72 521.15 15.24 521.15 14.68C521.15 14.12 521.33 13.66 521.69 13.3C522.05 12.9 522.51 12.7 523.07 12.7ZM546.271 29.44C545.351 30.92 544.131 32.52 542.611 34.24C541.131 35.92 539.511 37.5 537.751 38.98C535.591 40.78 533.431 42.24 531.271 43.36C529.111 44.44 526.991 44.98 524.911 44.98C523.431 44.98 522.191 44.6 521.191 43.84C520.191 43.04 519.691 41.88 519.691 40.36C519.691 38.44 520.231 36.48 521.311 34.48C522.431 32.48 523.811 30.66 525.451 29.02C527.131 27.34 528.951 25.98 530.911 24.94C532.911 23.9 534.791 23.38 536.551 23.38C537.711 23.38 538.711 23.6 539.551 24.04C540.431 24.44 540.871 25.16 540.871 26.2C540.871 26.68 540.731 27.08 540.451 27.4C540.211 27.72 539.891 27.98 539.491 28.18C539.131 28.38 538.711 28.54 538.231 28.66C537.791 28.74 537.391 28.8 537.031 28.84C537.191 28.44 537.331 28.04 537.451 27.64C537.571 27.2 537.631 26.76 537.631 26.32C537.631 24.84 536.931 24.1 535.531 24.1C534.491 24.1 533.251 24.62 531.811 25.66C530.411 26.66 529.071 27.94 527.791 29.5C526.551 31.06 525.491 32.78 524.611 34.66C523.731 36.54 523.291 38.36 523.291 40.12C523.291 41.2 523.531 42.12 524.011 42.88C524.531 43.64 525.311 44.02 526.351 44.02C527.751 44.02 529.351 43.56 531.151 42.64C532.991 41.72 534.771 40.58 536.491 39.22C538.291 37.82 540.011 36.22 541.651 34.42C543.331 32.58 544.731 30.8 545.851 29.08L546.271 29.44ZM562.171 23.86H566.071C564.591 25.94 563.171 27.96 561.811 29.92C560.451 31.88 559.231 33.7 558.151 35.38C557.111 37.02 556.271 38.48 555.631 39.76C554.991 41 554.671 41.98 554.671 42.7C554.671 43.74 555.211 44.26 556.291 44.26C557.131 44.26 558.191 43.86 559.471 43.06C560.791 42.22 562.211 41.08 563.731 39.64C565.251 38.2 566.811 36.52 568.411 34.6C570.011 32.68 571.531 30.64 572.971 28.48L573.331 28.6C572.251 30.24 570.971 32.02 569.491 33.94C568.051 35.82 566.531 37.58 564.931 39.22C563.331 40.86 561.731 42.24 560.131 43.36C558.531 44.44 557.031 44.98 555.631 44.98C554.471 44.98 553.611 44.7 553.051 44.14C552.531 43.54 552.271 42.84 552.271 42.04C552.271 41.48 552.351 40.94 552.511 40.42C552.711 39.86 552.911 39.3 553.111 38.74L552.991 38.68C552.471 39.24 551.811 39.9 551.011 40.66C550.251 41.38 549.411 42.06 548.491 42.7C547.611 43.34 546.691 43.88 545.731 44.32C544.771 44.76 543.851 44.98 542.971 44.98C541.491 44.98 540.451 44.52 539.851 43.6C539.251 42.68 538.951 41.64 538.951 40.48C538.951 38.84 539.471 37.04 540.511 35.08C541.551 33.08 542.871 31.22 544.471 29.5C546.071 27.74 547.811 26.28 549.691 25.12C551.571 23.96 553.351 23.38 555.031 23.38C555.831 23.38 556.531 23.5 557.131 23.74C557.731 23.94 558.231 24.24 558.631 24.64C559.031 25 559.331 25.42 559.531 25.9C559.771 26.38 559.951 26.88 560.071 27.4H560.191L562.171 23.86ZM542.551 40.66C542.551 41.58 542.731 42.3 543.091 42.82C543.491 43.3 544.031 43.54 544.711 43.54C545.391 43.54 546.191 43.3 547.111 42.82C548.031 42.3 548.991 41.62 549.991 40.78C550.991 39.94 551.971 38.98 552.931 37.9C553.931 36.78 554.811 35.6 555.571 34.36C556.331 33.12 556.951 31.86 557.431 30.58C557.911 29.3 558.151 28.08 558.151 26.92C558.151 26 557.891 25.3 557.371 24.82C556.851 24.34 556.211 24.1 555.451 24.1C554.251 24.1 552.911 24.62 551.431 25.66C549.951 26.7 548.551 28.04 547.231 29.68C545.911 31.28 544.791 33.06 543.871 35.02C542.991 36.98 542.551 38.86 542.551 40.66ZM593.811 23.86L585.891 34.84L586.011 34.96C586.851 33.96 587.831 32.8 588.951 31.48C590.071 30.12 591.271 28.84 592.551 27.64C593.831 26.44 595.151 25.44 596.511 24.64C597.911 23.8 599.291 23.38 600.651 23.38C601.851 23.38 602.771 23.72 603.411 24.4C604.091 25.04 604.431 25.88 604.431 26.92C604.431 27.56 604.191 28.32 603.711 29.2C603.271 30.08 602.711 31.02 602.031 32.02C601.351 33.02 600.611 34.04 599.811 35.08C599.011 36.12 598.271 37.12 597.591 38.08C596.911 39 596.331 39.86 595.851 40.66C595.411 41.42 595.191 42.06 595.191 42.58C595.191 43.7 595.751 44.26 596.871 44.26C598.151 44.26 599.511 43.84 600.951 43C602.391 42.12 604.111 40.66 606.111 38.62C606.911 37.82 607.711 36.94 608.511 35.98C609.351 35.02 610.151 34.08 610.911 33.16C611.671 32.2 612.351 31.3 612.951 30.46C613.591 29.62 614.091 28.92 614.451 28.36L614.871 28.6C614.071 29.8 613.031 31.24 611.751 32.92C610.511 34.56 609.151 36.18 607.671 37.78C606.791 38.74 605.891 39.66 604.971 40.54C604.051 41.42 603.131 42.2 602.211 42.88C601.291 43.52 600.371 44.04 599.451 44.44C598.571 44.8 597.691 44.98 596.811 44.98C595.651 44.98 594.691 44.66 593.931 44.02C593.171 43.38 592.791 42.5 592.791 41.38C592.791 40.18 593.271 38.88 594.231 37.48C595.191 36.04 596.251 34.6 597.411 33.16C598.571 31.72 599.631 30.34 600.591 29.02C601.551 27.7 602.031 26.54 602.031 25.54C602.031 25.06 601.871 24.7 601.551 24.46C601.231 24.22 600.811 24.1 600.291 24.1C599.291 24.1 598.171 24.48 596.931 25.24C595.691 25.96 594.411 26.94 593.091 28.18C591.811 29.38 590.511 30.74 589.191 32.26C587.911 33.74 586.711 35.24 585.591 36.76C584.471 38.24 583.471 39.68 582.591 41.08C581.711 42.44 581.051 43.58 580.611 44.5H576.891C577.931 42.74 579.051 40.96 580.251 39.16C581.411 37.32 582.571 35.52 583.731 33.76C584.891 31.96 585.991 30.24 587.031 28.6C588.111 26.92 589.071 25.4 589.911 24.04L593.811 23.86ZM630.491 23.86H634.391C632.911 25.94 631.491 27.96 630.131 29.92C628.771 31.88 627.551 33.7 626.471 35.38C625.431 37.02 624.591 38.48 623.951 39.76C623.311 41 622.991 41.98 622.991 42.7C622.991 43.74 623.531 44.26 624.611 44.26C625.451 44.26 626.511 43.86 627.791 43.06C629.111 42.22 630.531 41.08 632.051 39.64C633.571 38.2 635.131 36.52 636.731 34.6C638.331 32.68 639.851 30.64 641.291 28.48L641.651 28.6C640.571 30.24 639.291 32.02 637.811 33.94C636.371 35.82 634.851 37.58 633.251 39.22C631.651 40.86 630.051 42.24 628.451 43.36C626.851 44.44 625.351 44.98 623.951 44.98C622.791 44.98 621.931 44.7 621.371 44.14C620.851 43.54 620.591 42.84 620.591 42.04C620.591 41.48 620.671 40.94 620.831 40.42C621.031 39.86 621.231 39.3 621.431 38.74L621.311 38.68C620.791 39.24 620.131 39.9 619.331 40.66C618.571 41.38 617.731 42.06 616.811 42.7C615.931 43.34 615.011 43.88 614.051 44.32C613.091 44.76 612.171 44.98 611.291 44.98C609.811 44.98 608.771 44.52 608.171 43.6C607.571 42.68 607.271 41.64 607.271 40.48C607.271 38.84 607.791 37.04 608.831 35.08C609.871 33.08 611.191 31.22 612.791 29.5C614.391 27.74 616.131 26.28 618.011 25.12C619.891 23.96 621.671 23.38 623.351 23.38C624.151 23.38 624.851 23.5 625.451 23.74C626.051 23.94 626.551 24.24 626.951 24.64C627.351 25 627.651 25.42 627.851 25.9C628.091 26.38 628.271 26.88 628.391 27.4H628.511L630.491 23.86ZM610.871 40.66C610.871 41.58 611.051 42.3 611.411 42.82C611.811 43.3 612.351 43.54 613.031 43.54C613.711 43.54 614.511 43.3 615.431 42.82C616.351 42.3 617.311 41.62 618.311 40.78C619.311 39.94 620.291 38.98 621.251 37.9C622.251 36.78 623.131 35.6 623.891 34.36C624.651 33.12 625.271 31.86 625.751 30.58C626.231 29.3 626.471 28.08 626.471 26.92C626.471 26 626.211 25.3 625.691 24.82C625.171 24.34 624.531 24.1 623.771 24.1C622.571 24.1 621.231 24.62 619.751 25.66C618.271 26.7 616.871 28.04 615.551 29.68C614.231 31.28 613.111 33.06 612.191 35.02C611.311 36.98 610.871 38.86 610.871 40.66ZM676.232 29.44C675.312 30.92 674.092 32.52 672.572 34.24C671.092 35.92 669.472 37.5 667.712 38.98C665.552 40.78 663.392 42.24 661.232 43.36C659.072 44.44 656.952 44.98 654.872 44.98C653.392 44.98 652.152 44.6 651.152 43.84C650.152 43.04 649.652 41.88 649.652 40.36C649.652 38.44 650.192 36.48 651.272 34.48C652.392 32.48 653.772 30.66 655.412 29.02C657.092 27.34 658.912 25.98 660.872 24.94C662.872 23.9 664.752 23.38 666.512 23.38C667.672 23.38 668.672 23.6 669.512 24.04C670.392 24.44 670.832 25.16 670.832 26.2C670.832 26.68 670.692 27.08 670.412 27.4C670.172 27.72 669.852 27.98 669.452 28.18C669.092 28.38 668.672 28.54 668.192 28.66C667.752 28.74 667.352 28.8 666.992 28.84C667.152 28.44 667.292 28.04 667.412 27.64C667.532 27.2 667.592 26.76 667.592 26.32C667.592 24.84 666.892 24.1 665.492 24.1C664.452 24.1 663.212 24.62 661.772 25.66C660.372 26.66 659.032 27.94 657.752 29.5C656.512 31.06 655.452 32.78 654.572 34.66C653.692 36.54 653.252 38.36 653.252 40.12C653.252 41.2 653.492 42.12 653.972 42.88C654.492 43.64 655.272 44.02 656.312 44.02C657.712 44.02 659.312 43.56 661.112 42.64C662.952 41.72 664.732 40.58 666.452 39.22C668.252 37.82 669.972 36.22 671.612 34.42C673.292 32.58 674.692 30.8 675.812 29.08L676.232 29.44ZM703.052 29.32C702.092 30.4 701.012 31.26 699.812 31.9C698.612 32.54 697.432 32.86 696.272 32.86C695.152 32.86 694.192 32.62 693.392 32.14C692.592 31.62 691.972 31.02 691.532 30.34H691.412C691.012 31.86 690.272 33.48 689.192 35.2C688.112 36.92 686.812 38.5 685.292 39.94C683.812 41.38 682.172 42.58 680.372 43.54C678.572 44.5 676.732 44.98 674.852 44.98C673.132 44.98 671.832 44.48 670.952 43.48C670.072 42.48 669.632 41.14 669.632 39.46C669.632 38.58 669.852 37.56 670.292 36.4C670.732 35.24 671.332 34.08 672.092 32.92C672.892 31.72 673.812 30.56 674.852 29.44C675.932 28.28 677.092 27.26 678.332 26.38C679.572 25.46 680.872 24.74 682.232 24.22C683.632 23.66 685.032 23.38 686.432 23.38C688.072 23.38 689.332 23.86 690.212 24.82C691.132 25.78 691.632 27.02 691.712 28.54C691.792 29.46 692.212 30.32 692.972 31.12C693.772 31.88 694.852 32.26 696.212 32.26C697.412 32.26 698.532 31.96 699.572 31.36C700.652 30.76 701.652 29.98 702.572 29.02L703.052 29.32ZM672.872 40.9C672.872 41.94 673.072 42.76 673.472 43.36C673.872 43.96 674.472 44.26 675.272 44.26C676.352 44.26 677.412 43.98 678.452 43.42C679.532 42.82 680.552 42.06 681.512 41.14C682.512 40.18 683.432 39.1 684.272 37.9C685.112 36.7 685.832 35.46 686.432 34.18C687.072 32.9 687.572 31.66 687.932 30.46C688.292 29.22 688.472 28.1 688.472 27.1C688.472 26.26 688.252 25.56 687.812 25C687.412 24.4 686.772 24.1 685.892 24.1C685.052 24.1 684.152 24.38 683.192 24.94C682.232 25.46 681.252 26.16 680.252 27.04C679.292 27.92 678.372 28.94 677.492 30.1C676.612 31.26 675.812 32.46 675.092 33.7C674.412 34.94 673.872 36.18 673.472 37.42C673.072 38.66 672.872 39.82 672.872 40.9ZM723.112 29.02C721.912 30.94 720.512 32.86 718.912 34.78C717.352 36.66 715.632 38.36 713.752 39.88C711.872 41.4 709.812 42.64 707.572 43.6C705.372 44.52 703.012 44.98 700.492 44.98C699.532 44.98 698.632 44.86 697.792 44.62C696.952 44.38 696.212 44.02 695.572 43.54C694.972 43.06 694.492 42.46 694.132 41.74C693.732 40.98 693.532 40.1 693.532 39.1C693.532 38.06 693.872 37.12 694.552 36.28C695.232 35.44 696.152 35.02 697.312 35.02C697.912 35.02 698.392 35.18 698.752 35.5C699.152 35.78 699.352 36.22 699.352 36.82C699.352 37.38 699.212 37.86 698.932 38.26C698.652 38.66 698.232 38.86 697.672 38.86C697.232 38.86 696.872 38.74 696.592 38.5C696.352 38.26 696.192 37.96 696.112 37.6C695.672 37.84 695.372 38.2 695.212 38.68C695.052 39.12 694.972 39.58 694.972 40.06C694.972 41.46 695.492 42.52 696.532 43.24C697.612 43.92 698.812 44.26 700.132 44.26C700.972 44.26 701.692 44.1 702.292 43.78C702.932 43.42 703.452 42.98 703.852 42.46C704.292 41.9 704.612 41.26 704.812 40.54C705.012 39.82 705.112 39.1 705.112 38.38C705.112 37.62 704.972 36.84 704.692 36.04C704.452 35.2 704.172 34.38 703.852 33.58C703.532 32.78 703.232 32 702.952 31.24C702.672 30.44 702.532 29.7 702.532 29.02C702.532 28.14 702.712 27.36 703.072 26.68C703.432 25.96 703.912 25.36 704.512 24.88C705.152 24.4 705.872 24.04 706.672 23.8C707.472 23.52 708.312 23.38 709.192 23.38C710.792 23.38 712.092 23.74 713.092 24.46C714.092 25.14 714.592 26.06 714.592 27.22C714.592 28.26 714.192 29.02 713.392 29.5C712.632 29.98 711.772 30.22 710.812 30.22C711.052 29.78 711.252 29.26 711.412 28.66C711.612 28.02 711.712 27.44 711.712 26.92C711.712 26.12 711.452 25.46 710.932 24.94C710.452 24.38 709.752 24.1 708.832 24.1C707.672 24.1 706.812 24.46 706.252 25.18C705.692 25.86 705.412 26.7 705.412 27.7C705.412 28.58 705.552 29.42 705.832 30.22C706.152 31.02 706.512 31.82 706.912 32.62C707.272 33.42 707.592 34.24 707.872 35.08C708.192 35.92 708.352 36.86 708.352 37.9C708.352 38.66 708.172 39.4 707.812 40.12C707.492 40.8 707.052 41.44 706.492 42.04C705.932 42.6 705.292 43.08 704.572 43.48C703.892 43.88 703.192 44.14 702.472 44.26L702.592 44.38C704.752 44.14 706.812 43.52 708.772 42.52C710.732 41.48 712.552 40.24 714.232 38.8C715.952 37.32 717.532 35.72 718.972 34C720.412 32.24 721.672 30.52 722.752 28.84L723.112 29.02ZM733.313 16.9L728.573 23.86H736.493L736.133 24.58H728.093C726.493 27.18 725.053 29.44 723.773 31.36C722.533 33.24 721.473 34.88 720.593 36.28C719.753 37.64 719.113 38.8 718.673 39.76C718.233 40.68 718.013 41.5 718.013 42.22C718.013 42.98 718.273 43.52 718.793 43.84C719.313 44.12 719.913 44.26 720.593 44.26C722.033 44.26 723.613 43.72 725.333 42.64C727.093 41.52 728.833 40.16 730.553 38.56C732.273 36.96 733.913 35.26 735.473 33.46C737.033 31.66 738.353 30.04 739.433 28.6L739.793 28.84C738.433 30.56 736.933 32.38 735.293 34.3C733.693 36.18 732.033 37.92 730.313 39.52C728.593 41.08 726.853 42.38 725.093 43.42C723.373 44.46 721.733 44.98 720.173 44.98C718.933 44.98 717.853 44.6 716.933 43.84C716.053 43.08 715.613 42.02 715.613 40.66C715.613 39.74 715.873 38.72 716.393 37.6C716.913 36.44 717.593 35.2 718.433 33.88C719.273 32.56 720.213 31.12 721.253 29.56C722.333 28 723.433 26.34 724.553 24.58H721.313L721.673 23.86H725.033L729.713 16.9H733.313ZM755.472 23.86H759.372C757.892 25.94 756.472 27.96 755.112 29.92C753.752 31.88 752.532 33.7 751.452 35.38C750.412 37.02 749.572 38.48 748.932 39.76C748.292 41 747.972 41.98 747.972 42.7C747.972 43.74 748.512 44.26 749.592 44.26C750.432 44.26 751.492 43.86 752.772 43.06C754.092 42.22 755.512 41.08 757.032 39.64C758.552 38.2 760.112 36.52 761.712 34.6C763.312 32.68 764.832 30.64 766.272 28.48L766.632 28.6C765.552 30.24 764.272 32.02 762.792 33.94C761.352 35.82 759.832 37.58 758.232 39.22C756.632 40.86 755.032 42.24 753.432 43.36C751.832 44.44 750.332 44.98 748.932 44.98C747.772 44.98 746.912 44.7 746.352 44.14C745.832 43.54 745.572 42.84 745.572 42.04C745.572 41.48 745.652 40.94 745.812 40.42C746.012 39.86 746.212 39.3 746.412 38.74L746.292 38.68C745.772 39.24 745.112 39.9 744.312 40.66C743.552 41.38 742.712 42.06 741.792 42.7C740.912 43.34 739.992 43.88 739.032 44.32C738.072 44.76 737.152 44.98 736.272 44.98C734.792 44.98 733.752 44.52 733.152 43.6C732.552 42.68 732.252 41.64 732.252 40.48C732.252 38.84 732.772 37.04 733.812 35.08C734.852 33.08 736.172 31.22 737.772 29.5C739.372 27.74 741.112 26.28 742.992 25.12C744.872 23.96 746.652 23.38 748.332 23.38C749.132 23.38 749.832 23.5 750.432 23.74C751.032 23.94 751.532 24.24 751.932 24.64C752.332 25 752.632 25.42 752.832 25.9C753.072 26.38 753.252 26.88 753.372 27.4H753.492L755.472 23.86ZM735.852 40.66C735.852 41.58 736.032 42.3 736.392 42.82C736.792 43.3 737.332 43.54 738.012 43.54C738.692 43.54 739.492 43.3 740.412 42.82C741.332 42.3 742.292 41.62 743.292 40.78C744.292 39.94 745.272 38.98 746.232 37.9C747.232 36.78 748.112 35.6 748.872 34.36C749.632 33.12 750.252 31.86 750.732 30.58C751.212 29.3 751.452 28.08 751.452 26.92C751.452 26 751.192 25.3 750.672 24.82C750.152 24.34 749.512 24.1 748.752 24.1C747.552 24.1 746.212 24.62 744.732 25.66C743.252 26.7 741.852 28.04 740.532 29.68C739.212 31.28 738.092 33.06 737.172 35.02C736.292 36.98 735.852 38.86 735.852 40.66ZM814.532 2.98C812.972 5.46 811.272 8.08 809.432 10.84C807.592 13.6 805.752 16.34 803.912 19.06C802.072 21.78 800.292 24.42 798.572 26.98C796.892 29.5 795.392 31.82 794.072 33.94C792.752 36.06 791.692 37.9 790.892 39.46C790.132 40.98 789.752 42.1 789.752 42.82C789.752 43.26 789.852 43.62 790.052 43.9C790.292 44.14 790.632 44.26 791.072 44.26C792.072 44.26 793.212 43.86 794.492 43.06C795.772 42.26 797.312 41 799.112 39.28C800.672 37.76 802.192 36.08 803.672 34.24C805.152 32.36 806.432 30.52 807.512 28.72L807.992 28.96C807.632 29.6 807.152 30.36 806.552 31.24C805.992 32.08 805.352 32.96 804.632 33.88C803.952 34.8 803.212 35.74 802.412 36.7C801.612 37.62 800.792 38.5 799.952 39.34C798.352 40.98 796.772 42.34 795.212 43.42C793.652 44.46 792.212 44.98 790.892 44.98C789.612 44.98 788.652 44.72 788.012 44.2C787.412 43.64 787.112 42.94 787.112 42.1C787.112 41.34 787.272 40.6 787.592 39.88C787.912 39.16 788.232 38.52 788.552 37.96L788.432 37.9C787.792 38.62 787.072 39.4 786.272 40.24C785.512 41.04 784.692 41.8 783.812 42.52C782.932 43.24 781.992 43.84 780.992 44.32C780.032 44.76 779.032 44.98 777.992 44.98C776.552 44.98 775.432 44.54 774.632 43.66C773.872 42.78 773.492 41.74 773.492 40.54C773.492 38.86 774.072 37.02 775.232 35.02C776.392 33.02 777.832 31.16 779.552 29.44C781.312 27.72 783.192 26.28 785.192 25.12C787.192 23.96 789.052 23.38 790.772 23.38C792.052 23.38 793.072 23.78 793.832 24.58C794.592 25.38 794.952 26.4 794.912 27.64H795.092L810.572 2.98H814.532ZM793.232 27.7C793.232 26.74 793.072 25.9 792.752 25.18C792.432 24.46 791.692 24.1 790.532 24.1C789.732 24.1 788.832 24.38 787.832 24.94C786.872 25.5 785.892 26.24 784.892 27.16C783.892 28.08 782.912 29.14 781.952 30.34C781.032 31.5 780.212 32.7 779.492 33.94C778.772 35.14 778.192 36.32 777.752 37.48C777.312 38.64 777.092 39.68 777.092 40.6C777.092 41.44 777.252 42.14 777.572 42.7C777.892 43.26 778.472 43.54 779.312 43.54C780.032 43.54 780.852 43.26 781.772 42.7C782.732 42.14 783.732 41.42 784.772 40.54C785.812 39.62 786.832 38.58 787.832 37.42C788.832 36.26 789.732 35.1 790.532 33.94C791.332 32.78 791.972 31.66 792.452 30.58C792.972 29.46 793.232 28.5 793.232 27.7ZM834.712 29.32C833.752 30.4 832.672 31.26 831.472 31.9C830.272 32.54 829.092 32.86 827.932 32.86C826.812 32.86 825.852 32.62 825.052 32.14C824.252 31.62 823.632 31.02 823.192 30.34H823.072C822.672 31.86 821.932 33.48 820.852 35.2C819.772 36.92 818.472 38.5 816.952 39.94C815.472 41.38 813.832 42.58 812.032 43.54C810.232 44.5 808.392 44.98 806.512 44.98C804.792 44.98 803.492 44.48 802.612 43.48C801.732 42.48 801.292 41.14 801.292 39.46C801.292 38.58 801.512 37.56 801.952 36.4C802.392 35.24 802.992 34.08 803.752 32.92C804.552 31.72 805.472 30.56 806.512 29.44C807.592 28.28 808.752 27.26 809.992 26.38C811.232 25.46 812.532 24.74 813.892 24.22C815.292 23.66 816.692 23.38 818.092 23.38C819.732 23.38 820.992 23.86 821.872 24.82C822.792 25.78 823.292 27.02 823.372 28.54C823.452 29.46 823.872 30.32 824.632 31.12C825.432 31.88 826.512 32.26 827.872 32.26C829.072 32.26 830.192 31.96 831.232 31.36C832.312 30.76 833.312 29.98 834.232 29.02L834.712 29.32ZM804.532 40.9C804.532 41.94 804.732 42.76 805.132 43.36C805.532 43.96 806.132 44.26 806.932 44.26C808.012 44.26 809.072 43.98 810.112 43.42C811.192 42.82 812.212 42.06 813.172 41.14C814.172 40.18 815.092 39.1 815.932 37.9C816.772 36.7 817.492 35.46 818.092 34.18C818.732 32.9 819.232 31.66 819.592 30.46C819.952 29.22 820.132 28.1 820.132 27.1C820.132 26.26 819.912 25.56 819.472 25C819.072 24.4 818.432 24.1 817.552 24.1C816.712 24.1 815.812 24.38 814.852 24.94C813.892 25.46 812.912 26.16 811.912 27.04C810.952 27.92 810.032 28.94 809.152 30.1C808.272 31.26 807.472 32.46 806.752 33.7C806.072 34.94 805.532 36.18 805.132 37.42C804.732 38.66 804.532 39.82 804.532 40.9ZM900.972 1.12C900.052 1.44 899.072 1.8 898.032 2.2C897.032 2.56 896.132 2.98 895.332 3.46C897.092 4.46 898.352 5.68 899.112 7.12C899.872 8.56 900.252 10.24 900.252 12.16C900.252 13.68 899.852 15.12 899.052 16.48C898.292 17.84 897.312 19.04 896.112 20.08C894.912 21.12 893.572 21.96 892.092 22.6C890.652 23.2 889.272 23.5 887.952 23.5C886.552 23.5 885.472 23.22 884.712 22.66C883.992 22.06 883.632 21.3 883.632 20.38C883.632 19.82 883.812 19.34 884.172 18.94C884.572 18.5 885.072 18.28 885.672 18.28C885.952 18.28 886.252 18.38 886.572 18.58C886.892 18.74 887.112 18.96 887.232 19.24C887.032 19.48 886.852 19.72 886.692 19.96C886.572 20.2 886.512 20.48 886.512 20.8C886.512 21.48 886.712 21.98 887.112 22.3C887.512 22.62 888.032 22.78 888.672 22.78C889.712 22.78 890.712 22.4 891.672 21.64C892.672 20.88 893.572 19.88 894.372 18.64C895.172 17.4 895.812 16.02 896.292 14.5C896.772 12.94 897.012 11.38 897.012 9.82C897.012 8.38 896.792 7.2 896.352 6.28C895.952 5.36 895.312 4.6 894.432 4C892.352 5.2 890.452 6.88 888.732 9.04C887.012 11.2 885.332 13.6 883.692 16.24C882.092 18.84 880.472 21.56 878.832 24.4C877.192 27.2 875.412 29.88 873.492 32.44C871.612 34.96 869.512 37.24 867.192 39.28C864.872 41.32 862.212 42.86 859.212 43.9V44.02C860.972 44.3 862.612 44.48 864.132 44.56C865.692 44.68 867.372 44.74 869.172 44.74C875.132 44.74 880.292 43.36 884.652 40.6C889.012 37.8 892.772 33.96 895.932 29.08L896.412 29.32C894.612 32.04 892.772 34.42 890.892 36.46C889.052 38.46 887.032 40.14 884.832 41.5C882.632 42.82 880.212 43.82 877.572 44.5C874.972 45.14 871.992 45.46 868.632 45.46C867.032 45.46 865.272 45.34 863.352 45.1C861.472 44.86 859.772 44.58 858.252 44.26C857.892 44.26 856.812 44.46 855.012 44.86C853.212 45.26 850.752 45.46 847.632 45.46C845.632 45.46 844.212 45.3 843.372 44.98C842.532 44.66 842.112 44.24 842.112 43.72C842.112 43.2 842.352 42.78 842.832 42.46C843.312 42.14 844.152 41.98 845.352 41.98C846.312 41.98 847.252 42.02 848.172 42.1C849.092 42.18 850.052 42.3 851.052 42.46C852.092 42.58 853.172 42.76 854.292 43C855.452 43.2 856.732 43.44 858.132 43.72C859.892 43.32 861.652 42.2 863.412 40.36C865.172 38.52 866.952 36.3 868.752 33.7C870.592 31.06 872.452 28.22 874.332 25.18C876.252 22.1 878.212 19.14 880.212 16.3C882.252 13.42 884.372 10.84 886.572 8.56C888.772 6.28 891.092 4.6 893.532 3.52C892.692 3.12 891.672 2.86 890.472 2.74C889.272 2.58 888.192 2.5 887.232 2.5C885.072 2.5 882.772 2.78 880.332 3.34C877.932 3.86 875.552 4.62 873.192 5.62C870.832 6.58 868.572 7.78 866.412 9.22C864.292 10.66 862.412 12.28 860.772 14.08C859.132 15.84 857.832 17.8 856.872 19.96C855.912 22.08 855.432 24.34 855.432 26.74C855.432 28.66 855.872 30.14 856.752 31.18C857.672 32.22 859.012 32.74 860.772 32.74C862.292 32.74 863.712 32.36 865.032 31.6C866.352 30.8 867.492 29.8 868.452 28.6C869.452 27.36 870.232 26 870.792 24.52C871.352 23 871.632 21.54 871.632 20.14V17.86H872.352V20.14C872.352 21.62 872.052 23.16 871.452 24.76C870.852 26.32 870.032 27.76 868.992 29.08C867.952 30.36 866.692 31.42 865.212 32.26C863.772 33.06 862.212 33.46 860.532 33.46C859.492 33.46 858.532 33.26 857.652 32.86C856.812 32.46 856.072 31.92 855.432 31.24C854.832 30.56 854.352 29.78 853.992 28.9C853.672 27.98 853.512 27 853.512 25.96C853.512 24.12 853.932 22.26 854.772 20.38C855.652 18.46 856.852 16.6 858.372 14.8C859.892 13 861.712 11.32 863.832 9.76C865.952 8.16 868.272 6.78 870.792 5.62C873.312 4.42 875.992 3.48 878.832 2.8C881.712 2.12 884.632 1.78 887.592 1.78C889.112 1.78 890.412 1.9 891.492 2.14C892.572 2.34 893.572 2.64 894.492 3.04C896.492 2.16 898.612 1.44 900.852 0.879997L900.972 1.12ZM902.852 23.86C900.652 27.02 898.792 29.68 897.272 31.84C895.752 34 894.512 35.8 893.552 37.24C892.632 38.68 891.952 39.82 891.512 40.66C891.112 41.5 890.912 42.18 890.912 42.7C890.912 43.74 891.332 44.26 892.172 44.26C892.972 44.26 893.892 43.98 894.932 43.42C896.012 42.82 897.132 42.06 898.292 41.14C899.452 40.22 900.612 39.18 901.772 38.02C902.932 36.86 904.012 35.72 905.012 34.6C906.052 33.44 906.952 32.34 907.712 31.3C908.512 30.22 909.092 29.34 909.452 28.66L909.932 28.96C909.452 29.76 908.792 30.72 907.952 31.84C907.152 32.96 906.232 34.12 905.192 35.32C904.152 36.48 903.052 37.64 901.892 38.8C900.732 39.96 899.552 41 898.352 41.92C897.152 42.84 895.972 43.58 894.812 44.14C893.692 44.7 892.652 44.98 891.692 44.98C890.612 44.98 889.812 44.68 889.292 44.08C888.772 43.48 888.512 42.82 888.512 42.1C888.512 41.26 888.692 40.38 889.052 39.46C889.452 38.5 890.072 37.34 890.912 35.98C891.752 34.62 892.832 32.98 894.152 31.06C895.512 29.1 897.132 26.7 899.012 23.86H902.852ZM906.332 12.7C906.892 12.7 907.352 12.9 907.712 13.3C908.072 13.66 908.252 14.12 908.252 14.68C908.252 15.24 908.072 15.72 907.712 16.12C907.352 16.48 906.892 16.66 906.332 16.66C905.772 16.66 905.312 16.48 904.952 16.12C904.592 15.72 904.412 15.24 904.412 14.68C904.412 14.12 904.592 13.66 904.952 13.3C905.312 12.9 905.772 12.7 906.332 12.7ZM925.452 23.86H929.352C927.872 25.94 926.452 27.96 925.092 29.92C923.732 31.88 922.512 33.7 921.432 35.38C920.392 37.02 919.552 38.48 918.912 39.76C918.272 41 917.952 41.98 917.952 42.7C917.952 43.74 918.492 44.26 919.572 44.26C920.412 44.26 921.472 43.86 922.752 43.06C924.072 42.22 925.492 41.08 927.012 39.64C928.532 38.2 930.092 36.52 931.692 34.6C933.292 32.68 934.812 30.64 936.252 28.48L936.612 28.6C935.532 30.24 934.252 32.02 932.772 33.94C931.332 35.82 929.812 37.58 928.212 39.22C926.612 40.86 925.012 42.24 923.412 43.36C921.812 44.44 920.312 44.98 918.912 44.98C917.752 44.98 916.892 44.7 916.332 44.14C915.812 43.54 915.552 42.84 915.552 42.04C915.552 41.48 915.632 40.94 915.792 40.42C915.992 39.86 916.192 39.3 916.392 38.74L916.272 38.68C915.752 39.24 915.092 39.9 914.292 40.66C913.532 41.38 912.692 42.06 911.772 42.7C910.892 43.34 909.972 43.88 909.012 44.32C908.052 44.76 907.132 44.98 906.252 44.98C904.772 44.98 903.732 44.52 903.132 43.6C902.532 42.68 902.232 41.64 902.232 40.48C902.232 38.84 902.752 37.04 903.792 35.08C904.832 33.08 906.152 31.22 907.752 29.5C909.352 27.74 911.092 26.28 912.972 25.12C914.852 23.96 916.632 23.38 918.312 23.38C919.112 23.38 919.812 23.5 920.412 23.74C921.012 23.94 921.512 24.24 921.912 24.64C922.312 25 922.612 25.42 922.812 25.9C923.052 26.38 923.232 26.88 923.352 27.4H923.472L925.452 23.86ZM905.832 40.66C905.832 41.58 906.012 42.3 906.372 42.82C906.772 43.3 907.312 43.54 907.992 43.54C908.672 43.54 909.472 43.3 910.392 42.82C911.312 42.3 912.272 41.62 913.272 40.78C914.272 39.94 915.252 38.98 916.212 37.9C917.212 36.78 918.092 35.6 918.852 34.36C919.612 33.12 920.232 31.86 920.712 30.58C921.192 29.3 921.432 28.08 921.432 26.92C921.432 26 921.172 25.3 920.652 24.82C920.132 24.34 919.492 24.1 918.732 24.1C917.532 24.1 916.192 24.62 914.712 25.66C913.232 26.7 911.832 28.04 910.512 29.68C909.192 31.28 908.072 33.06 907.152 35.02C906.272 36.98 905.832 38.86 905.832 40.66ZM942.813 23.86C941.253 25.98 939.753 28 938.313 29.92C936.873 31.84 935.593 33.6 934.473 35.2C933.353 36.8 932.453 38.2 931.773 39.4C931.133 40.56 930.813 41.48 930.813 42.16C930.813 42.8 930.973 43.28 931.293 43.6C931.613 43.88 932.033 44.02 932.553 44.02C933.313 44.02 934.133 43.78 935.013 43.3C935.933 42.82 936.853 42.2 937.773 41.44C938.733 40.68 939.653 39.84 940.533 38.92C941.453 38 942.293 37.1 943.053 36.22C943.853 35.3 944.533 34.46 945.093 33.7C945.693 32.94 946.133 32.34 946.413 31.9L951.693 23.86H955.833C953.673 26.82 951.833 29.34 950.313 31.42C948.833 33.46 947.613 35.2 946.653 36.64C945.733 38.08 945.073 39.26 944.673 40.18C944.273 41.06 944.073 41.84 944.073 42.52C944.073 43 944.213 43.42 944.493 43.78C944.773 44.1 945.173 44.26 945.693 44.26C946.493 44.26 947.413 43.98 948.453 43.42C949.493 42.82 950.573 42.06 951.693 41.14C952.813 40.18 953.913 39.12 954.993 37.96C956.113 36.76 957.153 35.58 958.113 34.42C959.113 33.26 960.013 32.18 960.813 31.18C961.613 30.14 962.233 29.3 962.673 28.66L963.273 28.84C962.793 29.52 962.153 30.4 961.353 31.48C960.553 32.52 959.653 33.64 958.653 34.84C957.653 36 956.593 37.2 955.473 38.44C954.353 39.64 953.193 40.72 951.993 41.68C950.833 42.64 949.673 43.44 948.513 44.08C947.393 44.68 946.333 44.98 945.333 44.98C944.213 44.98 943.313 44.68 942.633 44.08C941.993 43.44 941.673 42.6 941.673 41.56C941.673 40.76 941.793 40 942.033 39.28C942.313 38.52 942.513 38.04 942.633 37.84L942.513 37.72C941.673 38.68 940.793 39.6 939.873 40.48C938.953 41.36 938.033 42.14 937.113 42.82C936.193 43.46 935.253 43.98 934.293 44.38C933.373 44.78 932.453 44.98 931.533 44.98C930.253 44.98 929.333 44.7 928.773 44.14C928.213 43.54 927.933 42.84 927.933 42.04C927.933 41.04 928.213 39.96 928.773 38.8C929.293 37.64 930.033 36.34 930.993 34.9C931.953 33.46 933.093 31.84 934.413 30.04C935.773 28.24 937.253 26.18 938.853 23.86H942.813ZM969.473 23.86C967.273 27.02 965.413 29.68 963.893 31.84C962.373 34 961.133 35.8 960.173 37.24C959.253 38.68 958.573 39.82 958.133 40.66C957.733 41.5 957.533 42.18 957.533 42.7C957.533 43.74 957.953 44.26 958.793 44.26C959.593 44.26 960.513 43.98 961.553 43.42C962.633 42.82 963.753 42.06 964.913 41.14C966.073 40.22 967.233 39.18 968.393 38.02C969.553 36.86 970.633 35.72 971.633 34.6C972.673 33.44 973.573 32.34 974.333 31.3C975.133 30.22 975.713 29.34 976.073 28.66L976.553 28.96C976.073 29.76 975.413 30.72 974.573 31.84C973.773 32.96 972.853 34.12 971.813 35.32C970.773 36.48 969.673 37.64 968.513 38.8C967.353 39.96 966.173 41 964.973 41.92C963.773 42.84 962.593 43.58 961.433 44.14C960.313 44.7 959.273 44.98 958.313 44.98C957.233 44.98 956.433 44.68 955.913 44.08C955.393 43.48 955.133 42.82 955.133 42.1C955.133 41.26 955.313 40.38 955.673 39.46C956.073 38.5 956.693 37.34 957.533 35.98C958.373 34.62 959.453 32.98 960.773 31.06C962.133 29.1 963.753 26.7 965.633 23.86H969.473ZM975.473 10.18C975.913 10.18 976.233 10.38 976.433 10.78C976.673 11.14 976.793 11.48 976.793 11.8C976.793 12.64 976.413 13.54 975.653 14.5C974.893 15.46 974.033 16.36 973.073 17.2C972.153 18.04 971.273 18.74 970.433 19.3C969.593 19.86 969.073 20.14 968.873 20.14C968.673 20.14 968.573 20.06 968.573 19.9C968.573 19.74 968.793 19.48 969.233 19.12C969.713 18.76 970.233 18.32 970.793 17.8C971.353 17.24 971.873 16.64 972.353 16C972.873 15.32 973.153 14.62 973.193 13.9C973.273 12.86 973.493 11.98 973.853 11.26C974.253 10.54 974.793 10.18 975.473 10.18ZM978.454 35.92C980.334 32.88 982.174 29.84 983.974 26.8C985.814 23.76 987.374 20.58 988.654 17.26C989.334 15.5 989.934 14.3 990.454 13.66C990.974 13.02 991.634 12.7 992.434 12.7C992.994 12.7 993.454 12.9 993.814 13.3C994.214 13.7 994.414 14.18 994.414 14.74C994.414 15.54 994.114 16.3 993.514 17.02C992.954 17.7 992.414 18.32 991.894 18.88C989.494 21.6 987.194 24.4 984.994 27.28C982.834 30.12 980.774 33.08 978.814 36.16L978.454 35.92ZM975.274 40.06C975.874 40.06 976.394 40.28 976.834 40.72C977.274 41.16 977.494 41.68 977.494 42.28C977.494 42.88 977.274 43.4 976.834 43.84C976.394 44.28 975.874 44.5 975.274 44.5C974.674 44.5 974.154 44.28 973.714 43.84C973.274 43.4 973.054 42.88 973.054 42.28C973.054 41.68 973.274 41.16 973.714 40.72C974.154 40.28 974.674 40.06 975.274 40.06Z" fill="#210600"/>
</svg>
