<svg width="340" height="143" viewBox="0 0 340 143" fill="none" xmlns="http://www.w3.org/2000/svg">
<path d="M75.4577 1.64358C72.9937 5.60358 70.7203 9.12358 68.6377 12.2036C66.5843 15.2836 64.795 17.9822 63.2697 20.2996C61.7737 22.5876 60.6003 24.5236 59.7497 26.1076C58.9283 27.6916 58.5177 28.9676 58.5177 29.9356C58.5177 30.5809 58.6643 31.1089 58.9577 31.5196C59.2803 31.9009 59.7937 32.0916 60.4977 32.0916C61.5537 32.0916 62.6977 31.7249 63.9297 30.9916C65.1617 30.2289 66.3937 29.2756 67.6257 28.1316C68.8577 26.9876 70.0603 25.7409 71.2337 24.3916C72.407 23.0422 73.4777 21.7662 74.4457 20.5636L74.7977 20.6956C73.6537 22.1622 72.4657 23.6142 71.2337 25.0516C70.031 26.4596 68.799 27.7356 67.5377 28.8796C66.2763 29.9942 65.0003 30.9036 63.7097 31.6076C62.4483 32.2822 61.187 32.6196 59.9257 32.6196C58.6937 32.6196 57.799 32.2676 57.2417 31.5636C56.6843 30.8596 56.4057 29.9356 56.4057 28.7916C56.4057 28.1462 56.5523 27.4569 56.8457 26.7236C57.1683 25.9902 57.491 25.3742 57.8137 24.8756L57.7257 24.7876C57.0217 25.5502 56.1857 26.3862 55.2177 27.2956C54.2497 28.2049 53.223 29.0556 52.1377 29.8476C51.0523 30.6396 49.9377 31.2996 48.7937 31.8276C47.6497 32.3556 46.535 32.6196 45.4497 32.6196C44.423 32.6196 43.6017 32.3556 42.9857 31.8276C42.399 31.2996 42.1057 30.5369 42.1057 29.5396C42.1057 28.5422 42.4577 27.3396 43.1617 25.9316C43.8657 24.5236 44.731 23.0129 45.7577 21.3996C46.8137 19.7862 47.9577 18.1289 49.1897 16.4276C50.4217 14.6969 51.551 13.0249 52.5777 11.4116C53.6337 9.79824 54.5137 8.30224 55.2177 6.92358C55.9217 5.54491 56.2737 4.37158 56.2737 3.40358C56.2737 2.67024 56.0097 2.17158 55.4817 1.90758C54.983 1.61424 54.3963 1.46758 53.7217 1.46758C52.255 1.46758 50.759 1.81958 49.2337 2.52358C47.7377 3.19824 46.3737 4.09291 45.1417 5.20758C43.939 6.29291 42.9417 7.52491 42.1497 8.90358C41.387 10.2529 41.0057 11.5876 41.0057 12.9076C41.0057 13.8462 41.2403 14.6236 41.7097 15.2396C42.2083 15.8556 43.0443 16.1636 44.2177 16.1636C44.8043 16.1636 45.347 16.0609 45.8457 15.8556C46.3737 15.6502 46.8577 15.3862 47.2977 15.0636C47.7377 14.7409 48.119 14.3889 48.4417 14.0076C48.7937 13.6262 49.087 13.2449 49.3217 12.8636L49.8057 12.9516C49.5417 13.3916 49.2043 13.8462 48.7937 14.3156C48.383 14.7556 47.9283 15.1516 47.4297 15.5036C46.9603 15.8556 46.447 16.1489 45.8897 16.3836C45.3323 16.5889 44.7603 16.6916 44.1737 16.6916C43.0297 16.6916 42.1203 16.3836 41.4457 15.7676C40.8003 15.1222 40.4777 14.1836 40.4777 12.9516C40.4777 11.6316 40.859 10.2676 41.6217 8.85958C42.4137 7.42224 43.4403 6.11691 44.7017 4.94358C45.9923 3.77024 47.459 2.81691 49.1017 2.08358C50.7443 1.32091 52.4457 0.939578 54.2057 0.939578C55.4377 0.939578 56.435 1.23291 57.1977 1.81958C57.9897 2.40624 58.3857 3.27158 58.3857 4.41558C58.3857 5.38358 58.0337 6.57158 57.3297 7.97958C56.655 9.35824 55.8043 10.8542 54.7777 12.4676C53.751 14.0516 52.6363 15.6942 51.4337 17.3956C50.231 19.0676 49.1163 20.6956 48.0897 22.2796C47.063 23.8342 46.1977 25.2862 45.4937 26.6356C44.819 27.9556 44.4817 29.0702 44.4817 29.9796C44.4817 30.6836 44.6577 31.1822 45.0097 31.4756C45.3617 31.7689 45.743 31.9156 46.1537 31.9156C47.2097 31.9156 48.383 31.5489 49.6737 30.8156C50.9643 30.0822 52.2257 29.2022 53.4577 28.1756C54.6897 27.1489 55.819 26.0929 56.8457 25.0076C57.9017 23.8929 58.6937 22.9689 59.2217 22.2356C60.6297 20.3289 62.419 17.6596 64.5897 14.2276C66.7603 10.7662 69.4003 6.57158 72.5097 1.64358H75.4577ZM66.614 32.2676C67.2593 31.1822 68.0073 29.9942 68.858 28.7036C69.6793 27.4129 70.5153 26.1076 71.366 24.7876C72.246 23.4382 73.0967 22.1182 73.918 20.8276C74.7687 19.5076 75.5313 18.2756 76.206 17.1316H78.89L73.082 25.3156L73.17 25.4036C73.7273 24.7289 74.402 23.9076 75.194 22.9396C75.986 21.9422 76.8513 20.9889 77.79 20.0796C78.758 19.1702 79.7847 18.3929 80.87 17.7476C81.9553 17.1022 83.07 16.7796 84.214 16.7796C84.918 16.7796 85.49 16.9702 85.93 17.3516C86.3993 17.7036 86.634 18.2316 86.634 18.9356C86.634 19.3462 86.4873 19.8449 86.194 20.4316C85.9007 21.0182 85.5487 21.6196 85.138 22.2356C84.7567 22.8222 84.3607 23.3942 83.95 23.9516C83.5394 24.5089 83.2167 24.9636 82.982 25.3156L83.07 25.4036C83.686 24.5236 84.4193 23.5849 85.27 22.5876C86.15 21.5902 87.074 20.6662 88.042 19.8156C89.0394 18.9356 90.0514 18.2169 91.078 17.6596C92.134 17.0729 93.146 16.7796 94.114 16.7796C94.9647 16.7796 95.5953 16.9849 96.006 17.3956C96.446 17.8062 96.666 18.3782 96.666 19.1116C96.666 19.6102 96.49 20.1969 96.138 20.8716C95.8154 21.5462 95.39 22.2649 94.862 23.0276C94.3634 23.7609 93.8207 24.5089 93.234 25.2716C92.6473 26.0342 92.09 26.7676 91.562 27.4716C91.0633 28.1756 90.638 28.8356 90.286 29.4516C89.9633 30.0382 89.802 30.5369 89.802 30.9476C89.802 31.2996 89.9047 31.5782 90.11 31.7836C90.3447 31.9889 90.6234 32.0916 90.946 32.0916C91.65 32.0916 92.4714 31.8129 93.41 31.2556C94.378 30.6982 95.4047 29.9209 96.49 28.9236C97.6047 27.9262 98.7634 26.7382 99.966 25.3596C101.169 23.9516 102.386 22.4116 103.618 20.7396L103.97 20.9156C102.767 22.5582 101.565 24.0982 100.362 25.5356C99.1594 26.9436 97.986 28.1756 96.842 29.2316C95.7273 30.2876 94.642 31.1236 93.586 31.7396C92.5594 32.3262 91.606 32.6196 90.726 32.6196C89.8167 32.6196 89.142 32.3702 88.702 31.8716C88.262 31.3436 88.042 30.6982 88.042 29.9356C88.042 29.3782 88.2033 28.7622 88.526 28.0876C88.878 27.3836 89.3033 26.6649 89.802 25.9316C90.33 25.1982 90.8873 24.4649 91.474 23.7316C92.0607 22.9982 92.6033 22.2942 93.102 21.6196C93.63 20.9449 94.0554 20.3289 94.378 19.7716C94.73 19.2142 94.906 18.7596 94.906 18.4076C94.906 17.9969 94.7887 17.7182 94.554 17.5716C94.3487 17.3956 94.0847 17.3076 93.762 17.3076C93.1754 17.3076 92.486 17.5129 91.694 17.9236C90.902 18.3049 90.066 18.8622 89.186 19.5956C88.3353 20.2996 87.4553 21.1356 86.546 22.1036C85.6367 23.0422 84.742 24.0689 83.862 25.1836C83.0113 26.2689 82.2047 27.4276 81.442 28.6596C80.6793 29.8622 80.0193 31.0649 79.462 32.2676H76.646C77.4673 30.8009 78.3473 29.3342 79.286 27.8676C80.254 26.4009 81.1487 25.0516 81.97 23.8196C82.7913 22.5582 83.4807 21.4729 84.038 20.5636C84.5954 19.6249 84.874 18.9356 84.874 18.4956C84.874 17.7036 84.4634 17.3076 83.642 17.3076C82.9087 17.3076 82.0873 17.5862 81.178 18.1436C80.2687 18.6716 79.3447 19.3756 78.406 20.2556C77.4673 21.1062 76.5433 22.0889 75.634 23.2036C74.7247 24.2889 73.8593 25.3889 73.038 26.5036C72.246 27.6182 71.542 28.6889 70.926 29.7156C70.31 30.7129 69.826 31.5636 69.474 32.2676H66.614ZM115.542 17.1316H118.402C117.316 18.6569 116.275 20.1382 115.278 21.5756C114.28 23.0129 113.386 24.3476 112.594 25.5796C111.831 26.7822 111.215 27.8529 110.746 28.7916C110.276 29.7009 110.042 30.4196 110.042 30.9476C110.042 31.7102 110.438 32.0916 111.23 32.0916C111.846 32.0916 112.623 31.7982 113.562 31.2116C114.53 30.5956 115.571 29.7596 116.686 28.7036C117.8 27.6476 118.944 26.4156 120.118 25.0076C121.291 23.5996 122.406 22.1036 123.462 20.5196L123.726 20.6076C122.934 21.8102 121.995 23.1156 120.91 24.5236C119.854 25.9022 118.739 27.1929 117.566 28.3956C116.392 29.5982 115.219 30.6102 114.046 31.4316C112.872 32.2236 111.772 32.6196 110.746 32.6196C109.895 32.6196 109.264 32.4142 108.854 32.0036C108.472 31.5636 108.282 31.0502 108.282 30.4636C108.282 30.0529 108.34 29.6569 108.458 29.2756C108.604 28.8649 108.751 28.4542 108.898 28.0436L108.81 27.9996C108.428 28.4102 107.944 28.8942 107.358 29.4516C106.8 29.9796 106.184 30.4782 105.51 30.9476C104.864 31.4169 104.19 31.8129 103.486 32.1356C102.782 32.4582 102.107 32.6196 101.462 32.6196C100.376 32.6196 99.6137 32.2822 99.1737 31.6076C98.7337 30.9329 98.5137 30.1702 98.5137 29.3196C98.5137 28.1169 98.895 26.7969 99.6577 25.3596C100.42 23.8929 101.388 22.5289 102.562 21.2676C103.735 19.9769 105.011 18.9062 106.39 18.0556C107.768 17.2049 109.074 16.7796 110.306 16.7796C110.892 16.7796 111.406 16.8676 111.846 17.0436C112.286 17.1902 112.652 17.4102 112.946 17.7036C113.239 17.9676 113.459 18.2756 113.606 18.6276C113.782 18.9796 113.914 19.3462 114.002 19.7276H114.09L115.542 17.1316ZM101.154 29.4516C101.154 30.1262 101.286 30.6542 101.55 31.0356C101.843 31.3876 102.239 31.5636 102.738 31.5636C103.236 31.5636 103.823 31.3876 104.498 31.0356C105.172 30.6542 105.876 30.1556 106.61 29.5396C107.343 28.9236 108.062 28.2196 108.766 27.4276C109.499 26.6062 110.144 25.7409 110.702 24.8316C111.259 23.9222 111.714 22.9982 112.066 22.0596C112.418 21.1209 112.594 20.2262 112.594 19.3756C112.594 18.7009 112.403 18.1876 112.022 17.8356C111.64 17.4836 111.171 17.3076 110.614 17.3076C109.734 17.3076 108.751 17.6889 107.666 18.4516C106.58 19.2142 105.554 20.1969 104.586 21.3996C103.618 22.5729 102.796 23.8782 102.122 25.3156C101.476 26.7529 101.154 28.1316 101.154 29.4516ZM142.264 18.5396C142.264 18.1289 142.147 17.8209 141.912 17.6156C141.707 17.4102 141.443 17.3076 141.12 17.3076C140.504 17.3076 139.83 17.5569 139.096 18.0556C138.392 18.5249 137.688 19.1262 136.984 19.8596C136.28 20.5636 135.635 21.3262 135.048 22.1476C134.491 22.9689 134.066 23.7022 133.772 24.3476C134.418 24.2302 135.224 24.0102 136.192 23.6876C137.16 23.3356 138.084 22.9102 138.964 22.4116C139.874 21.9129 140.651 21.3409 141.296 20.6956C141.942 20.0209 142.264 19.3022 142.264 18.5396ZM149.392 20.8716C148.952 21.6049 148.395 22.4116 147.72 23.2916C147.075 24.1716 146.327 25.0516 145.476 25.9316C144.655 26.7822 143.76 27.6182 142.792 28.4396C141.854 29.2316 140.871 29.9502 139.844 30.5956C138.818 31.2116 137.776 31.7102 136.72 32.0916C135.694 32.4436 134.682 32.6196 133.684 32.6196C132.452 32.6196 131.499 32.3116 130.824 31.6956C130.15 31.0502 129.812 30.1409 129.812 28.9676C129.812 27.6769 130.194 26.3276 130.956 24.9196C131.748 23.4822 132.746 22.1622 133.948 20.9596C135.151 19.7569 136.471 18.7596 137.908 17.9676C139.346 17.1756 140.724 16.7796 142.044 16.7796C142.778 16.7796 143.35 16.9409 143.76 17.2636C144.171 17.5569 144.376 17.9969 144.376 18.5836C144.376 19.2876 143.995 19.9769 143.232 20.6516C142.47 21.2969 141.531 21.8982 140.416 22.4556C139.331 22.9836 138.158 23.4676 136.896 23.9076C135.635 24.3182 134.52 24.6262 133.552 24.8316C133.23 25.4182 132.966 26.0782 132.76 26.8116C132.555 27.5449 132.452 28.2782 132.452 29.0116C132.452 29.3636 132.482 29.7156 132.54 30.0676C132.628 30.3902 132.746 30.6982 132.892 30.9916C133.068 31.2556 133.288 31.4756 133.552 31.6516C133.846 31.8276 134.198 31.9156 134.608 31.9156C135.576 31.9156 136.706 31.6076 137.996 30.9916C139.316 30.3462 140.651 29.4956 142 28.4396C143.35 27.3836 144.64 26.1809 145.872 24.8316C147.104 23.4822 148.16 22.0889 149.04 20.6516L149.392 20.8716ZM171.349 20.5636C170.703 21.7076 169.794 22.9836 168.621 24.3916C167.447 25.7702 166.171 27.0756 164.793 28.3076C163.414 29.5396 161.991 30.5662 160.525 31.3876C159.087 32.2089 157.738 32.6196 156.477 32.6196C155.421 32.6196 154.614 32.3702 154.057 31.8716C153.499 31.3729 153.221 30.7422 153.221 29.9796C153.221 29.2462 153.382 28.5569 153.705 27.9116L153.617 27.8236C153.147 28.4396 152.605 29.0409 151.989 29.6276C151.402 30.1849 150.757 30.6982 150.053 31.1676C149.378 31.6076 148.659 31.9596 147.897 32.2236C147.134 32.4876 146.357 32.6196 145.565 32.6196C144.186 32.6196 143.115 32.2822 142.353 31.6076C141.561 30.9329 141.165 30.0382 141.165 28.9236C141.165 28.1609 141.385 27.5156 141.825 26.9876C142.265 26.4596 142.793 26.1956 143.409 26.1956C143.966 26.1956 144.362 26.3422 144.597 26.6356C144.831 26.9289 144.949 27.2662 144.949 27.6476C144.949 28.0289 144.831 28.3516 144.597 28.6156C144.391 28.8796 144.083 29.0116 143.673 29.0116C143.115 29.0116 142.749 28.8062 142.573 28.3956C142.221 28.6889 142.045 29.0702 142.045 29.5396C142.045 30.3609 142.382 30.9916 143.057 31.4316C143.702 31.8716 144.538 32.0916 145.565 32.0916C146.327 32.0916 147.119 31.8862 147.941 31.4756C148.791 31.0356 149.598 30.4782 150.361 29.8036C151.153 29.0996 151.901 28.3076 152.605 27.4276C153.309 26.5182 153.925 25.5942 154.453 24.6556C154.981 23.7169 155.391 22.7929 155.685 21.8836C156.007 20.9742 156.169 20.1676 156.169 19.4636C156.169 18.7596 155.993 18.1729 155.641 17.7036C155.318 17.2049 154.805 16.9556 154.101 16.9556C153.543 16.9556 153.015 17.1022 152.517 17.3956C152.047 17.6596 151.607 18.0116 151.197 18.4516C150.786 18.8622 150.419 19.3022 150.097 19.7716C149.803 20.2116 149.539 20.6076 149.305 20.9596L148.909 20.6956C149.261 20.1382 149.613 19.6102 149.965 19.1116C150.346 18.5836 150.757 18.1289 151.197 17.7476C151.637 17.3369 152.135 17.0142 152.693 16.7796C153.25 16.5449 153.881 16.4276 154.585 16.4276C155.259 16.4276 155.831 16.5449 156.301 16.7796C156.799 16.9849 157.21 17.2782 157.533 17.6596C157.855 18.0409 158.105 18.4662 158.281 18.9356C158.457 19.4049 158.545 19.9036 158.545 20.4316C158.897 20.0502 159.322 19.6542 159.821 19.2436C160.349 18.8036 160.921 18.4076 161.537 18.0556C162.153 17.6742 162.813 17.3662 163.517 17.1316C164.221 16.8969 164.939 16.7796 165.673 16.7796C166.611 16.7796 167.345 17.0142 167.873 17.4836C168.43 17.9236 168.709 18.4662 168.709 19.1116C168.709 19.5222 168.518 19.9036 168.137 20.2556C167.755 20.6076 167.257 20.7836 166.641 20.7836C166.523 20.7836 166.318 20.7542 166.025 20.6956C166.171 20.2849 166.303 19.9182 166.421 19.5956C166.538 19.2436 166.597 18.9209 166.597 18.6276C166.597 17.7476 166.186 17.3076 165.365 17.3076C164.69 17.3076 163.971 17.5129 163.209 17.9236C162.446 18.3049 161.698 18.8329 160.965 19.5076C160.231 20.1529 159.513 20.9009 158.809 21.7516C158.134 22.5729 157.533 23.4382 157.005 24.3476C156.506 25.2276 156.095 26.0929 155.773 26.9436C155.479 27.7942 155.333 28.5716 155.333 29.2756C155.333 30.1262 155.494 30.7862 155.817 31.2556C156.169 31.6956 156.726 31.9156 157.489 31.9156C158.134 31.9156 158.853 31.7249 159.645 31.3436C160.437 30.9622 161.273 30.4636 162.153 29.8476C163.033 29.2316 163.913 28.5276 164.793 27.7356C165.673 26.9142 166.509 26.0782 167.301 25.2276C168.093 24.3769 168.811 23.5409 169.457 22.7196C170.102 21.8689 170.615 21.1062 170.997 20.4316L171.349 20.5636ZM181.469 8.59558C179.914 10.9716 178.301 13.3036 176.629 15.5916C174.957 17.8796 173.358 20.2262 171.833 22.6316L171.921 22.7196C172.361 22.1329 172.874 21.5022 173.461 20.8276C174.047 20.1236 174.678 19.4782 175.353 18.8916C176.027 18.2756 176.761 17.7769 177.553 17.3956C178.345 16.9849 179.151 16.7796 179.973 16.7796C180.911 16.7796 181.703 17.0289 182.349 17.5276C182.994 18.0262 183.317 18.8916 183.317 20.1236C183.317 20.8862 183.214 21.6196 183.009 22.3236C182.803 22.9982 182.525 23.6436 182.173 24.2596C181.85 24.8462 181.469 25.4036 181.029 25.9316C180.618 26.4302 180.193 26.8996 179.753 27.3396L179.841 27.4276C181.953 27.0462 183.859 26.3276 185.561 25.2716C187.291 24.2156 189.007 22.6316 190.709 20.5196L191.061 20.6956C189.741 22.3089 188.509 23.5702 187.365 24.4796C186.221 25.3889 185.165 26.0782 184.197 26.5476C183.229 26.9876 182.334 27.2956 181.513 27.4716C180.691 27.6476 179.914 27.8236 179.181 27.9996C178.682 28.3809 178.11 28.8356 177.465 29.3636C176.849 29.8916 176.189 30.4049 175.485 30.9036C174.781 31.3729 174.047 31.7836 173.285 32.1356C172.522 32.4582 171.745 32.6196 170.953 32.6196C170.542 32.6196 170.131 32.5022 169.721 32.2676C169.339 32.0622 169.149 31.7102 169.149 31.2116C169.149 30.5956 169.442 30.0822 170.029 29.6716C170.645 29.2609 171.378 28.9382 172.229 28.7036C173.109 28.4396 174.018 28.2489 174.957 28.1316C175.895 27.9849 176.687 27.8822 177.333 27.8236C177.714 27.3836 178.095 26.8556 178.477 26.2396C178.887 25.5942 179.254 24.9196 179.577 24.2156C179.899 23.5116 180.163 22.7929 180.369 22.0596C180.574 21.2969 180.677 20.5929 180.677 19.9476C180.677 18.9209 180.53 18.2609 180.237 17.9676C179.943 17.6449 179.591 17.4836 179.181 17.4836C178.506 17.4836 177.787 17.7329 177.025 18.2316C176.291 18.7009 175.543 19.3316 174.781 20.1236C174.018 20.8862 173.255 21.7516 172.493 22.7196C171.759 23.6582 171.07 24.5969 170.425 25.5356C169.779 26.4742 169.193 27.3542 168.665 28.1756C168.137 28.9676 167.697 29.5982 167.345 30.0676C167.081 30.4489 166.699 31.0062 166.201 31.7396C165.702 32.4729 165.145 33.3089 164.529 34.2476C163.913 35.1862 163.267 36.1982 162.593 37.2836C161.889 38.3689 161.199 39.4542 160.525 40.5396C159.85 41.6542 159.205 42.7249 158.589 43.7516C157.973 44.7782 157.43 45.7022 156.961 46.5236H154.233C158.193 40.1582 162.226 33.8516 166.333 27.6036C170.469 21.3262 174.546 14.9902 178.565 8.59558H181.469ZM171.569 32.0916C172.009 32.0916 172.493 31.9449 173.021 31.6516C173.578 31.3582 174.106 31.0062 174.605 30.5956C175.133 30.1849 175.602 29.7742 176.013 29.3636C176.423 28.9529 176.717 28.6449 176.893 28.4396L176.805 28.3516C176.306 28.4396 175.675 28.5422 174.913 28.6596C174.179 28.7476 173.461 28.8796 172.757 29.0556C172.082 29.2316 171.495 29.4809 170.997 29.8036C170.527 30.0969 170.293 30.5076 170.293 31.0356C170.293 31.3876 170.425 31.6516 170.689 31.8276C170.953 32.0036 171.246 32.0916 171.569 32.0916ZM198.468 18.5396C198.468 18.1289 198.35 17.8209 198.116 17.6156C197.91 17.4102 197.646 17.3076 197.324 17.3076C196.708 17.3076 196.033 17.5569 195.3 18.0556C194.596 18.5249 193.892 19.1262 193.188 19.8596C192.484 20.5636 191.838 21.3262 191.252 22.1476C190.694 22.9689 190.269 23.7022 189.976 24.3476C190.621 24.2302 191.428 24.0102 192.396 23.6876C193.364 23.3356 194.288 22.9102 195.168 22.4116C196.077 21.9129 196.854 21.3409 197.5 20.6956C198.145 20.0209 198.468 19.3022 198.468 18.5396ZM205.596 20.8716C205.156 21.6049 204.598 22.4116 203.924 23.2916C203.278 24.1716 202.53 25.0516 201.68 25.9316C200.858 26.7822 199.964 27.6182 198.996 28.4396C198.057 29.2316 197.074 29.9502 196.048 30.5956C195.021 31.2116 193.98 31.7102 192.924 32.0916C191.897 32.4436 190.885 32.6196 189.888 32.6196C188.656 32.6196 187.702 32.3116 187.028 31.6956C186.353 31.0502 186.016 30.1409 186.016 28.9676C186.016 27.6769 186.397 26.3276 187.16 24.9196C187.952 23.4822 188.949 22.1622 190.152 20.9596C191.354 19.7569 192.674 18.7596 194.112 17.9676C195.549 17.1756 196.928 16.7796 198.248 16.7796C198.981 16.7796 199.553 16.9409 199.964 17.2636C200.374 17.5569 200.58 17.9969 200.58 18.5836C200.58 19.2876 200.198 19.9769 199.436 20.6516C198.673 21.2969 197.734 21.8982 196.62 22.4556C195.534 22.9836 194.361 23.4676 193.1 23.9076C191.838 24.3182 190.724 24.6262 189.756 24.8316C189.433 25.4182 189.169 26.0782 188.964 26.8116C188.758 27.5449 188.656 28.2782 188.656 29.0116C188.656 29.3636 188.685 29.7156 188.744 30.0676C188.832 30.3902 188.949 30.6982 189.096 30.9916C189.272 31.2556 189.492 31.4756 189.756 31.6516C190.049 31.8276 190.401 31.9156 190.812 31.9156C191.78 31.9156 192.909 31.6076 194.2 30.9916C195.52 30.3462 196.854 29.4956 198.204 28.4396C199.553 27.3836 200.844 26.1809 202.076 24.8316C203.308 23.4822 204.364 22.0889 205.244 20.6516L205.596 20.8716ZM209.688 17.1316L204.1 25.2716L204.188 25.3596C204.599 24.8609 205.112 24.2889 205.728 23.6436C206.373 22.9689 207.063 22.2942 207.796 21.6196C208.559 20.9156 209.351 20.2262 210.172 19.5516C210.993 18.8769 211.8 18.2756 212.592 17.7476C212.739 17.4542 212.9 17.2196 213.076 17.0436C213.252 16.8676 213.604 16.7796 214.132 16.7796C214.455 16.7796 214.733 16.7942 214.968 16.8236C215.232 16.8236 215.496 16.8382 215.76 16.8676C215.261 17.3662 214.777 17.9822 214.308 18.7156C213.839 19.4196 213.604 20.1969 213.604 21.0476C213.604 21.7222 213.765 22.2502 214.088 22.6316C214.44 23.0129 214.865 23.2036 215.364 23.2036C215.804 23.2036 216.229 23.1156 216.64 22.9396C217.08 22.7636 217.491 22.5436 217.872 22.2796C218.253 22.0156 218.62 21.7369 218.972 21.4436C219.324 21.1502 219.632 20.8862 219.896 20.6516L220.16 20.8276C219.867 21.1209 219.529 21.4436 219.148 21.7956C218.767 22.1182 218.356 22.4262 217.916 22.7196C217.476 23.0129 217.007 23.2622 216.508 23.4676C216.009 23.6436 215.496 23.7316 214.968 23.7316C214.029 23.7316 213.267 23.4529 212.68 22.8956C212.123 22.3089 211.844 21.5022 211.844 20.4756C211.844 19.7716 212.005 19.1409 212.328 18.5836L212.24 18.4956C211.037 19.3169 209.717 20.4022 208.28 21.7516C206.843 23.0716 205.317 24.6409 203.704 26.4596C203.117 27.1049 202.501 27.9556 201.856 29.0116C201.24 30.0676 200.697 31.1529 200.228 32.2676H197.368C198.952 29.7449 200.536 27.2369 202.12 24.7436C203.704 22.2502 205.332 19.7129 207.004 17.1316H209.688ZM224.78 17.1316C223.167 19.4489 221.803 21.3996 220.688 22.9836C219.574 24.5676 218.664 25.8876 217.96 26.9436C217.286 27.9996 216.787 28.8356 216.464 29.4516C216.171 30.0676 216.024 30.5662 216.024 30.9476C216.024 31.7102 216.332 32.0916 216.948 32.0916C217.535 32.0916 218.21 31.8862 218.972 31.4756C219.764 31.0356 220.586 30.4782 221.436 29.8036C222.287 29.1289 223.138 28.3662 223.988 27.5156C224.839 26.6649 225.631 25.8289 226.364 25.0076C227.127 24.1569 227.787 23.3502 228.344 22.5876C228.931 21.7956 229.356 21.1502 229.62 20.6516L229.972 20.8716C229.62 21.4582 229.136 22.1622 228.52 22.9836C227.934 23.8049 227.259 24.6556 226.496 25.5356C225.734 26.3862 224.927 27.2369 224.076 28.0876C223.226 28.9382 222.36 29.7009 221.48 30.3756C220.6 31.0502 219.735 31.5929 218.884 32.0036C218.063 32.4142 217.3 32.6196 216.596 32.6196C215.804 32.6196 215.218 32.3996 214.836 31.9596C214.455 31.5196 214.264 31.0356 214.264 30.5076C214.264 29.8916 214.396 29.2462 214.66 28.5716C214.954 27.8676 215.408 27.0169 216.024 26.0196C216.64 25.0222 217.432 23.8196 218.4 22.4116C219.398 20.9742 220.586 19.2142 221.964 17.1316H224.78ZM227.332 8.94758C227.743 8.94758 228.08 9.09424 228.344 9.38758C228.608 9.65158 228.74 9.98891 228.74 10.3996C228.74 10.8102 228.608 11.1622 228.344 11.4556C228.08 11.7196 227.743 11.8516 227.332 11.8516C226.922 11.8516 226.584 11.7196 226.32 11.4556C226.056 11.1622 225.924 10.8102 225.924 10.3996C225.924 9.98891 226.056 9.65158 226.32 9.38758C226.584 9.09424 226.922 8.94758 227.332 8.94758ZM237.526 18.5396C237.526 18.1289 237.409 17.8209 237.174 17.6156C236.969 17.4102 236.705 17.3076 236.382 17.3076C235.766 17.3076 235.092 17.5569 234.358 18.0556C233.654 18.5249 232.95 19.1262 232.246 19.8596C231.542 20.5636 230.897 21.3262 230.31 22.1476C229.753 22.9689 229.328 23.7022 229.034 24.3476C229.68 24.2302 230.486 24.0102 231.454 23.6876C232.422 23.3356 233.346 22.9102 234.226 22.4116C235.136 21.9129 235.913 21.3409 236.558 20.6956C237.204 20.0209 237.526 19.3022 237.526 18.5396ZM244.654 20.8716C244.214 21.6049 243.657 22.4116 242.982 23.2916C242.337 24.1716 241.589 25.0516 240.738 25.9316C239.917 26.7822 239.022 27.6182 238.054 28.4396C237.116 29.2316 236.133 29.9502 235.106 30.5956C234.08 31.2116 233.038 31.7102 231.982 32.0916C230.956 32.4436 229.944 32.6196 228.946 32.6196C227.714 32.6196 226.761 32.3116 226.086 31.6956C225.412 31.0502 225.074 30.1409 225.074 28.9676C225.074 27.6769 225.456 26.3276 226.218 24.9196C227.01 23.4822 228.008 22.1622 229.21 20.9596C230.413 19.7569 231.733 18.7596 233.17 17.9676C234.608 17.1756 235.986 16.7796 237.306 16.7796C238.04 16.7796 238.612 16.9409 239.022 17.2636C239.433 17.5569 239.638 17.9969 239.638 18.5836C239.638 19.2876 239.257 19.9769 238.494 20.6516C237.732 21.2969 236.793 21.8982 235.678 22.4556C234.593 22.9836 233.42 23.4676 232.158 23.9076C230.897 24.3182 229.782 24.6262 228.814 24.8316C228.492 25.4182 228.228 26.0782 228.022 26.8116C227.817 27.5449 227.714 28.2782 227.714 29.0116C227.714 29.3636 227.744 29.7156 227.802 30.0676C227.89 30.3902 228.008 30.6982 228.154 30.9916C228.33 31.2556 228.55 31.4756 228.814 31.6516C229.108 31.8276 229.46 31.9156 229.87 31.9156C230.838 31.9156 231.968 31.6076 233.258 30.9916C234.578 30.3462 235.913 29.4956 237.262 28.4396C238.612 27.3836 239.902 26.1809 241.134 24.8316C242.366 23.4822 243.422 22.0889 244.302 20.6516L244.654 20.8716ZM232.642 14.0956C233.786 13.0102 234.886 11.8956 235.942 10.7516C237.028 9.57824 238.04 8.36091 238.978 7.09958H239.682C239.682 8.39024 239.902 9.60758 240.342 10.7516C240.782 11.8662 241.384 13.0396 242.146 14.2716L241.794 14.4916C241.032 13.6409 240.386 12.8489 239.858 12.1156C239.36 11.3529 238.89 10.5462 238.45 9.69558C237.57 10.5462 236.661 11.3822 235.722 12.2036C234.813 12.9956 233.845 13.7289 232.818 14.4036L232.642 14.0956ZM248.659 17.1316L242.851 25.1836L242.939 25.2716C243.555 24.5382 244.273 23.6876 245.095 22.7196C245.916 21.7222 246.796 20.7836 247.735 19.9036C248.673 19.0236 249.641 18.2902 250.639 17.7036C251.665 17.0876 252.677 16.7796 253.675 16.7796C254.555 16.7796 255.229 17.0289 255.699 17.5276C256.197 17.9969 256.447 18.6129 256.447 19.3756C256.447 19.8449 256.271 20.4022 255.919 21.0476C255.596 21.6929 255.185 22.3822 254.687 23.1156C254.188 23.8489 253.645 24.5969 253.059 25.3596C252.472 26.1222 251.929 26.8556 251.431 27.5596C250.932 28.2342 250.507 28.8649 250.155 29.4516C249.832 30.0089 249.671 30.4782 249.671 30.8596C249.671 31.6809 250.081 32.0916 250.903 32.0916C251.841 32.0916 252.839 31.7836 253.895 31.1676C254.951 30.5222 256.212 29.4516 257.679 27.9556C258.265 27.3689 258.852 26.7236 259.439 26.0196C260.055 25.3156 260.641 24.6262 261.199 23.9516C261.756 23.2476 262.255 22.5876 262.695 21.9716C263.164 21.3556 263.531 20.8422 263.795 20.4316L264.103 20.6076C263.516 21.4876 262.753 22.5436 261.815 23.7756C260.905 24.9782 259.908 26.1662 258.823 27.3396C258.177 28.0436 257.517 28.7182 256.843 29.3636C256.168 30.0089 255.493 30.5809 254.819 31.0796C254.144 31.5489 253.469 31.9302 252.795 32.2236C252.149 32.4876 251.504 32.6196 250.859 32.6196C250.008 32.6196 249.304 32.3849 248.747 31.9156C248.189 31.4462 247.911 30.8009 247.911 29.9796C247.911 29.0996 248.263 28.1462 248.967 27.1196C249.671 26.0636 250.448 25.0076 251.299 23.9516C252.149 22.8956 252.927 21.8836 253.631 20.9156C254.335 19.9476 254.687 19.0969 254.687 18.3636C254.687 18.0116 254.569 17.7476 254.335 17.5716C254.1 17.3956 253.792 17.3076 253.411 17.3076C252.677 17.3076 251.856 17.5862 250.947 18.1436C250.037 18.6716 249.099 19.3902 248.131 20.2996C247.192 21.1796 246.239 22.1769 245.271 23.2916C244.332 24.3769 243.452 25.4769 242.631 26.5916C241.809 27.6769 241.076 28.7329 240.431 29.7596C239.785 30.7569 239.301 31.5929 238.979 32.2676H236.251C237.013 30.9769 237.835 29.6716 238.715 28.3516C239.565 27.0022 240.416 25.6822 241.267 24.3916C242.117 23.0716 242.924 21.8102 243.687 20.6076C244.479 19.3756 245.183 18.2609 245.799 17.2636L248.659 17.1316ZM278.549 21.2236C277.875 22.3089 276.98 23.4822 275.865 24.7436C274.78 25.9756 273.592 27.1342 272.301 28.2196C270.717 29.5396 269.133 30.6102 267.549 31.4316C265.965 32.2236 264.411 32.6196 262.885 32.6196C261.8 32.6196 260.891 32.3409 260.157 31.7836C259.424 31.1969 259.057 30.3462 259.057 29.2316C259.057 27.8236 259.453 26.3862 260.245 24.9196C261.067 23.4529 262.079 22.1182 263.281 20.9156C264.513 19.6836 265.848 18.6862 267.285 17.9236C268.752 17.1609 270.131 16.7796 271.421 16.7796C272.272 16.7796 273.005 16.9409 273.621 17.2636C274.267 17.5569 274.589 18.0849 274.589 18.8476C274.589 19.1996 274.487 19.4929 274.281 19.7276C274.105 19.9622 273.871 20.1529 273.577 20.2996C273.313 20.4462 273.005 20.5636 272.653 20.6516C272.331 20.7102 272.037 20.7542 271.773 20.7836C271.891 20.4902 271.993 20.1969 272.081 19.9036C272.169 19.5809 272.213 19.2582 272.213 18.9356C272.213 17.8502 271.7 17.3076 270.673 17.3076C269.911 17.3076 269.001 17.6889 267.945 18.4516C266.919 19.1849 265.936 20.1236 264.997 21.2676C264.088 22.4116 263.311 23.6729 262.665 25.0516C262.02 26.4302 261.697 27.7649 261.697 29.0556C261.697 29.8476 261.873 30.5222 262.225 31.0796C262.607 31.6369 263.179 31.9156 263.941 31.9156C264.968 31.9156 266.141 31.5782 267.461 30.9036C268.811 30.2289 270.116 29.3929 271.377 28.3956C272.697 27.3689 273.959 26.1956 275.161 24.8756C276.393 23.5262 277.42 22.2209 278.241 20.9596L278.549 21.2236ZM283.39 17.1316C281.776 19.4489 280.412 21.3996 279.298 22.9836C278.183 24.5676 277.274 25.8876 276.57 26.9436C275.895 27.9996 275.396 28.8356 275.074 29.4516C274.78 30.0676 274.634 30.5662 274.634 30.9476C274.634 31.7102 274.942 32.0916 275.558 32.0916C276.144 32.0916 276.819 31.8862 277.582 31.4756C278.374 31.0356 279.195 30.4782 280.046 29.8036C280.896 29.1289 281.747 28.3662 282.598 27.5156C283.448 26.6649 284.24 25.8289 284.974 25.0076C285.736 24.1569 286.396 23.3502 286.954 22.5876C287.54 21.7956 287.966 21.1502 288.23 20.6516L288.582 20.8716C288.23 21.4582 287.746 22.1622 287.13 22.9836C286.543 23.8049 285.868 24.6556 285.106 25.5356C284.343 26.3862 283.536 27.2369 282.686 28.0876C281.835 28.9382 280.97 29.7009 280.09 30.3756C279.21 31.0502 278.344 31.5929 277.494 32.0036C276.672 32.4142 275.91 32.6196 275.206 32.6196C274.414 32.6196 273.827 32.3996 273.446 31.9596C273.064 31.5196 272.874 31.0356 272.874 30.5076C272.874 29.8916 273.006 29.2462 273.27 28.5716C273.563 27.8676 274.018 27.0169 274.634 26.0196C275.25 25.0222 276.042 23.8196 277.01 22.4116C278.007 20.9742 279.195 19.2142 280.574 17.1316H283.39ZM285.942 8.94758C286.352 8.94758 286.69 9.09424 286.954 9.38758C287.218 9.65158 287.35 9.98891 287.35 10.3996C287.35 10.8102 287.218 11.1622 286.954 11.4556C286.69 11.7196 286.352 11.8516 285.942 11.8516C285.531 11.8516 285.194 11.7196 284.93 11.4556C284.666 11.1622 284.534 10.8102 284.534 10.3996C284.534 9.98891 284.666 9.65158 284.93 9.38758C285.194 9.09424 285.531 8.94758 285.942 8.94758ZM299.964 17.1316H302.824C301.738 18.6569 300.697 20.1382 299.7 21.5756C298.702 23.0129 297.808 24.3476 297.016 25.5796C296.253 26.7822 295.637 27.8529 295.168 28.7916C294.698 29.7009 294.464 30.4196 294.464 30.9476C294.464 31.7102 294.86 32.0916 295.652 32.0916C296.268 32.0916 297.045 31.7982 297.984 31.2116C298.952 30.5956 299.993 29.7596 301.108 28.7036C302.222 27.6476 303.366 26.4156 304.54 25.0076C305.713 23.5996 306.828 22.1036 307.884 20.5196L308.148 20.6076C307.356 21.8102 306.417 23.1156 305.332 24.5236C304.276 25.9022 303.161 27.1929 301.988 28.3956C300.814 29.5982 299.641 30.6102 298.468 31.4316C297.294 32.2236 296.194 32.6196 295.168 32.6196C294.317 32.6196 293.686 32.4142 293.276 32.0036C292.894 31.5636 292.704 31.0502 292.704 30.4636C292.704 30.0529 292.762 29.6569 292.88 29.2756C293.026 28.8649 293.173 28.4542 293.32 28.0436L293.232 27.9996C292.85 28.4102 292.366 28.8942 291.78 29.4516C291.222 29.9796 290.606 30.4782 289.932 30.9476C289.286 31.4169 288.612 31.8129 287.908 32.1356C287.204 32.4582 286.529 32.6196 285.884 32.6196C284.798 32.6196 284.036 32.2822 283.596 31.6076C283.156 30.9329 282.936 30.1702 282.936 29.3196C282.936 28.1169 283.317 26.7969 284.08 25.3596C284.842 23.8929 285.81 22.5289 286.984 21.2676C288.157 19.9769 289.433 18.9062 290.812 18.0556C292.19 17.2049 293.496 16.7796 294.728 16.7796C295.314 16.7796 295.828 16.8676 296.268 17.0436C296.708 17.1902 297.074 17.4102 297.368 17.7036C297.661 17.9676 297.881 18.2756 298.028 18.6276C298.204 18.9796 298.336 19.3462 298.424 19.7276H298.512L299.964 17.1316ZM285.576 29.4516C285.576 30.1262 285.708 30.6542 285.972 31.0356C286.265 31.3876 286.661 31.5636 287.16 31.5636C287.658 31.5636 288.245 31.3876 288.92 31.0356C289.594 30.6542 290.298 30.1556 291.032 29.5396C291.765 28.9236 292.484 28.2196 293.188 27.4276C293.921 26.6062 294.566 25.7409 295.124 24.8316C295.681 23.9222 296.136 22.9982 296.488 22.0596C296.84 21.1209 297.016 20.2262 297.016 19.3756C297.016 18.7009 296.825 18.1876 296.444 17.8356C296.062 17.4836 295.593 17.3076 295.036 17.3076C294.156 17.3076 293.173 17.6889 292.088 18.4516C291.002 19.2142 289.976 20.1969 289.008 21.3996C288.04 22.5729 287.218 23.8782 286.544 25.3156C285.898 26.7529 285.576 28.1316 285.576 29.4516ZM17.7233 72.1316H20.5833C19.498 73.6569 18.4566 75.1382 17.4593 76.5756C16.462 78.0129 15.5673 79.3476 14.7753 80.5796C14.0126 81.7822 13.3966 82.8529 12.9273 83.7916C12.458 84.7009 12.2233 85.4196 12.2233 85.9476C12.2233 86.7102 12.6193 87.0916 13.4113 87.0916C14.0273 87.0916 14.8046 86.7982 15.7433 86.2116C16.7113 85.5956 17.7526 84.7596 18.8673 83.7036C19.982 82.6476 21.126 81.4156 22.2993 80.0076C23.4726 78.5996 24.5873 77.1036 25.6433 75.5196L25.9073 75.6076C25.1153 76.8102 24.1766 78.1156 23.0913 79.5236C22.0353 80.9022 20.9206 82.1929 19.7473 83.3956C18.574 84.5982 17.4006 85.6102 16.2273 86.4316C15.054 87.2236 13.954 87.6196 12.9273 87.6196C12.0766 87.6196 11.446 87.4142 11.0353 87.0036C10.654 86.5636 10.4633 86.0502 10.4633 85.4636C10.4633 85.0529 10.522 84.6569 10.6393 84.2756C10.786 83.8649 10.9326 83.4542 11.0793 83.0436L10.9913 82.9996C10.61 83.4102 10.126 83.8942 9.53931 84.4516C8.98198 84.9796 8.36598 85.4782 7.69131 85.9476C7.04598 86.4169 6.37131 86.8129 5.66731 87.1356C4.96331 87.4582 4.28865 87.6196 3.64331 87.6196C2.55798 87.6196 1.79531 87.2822 1.35531 86.6076C0.915313 85.9329 0.695312 85.1702 0.695312 84.3196C0.695312 83.1169 1.07665 81.7969 1.83931 80.3596C2.60198 78.8929 3.56998 77.5289 4.74331 76.2676C5.91665 74.9769 7.19265 73.9062 8.57131 73.0556C9.94998 72.2049 11.2553 71.7796 12.4873 71.7796C13.074 71.7796 13.5873 71.8676 14.0273 72.0436C14.4673 72.1902 14.834 72.4102 15.1273 72.7036C15.4206 72.9676 15.6406 73.2756 15.7873 73.6276C15.9633 73.9796 16.0953 74.3462 16.1833 74.7276H16.2713L17.7233 72.1316ZM3.33531 84.4516C3.33531 85.1262 3.46731 85.6542 3.73131 86.0356C4.02465 86.3876 4.42065 86.5636 4.91931 86.5636C5.41798 86.5636 6.00465 86.3876 6.67931 86.0356C7.35398 85.6542 8.05798 85.1556 8.79131 84.5396C9.52465 83.9236 10.2433 83.2196 10.9473 82.4276C11.6806 81.6062 12.326 80.7409 12.8833 79.8316C13.4406 78.9222 13.8953 77.9982 14.2473 77.0596C14.5993 76.1209 14.7753 75.2262 14.7753 74.3756C14.7753 73.7009 14.5846 73.1876 14.2033 72.8356C13.822 72.4836 13.3526 72.3076 12.7953 72.3076C11.9153 72.3076 10.9326 72.6889 9.84731 73.4516C8.76198 74.2142 7.73531 75.1969 6.76731 76.3996C5.79931 77.5729 4.97798 78.8782 4.30331 80.3156C3.65798 81.7529 3.33531 83.1316 3.33531 84.4516ZM30.4541 72.1316C29.3101 73.6862 28.2101 75.1676 27.1541 76.5756C26.0981 77.9836 25.1594 79.2742 24.3381 80.4476C23.5168 81.6209 22.8568 82.6476 22.3581 83.5276C21.8888 84.3782 21.6541 85.0529 21.6541 85.5516C21.6541 86.0209 21.7714 86.3729 22.0061 86.6076C22.2408 86.8129 22.5488 86.9156 22.9301 86.9156C23.4874 86.9156 24.0888 86.7396 24.7341 86.3876C25.4088 86.0356 26.0834 85.5809 26.7581 85.0236C27.4621 84.4662 28.1368 83.8502 28.7821 83.1756C29.4568 82.5009 30.0728 81.8409 30.6301 81.1956C31.2168 80.5209 31.7154 79.9049 32.1261 79.3476C32.5661 78.7902 32.8888 78.3502 33.0941 78.0276L36.9661 72.1316H40.0021C38.4181 74.3022 37.0688 76.1502 35.9541 77.6756C34.8688 79.1716 33.9741 80.4476 33.2701 81.5036C32.5954 82.5596 32.1114 83.4249 31.8181 84.0996C31.5248 84.7449 31.3781 85.3169 31.3781 85.8156C31.3781 86.1676 31.4808 86.4756 31.6861 86.7396C31.8914 86.9742 32.1848 87.0916 32.5661 87.0916C33.1528 87.0916 33.8274 86.8862 34.5901 86.4756C35.3528 86.0356 36.1448 85.4782 36.9661 84.8036C37.7874 84.0996 38.5941 83.3222 39.3861 82.4716C40.2074 81.5916 40.9701 80.7262 41.6741 79.8756C42.4074 79.0249 43.0674 78.2329 43.6541 77.4996C44.2408 76.7369 44.6954 76.1209 45.0181 75.6516L45.4581 75.7836C45.1061 76.2822 44.6368 76.9276 44.0501 77.7196C43.4634 78.4822 42.8034 79.3036 42.0701 80.1836C41.3368 81.0342 40.5594 81.9142 39.7381 82.8236C38.9168 83.7036 38.0661 84.4956 37.1861 85.1996C36.3354 85.9036 35.4848 86.4902 34.6341 86.9596C33.8128 87.3996 33.0354 87.6196 32.3021 87.6196C31.4808 87.6196 30.8208 87.3996 30.3221 86.9596C29.8528 86.4902 29.6181 85.8742 29.6181 85.1116C29.6181 84.5249 29.7061 83.9676 29.8821 83.4396C30.0874 82.8822 30.2341 82.5302 30.3221 82.3836L30.2341 82.2956C29.6181 82.9996 28.9728 83.6742 28.2981 84.3196C27.6234 84.9649 26.9488 85.5369 26.2741 86.0356C25.5994 86.5049 24.9101 86.8862 24.2061 87.1796C23.5314 87.4729 22.8568 87.6196 22.1821 87.6196C21.2434 87.6196 20.5688 87.4142 20.1581 87.0036C19.7474 86.5636 19.5421 86.0502 19.5421 85.4636C19.5421 84.7302 19.7474 83.9382 20.1581 83.0876C20.5394 82.2369 21.0821 81.2836 21.7861 80.2276C22.4901 79.1716 23.3261 77.9836 24.2941 76.6636C25.2914 75.3436 26.3768 73.8329 27.5501 72.1316H30.4541ZM52.8209 67.0276L49.3449 72.1316H55.1529L54.8889 72.6596H48.9929C47.8195 74.5662 46.7635 76.2236 45.8249 77.6316C44.9155 79.0102 44.1382 80.2129 43.4929 81.2396C42.8769 82.2369 42.4075 83.0876 42.0849 83.7916C41.7622 84.4662 41.6009 85.0676 41.6009 85.5956C41.6009 86.1529 41.7915 86.5489 42.1729 86.7836C42.5542 86.9889 42.9942 87.0916 43.4929 87.0916C44.5489 87.0916 45.7075 86.6956 46.9689 85.9036C48.2595 85.0822 49.5355 84.0849 50.7969 82.9116C52.0582 81.7382 53.2609 80.4916 54.4049 79.1716C55.5489 77.8516 56.5169 76.6636 57.3089 75.6076L57.5729 75.7836C56.5755 77.0449 55.4755 78.3796 54.2729 79.7876C53.0995 81.1662 51.8822 82.4422 50.6209 83.6156C49.3595 84.7596 48.0835 85.7129 46.7929 86.4756C45.5315 87.2382 44.3289 87.6196 43.1849 87.6196C42.2755 87.6196 41.4835 87.3409 40.8089 86.7836C40.1635 86.2262 39.8409 85.4489 39.8409 84.4516C39.8409 83.7769 40.0315 83.0289 40.4129 82.2076C40.7942 81.3569 41.2929 80.4476 41.9089 79.4796C42.5249 78.5116 43.2142 77.4556 43.9769 76.3116C44.7689 75.1676 45.5755 73.9502 46.3969 72.6596H44.0209L44.2849 72.1316H46.7489L50.1809 67.0276H52.8209ZM65.243 73.5396C65.243 73.1289 65.1256 72.8209 64.891 72.6156C64.6856 72.4102 64.4216 72.3076 64.099 72.3076C63.483 72.3076 62.8083 72.5569 62.075 73.0556C61.371 73.5249 60.667 74.1262 59.963 74.8596C59.259 75.5636 58.6136 76.3262 58.027 77.1476C57.4696 77.9689 57.0443 78.7022 56.751 79.3476C57.3963 79.2302 58.203 79.0102 59.171 78.6876C60.139 78.3356 61.063 77.9102 61.943 77.4116C62.8523 76.9129 63.6296 76.3409 64.275 75.6956C64.9203 75.0209 65.243 74.3022 65.243 73.5396ZM72.371 75.8716C71.931 76.6049 71.3736 77.4116 70.699 78.2916C70.0536 79.1716 69.3056 80.0516 68.455 80.9316C67.6336 81.7822 66.739 82.6182 65.771 83.4396C64.8323 84.2316 63.8496 84.9502 62.823 85.5956C61.7963 86.2116 60.755 86.7102 59.699 87.0916C58.6723 87.4436 57.6603 87.6196 56.663 87.6196C55.431 87.6196 54.4776 87.3116 53.803 86.6956C53.1283 86.0502 52.791 85.1409 52.791 83.9676C52.791 82.6769 53.1723 81.3276 53.935 79.9196C54.727 78.4822 55.7243 77.1622 56.927 75.9596C58.1296 74.7569 59.4496 73.7596 60.887 72.9676C62.3243 72.1756 63.703 71.7796 65.023 71.7796C65.7563 71.7796 66.3283 71.9409 66.739 72.2636C67.1496 72.5569 67.355 72.9969 67.355 73.5836C67.355 74.2876 66.9736 74.9769 66.211 75.6516C65.4483 76.2969 64.5096 76.8982 63.395 77.4556C62.3096 77.9836 61.1363 78.4676 59.875 78.9076C58.6136 79.3182 57.499 79.6262 56.531 79.8316C56.2083 80.4182 55.9443 81.0782 55.739 81.8116C55.5336 82.5449 55.431 83.2782 55.431 84.0116C55.431 84.3636 55.4603 84.7156 55.519 85.0676C55.607 85.3902 55.7243 85.6982 55.871 85.9916C56.047 86.2556 56.267 86.4756 56.531 86.6516C56.8243 86.8276 57.1763 86.9156 57.587 86.9156C58.555 86.9156 59.6843 86.6076 60.975 85.9916C62.295 85.3462 63.6296 84.4956 64.979 83.4396C66.3283 82.3836 67.619 81.1809 68.851 79.8316C70.083 78.4822 71.139 77.0889 72.019 75.6516L72.371 75.8716ZM60.359 69.0956C61.503 68.0102 62.603 66.8956 63.659 65.7516C64.7443 64.5782 65.7563 63.3609 66.695 62.0996H67.399C67.399 63.3902 67.619 64.6076 68.059 65.7516C68.499 66.8662 69.1003 68.0396 69.863 69.2716L69.511 69.4916C68.7483 68.6409 68.103 67.8489 67.575 67.1156C67.0763 66.3529 66.607 65.5462 66.167 64.6956C65.287 65.5462 64.3776 66.3822 63.439 67.2036C62.5296 67.9956 61.5616 68.7289 60.535 69.4036L60.359 69.0956ZM76.3753 72.1316L70.5673 80.1836L70.6553 80.2716C71.2713 79.5382 71.99 78.6876 72.8113 77.7196C73.6326 76.7222 74.5126 75.7836 75.4513 74.9036C76.39 74.0236 77.358 73.2902 78.3553 72.7036C79.382 72.0876 80.394 71.7796 81.3913 71.7796C82.2713 71.7796 82.946 72.0289 83.4153 72.5276C83.914 72.9969 84.1633 73.6129 84.1633 74.3756C84.1633 74.8449 83.9873 75.4022 83.6353 76.0476C83.3126 76.6929 82.902 77.3822 82.4033 78.1156C81.9046 78.8489 81.362 79.5969 80.7753 80.3596C80.1886 81.1222 79.646 81.8556 79.1473 82.5596C78.6486 83.2342 78.2233 83.8649 77.8713 84.4516C77.5486 85.0089 77.3873 85.4782 77.3873 85.8596C77.3873 86.6809 77.798 87.0916 78.6193 87.0916C79.558 87.0916 80.5553 86.7836 81.6113 86.1676C82.6673 85.5222 83.9286 84.4516 85.3953 82.9556C85.982 82.3689 86.5686 81.7236 87.1553 81.0196C87.7713 80.3156 88.358 79.6262 88.9153 78.9516C89.4726 78.2476 89.9713 77.5876 90.4113 76.9716C90.8806 76.3556 91.2473 75.8422 91.5113 75.4316L91.8193 75.6076C91.2326 76.4876 90.47 77.5436 89.5313 78.7756C88.622 79.9782 87.6246 81.1662 86.5393 82.3396C85.894 83.0436 85.234 83.7182 84.5593 84.3636C83.8846 85.0089 83.21 85.5809 82.5353 86.0796C81.8606 86.5489 81.186 86.9302 80.5113 87.2236C79.866 87.4876 79.2206 87.6196 78.5753 87.6196C77.7246 87.6196 77.0206 87.3849 76.4633 86.9156C75.906 86.4462 75.6273 85.8009 75.6273 84.9796C75.6273 84.0996 75.9793 83.1462 76.6833 82.1196C77.3873 81.0636 78.1646 80.0076 79.0153 78.9516C79.866 77.8956 80.6433 76.8836 81.3473 75.9156C82.0513 74.9476 82.4033 74.0969 82.4033 73.3636C82.4033 73.0116 82.286 72.7476 82.0513 72.5716C81.8166 72.3956 81.5086 72.3076 81.1273 72.3076C80.394 72.3076 79.5726 72.5862 78.6633 73.1436C77.754 73.6716 76.8153 74.3902 75.8473 75.2996C74.9086 76.1796 73.9553 77.1769 72.9873 78.2916C72.0486 79.3769 71.1686 80.4769 70.3473 81.5916C69.526 82.6769 68.7926 83.7329 68.1473 84.7596C67.502 85.7569 67.018 86.5929 66.6953 87.2676H63.9673C64.73 85.9769 65.5513 84.6716 66.4313 83.3516C67.282 82.0022 68.1326 80.6822 68.9833 79.3916C69.834 78.0716 70.6406 76.8102 71.4033 75.6076C72.1953 74.3756 72.8993 73.2609 73.5153 72.2636L76.3753 72.1316ZM99.2701 67.0276L95.7941 72.1316H101.602L101.338 72.6596H95.4421C94.2688 74.5662 93.2128 76.2236 92.2741 77.6316C91.3648 79.0102 90.5874 80.2129 89.9421 81.2396C89.3261 82.2369 88.8568 83.0876 88.5341 83.7916C88.2114 84.4662 88.0501 85.0676 88.0501 85.5956C88.0501 86.1529 88.2408 86.5489 88.6221 86.7836C89.0034 86.9889 89.4434 87.0916 89.9421 87.0916C90.9981 87.0916 92.1568 86.6956 93.4181 85.9036C94.7088 85.0822 95.9848 84.0849 97.2461 82.9116C98.5074 81.7382 99.7101 80.4916 100.854 79.1716C101.998 77.8516 102.966 76.6636 103.758 75.6076L104.022 75.7836C103.025 77.0449 101.925 78.3796 100.722 79.7876C99.5488 81.1662 98.3314 82.4422 97.0701 83.6156C95.8088 84.7596 94.5328 85.7129 93.2421 86.4756C91.9808 87.2382 90.7781 87.6196 89.6341 87.6196C88.7248 87.6196 87.9328 87.3409 87.2581 86.7836C86.6128 86.2262 86.2901 85.4489 86.2901 84.4516C86.2901 83.7769 86.4808 83.0289 86.8621 82.2076C87.2434 81.3569 87.7421 80.4476 88.3581 79.4796C88.9741 78.5116 89.6634 77.4556 90.4261 76.3116C91.2181 75.1676 92.0248 73.9502 92.8461 72.6596H90.4701L90.7341 72.1316H93.1981L96.6301 67.0276H99.2701ZM108.7 72.1316C107.087 74.4489 105.723 76.3996 104.608 77.9836C103.494 79.5676 102.584 80.8876 101.88 81.9436C101.206 82.9996 100.707 83.8356 100.384 84.4516C100.091 85.0676 99.9442 85.5662 99.9442 85.9476C99.9442 86.7102 100.252 87.0916 100.868 87.0916C101.455 87.0916 102.13 86.8862 102.892 86.4756C103.684 86.0356 104.506 85.4782 105.356 84.8036C106.207 84.1289 107.058 83.3662 107.908 82.5156C108.759 81.6649 109.551 80.8289 110.284 80.0076C111.047 79.1569 111.707 78.3502 112.264 77.5876C112.851 76.7956 113.276 76.1502 113.54 75.6516L113.892 75.8716C113.54 76.4582 113.056 77.1622 112.44 77.9836C111.854 78.8049 111.179 79.6556 110.416 80.5356C109.654 81.3862 108.847 82.2369 107.996 83.0876C107.146 83.9382 106.28 84.7009 105.4 85.3756C104.52 86.0502 103.655 86.5929 102.804 87.0036C101.983 87.4142 101.22 87.6196 100.516 87.6196C99.7242 87.6196 99.1375 87.3996 98.7562 86.9596C98.3749 86.5196 98.1842 86.0356 98.1842 85.5076C98.1842 84.8916 98.3162 84.2462 98.5802 83.5716C98.8735 82.8676 99.3282 82.0169 99.9442 81.0196C100.56 80.0222 101.352 78.8196 102.32 77.4116C103.318 75.9742 104.506 74.2142 105.884 72.1316H108.7ZM111.252 63.9476C111.663 63.9476 112 64.0942 112.264 64.3876C112.528 64.6516 112.66 64.9889 112.66 65.3996C112.66 65.8102 112.528 66.1622 112.264 66.4556C112 66.7196 111.663 66.8516 111.252 66.8516C110.842 66.8516 110.504 66.7196 110.24 66.4556C109.976 66.1622 109.844 65.8102 109.844 65.3996C109.844 64.9889 109.976 64.6516 110.24 64.3876C110.504 64.0942 110.842 63.9476 111.252 63.9476ZM128.266 76.2236C127.591 77.3089 126.697 78.4822 125.582 79.7436C124.497 80.9756 123.309 82.1342 122.018 83.2196C120.434 84.5396 118.85 85.6102 117.266 86.4316C115.682 87.2236 114.127 87.6196 112.602 87.6196C111.517 87.6196 110.607 87.3409 109.874 86.7836C109.141 86.1969 108.774 85.3462 108.774 84.2316C108.774 82.8236 109.17 81.3862 109.962 79.9196C110.783 78.4529 111.795 77.1182 112.998 75.9156C114.23 74.6836 115.565 73.6862 117.002 72.9236C118.469 72.1609 119.847 71.7796 121.138 71.7796C121.989 71.7796 122.722 71.9409 123.338 72.2636C123.983 72.5569 124.306 73.0849 124.306 73.8476C124.306 74.1996 124.203 74.4929 123.998 74.7276C123.822 74.9622 123.587 75.1529 123.294 75.2996C123.03 75.4462 122.722 75.5636 122.37 75.6516C122.047 75.7102 121.754 75.7542 121.49 75.7836C121.607 75.4902 121.71 75.1969 121.798 74.9036C121.886 74.5809 121.93 74.2582 121.93 73.9356C121.93 72.8502 121.417 72.3076 120.39 72.3076C119.627 72.3076 118.718 72.6889 117.662 73.4516C116.635 74.1849 115.653 75.1236 114.714 76.2676C113.805 77.4116 113.027 78.6729 112.382 80.0516C111.737 81.4302 111.414 82.7649 111.414 84.0556C111.414 84.8476 111.59 85.5222 111.942 86.0796C112.323 86.6369 112.895 86.9156 113.658 86.9156C114.685 86.9156 115.858 86.5782 117.178 85.9036C118.527 85.2289 119.833 84.3929 121.094 83.3956C122.414 82.3689 123.675 81.1956 124.878 79.8756C126.11 78.5262 127.137 77.2209 127.958 75.9596L128.266 76.2236ZM139.926 72.1316H142.786C141.701 73.6569 140.66 75.1382 139.662 76.5756C138.665 78.0129 137.77 79.3476 136.978 80.5796C136.216 81.7822 135.6 82.8529 135.13 83.7916C134.661 84.7009 134.426 85.4196 134.426 85.9476C134.426 86.7102 134.822 87.0916 135.614 87.0916C136.23 87.0916 137.008 86.7982 137.946 86.2116C138.914 85.5956 139.956 84.7596 141.07 83.7036C142.185 82.6476 143.329 81.4156 144.502 80.0076C145.676 78.5996 146.79 77.1036 147.846 75.5196L148.11 75.6076C147.318 76.8102 146.38 78.1156 145.294 79.5236C144.238 80.9022 143.124 82.1929 141.95 83.3956C140.777 84.5982 139.604 85.6102 138.43 86.4316C137.257 87.2236 136.157 87.6196 135.13 87.6196C134.28 87.6196 133.649 87.4142 133.238 87.0036C132.857 86.5636 132.666 86.0502 132.666 85.4636C132.666 85.0529 132.725 84.6569 132.842 84.2756C132.989 83.8649 133.136 83.4542 133.282 83.0436L133.194 82.9996C132.813 83.4102 132.329 83.8942 131.742 84.4516C131.185 84.9796 130.569 85.4782 129.894 85.9476C129.249 86.4169 128.574 86.8129 127.87 87.1356C127.166 87.4582 126.492 87.6196 125.846 87.6196C124.761 87.6196 123.998 87.2822 123.558 86.6076C123.118 85.9329 122.898 85.1702 122.898 84.3196C122.898 83.1169 123.28 81.7969 124.042 80.3596C124.805 78.8929 125.773 77.5289 126.946 76.2676C128.12 74.9769 129.396 73.9062 130.774 73.0556C132.153 72.2049 133.458 71.7796 134.69 71.7796C135.277 71.7796 135.79 71.8676 136.23 72.0436C136.67 72.1902 137.037 72.4102 137.33 72.7036C137.624 72.9676 137.844 73.2756 137.99 73.6276C138.166 73.9796 138.298 74.3462 138.386 74.7276H138.474L139.926 72.1316ZM125.538 84.4516C125.538 85.1262 125.67 85.6542 125.934 86.0356C126.228 86.3876 126.624 86.5636 127.122 86.5636C127.621 86.5636 128.208 86.3876 128.882 86.0356C129.557 85.6542 130.261 85.1556 130.994 84.5396C131.728 83.9236 132.446 83.2196 133.15 82.4276C133.884 81.6062 134.529 80.7409 135.086 79.8316C135.644 78.9222 136.098 77.9982 136.45 77.0596C136.802 76.1209 136.978 75.2262 136.978 74.3756C136.978 73.7009 136.788 73.1876 136.406 72.8356C136.025 72.4836 135.556 72.3076 134.998 72.3076C134.118 72.3076 133.136 72.6889 132.05 73.4516C130.965 74.2142 129.938 75.1969 128.97 76.3996C128.002 77.5729 127.181 78.8782 126.506 80.3156C125.861 81.7529 125.538 83.1316 125.538 84.4516ZM163.129 72.1316L157.321 80.1836L157.409 80.2716C158.025 79.5382 158.744 78.6876 159.565 77.7196C160.387 76.7222 161.267 75.7836 162.205 74.9036C163.144 74.0236 164.112 73.2902 165.109 72.7036C166.136 72.0876 167.148 71.7796 168.145 71.7796C169.025 71.7796 169.7 72.0289 170.169 72.5276C170.668 72.9969 170.917 73.6129 170.917 74.3756C170.917 74.8449 170.741 75.4022 170.389 76.0476C170.067 76.6929 169.656 77.3822 169.157 78.1156C168.659 78.8489 168.116 79.5969 167.529 80.3596C166.943 81.1222 166.4 81.8556 165.901 82.5596C165.403 83.2342 164.977 83.8649 164.625 84.4516C164.303 85.0089 164.141 85.4782 164.141 85.8596C164.141 86.6809 164.552 87.0916 165.373 87.0916C166.312 87.0916 167.309 86.7836 168.365 86.1676C169.421 85.5222 170.683 84.4516 172.149 82.9556C172.736 82.3689 173.323 81.7236 173.909 81.0196C174.525 80.3156 175.112 79.6262 175.669 78.9516C176.227 78.2476 176.725 77.5876 177.165 76.9716C177.635 76.3556 178.001 75.8422 178.265 75.4316L178.573 75.6076C177.987 76.4876 177.224 77.5436 176.285 78.7756C175.376 79.9782 174.379 81.1662 173.293 82.3396C172.648 83.0436 171.988 83.7182 171.313 84.3636C170.639 85.0089 169.964 85.5809 169.289 86.0796C168.615 86.5489 167.94 86.9302 167.265 87.2236C166.62 87.4876 165.975 87.6196 165.329 87.6196C164.479 87.6196 163.775 87.3849 163.217 86.9156C162.66 86.4462 162.381 85.8009 162.381 84.9796C162.381 84.0996 162.733 83.1462 163.437 82.1196C164.141 81.0636 164.919 80.0076 165.769 78.9516C166.62 77.8956 167.397 76.8836 168.101 75.9156C168.805 74.9476 169.157 74.0969 169.157 73.3636C169.157 73.0116 169.04 72.7476 168.805 72.5716C168.571 72.3956 168.263 72.3076 167.881 72.3076C167.148 72.3076 166.327 72.5862 165.417 73.1436C164.508 73.6716 163.569 74.3902 162.601 75.2996C161.663 76.1796 160.709 77.1769 159.741 78.2916C158.803 79.3769 157.923 80.4769 157.101 81.5916C156.28 82.6769 155.547 83.7329 154.901 84.7596C154.256 85.7569 153.772 86.5929 153.449 87.2676H150.721C151.484 85.9769 152.305 84.6716 153.185 83.3516C154.036 82.0022 154.887 80.6822 155.737 79.3916C156.588 78.0716 157.395 76.8102 158.157 75.6076C158.949 74.3756 159.653 73.2609 160.269 72.2636L163.129 72.1316ZM190.028 72.1316H192.888C191.803 73.6569 190.761 75.1382 189.764 76.5756C188.767 78.0129 187.872 79.3476 187.08 80.5796C186.317 81.7822 185.701 82.8529 185.232 83.7916C184.763 84.7009 184.528 85.4196 184.528 85.9476C184.528 86.7102 184.924 87.0916 185.716 87.0916C186.332 87.0916 187.109 86.7982 188.048 86.2116C189.016 85.5956 190.057 84.7596 191.172 83.7036C192.287 82.6476 193.431 81.4156 194.604 80.0076C195.777 78.5996 196.892 77.1036 197.948 75.5196L198.212 75.6076C197.42 76.8102 196.481 78.1156 195.396 79.5236C194.34 80.9022 193.225 82.1929 192.052 83.3956C190.879 84.5982 189.705 85.6102 188.532 86.4316C187.359 87.2236 186.259 87.6196 185.232 87.6196C184.381 87.6196 183.751 87.4142 183.34 87.0036C182.959 86.5636 182.768 86.0502 182.768 85.4636C182.768 85.0529 182.827 84.6569 182.944 84.2756C183.091 83.8649 183.237 83.4542 183.384 83.0436L183.296 82.9996C182.915 83.4102 182.431 83.8942 181.844 84.4516C181.287 84.9796 180.671 85.4782 179.996 85.9476C179.351 86.4169 178.676 86.8129 177.972 87.1356C177.268 87.4582 176.593 87.6196 175.948 87.6196C174.863 87.6196 174.1 87.2822 173.66 86.6076C173.22 85.9329 173 85.1702 173 84.3196C173 83.1169 173.381 81.7969 174.144 80.3596C174.907 78.8929 175.875 77.5289 177.048 76.2676C178.221 74.9769 179.497 73.9062 180.876 73.0556C182.255 72.2049 183.56 71.7796 184.792 71.7796C185.379 71.7796 185.892 71.8676 186.332 72.0436C186.772 72.1902 187.139 72.4102 187.432 72.7036C187.725 72.9676 187.945 73.2756 188.092 73.6276C188.268 73.9796 188.4 74.3462 188.488 74.7276H188.576L190.028 72.1316ZM175.64 84.4516C175.64 85.1262 175.772 85.6542 176.036 86.0356C176.329 86.3876 176.725 86.5636 177.224 86.5636C177.723 86.5636 178.309 86.3876 178.984 86.0356C179.659 85.6542 180.363 85.1556 181.096 84.5396C181.829 83.9236 182.548 83.2196 183.252 82.4276C183.985 81.6062 184.631 80.7409 185.188 79.8316C185.745 78.9222 186.2 77.9982 186.552 77.0596C186.904 76.1209 187.08 75.2262 187.08 74.3756C187.08 73.7009 186.889 73.1876 186.508 72.8356C186.127 72.4836 185.657 72.3076 185.1 72.3076C184.22 72.3076 183.237 72.6889 182.152 73.4516C181.067 74.2142 180.04 75.1969 179.072 76.3996C178.104 77.5729 177.283 78.8782 176.608 80.3156C175.963 81.7529 175.64 83.1316 175.64 84.4516ZM223.571 76.2236C222.896 77.3089 222.001 78.4822 220.887 79.7436C219.801 80.9756 218.613 82.1342 217.323 83.2196C215.739 84.5396 214.155 85.6102 212.571 86.4316C210.987 87.2236 209.432 87.6196 207.907 87.6196C206.821 87.6196 205.912 87.3409 205.179 86.7836C204.445 86.1969 204.079 85.3462 204.079 84.2316C204.079 82.8236 204.475 81.3862 205.267 79.9196C206.088 78.4529 207.1 77.1182 208.303 75.9156C209.535 74.6836 210.869 73.6862 212.307 72.9236C213.773 72.1609 215.152 71.7796 216.443 71.7796C217.293 71.7796 218.027 71.9409 218.643 72.2636C219.288 72.5569 219.611 73.0849 219.611 73.8476C219.611 74.1996 219.508 74.4929 219.303 74.7276C219.127 74.9622 218.892 75.1529 218.599 75.2996C218.335 75.4462 218.027 75.5636 217.675 75.6516C217.352 75.7102 217.059 75.7542 216.795 75.7836C216.912 75.4902 217.015 75.1969 217.103 74.9036C217.191 74.5809 217.235 74.2582 217.235 73.9356C217.235 72.8502 216.721 72.3076 215.695 72.3076C214.932 72.3076 214.023 72.6889 212.967 73.4516C211.94 74.1849 210.957 75.1236 210.019 76.2676C209.109 77.4116 208.332 78.6729 207.687 80.0516C207.041 81.4302 206.719 82.7649 206.719 84.0556C206.719 84.8476 206.895 85.5222 207.247 86.0796C207.628 86.6369 208.2 86.9156 208.963 86.9156C209.989 86.9156 211.163 86.5782 212.483 85.9036C213.832 85.2289 215.137 84.3929 216.399 83.3956C217.719 82.3689 218.98 81.1956 220.183 79.8756C221.415 78.5262 222.441 77.2209 223.263 75.9596L223.571 76.2236ZM243.239 76.1356C242.535 76.9276 241.743 77.5582 240.863 78.0276C239.983 78.4969 239.118 78.7316 238.267 78.7316C237.446 78.7316 236.742 78.5556 236.155 78.2036C235.568 77.8222 235.114 77.3822 234.791 76.8836H234.703C234.41 77.9982 233.867 79.1862 233.075 80.4476C232.283 81.7089 231.33 82.8676 230.215 83.9236C229.13 84.9796 227.927 85.8596 226.607 86.5636C225.287 87.2676 223.938 87.6196 222.559 87.6196C221.298 87.6196 220.344 87.2529 219.699 86.5196C219.054 85.7862 218.731 84.8036 218.731 83.5716C218.731 82.9262 218.892 82.1782 219.215 81.3276C219.538 80.4769 219.978 79.6262 220.535 78.7756C221.122 77.8956 221.796 77.0449 222.559 76.2236C223.351 75.3729 224.202 74.6249 225.111 73.9796C226.02 73.3049 226.974 72.7769 227.971 72.3956C228.998 71.9849 230.024 71.7796 231.051 71.7796C232.254 71.7796 233.178 72.1316 233.823 72.8356C234.498 73.5396 234.864 74.4489 234.923 75.5636C234.982 76.2382 235.29 76.8689 235.847 77.4556C236.434 78.0129 237.226 78.2916 238.223 78.2916C239.103 78.2916 239.924 78.0716 240.687 77.6316C241.479 77.1916 242.212 76.6196 242.887 75.9156L243.239 76.1356ZM221.107 84.6276C221.107 85.3902 221.254 85.9916 221.547 86.4316C221.84 86.8716 222.28 87.0916 222.867 87.0916C223.659 87.0916 224.436 86.8862 225.199 86.4756C225.991 86.0356 226.739 85.4782 227.443 84.8036C228.176 84.0996 228.851 83.3076 229.467 82.4276C230.083 81.5476 230.611 80.6382 231.051 79.6996C231.52 78.7609 231.887 77.8516 232.151 76.9716C232.415 76.0622 232.547 75.2409 232.547 74.5076C232.547 73.8916 232.386 73.3782 232.063 72.9676C231.77 72.5276 231.3 72.3076 230.655 72.3076C230.039 72.3076 229.379 72.5129 228.675 72.9236C227.971 73.3049 227.252 73.8182 226.519 74.4636C225.815 75.1089 225.14 75.8569 224.495 76.7076C223.85 77.5582 223.263 78.4382 222.735 79.3476C222.236 80.2569 221.84 81.1662 221.547 82.0756C221.254 82.9849 221.107 83.8356 221.107 84.6276ZM257.95 75.9156C257.07 77.3236 256.043 78.7316 254.87 80.1396C253.726 81.5182 252.465 82.7649 251.086 83.8796C249.707 84.9942 248.197 85.9036 246.554 86.6076C244.941 87.2822 243.21 87.6196 241.362 87.6196C240.658 87.6196 239.998 87.5316 239.382 87.3556C238.766 87.1796 238.223 86.9156 237.754 86.5636C237.314 86.2116 236.962 85.7716 236.698 85.2436C236.405 84.6862 236.258 84.0409 236.258 83.3076C236.258 82.5449 236.507 81.8556 237.006 81.2396C237.505 80.6236 238.179 80.3156 239.03 80.3156C239.47 80.3156 239.822 80.4329 240.086 80.6676C240.379 80.8729 240.526 81.1956 240.526 81.6356C240.526 82.0462 240.423 82.3982 240.218 82.6916C240.013 82.9849 239.705 83.1316 239.294 83.1316C238.971 83.1316 238.707 83.0436 238.502 82.8676C238.326 82.6916 238.209 82.4716 238.15 82.2076C237.827 82.3836 237.607 82.6476 237.49 82.9996C237.373 83.3222 237.314 83.6596 237.314 84.0116C237.314 85.0382 237.695 85.8156 238.458 86.3436C239.25 86.8422 240.13 87.0916 241.098 87.0916C241.714 87.0916 242.242 86.9742 242.682 86.7396C243.151 86.4756 243.533 86.1529 243.826 85.7716C244.149 85.3609 244.383 84.8916 244.53 84.3636C244.677 83.8356 244.75 83.3076 244.75 82.7796C244.75 82.2222 244.647 81.6502 244.442 81.0636C244.266 80.4476 244.061 79.8462 243.826 79.2596C243.591 78.6729 243.371 78.1009 243.166 77.5436C242.961 76.9569 242.858 76.4142 242.858 75.9156C242.858 75.2702 242.99 74.6982 243.254 74.1996C243.518 73.6716 243.87 73.2316 244.31 72.8796C244.779 72.5276 245.307 72.2636 245.894 72.0876C246.481 71.8822 247.097 71.7796 247.742 71.7796C248.915 71.7796 249.869 72.0436 250.602 72.5716C251.335 73.0702 251.702 73.7449 251.702 74.5956C251.702 75.3582 251.409 75.9156 250.822 76.2676C250.265 76.6196 249.634 76.7956 248.93 76.7956C249.106 76.4729 249.253 76.0916 249.37 75.6516C249.517 75.1822 249.59 74.7569 249.59 74.3756C249.59 73.7889 249.399 73.3049 249.018 72.9236C248.666 72.5129 248.153 72.3076 247.478 72.3076C246.627 72.3076 245.997 72.5716 245.586 73.0996C245.175 73.5982 244.97 74.2142 244.97 74.9476C244.97 75.5929 245.073 76.2089 245.278 76.7956C245.513 77.3822 245.777 77.9689 246.07 78.5556C246.334 79.1422 246.569 79.7436 246.774 80.3596C247.009 80.9756 247.126 81.6649 247.126 82.4276C247.126 82.9849 246.994 83.5276 246.73 84.0556C246.495 84.5542 246.173 85.0236 245.762 85.4636C245.351 85.8742 244.882 86.2262 244.354 86.5196C243.855 86.8129 243.342 87.0036 242.814 87.0916L242.902 87.1796C244.486 87.0036 245.997 86.5489 247.434 85.8156C248.871 85.0529 250.206 84.1436 251.438 83.0876C252.699 82.0022 253.858 80.8289 254.914 79.5676C255.97 78.2769 256.894 77.0156 257.686 75.7836L257.95 75.9156ZM265.43 67.0276L261.954 72.1316H267.762L267.498 72.6596H261.602C260.429 74.5662 259.373 76.2236 258.434 77.6316C257.525 79.0102 256.748 80.2129 256.102 81.2396C255.486 82.2369 255.017 83.0876 254.694 83.7916C254.372 84.4662 254.21 85.0676 254.21 85.5956C254.21 86.1529 254.401 86.5489 254.782 86.7836C255.164 86.9889 255.604 87.0916 256.102 87.0916C257.158 87.0916 258.317 86.6956 259.578 85.9036C260.869 85.0822 262.145 84.0849 263.406 82.9116C264.668 81.7382 265.87 80.4916 267.014 79.1716C268.158 77.8516 269.126 76.6636 269.918 75.6076L270.182 75.7836C269.185 77.0449 268.085 78.3796 266.882 79.7876C265.709 81.1662 264.492 82.4422 263.23 83.6156C261.969 84.7596 260.693 85.7129 259.402 86.4756C258.141 87.2382 256.938 87.6196 255.794 87.6196C254.885 87.6196 254.093 87.3409 253.418 86.7836C252.773 86.2262 252.45 85.4489 252.45 84.4516C252.45 83.7769 252.641 83.0289 253.022 82.2076C253.404 81.3569 253.902 80.4476 254.518 79.4796C255.134 78.5116 255.824 77.4556 256.586 76.3116C257.378 75.1676 258.185 73.9502 259.006 72.6596H256.63L256.894 72.1316H259.358L262.79 67.0276H265.43ZM281.68 72.1316H284.54C283.455 73.6569 282.414 75.1382 281.416 76.5756C280.419 78.0129 279.524 79.3476 278.732 80.5796C277.97 81.7822 277.354 82.8529 276.884 83.7916C276.415 84.7009 276.18 85.4196 276.18 85.9476C276.18 86.7102 276.576 87.0916 277.368 87.0916C277.984 87.0916 278.762 86.7982 279.7 86.2116C280.668 85.5956 281.71 84.7596 282.824 83.7036C283.939 82.6476 285.083 81.4156 286.256 80.0076C287.43 78.5996 288.544 77.1036 289.6 75.5196L289.864 75.6076C289.072 76.8102 288.134 78.1156 287.048 79.5236C285.992 80.9022 284.878 82.1929 283.704 83.3956C282.531 84.5982 281.358 85.6102 280.184 86.4316C279.011 87.2236 277.911 87.6196 276.884 87.6196C276.034 87.6196 275.403 87.4142 274.992 87.0036C274.611 86.5636 274.42 86.0502 274.42 85.4636C274.42 85.0529 274.479 84.6569 274.596 84.2756C274.743 83.8649 274.89 83.4542 275.036 83.0436L274.948 82.9996C274.567 83.4102 274.083 83.8942 273.496 84.4516C272.939 84.9796 272.323 85.4782 271.648 85.9476C271.003 86.4169 270.328 86.8129 269.624 87.1356C268.92 87.4582 268.246 87.6196 267.6 87.6196C266.515 87.6196 265.752 87.2822 265.312 86.6076C264.872 85.9329 264.652 85.1702 264.652 84.3196C264.652 83.1169 265.034 81.7969 265.796 80.3596C266.559 78.8929 267.527 77.5289 268.7 76.2676C269.874 74.9769 271.15 73.9062 272.528 73.0556C273.907 72.2049 275.212 71.7796 276.444 71.7796C277.031 71.7796 277.544 71.8676 277.984 72.0436C278.424 72.1902 278.791 72.4102 279.084 72.7036C279.378 72.9676 279.598 73.2756 279.744 73.6276C279.92 73.9796 280.052 74.3462 280.14 74.7276H280.228L281.68 72.1316ZM267.292 84.4516C267.292 85.1262 267.424 85.6542 267.688 86.0356C267.982 86.3876 268.378 86.5636 268.876 86.5636C269.375 86.5636 269.962 86.3876 270.636 86.0356C271.311 85.6542 272.015 85.1556 272.748 84.5396C273.482 83.9236 274.2 83.2196 274.904 82.4276C275.638 81.6062 276.283 80.7409 276.84 79.8316C277.398 78.9222 277.852 77.9982 278.204 77.0596C278.556 76.1209 278.732 75.2262 278.732 74.3756C278.732 73.7009 278.542 73.1876 278.16 72.8356C277.779 72.4836 277.31 72.3076 276.752 72.3076C275.872 72.3076 274.89 72.6889 273.804 73.4516C272.719 74.2142 271.692 75.1969 270.724 76.3996C269.756 77.5729 268.935 78.8782 268.26 80.3156C267.615 81.7529 267.292 83.1316 267.292 84.4516ZM324.991 56.8196C323.847 58.6382 322.6 60.5596 321.251 62.5836C319.902 64.6076 318.552 66.6169 317.203 68.6116C315.854 70.6062 314.548 72.5422 313.287 74.4196C312.055 76.2676 310.955 77.9689 309.987 79.5236C309.019 81.0782 308.242 82.4276 307.655 83.5716C307.098 84.6862 306.819 85.5076 306.819 86.0356C306.819 86.3582 306.892 86.6222 307.039 86.8276C307.215 87.0036 307.464 87.0916 307.787 87.0916C308.52 87.0916 309.356 86.7982 310.295 86.2116C311.234 85.6249 312.363 84.7009 313.683 83.4396C314.827 82.3249 315.942 81.0929 317.027 79.7436C318.112 78.3649 319.051 77.0156 319.843 75.6956L320.195 75.8716C319.931 76.3409 319.579 76.8982 319.139 77.5436C318.728 78.1596 318.259 78.8049 317.731 79.4796C317.232 80.1542 316.69 80.8436 316.103 81.5476C315.516 82.2222 314.915 82.8676 314.299 83.4836C313.126 84.6862 311.967 85.6836 310.823 86.4756C309.679 87.2382 308.623 87.6196 307.655 87.6196C306.716 87.6196 306.012 87.4289 305.543 87.0476C305.103 86.6369 304.883 86.1236 304.883 85.5076C304.883 84.9502 305 84.4076 305.235 83.8796C305.47 83.3516 305.704 82.8822 305.939 82.4716L305.851 82.4276C305.382 82.9556 304.854 83.5276 304.267 84.1436C303.71 84.7302 303.108 85.2876 302.463 85.8156C301.818 86.3436 301.128 86.7836 300.395 87.1356C299.691 87.4582 298.958 87.6196 298.195 87.6196C297.139 87.6196 296.318 87.2969 295.731 86.6516C295.174 86.0062 294.895 85.2436 294.895 84.3636C294.895 83.1316 295.32 81.7822 296.171 80.3156C297.022 78.8489 298.078 77.4849 299.339 76.2236C300.63 74.9622 302.008 73.9062 303.475 73.0556C304.942 72.2049 306.306 71.7796 307.567 71.7796C308.506 71.7796 309.254 72.0729 309.811 72.6596C310.368 73.2462 310.632 73.9942 310.603 74.9036H310.735L322.087 56.8196H324.991ZM309.371 74.9476C309.371 74.2436 309.254 73.6276 309.019 73.0996C308.784 72.5716 308.242 72.3076 307.391 72.3076C306.804 72.3076 306.144 72.5129 305.411 72.9236C304.707 73.3342 303.988 73.8769 303.255 74.5516C302.522 75.2262 301.803 76.0036 301.099 76.8836C300.424 77.7342 299.823 78.6142 299.295 79.5236C298.767 80.4036 298.342 81.2689 298.019 82.1196C297.696 82.9702 297.535 83.7329 297.535 84.4076C297.535 85.0236 297.652 85.5369 297.887 85.9476C298.122 86.3582 298.547 86.5636 299.163 86.5636C299.691 86.5636 300.292 86.3582 300.967 85.9476C301.671 85.5369 302.404 85.0089 303.167 84.3636C303.93 83.6889 304.678 82.9262 305.411 82.0756C306.144 81.2249 306.804 80.3742 307.391 79.5236C307.978 78.6729 308.447 77.8516 308.799 77.0596C309.18 76.2382 309.371 75.5342 309.371 74.9476ZM339.79 76.1356C339.086 76.9276 338.294 77.5582 337.414 78.0276C336.534 78.4969 335.669 78.7316 334.818 78.7316C333.997 78.7316 333.293 78.5556 332.706 78.2036C332.119 77.8222 331.665 77.3822 331.342 76.8836H331.254C330.961 77.9982 330.418 79.1862 329.626 80.4476C328.834 81.7089 327.881 82.8676 326.766 83.9236C325.681 84.9796 324.478 85.8596 323.158 86.5636C321.838 87.2676 320.489 87.6196 319.11 87.6196C317.849 87.6196 316.895 87.2529 316.25 86.5196C315.605 85.7862 315.282 84.8036 315.282 83.5716C315.282 82.9262 315.443 82.1782 315.766 81.3276C316.089 80.4769 316.529 79.6262 317.086 78.7756C317.673 77.8956 318.347 77.0449 319.11 76.2236C319.902 75.3729 320.753 74.6249 321.662 73.9796C322.571 73.3049 323.525 72.7769 324.522 72.3956C325.549 71.9849 326.575 71.7796 327.602 71.7796C328.805 71.7796 329.729 72.1316 330.374 72.8356C331.049 73.5396 331.415 74.4489 331.474 75.5636C331.533 76.2382 331.841 76.8689 332.398 77.4556C332.985 78.0129 333.777 78.2916 334.774 78.2916C335.654 78.2916 336.475 78.0716 337.238 77.6316C338.03 77.1916 338.763 76.6196 339.438 75.9156L339.79 76.1356ZM317.658 84.6276C317.658 85.3902 317.805 85.9916 318.098 86.4316C318.391 86.8716 318.831 87.0916 319.418 87.0916C320.21 87.0916 320.987 86.8862 321.75 86.4756C322.542 86.0356 323.29 85.4782 323.994 84.8036C324.727 84.0996 325.402 83.3076 326.018 82.4276C326.634 81.5476 327.162 80.6382 327.602 79.6996C328.071 78.7609 328.438 77.8516 328.702 76.9716C328.966 76.0622 329.098 75.2409 329.098 74.5076C329.098 73.8916 328.937 73.3782 328.614 72.9676C328.321 72.5276 327.851 72.3076 327.206 72.3076C326.59 72.3076 325.93 72.5129 325.226 72.9236C324.522 73.3049 323.803 73.8182 323.07 74.4636C322.366 75.1089 321.691 75.8569 321.046 76.7076C320.401 77.5582 319.814 78.4382 319.286 79.3476C318.787 80.2569 318.391 81.1662 318.098 82.0756C317.805 82.9849 317.658 83.8356 317.658 84.6276ZM156.822 110.456C156.147 110.69 155.429 110.954 154.666 111.248C153.933 111.512 153.273 111.82 152.686 112.172C153.977 112.905 154.901 113.8 155.458 114.856C156.015 115.912 156.294 117.144 156.294 118.552C156.294 119.666 156.001 120.722 155.414 121.72C154.857 122.717 154.138 123.597 153.258 124.36C152.378 125.122 151.395 125.738 150.31 126.208C149.254 126.648 148.242 126.868 147.274 126.868C146.247 126.868 145.455 126.662 144.898 126.252C144.37 125.812 144.106 125.254 144.106 124.58C144.106 124.169 144.238 123.817 144.502 123.524C144.795 123.201 145.162 123.04 145.602 123.04C145.807 123.04 146.027 123.113 146.262 123.26C146.497 123.377 146.658 123.538 146.746 123.744C146.599 123.92 146.467 124.096 146.35 124.272C146.262 124.448 146.218 124.653 146.218 124.888C146.218 125.386 146.365 125.753 146.658 125.988C146.951 126.222 147.333 126.34 147.802 126.34C148.565 126.34 149.298 126.061 150.002 125.504C150.735 124.946 151.395 124.213 151.982 123.304C152.569 122.394 153.038 121.382 153.39 120.268C153.742 119.124 153.918 117.98 153.918 116.836C153.918 115.78 153.757 114.914 153.434 114.24C153.141 113.565 152.671 113.008 152.026 112.568C150.501 113.448 149.107 114.68 147.846 116.264C146.585 117.848 145.353 119.608 144.15 121.544C142.977 123.45 141.789 125.445 140.586 127.528C139.383 129.581 138.078 131.546 136.67 133.424C135.291 135.272 133.751 136.944 132.05 138.44C130.349 139.936 128.398 141.065 126.198 141.828V141.916C127.489 142.121 128.691 142.253 129.806 142.312C130.95 142.4 132.182 142.444 133.502 142.444C137.873 142.444 141.657 141.432 144.854 139.408C148.051 137.354 150.809 134.538 153.126 130.96L153.478 131.136C152.158 133.13 150.809 134.876 149.43 136.372C148.081 137.838 146.599 139.07 144.986 140.068C143.373 141.036 141.598 141.769 139.662 142.268C137.755 142.737 135.57 142.972 133.106 142.972C131.933 142.972 130.642 142.884 129.234 142.708C127.855 142.532 126.609 142.326 125.494 142.092C125.23 142.092 124.438 142.238 123.118 142.532C121.798 142.825 119.994 142.972 117.706 142.972C116.239 142.972 115.198 142.854 114.582 142.62C113.966 142.385 113.658 142.077 113.658 141.696C113.658 141.314 113.834 141.006 114.186 140.772C114.538 140.537 115.154 140.42 116.034 140.42C116.738 140.42 117.427 140.449 118.102 140.508C118.777 140.566 119.481 140.654 120.214 140.772C120.977 140.86 121.769 140.992 122.59 141.168C123.441 141.314 124.379 141.49 125.406 141.696C126.697 141.402 127.987 140.581 129.278 139.232C130.569 137.882 131.874 136.254 133.194 134.348C134.543 132.412 135.907 130.329 137.286 128.1C138.694 125.841 140.131 123.67 141.598 121.588C143.094 119.476 144.649 117.584 146.262 115.912C147.875 114.24 149.577 113.008 151.366 112.216C150.75 111.922 150.002 111.732 149.122 111.644C148.242 111.526 147.45 111.468 146.746 111.468C145.162 111.468 143.475 111.673 141.686 112.084C139.926 112.465 138.181 113.022 136.45 113.756C134.719 114.46 133.062 115.34 131.478 116.396C129.923 117.452 128.545 118.64 127.342 119.96C126.139 121.25 125.186 122.688 124.482 124.272C123.778 125.826 123.426 127.484 123.426 129.244C123.426 130.652 123.749 131.737 124.394 132.5C125.069 133.262 126.051 133.644 127.342 133.644C128.457 133.644 129.498 133.365 130.466 132.808C131.434 132.221 132.27 131.488 132.974 130.608C133.707 129.698 134.279 128.701 134.69 127.616C135.101 126.501 135.306 125.43 135.306 124.404V122.732H135.834V124.404C135.834 125.489 135.614 126.618 135.174 127.792C134.734 128.936 134.133 129.992 133.37 130.96C132.607 131.898 131.683 132.676 130.598 133.292C129.542 133.878 128.398 134.172 127.166 134.172C126.403 134.172 125.699 134.025 125.054 133.732C124.438 133.438 123.895 133.042 123.426 132.544C122.986 132.045 122.634 131.473 122.37 130.828C122.135 130.153 122.018 129.434 122.018 128.672C122.018 127.322 122.326 125.958 122.942 124.58C123.587 123.172 124.467 121.808 125.582 120.488C126.697 119.168 128.031 117.936 129.586 116.792C131.141 115.618 132.842 114.606 134.69 113.756C136.538 112.876 138.503 112.186 140.586 111.688C142.698 111.189 144.839 110.94 147.01 110.94C148.125 110.94 149.078 111.028 149.87 111.204C150.662 111.35 151.395 111.57 152.07 111.864C153.537 111.218 155.091 110.69 156.734 110.28L156.822 110.456ZM158.2 127.132C156.587 129.449 155.223 131.4 154.108 132.984C152.994 134.568 152.084 135.888 151.38 136.944C150.706 138 150.207 138.836 149.884 139.452C149.591 140.068 149.444 140.566 149.444 140.948C149.444 141.71 149.752 142.092 150.368 142.092C150.955 142.092 151.63 141.886 152.392 141.476C153.184 141.036 154.006 140.478 154.856 139.804C155.707 139.129 156.558 138.366 157.408 137.516C158.259 136.665 159.051 135.829 159.784 135.008C160.547 134.157 161.207 133.35 161.764 132.588C162.351 131.796 162.776 131.15 163.04 130.652L163.392 130.872C163.04 131.458 162.556 132.162 161.94 132.984C161.354 133.805 160.679 134.656 159.916 135.536C159.154 136.386 158.347 137.237 157.496 138.088C156.646 138.938 155.78 139.701 154.9 140.376C154.02 141.05 153.155 141.593 152.304 142.004C151.483 142.414 150.72 142.62 150.016 142.62C149.224 142.62 148.638 142.4 148.256 141.96C147.875 141.52 147.684 141.036 147.684 140.508C147.684 139.892 147.816 139.246 148.08 138.572C148.374 137.868 148.828 137.017 149.444 136.02C150.06 135.022 150.852 133.82 151.82 132.412C152.818 130.974 154.006 129.214 155.384 127.132H158.2ZM160.752 118.948C161.163 118.948 161.5 119.094 161.764 119.388C162.028 119.652 162.16 119.989 162.16 120.4C162.16 120.81 162.028 121.162 161.764 121.456C161.5 121.72 161.163 121.852 160.752 121.852C160.342 121.852 160.004 121.72 159.74 121.456C159.476 121.162 159.344 120.81 159.344 120.4C159.344 119.989 159.476 119.652 159.74 119.388C160.004 119.094 160.342 118.948 160.752 118.948ZM174.774 127.132H177.634C176.549 128.657 175.507 130.138 174.51 131.576C173.513 133.013 172.618 134.348 171.826 135.58C171.063 136.782 170.447 137.853 169.978 138.792C169.509 139.701 169.274 140.42 169.274 140.948C169.274 141.71 169.67 142.092 170.462 142.092C171.078 142.092 171.855 141.798 172.794 141.212C173.762 140.596 174.803 139.76 175.918 138.704C177.033 137.648 178.177 136.416 179.35 135.008C180.523 133.6 181.638 132.104 182.694 130.52L182.958 130.608C182.166 131.81 181.227 133.116 180.142 134.524C179.086 135.902 177.971 137.193 176.798 138.396C175.625 139.598 174.451 140.61 173.278 141.432C172.105 142.224 171.005 142.62 169.978 142.62C169.127 142.62 168.497 142.414 168.086 142.004C167.705 141.564 167.514 141.05 167.514 140.464C167.514 140.053 167.573 139.657 167.69 139.276C167.837 138.865 167.983 138.454 168.13 138.044L168.042 138C167.661 138.41 167.177 138.894 166.59 139.452C166.033 139.98 165.417 140.478 164.742 140.948C164.097 141.417 163.422 141.813 162.718 142.136C162.014 142.458 161.339 142.62 160.694 142.62C159.609 142.62 158.846 142.282 158.406 141.608C157.966 140.933 157.746 140.17 157.746 139.32C157.746 138.117 158.127 136.797 158.89 135.36C159.653 133.893 160.621 132.529 161.794 131.268C162.967 129.977 164.243 128.906 165.622 128.056C167.001 127.205 168.306 126.78 169.538 126.78C170.125 126.78 170.638 126.868 171.078 127.044C171.518 127.19 171.885 127.41 172.178 127.704C172.471 127.968 172.691 128.276 172.838 128.628C173.014 128.98 173.146 129.346 173.234 129.728H173.322L174.774 127.132ZM160.386 139.452C160.386 140.126 160.518 140.654 160.782 141.036C161.075 141.388 161.471 141.564 161.97 141.564C162.469 141.564 163.055 141.388 163.73 141.036C164.405 140.654 165.109 140.156 165.842 139.54C166.575 138.924 167.294 138.22 167.998 137.428C168.731 136.606 169.377 135.741 169.934 134.832C170.491 133.922 170.946 132.998 171.298 132.06C171.65 131.121 171.826 130.226 171.826 129.376C171.826 128.701 171.635 128.188 171.254 127.836C170.873 127.484 170.403 127.308 169.846 127.308C168.966 127.308 167.983 127.689 166.898 128.452C165.813 129.214 164.786 130.197 163.818 131.4C162.85 132.573 162.029 133.878 161.354 135.316C160.709 136.753 160.386 138.132 160.386 139.452ZM187.505 127.132C186.361 128.686 185.261 130.168 184.205 131.576C183.149 132.984 182.21 134.274 181.389 135.448C180.568 136.621 179.908 137.648 179.409 138.528C178.94 139.378 178.705 140.053 178.705 140.552C178.705 141.021 178.822 141.373 179.057 141.608C179.292 141.813 179.6 141.916 179.981 141.916C180.538 141.916 181.14 141.74 181.785 141.388C182.46 141.036 183.134 140.581 183.809 140.024C184.513 139.466 185.188 138.85 185.833 138.176C186.508 137.501 187.124 136.841 187.681 136.196C188.268 135.521 188.766 134.905 189.177 134.348C189.617 133.79 189.94 133.35 190.145 133.028L194.017 127.132H197.053C195.469 129.302 194.12 131.15 193.005 132.676C191.92 134.172 191.025 135.448 190.321 136.504C189.646 137.56 189.162 138.425 188.869 139.1C188.576 139.745 188.429 140.317 188.429 140.816C188.429 141.168 188.532 141.476 188.737 141.74C188.942 141.974 189.236 142.092 189.617 142.092C190.204 142.092 190.878 141.886 191.641 141.476C192.404 141.036 193.196 140.478 194.017 139.804C194.838 139.1 195.645 138.322 196.437 137.472C197.258 136.592 198.021 135.726 198.725 134.876C199.458 134.025 200.118 133.233 200.705 132.5C201.292 131.737 201.746 131.121 202.069 130.652L202.509 130.784C202.157 131.282 201.688 131.928 201.101 132.72C200.514 133.482 199.854 134.304 199.121 135.184C198.388 136.034 197.61 136.914 196.789 137.824C195.968 138.704 195.117 139.496 194.237 140.2C193.386 140.904 192.536 141.49 191.685 141.96C190.864 142.4 190.086 142.62 189.353 142.62C188.532 142.62 187.872 142.4 187.373 141.96C186.904 141.49 186.669 140.874 186.669 140.112C186.669 139.525 186.757 138.968 186.933 138.44C187.138 137.882 187.285 137.53 187.373 137.384L187.285 137.296C186.669 138 186.024 138.674 185.349 139.32C184.674 139.965 184 140.537 183.325 141.036C182.65 141.505 181.961 141.886 181.257 142.18C180.582 142.473 179.908 142.62 179.233 142.62C178.294 142.62 177.62 142.414 177.209 142.004C176.798 141.564 176.593 141.05 176.593 140.464C176.593 139.73 176.798 138.938 177.209 138.088C177.59 137.237 178.133 136.284 178.837 135.228C179.541 134.172 180.377 132.984 181.345 131.664C182.342 130.344 183.428 128.833 184.601 127.132H187.505ZM207.056 127.132C205.442 129.449 204.078 131.4 202.964 132.984C201.849 134.568 200.94 135.888 200.236 136.944C199.561 138 199.062 138.836 198.74 139.452C198.446 140.068 198.3 140.566 198.3 140.948C198.3 141.71 198.608 142.092 199.224 142.092C199.81 142.092 200.485 141.886 201.248 141.476C202.04 141.036 202.861 140.478 203.712 139.804C204.562 139.129 205.413 138.366 206.264 137.516C207.114 136.665 207.906 135.829 208.64 135.008C209.402 134.157 210.062 133.35 210.62 132.588C211.206 131.796 211.632 131.15 211.896 130.652L212.248 130.872C211.896 131.458 211.412 132.162 210.796 132.984C210.209 133.805 209.534 134.656 208.772 135.536C208.009 136.386 207.202 137.237 206.352 138.088C205.501 138.938 204.636 139.701 203.756 140.376C202.876 141.05 202.01 141.593 201.16 142.004C200.338 142.414 199.576 142.62 198.872 142.62C198.08 142.62 197.493 142.4 197.112 141.96C196.73 141.52 196.54 141.036 196.54 140.508C196.54 139.892 196.672 139.246 196.936 138.572C197.229 137.868 197.684 137.017 198.3 136.02C198.916 135.022 199.708 133.82 200.676 132.412C201.673 130.974 202.861 129.214 204.24 127.132H207.056ZM211.456 117.1C211.778 117.1 212.013 117.246 212.16 117.54C212.336 117.804 212.424 118.053 212.424 118.288C212.424 118.904 212.145 119.564 211.588 120.268C211.03 120.972 210.4 121.632 209.696 122.248C209.021 122.864 208.376 123.377 207.76 123.788C207.144 124.198 206.762 124.404 206.616 124.404C206.469 124.404 206.396 124.345 206.396 124.228C206.396 124.11 206.557 123.92 206.88 123.656C207.232 123.392 207.613 123.069 208.024 122.688C208.434 122.277 208.816 121.837 209.168 121.368C209.549 120.869 209.754 120.356 209.784 119.828C209.842 119.065 210.004 118.42 210.268 117.892C210.561 117.364 210.957 117.1 211.456 117.1ZM213.642 135.976C215.02 133.746 216.37 131.517 217.69 129.288C219.039 127.058 220.183 124.726 221.122 122.292C221.62 121.001 222.06 120.121 222.442 119.652C222.823 119.182 223.307 118.948 223.894 118.948C224.304 118.948 224.642 119.094 224.906 119.388C225.199 119.681 225.346 120.033 225.346 120.444C225.346 121.03 225.126 121.588 224.686 122.116C224.275 122.614 223.879 123.069 223.498 123.48C221.738 125.474 220.051 127.528 218.438 129.64C216.854 131.722 215.343 133.893 213.906 136.152L213.642 135.976ZM211.31 139.012C211.75 139.012 212.131 139.173 212.454 139.496C212.776 139.818 212.938 140.2 212.938 140.64C212.938 141.08 212.776 141.461 212.454 141.784C212.131 142.106 211.75 142.268 211.31 142.268C210.87 142.268 210.488 142.106 210.166 141.784C209.843 141.461 209.682 141.08 209.682 140.64C209.682 140.2 209.843 139.818 210.166 139.496C210.488 139.173 210.87 139.012 211.31 139.012Z" fill="#210600"/>
</svg>
