<svg width="31" height="22" viewBox="0 0 31 22" fill="none" xmlns="http://www.w3.org/2000/svg">
<path d="M29.2253 17.2638C29.2253 18.2679 29.2289 19.2302 29.2241 20.1912C29.2205 20.8634 28.9053 21.3636 28.3167 21.446C27.7735 21.5212 27.2052 21.5176 26.6608 21.446C26.1212 21.3768 25.7821 20.9183 25.7726 20.3703C25.7571 19.4666 25.7654 18.564 25.763 17.6602C25.763 17.542 25.763 17.425 25.763 17.2853H5.28441C5.28441 17.5778 5.28441 17.8632 5.28441 18.1485C5.28441 18.8433 5.29038 19.5382 5.28202 20.233C5.27366 21.0413 4.80686 21.4926 3.99382 21.495C3.7061 21.495 3.41718 21.495 3.12946 21.495C2.31165 21.4926 1.83051 21.0246 1.82335 20.208C1.81499 19.334 1.82096 18.4601 1.82096 17.5874C1.82096 17.5002 1.82096 17.4119 1.82096 17.3032C1.65024 17.2925 1.50339 17.2853 1.35774 17.2746C0.741696 17.2292 0.273695 16.766 0.267725 16.1511C0.256981 14.7615 0.239072 13.3706 0.273695 11.9809C0.314287 10.3381 1.29446 9.21948 2.89665 8.92459C3.10916 8.88519 3.13184 8.77894 3.13065 8.59866C3.12468 7.08005 3.10677 5.56024 3.13901 4.04162C3.14975 3.53542 3.22258 3.00175 3.40285 2.53375C3.83743 1.41389 4.78895 0.997229 5.91717 0.890973C6.01626 0.881422 6.11535 0.882616 6.21444 0.882616C12.3844 0.882616 18.5532 0.882616 24.722 0.882616C25.3285 0.882616 25.9099 0.994841 26.4388 1.29212C27.3533 1.80668 27.7735 2.63881 27.7938 3.65242C27.8261 5.27013 27.8058 6.88903 27.807 8.50673C27.807 8.61538 27.807 8.72402 27.807 8.84818C28.0636 8.91504 28.3144 8.96638 28.5543 9.04637C29.8354 9.47139 30.5565 10.3919 30.7069 11.7004C30.8096 12.5934 30.7666 13.5031 30.7809 14.4045C30.7893 14.9203 30.7833 15.4372 30.7821 15.953C30.7809 16.7732 30.3141 17.2471 29.4975 17.2626C29.4199 17.2638 29.3423 17.2626 29.2241 17.2626L29.2253 17.2638ZM29.5154 13.1999C29.5118 12.5552 29.5691 11.9212 29.3602 11.3076C29.1644 10.7321 28.774 10.3358 28.1914 10.1794C27.8225 10.0803 27.4321 10.017 27.0512 10.017C19.3244 10.0074 11.5976 10.0098 3.87086 10.0122C3.62372 10.0122 3.3742 10.0325 3.12946 10.0659C2.30807 10.1758 1.6777 10.7011 1.51294 11.5105C1.40191 12.0549 1.40669 12.6232 1.35893 13.2011H29.5154V13.1999ZM4.2529 8.81714H5.32739C5.32739 7.90741 5.325 7.02513 5.32739 6.14166C5.32978 5.33101 5.78823 4.87018 6.60126 4.86898C8.92574 4.8654 11.2502 4.8654 13.5735 4.86898C14.3877 4.86898 14.8557 5.34534 14.8605 6.17031C14.8653 6.94514 14.8605 7.71877 14.8605 8.4936C14.8605 8.59986 14.8605 8.70611 14.8605 8.81714H16.2311C16.2311 7.91696 16.2287 7.04423 16.2311 6.1715C16.2335 5.32146 16.6836 4.87018 17.5348 4.87018C19.839 4.86779 22.1432 4.86779 24.4486 4.87018C25.2879 4.87018 25.7559 5.33459 25.7618 6.17509C25.7678 6.94991 25.763 7.72355 25.763 8.49838C25.763 8.60344 25.763 8.70969 25.763 8.82908H26.6035C26.6155 8.75745 26.6322 8.70014 26.6322 8.64284C26.6262 6.96543 26.6286 5.28803 26.6059 3.61063C26.5952 2.83939 26.1105 2.28543 25.3499 2.13022C25.0909 2.07769 24.8187 2.06814 24.5524 2.06814C18.503 2.06456 12.4549 2.06575 6.40546 2.06575C6.24668 2.06575 6.08789 2.06814 5.9291 2.07411C5.06473 2.10873 4.49048 2.60061 4.36035 3.45304C4.29826 3.86015 4.26006 4.27562 4.25648 4.68751C4.24335 6.05689 4.2517 7.42627 4.2517 8.81834L4.2529 8.81714ZM1.41743 16.101H29.4987V14.4164H1.41743V16.101ZM6.58932 6.04853V8.8255H13.7156V6.04853H6.58932ZM17.4023 8.82072H24.5703V6.03301C24.2516 6.03301 23.9459 6.03301 23.6403 6.03301C21.6644 6.03301 19.6898 6.0366 17.7139 6.02824C17.4656 6.02824 17.3868 6.09868 17.3975 6.34581C17.4154 6.79113 17.4023 7.23883 17.4023 7.68534C17.4023 8.06022 17.4023 8.43391 17.4023 8.82072ZM2.98022 20.2939H4.06068V17.2865H2.98022V20.2939ZM26.8805 17.2746V20.2951H27.961V17.2746H26.8805Z" fill="black" fill-opacity="0.45"/>
</svg>
