<svg width="25" height="24" viewBox="0 0 25 24" fill="none" xmlns="http://www.w3.org/2000/svg">
<path d="M19.5203 16.4796C18.9491 15.908 18.2817 15.4414 17.5486 15.1013C18.5824 14.2638 19.2419 12.9859 19.2419 11.5528C19.2419 9.02434 17.1333 6.95001 14.6048 6.9888C12.1152 7.0276 10.1093 9.05629 10.1093 11.5528C10.1093 12.9859 10.7711 14.2638 11.8025 15.1013C11.0694 15.4412 10.4019 15.9078 9.8309 16.4796C8.58493 17.7279 7.87751 19.3755 7.83187 21.1326C7.83126 21.157 7.83554 21.1812 7.84444 21.2039C7.85334 21.2266 7.86669 21.2472 7.8837 21.2647C7.90072 21.2821 7.92105 21.296 7.9435 21.3054C7.96595 21.3149 7.99007 21.3197 8.01443 21.3197H9.29235C9.39048 21.3197 9.47263 21.2422 9.47491 21.144C9.51827 19.8205 10.0545 18.5813 10.997 17.6412C11.4793 17.1563 12.0529 16.7719 12.6847 16.5103C13.3166 16.2486 13.994 16.1149 14.6779 16.1168C16.0676 16.1168 17.3752 16.6576 18.3587 17.6412C19.2989 18.5813 19.8352 19.8205 19.8808 21.144C19.8831 21.2422 19.9653 21.3197 20.0634 21.3197H21.3413C21.3657 21.3197 21.3898 21.3149 21.4122 21.3054C21.4347 21.296 21.455 21.2821 21.472 21.2647C21.489 21.2472 21.5024 21.2266 21.5113 21.2039C21.5202 21.1812 21.5245 21.157 21.5239 21.1326C21.4782 19.3755 20.7708 17.7279 19.5203 16.4796ZM14.6779 14.4738C13.8974 14.4738 13.1626 14.1702 12.6127 13.618C12.3367 13.3442 12.1186 13.0176 11.9716 12.6576C11.8246 12.2977 11.7516 11.9119 11.7569 11.5231C11.7638 10.7746 12.0627 10.0512 12.5853 9.51497C13.133 8.9536 13.8655 8.64097 14.6482 8.63184C15.4218 8.62499 16.1726 8.92622 16.7248 9.46705C17.2908 10.0216 17.6011 10.7632 17.6011 11.5528C17.6011 12.3332 17.2976 13.0658 16.7454 13.618C16.4744 13.8902 16.1522 14.106 15.7973 14.2529C15.4424 14.3998 15.0619 14.4749 14.6779 14.4738ZM8.96146 12.1552C8.94092 11.9567 8.92951 11.7559 8.92951 11.5528C8.92951 11.19 8.96374 10.8362 9.02764 10.4917C9.04361 10.4095 9.00026 10.3251 8.92495 10.2909C8.6146 10.1517 8.32935 9.95996 8.08289 9.71807C7.79249 9.43649 7.56396 9.09746 7.41191 8.72262C7.25985 8.34779 7.1876 7.94537 7.19976 7.54105C7.2203 6.80853 7.51468 6.11252 8.02813 5.58766C8.59178 5.01031 9.3494 4.6954 10.1549 4.70452C10.8829 4.71137 11.5858 4.99206 12.1175 5.48953C12.2977 5.6584 12.4529 5.84552 12.583 6.04634C12.6286 6.11708 12.7176 6.14675 12.7952 6.11936C13.1968 5.98016 13.6213 5.88203 14.0572 5.83639C14.185 5.8227 14.258 5.68578 14.2009 5.57168C13.4593 4.10436 11.944 3.09115 10.1915 3.06377C7.66072 3.02497 5.55216 5.09931 5.55216 7.62548C5.55216 9.05857 6.21166 10.3365 7.2454 11.174C6.51972 11.5094 5.8511 11.9727 5.27147 12.5523C4.02094 13.8006 3.31352 15.4482 3.26788 17.2076C3.26727 17.2319 3.27154 17.2562 3.28044 17.2788C3.28935 17.3015 3.3027 17.3222 3.31971 17.3396C3.33672 17.3571 3.35705 17.3709 3.37951 17.3804C3.40196 17.3898 3.42608 17.3947 3.45044 17.3947H4.73064C4.82877 17.3947 4.91092 17.3171 4.9132 17.219C4.95656 15.8954 5.49283 14.6563 6.43529 13.7161C7.1062 13.0452 7.92772 12.5797 8.82454 12.3538C8.91354 12.331 8.97287 12.2465 8.96146 12.1552V12.1552Z" fill="black" fill-opacity="0.45"/>
</svg>
