<svg width="18" height="21" viewBox="0 0 18 21" fill="none" xmlns="http://www.w3.org/2000/svg">
<path d="M9.28288 20.1746C9.12338 20.1746 8.97042 20.1112 8.85764 19.9985C8.74486 19.8857 8.68151 19.7327 8.68151 19.5732V18.0181L7.90453 18.7963C7.79161 18.909 7.63852 18.9723 7.47893 18.9722C7.31935 18.9721 7.16635 18.9086 7.05359 18.7957C6.94083 18.6827 6.87754 18.5296 6.87765 18.3701C6.87776 18.2105 6.94127 18.0575 7.05419 17.9447L8.68151 16.3174V11.5942L4.59217 13.9552L3.9956 16.1803C3.95414 16.3344 3.85316 16.4656 3.71489 16.5453C3.57663 16.6249 3.41239 16.6463 3.25832 16.6049C3.10425 16.5634 2.97296 16.4624 2.89334 16.3241C2.81372 16.1859 2.79228 16.0216 2.83375 15.8676L3.1188 14.8068L1.77173 15.5837C1.63368 15.6622 1.47018 15.6829 1.31693 15.6413C1.16367 15.5997 1.0331 15.4992 0.953693 15.3616C0.874289 15.2241 0.852506 15.0608 0.893097 14.9072C0.933687 14.7537 1.03336 14.6225 1.17035 14.5421L2.51743 13.7652L1.4542 13.4801C1.37791 13.4596 1.30642 13.4242 1.24379 13.3761C1.18117 13.3279 1.12864 13.2679 1.08922 13.1994C1.04979 13.1309 1.02424 13.0554 1.01402 12.9771C1.00379 12.8987 1.0091 12.8191 1.02963 12.7428C1.05016 12.6665 1.08552 12.5951 1.13369 12.5324C1.18185 12.4698 1.24188 12.4173 1.31034 12.3779C1.3788 12.3384 1.45436 12.3129 1.5327 12.3027C1.61104 12.2924 1.69063 12.2977 1.76691 12.3183L3.98959 12.9136L8.08013 10.5526L3.99079 8.19165L1.76571 8.787C1.61264 8.82515 1.45071 8.80163 1.31483 8.7215C1.17894 8.64138 1.07998 8.51107 1.03927 8.35866C0.998566 8.20625 1.01938 8.04395 1.09722 7.90674C1.17506 7.76953 1.3037 7.6684 1.4554 7.62515L2.51743 7.3401L1.17035 6.56313C1.10141 6.52393 1.0409 6.47148 0.992305 6.4088C0.943713 6.34612 0.907999 6.27445 0.88722 6.19791C0.86644 6.12137 0.861005 6.04148 0.871227 5.96283C0.88145 5.88418 0.907128 5.80833 0.946784 5.73965C0.986439 5.67097 1.03929 5.6108 1.10229 5.56263C1.16529 5.51445 1.2372 5.47922 1.31387 5.45895C1.39055 5.43867 1.47047 5.43377 1.54905 5.44451C1.62763 5.45526 1.70331 5.48144 1.77173 5.52155L3.1188 6.29852L2.83375 5.2365C2.81187 5.15973 2.80548 5.07938 2.81497 5.00013C2.82446 4.92088 2.84963 4.8443 2.88902 4.77488C2.92841 4.70545 2.98122 4.64456 3.04438 4.59576C3.10754 4.54695 3.17979 4.51121 3.2569 4.49061C3.33402 4.47002 3.41447 4.46498 3.49355 4.47579C3.57264 4.4866 3.64878 4.51305 3.71753 4.5536C3.78629 4.59414 3.84629 4.64796 3.89403 4.71193C3.94177 4.7759 3.9763 4.84874 3.9956 4.92619L4.59096 7.15007L8.68151 9.51106V4.78787L7.05419 3.16056C6.99828 3.10472 6.95391 3.03842 6.92362 2.96544C6.89333 2.89246 6.87771 2.81423 6.87765 2.73521C6.8776 2.65619 6.8931 2.57794 6.92329 2.50491C6.95348 2.43189 6.99775 2.36553 7.05359 2.30961C7.10942 2.2537 7.17572 2.20933 7.2487 2.17904C7.32168 2.14875 7.39992 2.13313 7.47893 2.13308C7.55795 2.13302 7.63621 2.14853 7.70923 2.17872C7.78225 2.2089 7.84862 2.25318 7.90453 2.30901L8.68151 3.08719V1.53204C8.68151 1.37254 8.74486 1.21958 8.85764 1.1068C8.97042 0.994023 9.12338 0.930664 9.28288 0.930664C9.44237 0.930664 9.59534 0.994023 9.70811 1.1068C9.82089 1.21958 9.88425 1.37254 9.88425 1.53204V3.08719L10.6624 2.30901C10.7754 2.19625 10.9284 2.13296 11.088 2.13308C11.2476 2.13319 11.4006 2.19669 11.5134 2.30961C11.6261 2.42253 11.6894 2.57563 11.6893 2.73521C11.6892 2.89479 11.6257 3.04779 11.5128 3.16056L9.88425 4.78787V9.51106L13.9736 7.15007L14.5702 4.92499C14.6116 4.77091 14.7126 4.63963 14.8509 4.56C14.9891 4.48038 15.1534 4.45895 15.3074 4.50042C15.4615 4.54188 15.5928 4.64286 15.6724 4.78113C15.752 4.91939 15.7735 5.08363 15.732 5.2377L15.4482 6.29852L16.7952 5.52155C16.9333 5.44306 17.0968 5.42236 17.25 5.46397C17.4033 5.50557 17.5339 5.60611 17.6133 5.74364C17.6927 5.88116 17.7145 6.04452 17.6739 6.19804C17.6333 6.35157 17.5336 6.48281 17.3966 6.56313L16.0495 7.3401L17.1116 7.62515C17.2656 7.66662 17.3969 7.76759 17.4765 7.90586C17.5562 8.04413 17.5776 8.20836 17.5361 8.36243C17.4947 8.51651 17.3937 8.64779 17.2554 8.72742C17.1171 8.80704 16.9529 8.82847 16.7988 8.787L14.5762 8.19165L10.4856 10.5526L14.575 12.9136L16.7988 12.3183C16.9529 12.277 17.1171 12.2985 17.2552 12.3783C17.3934 12.458 17.4942 12.5894 17.5355 12.7434C17.5768 12.8975 17.5552 13.0617 17.4755 13.1998C17.3958 13.338 17.2644 13.4388 17.1104 13.4801L16.0483 13.7652L17.3954 14.5421C17.5324 14.6225 17.6321 14.7537 17.6727 14.9072C17.7133 15.0608 17.6915 15.2241 17.6121 15.3616C17.5327 15.4992 17.4021 15.5997 17.2488 15.6413C17.0956 15.6829 16.9321 15.6622 16.794 15.5837L15.447 14.8068L15.7308 15.8688C15.7527 15.9455 15.7591 16.0259 15.7496 16.1051C15.7401 16.1844 15.7149 16.261 15.6755 16.3304C15.6361 16.3998 15.5833 16.4607 15.5202 16.5095C15.457 16.5583 15.3848 16.5941 15.3076 16.6147C15.2305 16.6353 15.1501 16.6403 15.071 16.6295C14.9919 16.6187 14.9158 16.5922 14.847 16.5517C14.7783 16.5111 14.7183 16.4573 14.6705 16.3933C14.6228 16.3294 14.5883 16.2565 14.569 16.1791L13.9736 13.9552L9.88425 11.5942V16.3174L11.5116 17.9447C11.6245 18.0575 11.688 18.2105 11.6881 18.3701C11.6882 18.5296 11.6249 18.6827 11.5122 18.7957C11.3994 18.9086 11.2464 18.9721 11.0868 18.9722C10.9272 18.9723 10.7741 18.909 10.6612 18.7963L9.88305 18.0181V19.5732C9.88305 19.7327 9.81969 19.8857 9.70691 19.9985C9.59413 20.1112 9.44237 20.1746 9.28288 20.1746Z" fill="black" fill-opacity="0.45"/>
</svg>
