<svg width="24" height="27" viewBox="0 0 24 27" fill="none" xmlns="http://www.w3.org/2000/svg">
<path d="M20.625 5.45898H3.375C2.96016 5.45898 2.625 5.79414 2.625 6.20898V23.459C2.625 23.8738 2.96016 24.209 3.375 24.209H20.625C21.0398 24.209 21.375 23.8738 21.375 23.459V6.20898C21.375 5.79414 21.0398 5.45898 20.625 5.45898ZM19.6875 22.5215H4.3125V7.14648H19.6875V22.5215Z" fill="#FF9933"/>
<path opacity="0.1" d="M4.3125 22.5215H19.6875V7.14648H4.3125V22.5215ZM6.98438 13.102C6.98438 11.8059 8.02969 10.7559 9.32109 10.7559H14.1445V9.5043C14.1445 9.37305 14.2969 9.29805 14.4 9.38008L16.957 11.3887C17.0391 11.452 17.0391 11.5762 16.957 11.6395L14.4 13.648C14.2969 13.7301 14.1445 13.6574 14.1445 13.5238V12.2723H9.32344C8.86406 12.2723 8.49141 12.6449 8.49141 13.1066V14.9559C8.49141 15.0449 8.41875 15.1152 8.33203 15.1152H7.14375C7.05469 15.1152 6.98438 15.0449 6.98438 14.9512V13.102ZM7.04531 18.0309L9.60234 16.0223C9.70547 15.9402 9.85781 16.0129 9.85781 16.1465V17.398H14.6766C15.1359 17.398 15.5086 17.0254 15.5086 16.5637V14.7145C15.5086 14.6254 15.5813 14.5551 15.668 14.5551H16.8563C16.9453 14.5551 17.0156 14.6277 17.0156 14.7145V16.5637C17.0156 17.8598 15.9703 18.9098 14.6789 18.9098H9.85781V20.1613C9.85781 20.2926 9.70547 20.3676 9.60234 20.2855L7.04531 18.277C6.96328 18.2137 6.96328 18.0895 7.04531 18.0309Z" fill="#FF9933"/>
<path d="M7.14434 15.1158H8.33261C8.41933 15.1158 8.49199 15.0455 8.49199 14.9564V13.1072C8.49199 12.6455 8.86464 12.2728 9.32402 12.2728H14.1451V13.5244C14.1451 13.658 14.2974 13.7306 14.4006 13.6486L16.9576 11.64C17.0396 11.5767 17.0396 11.4525 16.9576 11.3892L14.4006 9.38064C14.2974 9.29861 14.1451 9.37361 14.1451 9.50486V10.7564H9.32167C8.03027 10.7564 6.98496 11.8064 6.98496 13.1025V14.9517C6.98496 15.0455 7.05527 15.1158 7.14434 15.1158ZM7.0459 18.2775L9.60292 20.2861C9.70605 20.3681 9.85839 20.2931 9.85839 20.1619V18.9103H14.6795C15.9709 18.9103 17.0162 17.8603 17.0162 16.5642V14.715C17.0162 14.6283 16.9459 14.5556 16.8568 14.5556H15.6685C15.5818 14.5556 15.5092 14.6259 15.5092 14.715V16.5642C15.5092 17.0259 15.1365 17.3986 14.6771 17.3986H9.85839V16.147C9.85839 16.0134 9.70605 15.9408 9.60292 16.0228L7.0459 18.0314C6.96387 18.09 6.96387 18.2142 7.0459 18.2775Z" fill="#FF9933"/>
</svg>
