<svg width="19" height="25" viewBox="0 0 19 25" fill="none" xmlns="http://www.w3.org/2000/svg">
<path d="M4.52106 7.35991V3.96511H5.81926V7.35991H4.52106ZM4.52106 17.8961V12.2528H5.81926V17.8961H4.52106ZM2.47509 24.2365C1.8935 24.2365 1.39845 24.0323 0.989949 23.6238C0.581448 23.2153 0.377197 22.7207 0.377197 22.1399V2.96549C0.377197 2.38563 0.581448 1.89101 0.989949 1.48165C1.39845 1.07315 1.8935 0.868896 2.47509 0.868896H16.4554C17.0353 0.868896 17.5299 1.07315 17.9393 1.48165C18.3478 1.89015 18.552 2.3852 18.552 2.96679V22.1399C18.552 22.7198 18.3478 23.2144 17.9393 23.6238C17.5308 24.0323 17.0362 24.2365 16.4554 24.2365H2.47509ZM2.47509 22.9383H16.4554C16.6882 22.9383 16.8795 22.8635 17.0292 22.7138C17.179 22.564 17.2538 22.3728 17.2538 22.1399V10.4561H1.6754V22.1399C1.6754 22.3728 1.75026 22.564 1.89999 22.7138C2.04971 22.8635 2.24142 22.9383 2.47509 22.9383ZM1.6754 9.15792H17.2538V2.96549C17.2538 2.73268 17.179 2.54141 17.0292 2.39169C16.8795 2.24196 16.6882 2.1671 16.4554 2.1671H2.47379C2.24098 2.1671 2.04971 2.24196 1.89999 2.39169C1.75026 2.54141 1.6754 2.73312 1.6754 2.96679V9.15792Z" fill="black" fill-opacity="0.45"/>
</svg>
