<svg width="24" height="27" viewBox="0 0 24 27" fill="none" xmlns="http://www.w3.org/2000/svg">
<path opacity="0.1" d="M16.6875 9.95898C16.6875 10.0621 16.6031 10.1465 16.5 10.1465H15.1875C15.0844 10.1465 15 10.0621 15 9.95898V8.83398H9V9.95898C9 10.0621 8.91563 10.1465 8.8125 10.1465H7.5C7.39687 10.1465 7.3125 10.0621 7.3125 9.95898V8.83398H4.3125V12.0215H19.6875V8.83398H16.6875V9.95898Z" fill="#FF9933"/>
<path d="M20.625 7.14648H16.6875V5.64648C16.6875 5.54336 16.6031 5.45898 16.5 5.45898H15.1875C15.0844 5.45898 15 5.54336 15 5.64648V7.14648H9V5.64648C9 5.54336 8.91563 5.45898 8.8125 5.45898H7.5C7.39687 5.45898 7.3125 5.54336 7.3125 5.64648V7.14648H3.375C2.96016 7.14648 2.625 7.48164 2.625 7.89648V23.459C2.625 23.8738 2.96016 24.209 3.375 24.209H20.625C21.0398 24.209 21.375 23.8738 21.375 23.459V7.89648C21.375 7.48164 21.0398 7.14648 20.625 7.14648ZM19.6875 22.5215H4.3125V13.6152H19.6875V22.5215ZM19.6875 12.0215H4.3125V8.83398H7.3125V9.95898C7.3125 10.0621 7.39687 10.1465 7.5 10.1465H8.8125C8.91563 10.1465 9 10.0621 9 9.95898V8.83398H15V9.95898C15 10.0621 15.0844 10.1465 15.1875 10.1465H16.5C16.6031 10.1465 16.6875 10.0621 16.6875 9.95898V8.83398H19.6875V12.0215Z" fill="#FF9933"/>
</svg>
