<svg width="22" height="21" viewBox="0 0 22 21" fill="none" xmlns="http://www.w3.org/2000/svg">
<path d="M21.2889 10.7866C21.2889 10.7842 21.2865 10.7842 21.2865 10.7819L21.2443 10.7327C21.242 10.7303 21.2396 10.7256 21.235 10.7233C21.2186 10.7045 21.1998 10.6858 21.1834 10.667L12.1271 1.61781L11.5201 1.01078C11.3818 0.873378 11.1948 0.796265 10.9998 0.796265C10.8048 0.796265 10.6178 0.873378 10.4795 1.01078L0.816211 10.6694C0.641638 10.843 0.5128 11.0572 0.441211 11.2928L0.427148 11.342L0.420117 11.3678L0.413086 11.3959C0.408398 11.4123 0.406055 11.4287 0.403711 11.4452C0.403711 11.4475 0.403711 11.4522 0.401367 11.4545C0.387305 11.5248 0.380273 11.5952 0.37793 11.6678V11.7452C0.37793 11.7569 0.37793 11.7686 0.380273 11.7803C0.380273 11.792 0.380273 11.8014 0.382617 11.8131C0.382617 11.8248 0.384961 11.8366 0.384961 11.8483C0.384961 11.8623 0.387305 11.8764 0.389648 11.8905C0.389648 11.8975 0.391992 11.9045 0.391992 11.9116L0.399023 11.9702V11.9725C0.518555 12.6873 1.15371 13.2264 1.89902 13.2264H2.89512V20.8647H19.1068V13.2311H20.124C20.3256 13.2311 20.5201 13.1912 20.6982 13.1162C20.8764 13.0412 21.0428 12.9311 21.1857 12.7905C21.3254 12.6513 21.436 12.4858 21.5113 12.3035C21.5865 12.1213 21.6248 11.9259 21.624 11.7287C21.624 11.3842 21.5068 11.0537 21.2889 10.7866ZM12.3123 19.1772H9.68731V14.3959H12.3123V19.1772ZM17.4193 11.5436V19.1772H13.8123V13.8334C13.8123 13.3155 13.3928 12.8959 12.8748 12.8959H9.12481C8.60684 12.8959 8.1873 13.3155 8.1873 13.8334V19.1772H4.58027V11.5436H2.33027L11.0021 2.87875L11.5436 3.42015L19.6717 11.5436H17.4193Z" fill="#FF9933"/>
</svg>
