<svg width="18" height="18" viewBox="0 0 18 18" fill="none" xmlns="http://www.w3.org/2000/svg">
<path d="M17.406 10.2031C17.3204 10.1174 17.2132 10.0566 17.0957 10.0273C16.9783 9.9979 16.855 10.0011 16.7392 10.0365C15.4678 10.4208 14.116 10.453 12.8277 10.1297C11.5394 9.80636 10.363 9.13956 9.42381 8.20036C8.48461 7.26117 7.81781 6.08476 7.49447 4.79649C7.17113 3.50822 7.20336 2.15636 7.58772 0.884967C7.62339 0.769116 7.62681 0.645733 7.5976 0.528086C7.56839 0.41044 7.50767 0.302981 7.42195 0.217267C7.33624 0.131552 7.22878 0.0708258 7.11113 0.041618C6.99348 0.0124101 6.8701 0.015826 6.75425 0.0514982C4.99649 0.589956 3.45333 1.66909 2.34437 3.13533C1.37456 4.42292 0.782994 5.95543 0.636145 7.56069C0.489297 9.16595 0.792979 10.7804 1.51307 12.2225C2.23317 13.6647 3.34115 14.8775 4.71253 15.7247C6.08391 16.5719 7.66436 17.0199 9.27633 17.0184C11.1569 17.0242 12.9874 16.4128 14.4872 15.2781C15.9534 14.1692 17.0325 12.626 17.571 10.8683C17.6063 10.7528 17.6095 10.63 17.5805 10.5129C17.5514 10.3957 17.4911 10.2887 17.406 10.2031ZM13.6854 14.213C12.2731 15.2767 10.5241 15.7945 8.76037 15.671C6.99663 15.5475 5.33686 14.791 4.0866 13.5409C2.83634 12.2907 2.07976 10.631 1.95611 8.86726C1.83247 7.10353 2.3501 5.35449 3.41371 3.94213C4.10666 3.02703 5.00252 2.28523 6.0308 1.77511C5.97222 2.1862 5.9427 2.60091 5.94245 3.01615C5.94488 5.31432 6.8589 7.51767 8.48395 9.14272C10.109 10.7678 12.3124 11.6818 14.6105 11.6842C15.0266 11.6841 15.4421 11.6546 15.8541 11.5959C15.3435 12.6243 14.6011 13.5202 13.6854 14.213Z" fill="black" fill-opacity="0.45"/>
</svg>
