<svg width="25" height="23" viewBox="0 0 25 23" fill="none" xmlns="http://www.w3.org/2000/svg">
<path d="M24.0925 22.0682H22.9241C21.2288 22.0682 19.7438 21.0646 19.419 19.7315C19.0942 21.0646 17.6091 22.0682 15.9138 22.0682C14.2185 22.0682 12.7335 21.0646 12.4087 19.7315C12.0839 21.0646 10.5989 22.0682 8.90353 22.0682C7.20821 22.0682 5.72319 21.0646 5.39838 19.7315C5.07357 21.0646 3.58856 22.0682 1.89324 22.0682H0.724854M20.5874 1.03735L20.2777 1.14017C18.7355 1.65426 17.9643 1.9113 17.5239 2.52354C17.0834 3.13577 17.0822 3.94896 17.0822 5.57418V17.3947M11.2403 1.03735L10.9307 1.14017C9.38841 1.65426 8.61728 1.9113 8.1768 2.52354C7.73632 3.13577 7.73515 3.94896 7.73515 5.57418V17.3947M7.73515 5.71088H17.0822M7.73515 10.3844H17.0822M7.73515 15.0579H17.0822" stroke="black" stroke-opacity="0.45" stroke-width="1.37457" stroke-linecap="round" stroke-linejoin="round"/>
</svg>
