<svg width="24" height="24" viewBox="0 0 24 24" fill="none" xmlns="http://www.w3.org/2000/svg">
<path d="M22.5737 11.8963C22.5417 11.8242 21.7686 10.109 20.0498 8.39023C17.7596 6.10002 14.8669 4.88965 11.6831 4.88965C8.49923 4.88965 5.60657 6.10002 3.31635 8.39023C1.59756 10.109 0.820763 11.8269 0.792467 11.8963C0.750946 11.9897 0.729492 12.0907 0.729492 12.193C0.729492 12.2952 0.750946 12.3962 0.792467 12.4896C0.824415 12.5617 1.59756 14.276 3.31635 15.9948C5.60657 18.2841 8.49923 19.4944 11.6831 19.4944C14.8669 19.4944 17.7596 18.2841 20.0498 15.9948C21.7686 14.276 22.5417 12.5617 22.5737 12.4896C22.6152 12.3962 22.6366 12.2952 22.6366 12.193C22.6366 12.0907 22.6152 11.9897 22.5737 11.8963ZM11.6831 18.0339C8.87347 18.0339 6.41896 17.0125 4.38707 14.9989C3.55339 14.1698 2.84409 13.2243 2.28124 12.192C2.84388 11.1596 3.55319 10.2141 4.38707 9.38518C6.41896 7.37155 8.87347 6.35013 11.6831 6.35013C14.4927 6.35013 16.9472 7.37155 18.9791 9.38518C19.8144 10.214 20.5252 11.1594 21.0895 12.192C20.4313 13.4207 17.5642 18.0339 11.6831 18.0339ZM11.6831 7.8106C10.8165 7.8106 9.9694 8.06757 9.24887 8.54901C8.52835 9.03045 7.96677 9.71473 7.63515 10.5153C7.30353 11.3159 7.21676 12.1969 7.38582 13.0468C7.55488 13.8967 7.97217 14.6774 8.58493 15.2902C9.19768 15.9029 9.97838 16.3202 10.8283 16.4893C11.6782 16.6583 12.5592 16.5716 13.3598 16.24C14.1604 15.9083 14.8447 15.3468 15.3261 14.6262C15.8075 13.9057 16.0645 13.0586 16.0645 12.192C16.0633 11.0304 15.6013 9.91665 14.7799 9.09523C13.9585 8.27381 12.8447 7.81181 11.6831 7.8106ZM11.6831 15.113C11.1054 15.113 10.5406 14.9417 10.0603 14.6207C9.57992 14.2998 9.20554 13.8436 8.98446 13.3098C8.76338 12.7761 8.70553 12.1888 8.81824 11.6222C8.93094 11.0556 9.20914 10.5351 9.61764 10.1266C10.0261 9.71811 10.5466 9.43991 11.1132 9.32721C11.6798 9.2145 12.2671 9.27235 12.8009 9.49343C13.3346 9.71451 13.7908 10.0889 14.1118 10.5692C14.4327 11.0496 14.604 11.6143 14.604 12.192C14.604 12.9667 14.2963 13.7097 13.7485 14.2575C13.2007 14.8053 12.4578 15.113 11.6831 15.113Z" fill="black" fill-opacity="0.45"/>
</svg>
