<svg width="24" height="25" viewBox="0 0 24 25" fill="none" xmlns="http://www.w3.org/2000/svg">
<path d="M16.8065 15.0356C15.5208 13.9168 13.8415 13.2396 12.0021 13.2396C10.1627 13.2396 8.48339 13.9168 7.19534 15.0379C7.15977 15.0699 7.138 15.1145 7.13459 15.1623C7.13118 15.2101 7.14639 15.2573 7.17704 15.2941L8.00066 16.2756C8.06701 16.3534 8.18369 16.3625 8.26147 16.2962C9.25897 15.4176 10.5676 14.8869 12.0021 14.8869C13.4366 14.8869 14.7452 15.4176 15.7427 16.2939C15.8205 16.3602 15.9372 16.3511 16.0035 16.2733L16.8271 15.2918C16.8912 15.2163 16.882 15.1019 16.8065 15.0356ZM19.4924 11.8303C17.4631 10.1396 14.8527 9.12152 12.0021 9.12152C9.15144 9.12152 6.54102 10.1396 4.50943 11.8303C4.47226 11.8617 4.449 11.9064 4.44471 11.9549C4.44043 12.0033 4.45547 12.0515 4.48655 12.0888L5.31017 13.0703C5.37423 13.1481 5.49091 13.1573 5.56641 13.0932C7.31202 11.6427 9.55639 10.7688 12.0021 10.7688C14.4478 10.7688 16.6921 11.6427 18.4355 13.0932C18.5133 13.1573 18.6276 13.1481 18.6917 13.0703L19.5153 12.0888C19.5794 12.0111 19.5702 11.8944 19.4924 11.8303V11.8303ZM22.1623 8.65022C19.3849 6.37154 15.8296 5.00342 11.9563 5.00342C8.10819 5.00342 4.57578 6.35324 1.80521 8.60447C1.78618 8.61976 1.77039 8.63871 1.75879 8.66019C1.74719 8.68168 1.74001 8.70527 1.73766 8.72957C1.73532 8.75387 1.73786 8.7784 1.74514 8.80171C1.75242 8.82501 1.76428 8.84663 1.78004 8.86528L2.60366 9.84676C2.66772 9.92226 2.78211 9.9337 2.85761 9.87193C5.34449 7.85635 8.50856 6.65066 11.9563 6.65066C15.4293 6.65066 18.6139 7.87465 21.1077 9.9154C21.1854 9.97946 21.2998 9.96802 21.3639 9.89023L22.1875 8.90875C22.2539 8.83096 22.2424 8.71428 22.1623 8.65022ZM10.515 18.6389C10.515 19.0272 10.6693 19.3997 10.9438 19.6743C11.2184 19.9489 11.5909 20.1031 11.9792 20.1031C12.3675 20.1031 12.74 19.9489 13.0146 19.6743C13.2892 19.3997 13.4434 19.0272 13.4434 18.6389C13.4434 18.2506 13.2892 17.8781 13.0146 17.6035C12.74 17.329 12.3675 17.1747 11.9792 17.1747C11.5909 17.1747 11.2184 17.329 10.9438 17.6035C10.6693 17.8781 10.515 18.2506 10.515 18.6389Z" fill="black" fill-opacity="0.45"/>
</svg>
