<svg width="18" height="17" viewBox="0 0 18 17" fill="none" xmlns="http://www.w3.org/2000/svg">
<path d="M16.9201 1.53H13.3501V0.17C13.3501 0.0765 13.2736 0 13.1801 0H11.9901C11.8966 0 11.8201 0.0765 11.8201 0.17V1.53H6.3801V0.17C6.3801 0.0765 6.3036 0 6.2101 0H5.0201C4.9266 0 4.8501 0.0765 4.8501 0.17V1.53H1.2801C0.903973 1.53 0.600098 1.83388 0.600098 2.21V16.32C0.600098 16.6961 0.903973 17 1.2801 17H16.9201C17.2962 17 17.6001 16.6961 17.6001 16.32V2.21C17.6001 1.83388 17.2962 1.53 16.9201 1.53ZM16.0701 15.47H2.1301V7.395H16.0701V15.47ZM2.1301 5.95V3.06H4.8501V4.08C4.8501 4.1735 4.9266 4.25 5.0201 4.25H6.2101C6.3036 4.25 6.3801 4.1735 6.3801 4.08V3.06H11.8201V4.08C11.8201 4.1735 11.8966 4.25 11.9901 4.25H13.1801C13.2736 4.25 13.3501 4.1735 13.3501 4.08V3.06H16.0701V5.95H2.1301Z" fill="black" fill-opacity="0.45"/>
</svg>
