<svg width="17" height="17" viewBox="0 0 17 17" fill="none" xmlns="http://www.w3.org/2000/svg">
<path d="M9.8774 8.50011L16.8034 0.482167C16.9195 0.348919 16.8219 0.146484 16.6425 0.146484H14.537C14.4129 0.146484 14.2942 0.200296 14.2124 0.292545L8.50012 6.90626L2.78781 0.292545C2.70866 0.200296 2.58993 0.146484 2.46328 0.146484H0.357774C0.178358 0.146484 0.0807338 0.348919 0.196827 0.482167L7.12283 8.50011L0.196827 16.5181C0.170821 16.5478 0.154137 16.5841 0.148756 16.6227C0.143374 16.6614 0.149521 16.7007 0.166467 16.736C0.183413 16.7714 0.210446 16.8012 0.244357 16.8221C0.278267 16.843 0.317631 16.854 0.357774 16.8537H2.46328C2.58729 16.8537 2.70602 16.7999 2.78781 16.7077L8.50012 10.094L14.2124 16.7077C14.2916 16.7999 14.4103 16.8537 14.537 16.8537H16.6425C16.8219 16.8537 16.9195 16.6513 16.8034 16.5181L9.8774 8.50011Z" fill="#585858"/>
</svg>
