<svg width="21" height="19" viewBox="0 0 21 19" fill="none" xmlns="http://www.w3.org/2000/svg">
<path d="M19.809 6.69698L13.8582 5.83214L11.198 0.439169C11.1254 0.291513 11.0058 0.171981 10.8582 0.0993251C10.4879 -0.0834874 10.0379 0.0688564 9.85272 0.439169L7.19256 5.83214L1.24178 6.69698C1.07772 6.72042 0.927717 6.79776 0.812874 6.91495C0.674034 7.05765 0.597527 7.24964 0.600164 7.44872C0.6028 7.6478 0.684365 7.83769 0.826936 7.97667L5.1324 12.1743L4.11522 18.1017C4.09136 18.2396 4.10662 18.3814 4.15926 18.511C4.2119 18.6407 4.29981 18.753 4.41303 18.8352C4.52625 18.9174 4.66025 18.9663 4.79983 18.9763C4.9394 18.9862 5.07898 18.9568 5.20272 18.8915L10.5254 16.0931L15.848 18.8915C15.9933 18.9689 16.1621 18.9946 16.3238 18.9665C16.7316 18.8962 17.0058 18.5095 16.9355 18.1017L15.9183 12.1743L20.2238 7.97667C20.341 7.86183 20.4183 7.71183 20.4418 7.54776C20.5051 7.13761 20.2191 6.75792 19.809 6.69698ZM14.1066 11.5837L14.9527 16.5126L10.5254 14.1876L6.09803 16.5149L6.94412 11.586L3.36287 8.09386L8.31287 7.37433L10.5254 2.89073L12.7379 7.37433L17.6879 8.09386L14.1066 11.5837Z" fill="black" fill-opacity="0.45"/>
</svg>
