<svg width="21" height="21" viewBox="0 0 21 21" fill="none" xmlns="http://www.w3.org/2000/svg">
<path d="M17.8614 7.49952L12.9024 6.77882L10.6856 2.28468C10.6251 2.16163 10.5255 2.06202 10.4024 2.00147C10.0938 1.84913 9.71882 1.97608 9.56452 2.28468L7.34772 6.77882L2.38874 7.49952C2.25202 7.51905 2.12702 7.5835 2.03132 7.68116C1.91562 7.80008 1.85186 7.96007 1.85406 8.12597C1.85626 8.29187 1.92423 8.45011 2.04304 8.56593L5.63093 12.064L4.78327 17.0034C4.76339 17.1183 4.77611 17.2365 4.81997 17.3445C4.86384 17.4526 4.9371 17.5462 5.03145 17.6147C5.1258 17.6832 5.23746 17.724 5.35378 17.7322C5.47009 17.7405 5.5864 17.7161 5.68952 17.6616L10.1251 15.3296L14.5606 17.6616C14.6817 17.7261 14.8223 17.7476 14.9571 17.7241C15.2969 17.6655 15.5255 17.3433 15.4669 17.0034L14.6192 12.064L18.2071 8.56593C18.3048 8.47022 18.3692 8.34522 18.3887 8.2085C18.4415 7.86671 18.2032 7.5503 17.8614 7.49952Z" fill="#DEBA02"/>
</svg>
