<svg width="10" height="11" viewBox="0 0 10 11" fill="none" xmlns="http://www.w3.org/2000/svg">
<path d="M4.99957 2.96173C3.66949 2.96173 2.59605 4.03516 2.59605 5.36524C2.59605 6.69532 3.66949 7.76876 4.99957 7.76876C6.32965 7.76876 7.40308 6.69532 7.40308 5.36524C7.40308 4.03516 6.32965 2.96173 4.99957 2.96173ZM4.99957 6.92735C4.13941 6.92735 3.43746 6.2254 3.43746 5.36524C3.43746 4.50508 4.13941 3.80313 4.99957 3.80313C5.85972 3.80313 6.56168 4.50508 6.56168 5.36524C6.56168 6.2254 5.85972 6.92735 4.99957 6.92735ZM7.50152 2.30313C7.19097 2.30313 6.94019 2.55391 6.94019 2.86446C6.94019 3.17501 7.19097 3.42579 7.50152 3.42579C7.81207 3.42579 8.06285 3.17618 8.06285 2.86446C8.06294 2.79072 8.04849 2.71768 8.02031 2.64954C7.99213 2.58139 7.95079 2.51948 7.89865 2.46733C7.8465 2.41519 7.78459 2.37385 7.71644 2.34567C7.6483 2.3175 7.57526 2.30304 7.50152 2.30313ZM9.68472 5.36524C9.68472 4.71837 9.69058 4.07735 9.65425 3.43165C9.61793 2.68165 9.44683 2.01602 8.8984 1.46758C8.34879 0.917975 7.68433 0.748054 6.93433 0.711726C6.28746 0.675397 5.64644 0.681257 5.00074 0.681257C4.35386 0.681257 3.71285 0.675397 3.06715 0.711726C2.31715 0.748054 1.65152 0.919147 1.10308 1.46758C0.553474 2.01719 0.383552 2.68165 0.347224 3.43165C0.310895 4.07852 0.316755 4.71954 0.316755 5.36524C0.316755 6.01094 0.310895 6.65313 0.347224 7.29883C0.383552 8.04883 0.554645 8.71446 1.10308 9.2629C1.65269 9.81251 2.31715 9.98243 3.06715 10.0188C3.71402 10.0551 4.35504 10.0492 5.00074 10.0492C5.64761 10.0492 6.28863 10.0551 6.93433 10.0188C7.68433 9.98243 8.34996 9.81133 8.8984 9.2629C9.448 8.71329 9.61793 8.04883 9.65425 7.29883C9.69176 6.65313 9.68472 6.01212 9.68472 5.36524ZM8.65347 8.12852C8.56793 8.3418 8.4648 8.50118 8.29957 8.66524C8.13433 8.83047 7.97613 8.9336 7.76285 9.01915C7.14644 9.26407 5.68277 9.20899 4.99957 9.20899C4.31636 9.20899 2.85152 9.26407 2.23511 9.02032C2.02183 8.93477 1.86246 8.83165 1.6984 8.66641C1.53316 8.50118 1.43004 8.34298 1.34449 8.12969C1.10074 7.51212 1.15582 6.04844 1.15582 5.36524C1.15582 4.68204 1.10074 3.21719 1.34449 2.60079C1.43004 2.38751 1.53316 2.22813 1.6984 2.06407C1.86363 1.90001 2.02183 1.79571 2.23511 1.71016C2.85152 1.46641 4.31636 1.52149 4.99957 1.52149C5.68277 1.52149 7.14761 1.46641 7.76402 1.71016C7.9773 1.79571 8.13668 1.89883 8.30074 2.06407C8.46597 2.2293 8.5691 2.38751 8.65465 2.60079C8.8984 3.21719 8.84332 4.68204 8.84332 5.36524C8.84332 6.04844 8.8984 7.51212 8.65347 8.12852Z" fill="white"/>
</svg>
