<svg width="34" height="34" viewBox="0 0 34 34" fill="none" xmlns="http://www.w3.org/2000/svg">
<path d="M16.8 0C7.5225 0 0 7.5225 0 16.8C0 26.0775 7.5225 33.6 16.8 33.6C26.0775 33.6 33.6 26.0775 33.6 16.8C33.6 7.5225 26.0775 0 16.8 0ZM20.7 11.8837C20.7 12.2663 20.5163 12.63 20.205 12.855L14.7525 16.8L20.205 20.745C20.5163 20.97 20.7 21.33 20.7 21.7162V23.475C20.7 23.7188 20.4225 23.8613 20.2238 23.7188L10.9987 17.0438C10.9604 17.0161 10.9292 16.9798 10.9077 16.9377C10.8861 16.8957 10.8749 16.8491 10.8749 16.8019C10.8749 16.7546 10.8861 16.7081 10.9077 16.666C10.9292 16.624 10.9604 16.5876 10.9987 16.56L20.2238 9.885C20.2686 9.85245 20.3216 9.83295 20.3768 9.82867C20.432 9.82438 20.4874 9.83547 20.5367 9.86071C20.586 9.88595 20.6274 9.92436 20.6562 9.97167C20.685 10.019 20.7002 10.0733 20.7 10.1288V11.8837Z" fill="#884129"/>
</svg>
