<svg width="16" height="18" viewBox="0 0 16 18" fill="none" xmlns="http://www.w3.org/2000/svg">
<path d="M14.7877 4.79194C14.4232 3.9515 13.8977 3.19056 13.2409 2.55204C12.5818 1.90775 11.8049 1.39639 10.9526 1.04587C10.0659 0.678039 9.12502 0.492188 8.15511 0.492188C7.1852 0.492188 6.24432 0.678039 5.35766 1.04393C4.50003 1.39821 3.73146 1.90543 3.06936 2.5501C2.41293 3.18898 1.8875 3.94983 1.52254 4.79C1.14503 5.66118 0.953369 6.58656 0.953369 7.53905C0.953369 8.90583 1.28054 10.2668 1.92328 11.5794C2.44018 12.6345 3.16229 13.6625 4.07219 14.6401C5.62676 16.3089 7.25683 17.3292 7.71952 17.6021C7.85085 17.6797 8.00064 17.7205 8.15317 17.7202C8.30418 17.7202 8.45324 17.6815 8.58682 17.6021C9.04952 17.3292 10.6796 16.3089 12.2342 14.6401C13.1441 13.6644 13.8662 12.6345 14.3831 11.5794C15.0297 10.2687 15.3568 8.9097 15.3568 7.54099C15.3568 6.5885 15.1652 5.66311 14.7877 4.79194ZM8.15511 16.2353C6.87932 15.4242 2.34725 12.2124 2.34725 7.54099C2.34725 6.03288 2.94933 4.61576 4.04315 3.54712C5.14083 2.47654 6.60054 1.88607 8.15511 1.88607C9.70968 1.88607 11.1694 2.47654 12.2671 3.54905C13.3609 4.61576 13.963 6.03288 13.963 7.54099C13.963 12.2124 9.4309 15.4242 8.15511 16.2353ZM8.15511 4.28665C6.27336 4.28665 4.74783 5.81218 4.74783 7.69393C4.74783 9.57567 6.27336 11.1012 8.15511 11.1012C10.0369 11.1012 11.5624 9.57567 11.5624 7.69393C11.5624 5.81218 10.0369 4.28665 8.15511 4.28665ZM9.68838 9.2272C9.48728 9.42888 9.24828 9.58881 8.98515 9.69779C8.72201 9.80676 8.43992 9.86263 8.15511 9.86219C7.57626 9.86219 7.03226 9.63568 6.62183 9.2272C6.42015 9.0261 6.26023 8.7871 6.15125 8.52396C6.04227 8.26083 5.9864 7.97874 5.98684 7.69393C5.98684 7.11508 6.21335 6.57107 6.62183 6.16065C7.03226 5.75023 7.57626 5.52566 8.15511 5.52566C8.73396 5.52566 9.27796 5.75023 9.68838 6.16065C10.0988 6.57107 10.3234 7.11508 10.3234 7.69393C10.3234 8.27278 10.0988 8.81678 9.68838 9.2272Z" fill="black" fill-opacity="0.45"/>
</svg>
