<svg width="32" height="32" viewBox="0 0 32 32" fill="none" xmlns="http://www.w3.org/2000/svg">
<path d="M27.8194 25.1683C27.5465 25.1683 27.2697 25.1043 27.0124 24.9684L23.4257 23.0817C18.6889 20.5894 13.0457 20.6174 8.3303 23.1556L4.97944 24.9604C4.112 25.4281 3.03989 25.0843 2.5857 24.1969C2.12956 23.3075 2.46484 22.2083 3.33228 21.7426L6.68313 19.9378C12.418 16.8499 19.2815 16.8159 25.0456 19.8479L28.6323 21.7346C29.5036 22.1923 29.8486 23.2896 29.4003 24.183C29.0865 24.8105 28.4646 25.1723 27.8214 25.1723L27.8194 25.1683Z" fill="#FF9933"/>
<path d="M29.4892 14.7431H23.1949C22.8382 14.7431 22.7115 14.2595 23.0195 14.0756L28.4113 10.8837C29.1793 10.43 29.5068 9.42672 29.0877 8.62526C28.653 7.79582 27.6393 7.50602 26.8518 7.9737L21.4016 11.1995C21.0916 11.3834 20.7466 11.0276 20.924 10.7099L24.037 5.18159C24.4522 4.44408 24.3099 3.47474 23.6433 2.96308C22.8499 2.35749 21.7466 2.60732 21.2671 3.46075L18.1209 9.04898C17.9416 9.36677 17.4698 9.23685 17.4698 8.8691V2.4874C17.4698 1.57802 16.7856 0.78455 15.9006 0.758567C14.9825 0.730586 14.232 1.48408 14.232 2.41745V8.8711C14.232 9.23685 13.7603 9.36677 13.581 9.05098L10.4348 3.46274C9.9884 2.66928 9.02545 2.41745 8.22234 2.85515C7.3549 3.42477 7.18141 4.33016 7.62975 5.12363L10.7759 10.7119C10.9553 11.0296 10.6083 11.3834 10.2983 11.2015L4.90657 8.00968C4.18728 7.58397 3.24187 7.72987 2.74285 8.41341C2.15221 9.22686 2.39587 10.3581 3.22822 10.8498L8.67847 14.0756C8.98841 14.2595 8.86171 14.7431 8.50304 14.7431H2.20874C1.31401 14.7431 0.588867 15.4866 0.588867 16.404C0.588867 17.3214 1.31401 18.0649 2.20874 18.0649H6.56153C12.4582 15.0309 19.4328 15.0269 25.3353 18.0649H29.4912C30.3859 18.0649 31.111 17.3214 31.111 16.404C31.111 15.4866 30.3859 14.7431 29.4912 14.7431H29.4892Z" fill="#FF9933"/>
<path d="M17.4683 26.6211C17.4683 25.7038 16.743 24.9602 15.8484 24.9602C14.9538 24.9602 14.2285 25.7038 14.2285 26.6211V29.6191C14.2285 30.5363 14.9538 31.2799 15.8484 31.2799C16.743 31.2799 17.4683 30.5363 17.4683 29.6191V26.6211Z" fill="#FF9933"/>
</svg>
