<svg width="55" height="55" viewBox="0 0 55 55" fill="none" xmlns="http://www.w3.org/2000/svg">
<path d="M30.2072 43.5117H24.5093V54.3552H30.2072V43.5117Z" fill="#7A6614"/>
<path d="M0.5 24.209V29.9069H17.4864L21.6601 27.5029L24.5961 25.8048L27.3581 24.209H0.5Z" fill="#AA8A04"/>
<path d="M38.7594 24.2085L52.0427 16.5413L49.1886 11.6055L27.3584 24.2085H38.7594Z" fill="#DBA73E"/>
<path d="M27.3584 24.209L30.146 25.8202L33.0563 27.5029L37.2301 29.9069H54.2114V24.209H27.3584Z" fill="#AA8A04"/>
<path d="M2.67383 38.459L5.52791 43.3948L27.3581 30.7918L49.1883 43.3948L52.0424 38.459L27.3581 24.209L2.67383 38.459Z" fill="#7A6614"/>
<path d="M30.2072 16.8637V0.644531H24.5093V16.8637L27.3583 21.7996L30.2072 16.8637Z" fill="#FFED97"/>
<path d="M38.319 2.81836L30.2069 16.8637L27.3579 21.7996L24.5089 16.8637L16.3968 2.81836L11.4609 5.66733L19.568 19.7127L24.5089 22.5617L27.3579 24.2087L28.4013 23.6051L30.2069 22.5617L35.1427 19.7127L43.2549 5.66733L38.319 2.81836Z" fill="#FFE164"/>
<path d="M5.52791 11.6055L2.67383 16.5413L15.9571 24.2085H22.1665H27.3581L5.52791 11.6055Z" fill="#DBA73E"/>
</svg>
