<svg width="49" height="49" viewBox="0 0 49 49" fill="none" xmlns="http://www.w3.org/2000/svg">
<path d="M27.066 0H21.9395V24.4033H27.066V0Z" fill="#8A8C64"/>
<path d="M14.6428 1.95432L10.2031 4.51758L22.5662 25.9311L27.0059 23.3679L14.6428 1.95432Z" fill="#8A8C64"/>
<path d="M34.3593 1.95443L22.1387 23.1211L26.5784 25.6844L38.7989 4.51769L34.3593 1.95443Z" fill="#8A8C64"/>
<path d="M24.5016 21.194L19.3751 24.1559L2.30078 14.2971L4.86404 9.85645L24.5016 21.194Z" fill="#8A8C64"/>
<path d="M46.7028 14.2971L29.6285 24.1559L24.502 21.194L44.1395 9.85645L46.7028 14.2971Z" fill="#8A8C64"/>
<path d="M48.6557 21.1943H0.345703V26.3209H48.6557V21.1943Z" fill="#8A8C64"/>
<path d="M27.066 38.5557H21.9395V48.3099H27.066V38.5557Z" fill="#8A8C64"/>
<path d="M46.7024 34.0129L44.1392 38.4535L24.5016 27.1159L4.86404 38.4535L2.30078 34.0129L19.3751 24.1562L24.5016 21.1943L29.6281 24.1562L46.7024 34.0129Z" fill="#8A8C64"/>
</svg>
