<svg width="32" height="32" viewBox="0 0 32 32" fill="none" xmlns="http://www.w3.org/2000/svg">
<path d="M28.0286 25.181C27.7557 25.181 27.4789 25.117 27.2216 24.9811L23.6349 23.0944C18.8981 20.6021 13.2549 20.6301 8.53952 23.1683L5.18867 24.9731C4.32123 25.4408 3.24912 25.097 2.79493 24.2096C2.33879 23.3202 2.67407 22.221 3.54151 21.7553L6.89236 19.9505C12.6272 16.8626 19.4907 16.8286 25.2548 19.8606L28.8415 21.7473C29.7128 22.205 30.0579 23.3023 29.6095 24.1956C29.2957 24.8232 28.6739 25.185 28.0306 25.185L28.0286 25.181Z" fill="#E47043"/>
<path d="M29.6992 14.7558H23.4049C23.0482 14.7558 22.9215 14.2722 23.2295 14.0883L28.6212 10.8964C29.3893 10.4427 29.7167 9.43942 29.2976 8.63796C28.8629 7.80852 27.8493 7.51871 27.0618 7.9864L21.6115 11.2122C21.3016 11.3961 20.9566 11.0403 21.134 10.7226L24.247 5.19428C24.6622 4.45678 24.5199 3.48743 23.8532 2.97578C23.0599 2.37019 21.9566 2.62002 21.477 3.47344L18.3309 9.06168C18.1515 9.37946 17.6798 9.24955 17.6798 8.8818V2.5001C17.6798 1.59071 16.9956 0.797245 16.1106 0.771263C15.1925 0.743282 14.442 1.49677 14.442 2.43014V8.88379C14.442 9.24955 13.9703 9.37946 13.7909 9.06367L10.6448 3.47544C10.1984 2.68197 9.23541 2.43014 8.4323 2.86785C7.56486 3.43747 7.39137 4.34286 7.83971 5.13632L10.9859 10.7246C11.1652 11.0423 10.8182 11.3961 10.5083 11.2142L5.11653 8.02238C4.39724 7.59666 3.45183 7.74256 2.95281 8.4261C2.36217 9.23956 2.60583 10.3708 3.43818 10.8625L8.88843 14.0883C9.19837 14.2722 9.07167 14.7558 8.713 14.7558H2.4187C1.52397 14.7558 0.798828 15.4993 0.798828 16.4167C0.798828 17.3341 1.52397 18.0776 2.4187 18.0776H6.77149C12.6681 15.0436 19.6427 15.0396 25.5452 18.0776H29.7011C30.5959 18.0776 31.321 17.3341 31.321 16.4167C31.321 15.4993 30.5959 14.7558 29.7011 14.7558H29.6992Z" fill="#E47043"/>
<path d="M17.6777 26.6338C17.6777 25.7165 16.9525 24.9729 16.0579 24.9729C15.1632 24.9729 14.438 25.7165 14.438 26.6338V29.6318C14.438 30.549 15.1632 31.2926 16.0579 31.2926C16.9525 31.2926 17.6777 30.549 17.6777 29.6318V26.6338Z" fill="#E47043"/>
</svg>
