<svg width="292" height="89" viewBox="0 0 292 89" fill="none" xmlns="http://www.w3.org/2000/svg">
<path d="M25.5579 36.9116H20.6558V46.2406H25.5579V36.9116Z" fill="#210600"/>
<path d="M0 20.304V25.2061H14.614L18.2048 23.1379L20.7306 21.6769L23.1069 20.304H0Z" fill="#210600"/>
<path d="M32.9156 20.3041L44.3436 13.7078L41.8881 9.4613L23.1069 20.3041H32.9156Z" fill="#210600"/>
<path d="M23.1069 20.304L25.5052 21.6901L28.0091 23.1379L31.5998 25.2061H46.2094V20.304H23.1069Z" fill="#210600"/>
<path d="M1.87012 32.5637L4.32558 36.8101L23.1068 25.9674L41.888 36.8101L44.3435 32.5637L23.1068 20.304L1.87012 32.5637Z" fill="#210600"/>
<path d="M25.5579 13.9851V0.03125H20.6558V13.9851L23.1068 18.2316L25.5579 13.9851Z" fill="#210600"/>
<path d="M32.5371 1.90131L25.5579 13.985L23.1068 18.2315L20.6558 13.985L13.6766 1.90131L9.43018 4.35237L16.4049 16.4361L20.6558 18.8871L23.1068 20.3041L24.0045 19.7848L25.5579 18.8871L29.8044 16.4361L36.7835 4.35237L32.5371 1.90131Z" fill="#210600"/>
<path d="M4.32558 9.4613L1.87012 13.7078L13.2981 20.3041H18.6403H23.1068L4.32558 9.4613Z" fill="#210600"/>
<path d="M76.7467 30.6613V32.8269C76.7467 33.9098 76.5424 34.9381 76.1338 35.9052C75.7252 36.8723 75.1599 37.7372 74.4381 38.4863C73.7162 39.2422 72.8717 39.8416 71.9046 40.2842C70.9376 40.7269 69.8956 40.9516 68.7787 40.9516C67.8253 40.9516 66.8582 40.8222 65.8775 40.5566C64.89 40.291 64.0047 39.8347 63.2215 39.181C62.4315 38.5272 61.7845 37.6827 61.2737 36.6475C60.763 35.6124 60.511 34.2912 60.511 32.6839V13.3903C60.511 12.2394 60.7085 11.177 61.1035 10.1895C61.4985 9.20201 62.0569 8.35071 62.7788 7.62882C63.5007 6.90693 64.3588 6.34168 65.3599 5.93306C66.361 5.52444 67.4711 5.32013 68.6833 5.32013C71.0465 5.32013 72.967 6.0897 74.4449 7.63564C75.1668 8.39158 75.732 9.28372 76.1406 10.3189C76.5492 11.3541 76.7536 12.4778 76.7536 13.69V15.6582H71.7344V13.9828C71.7344 12.9953 71.4551 12.1441 70.8967 11.4222C70.3383 10.7003 69.5823 10.3393 68.6357 10.3393C67.3894 10.3393 66.5585 10.7275 66.1499 11.4971C65.7413 12.2666 65.537 13.2473 65.537 14.4255V32.3434C65.537 33.3582 65.7617 34.2162 66.2044 34.9041C66.6471 35.5919 67.4439 35.9393 68.5948 35.9393C68.9217 35.9393 69.2758 35.8848 69.6504 35.769C70.025 35.6532 70.3791 35.4693 70.706 35.2037C70.9989 34.9381 71.244 34.584 71.4415 34.1209C71.639 33.6646 71.7344 33.0857 71.7344 32.3979V30.6749H76.7536L76.7467 30.6613Z" fill="#210600"/>
<path d="M78.2246 40.652L86.0496 5.60614H90.2311L98.0562 40.652H93.037L91.5592 33.1198H84.7148L83.237 40.652H78.2178H78.2246ZM90.6261 28.3934L88.1676 15.6922H88.0723L85.6138 28.3934H90.633H90.6261Z" fill="#210600"/>
<path d="M116.58 15.6991H111.561V14.5686C111.561 13.4176 111.289 12.4302 110.751 11.5925C110.213 10.7548 109.3 10.3394 108.02 10.3394C107.332 10.3394 106.773 10.4688 106.344 10.7344C105.915 11 105.575 11.3269 105.309 11.7219C105.043 12.1509 104.866 12.6345 104.771 13.1725C104.676 13.7105 104.621 14.2826 104.621 14.8682C104.621 15.5561 104.648 16.135 104.696 16.5912C104.744 17.0543 104.866 17.463 105.064 17.8239C105.261 18.1849 105.547 18.4981 105.922 18.7569C106.297 19.0225 106.814 19.2813 107.475 19.5469L111.316 21.0724C112.433 21.5015 113.332 21.9986 114.026 22.5707C114.714 23.1428 115.259 23.8102 115.647 24.5661C116.008 25.3561 116.253 26.2482 116.383 27.2494C116.512 28.2505 116.58 29.3878 116.58 30.6681C116.58 32.146 116.43 33.5148 116.137 34.7747C115.845 36.0415 115.368 37.1107 114.707 37.996C114.019 38.9154 113.114 39.6373 111.997 40.1617C110.88 40.6861 109.518 40.9517 107.911 40.9517C106.698 40.9517 105.561 40.7406 104.512 40.3115C103.463 39.8825 102.558 39.2968 101.809 38.5408C101.053 37.7849 100.453 36.9064 100.011 35.9053C99.568 34.9041 99.3433 33.8145 99.3433 32.6295V30.7567H104.362V32.3299C104.362 33.2492 104.635 34.0801 105.173 34.8156C105.711 35.5511 106.623 35.9257 107.904 35.9257C108.755 35.9257 109.423 35.8031 109.899 35.5579C110.376 35.3128 110.744 34.9586 111.009 34.5023C111.268 34.0461 111.425 33.4944 111.479 32.8542C111.527 32.2141 111.554 31.499 111.554 30.7158C111.554 29.7964 111.52 29.0405 111.459 28.4548C111.397 27.8691 111.261 27.3856 111.064 27.0246C110.832 26.6637 110.533 26.3708 110.151 26.1393C109.777 25.9077 109.273 25.6626 108.653 25.4038L105.057 23.9259C102.891 23.0406 101.441 21.8692 100.699 20.405C99.963 18.9476 99.5884 17.1156 99.5884 14.9159C99.5884 13.6015 99.7655 12.3552 100.126 11.1771C100.487 9.99887 101.032 8.97733 101.754 8.12604C102.442 7.27475 103.32 6.59372 104.39 6.08295C105.459 5.57217 106.726 5.32019 108.203 5.32019C109.45 5.32019 110.587 5.55174 111.622 6.00803C112.657 6.47113 113.55 7.07725 114.305 7.82639C115.817 9.39957 116.567 11.2043 116.567 13.2406V15.6991H116.58Z" fill="#210600"/>
<path d="M117.799 40.652L125.624 5.60614H129.806L137.631 40.652H132.612L131.134 33.1198H124.29L122.812 40.652H117.792H117.799ZM130.201 28.3934L127.742 15.6922H127.647L125.188 28.3934H130.208H130.201Z" fill="#210600"/>
<path d="M146.981 40.652L154.806 5.60614H158.988L166.813 40.652H161.794L160.316 33.1198H153.472L151.994 40.652H146.975H146.981ZM159.39 28.3934L156.931 15.6922H156.836L154.377 28.3934H159.397H159.39Z" fill="#210600"/>
<path d="M169.312 40.652V5.60614H174.134L180.583 24.1642H180.679L187.08 5.60614H191.957V40.652H186.937V19.3425H186.842L181.87 34.4069H179.357L174.434 19.3425H174.338V40.652H169.319H169.312Z" fill="#210600"/>
<path d="M194.477 40.652L202.302 5.60614H206.483L214.308 40.652H209.289L207.811 33.1198H200.967L199.489 40.652H194.47H194.477ZM206.878 28.3934L204.42 15.6922H204.324L201.866 28.3934H206.885H206.878Z" fill="#210600"/>
<path d="M216.807 40.652V5.60614H224.878C230.782 5.60614 233.738 9.03853 233.738 15.8965C233.738 17.9668 233.418 19.7171 232.778 21.1609C232.137 22.6047 231.014 23.7692 229.406 24.6546L234.821 40.652H229.502L224.823 25.6897H221.82V40.652H216.801H216.807ZM221.827 10.3325V21.2562H224.68C225.565 21.2562 226.274 21.1336 226.798 20.8885C227.322 20.6433 227.731 20.2891 228.031 19.8329C228.296 19.3766 228.473 18.8045 228.569 18.1371C228.664 17.4629 228.719 16.6865 228.719 15.8012C228.719 14.9158 228.671 14.1394 228.569 13.4652C228.473 12.791 228.276 12.2121 227.976 11.715C227.35 10.7956 226.172 10.3393 224.435 10.3393H221.827V10.3325Z" fill="#210600"/>
<path d="M237.538 40.652V5.60614H252.5V10.3325H242.557V20.6229H251.22V25.3492H242.557V35.6396H252.5V40.6588H237.538V40.652Z" fill="#210600"/>
<path d="M255.354 40.652V5.60614H260.373V35.6328H270.316V40.652H255.354Z" fill="#210600"/>
<path d="M272.168 40.652L279.993 5.60614H284.175L292 40.652H286.981L285.503 33.1198H278.659L277.181 40.652H272.162H272.168ZM284.57 28.3934L282.111 15.6922H282.016L279.558 28.3934H284.577H284.57Z" fill="#210600"/>
<path d="M75.0656 67.2056C75.1197 67.5847 75.1559 67.9097 75.1739 68.1805C75.192 68.4332 75.201 68.704 75.201 68.9929C75.201 69.8053 75.0836 70.5726 74.8489 71.2948C74.6323 72.0169 74.3163 72.6579 73.9011 73.2175C73.4859 73.7772 72.9713 74.2195 72.3575 74.5445C71.7617 74.8695 71.0847 75.032 70.3264 75.032C69.6584 75.032 69.0626 74.9146 68.5391 74.6799C68.0336 74.4272 67.6003 74.1022 67.2392 73.705C66.8961 73.2898 66.6344 72.8204 66.4538 72.2968C66.2733 71.7552 66.183 71.1865 66.183 70.5907C66.183 69.7963 66.3365 68.9839 66.6434 68.1534C66.9503 67.3229 67.3836 66.5195 67.9433 65.7432C68.503 64.9669 69.18 64.2357 69.9744 63.5496C70.7868 62.8636 71.6895 62.2678 72.6825 61.7623C73.6935 61.2387 74.7767 60.8325 75.9322 60.5436C77.1057 60.2367 78.3424 60.0833 79.6423 60.0833C80.6894 60.0833 81.6553 60.1826 82.5399 60.3811C83.4246 60.5797 84.1919 60.8596 84.8418 61.2207C85.564 60.8235 86.223 60.5346 86.8187 60.3541C87.4326 60.1555 88.0284 60.011 88.6061 59.9208V60.2457C88.0284 60.336 87.4687 60.4714 86.9271 60.652C86.3854 60.8144 85.8258 61.0853 85.248 61.4644C85.8258 61.9338 86.2591 62.4303 86.5479 62.9538C86.8549 63.4594 87.0083 64.0912 87.0083 64.8495C87.0083 65.5356 86.8549 66.1584 86.5479 66.7181C86.241 67.2778 85.8438 67.7652 85.3564 68.1805C84.8689 68.5777 84.3183 68.9117 83.7044 69.1825C83.0906 69.4533 82.4768 69.6428 81.8629 69.7512V69.8053C82.3865 69.8234 82.8739 69.9137 83.3253 70.0761C83.7766 70.2206 84.1648 70.4372 84.4898 70.7261C84.8328 70.9969 85.0946 71.349 85.2751 71.7822C85.4737 72.1975 85.573 72.694 85.573 73.2717C85.573 74.1563 85.3654 74.9868 84.9502 75.7632C84.5349 76.5214 84.0113 77.1894 83.3795 77.7671C82.7476 78.3268 82.0435 78.7691 81.2671 79.0941C80.4908 79.4191 79.7325 79.5816 78.9923 79.5816C77.9633 79.5816 77.1328 79.3649 76.5009 78.9316C75.887 78.4803 75.5801 77.9116 75.5801 77.2255C75.5801 76.7742 75.7155 76.386 75.9863 76.061C76.2752 75.7361 76.6543 75.5736 77.1237 75.5736C77.4126 75.5736 77.6654 75.6819 77.882 75.8986C77.5751 75.9527 77.3584 76.1333 77.2321 76.4402C77.1057 76.729 77.0425 77.0992 77.0425 77.5505C77.0425 78.038 77.223 78.4442 77.5841 78.7691C77.9452 79.0941 78.4056 79.2566 78.9653 79.2566C79.7957 79.2566 80.5179 79.0851 81.1317 78.7421C81.7636 78.381 82.2872 77.9116 82.7024 77.3339C83.1177 76.7561 83.4246 76.0972 83.6232 75.3569C83.8398 74.6167 83.9482 73.8585 83.9482 73.0821C83.9482 72.5044 83.8489 72.026 83.6503 71.6468C83.4517 71.2497 83.1809 70.9337 82.8378 70.699C82.4948 70.4643 82.0886 70.3018 81.6192 70.2115C81.1678 70.1213 80.6804 70.0761 80.1568 70.0761V69.7512C80.9692 69.7512 81.7004 69.6158 82.3504 69.345C83.0184 69.0741 83.5871 68.695 84.0565 68.2076C84.5259 67.7201 84.887 67.1424 85.1397 66.4744C85.4105 65.8064 85.5459 65.0842 85.5459 64.3079C85.5459 63.8926 85.4647 63.4864 85.3022 63.0892C85.1397 62.6921 84.914 62.34 84.6252 62.0331C83.7586 62.7914 82.9371 63.7572 82.1608 64.9308C81.4025 66.1043 80.6352 67.35 79.8589 68.6679C79.1007 69.9859 78.3153 71.3038 77.5029 72.6218C76.7085 73.9397 75.8419 75.1313 74.9031 76.1965C73.9823 77.2616 72.9713 78.1282 71.87 78.7962C70.7687 79.4642 69.5411 79.7982 68.187 79.7982C67.2482 79.7982 66.508 79.5996 65.9664 79.2024C65.4247 78.8053 65.1539 78.3268 65.1539 77.7671C65.1539 77.4061 65.2532 77.1262 65.4518 76.9276C65.6685 76.711 65.9303 76.6027 66.2372 76.6027C66.5441 76.6027 66.7698 76.702 66.9142 76.9006C67.0767 77.0811 67.1579 77.3158 67.1579 77.6047C67.1579 77.8574 67.0677 78.0741 66.8871 78.2546C66.7246 78.4171 66.517 78.4983 66.2643 78.4983C66.3004 78.6789 66.3906 78.8323 66.5351 78.9587C66.6795 79.0851 66.842 79.1934 67.0225 79.2837C67.2211 79.3559 67.4197 79.401 67.6183 79.4191C67.8169 79.4552 67.9884 79.4733 68.1328 79.4733C69.0355 79.4733 69.8299 79.3017 70.516 78.9587C71.202 78.6157 71.8429 78.1282 72.4387 77.4963C73.0526 76.8464 73.6483 76.0701 74.2261 75.1674C74.8219 74.2466 75.4628 73.2175 76.1488 72.0801C76.871 70.9066 77.539 69.8053 78.1528 68.7763C78.7847 67.7291 79.4166 66.7632 80.0485 65.8786C80.6804 64.9939 81.3303 64.1905 81.9983 63.4684C82.6844 62.7462 83.4336 62.1324 84.246 61.6269C83.6683 61.1575 82.9642 60.8415 82.1337 60.679C81.3032 60.4985 80.4276 60.4082 79.5069 60.4082C77.8278 60.4082 76.2391 60.6971 74.7406 61.2748C73.2421 61.8345 71.9332 62.5837 70.8139 63.5225C69.6945 64.4433 68.8008 65.5085 68.1328 66.7181C67.4829 67.9097 67.1579 69.1464 67.1579 70.4282C67.1579 70.9157 67.2211 71.4212 67.3475 71.9447C67.4739 72.4502 67.6634 72.9106 67.9162 73.3259C68.187 73.7231 68.521 74.0571 68.9182 74.3279C69.3154 74.5806 69.7848 74.707 70.3264 74.707C70.9944 74.707 71.6082 74.5626 72.1679 74.2737C72.7276 73.9848 73.206 73.5876 73.6032 73.0821C74.0004 72.5766 74.3073 71.9718 74.524 71.2677C74.7587 70.5455 74.876 69.7692 74.876 68.9387C74.876 68.6499 74.867 68.37 74.8489 68.0992C74.8309 67.8104 74.8038 67.5215 74.7677 67.2326L75.0656 67.2056ZM97.0465 70.0491H98.8067C98.1387 70.9879 97.4978 71.8996 96.884 72.7842C96.2702 73.6689 95.7195 74.4903 95.232 75.2486C94.7626 75.9888 94.3835 76.6478 94.0946 77.2255C93.8058 77.7852 93.6613 78.2275 93.6613 78.5525C93.6613 79.0219 93.9051 79.2566 94.3925 79.2566C94.7717 79.2566 95.2501 79.0761 95.8278 78.715C96.4236 78.3359 97.0645 77.8213 97.7506 77.1714C98.4366 76.5214 99.1407 75.7632 99.8629 74.8966C100.585 74.03 101.271 73.1092 101.921 72.1343L102.084 72.1885C101.596 72.9287 101.018 73.7321 100.35 74.5987C99.7004 75.4472 99.0144 76.2416 98.2922 76.9818C97.57 77.722 96.8479 78.3449 96.1257 78.8504C95.4036 79.3378 94.7265 79.5816 94.0946 79.5816C93.5711 79.5816 93.1829 79.4552 92.9302 79.2024C92.6955 78.9316 92.5781 78.6157 92.5781 78.2546C92.5781 78.0019 92.6142 77.7581 92.6864 77.5234C92.7767 77.2707 92.867 77.0179 92.9572 76.7652L92.9031 76.7381C92.6684 76.9908 92.3705 77.2887 92.0094 77.6317C91.6664 77.9567 91.2872 78.2636 90.872 78.5525C90.4748 78.8414 90.0596 79.0851 89.6263 79.2837C89.193 79.4823 88.7777 79.5816 88.3806 79.5816C87.7126 79.5816 87.2432 79.374 86.9723 78.9587C86.7015 78.5435 86.5661 78.0741 86.5661 77.5505C86.5661 76.8103 86.8008 75.9979 87.2702 75.1132C87.7396 74.2105 88.3354 73.371 89.0576 72.5947C89.7797 71.8003 90.5651 71.1413 91.4136 70.6178C92.2622 70.0942 93.0656 69.8324 93.8238 69.8324C94.1849 69.8324 94.5009 69.8866 94.7717 69.9949C95.0425 70.0852 95.2682 70.2206 95.4487 70.4011C95.6292 70.5636 95.7646 70.7532 95.8549 70.9698C95.9632 71.1865 96.0445 71.4121 96.0986 71.6468H96.1528L97.0465 70.0491ZM88.191 77.6317C88.191 78.047 88.2722 78.372 88.4347 78.6067C88.6153 78.8233 88.859 78.9316 89.1659 78.9316C89.4728 78.9316 89.8339 78.8233 90.2491 78.6067C90.6644 78.372 91.0977 78.065 91.549 77.6859C92.0004 77.3068 92.4427 76.8735 92.876 76.386C93.3274 75.8805 93.7245 75.3479 94.0676 74.7882C94.4106 74.2286 94.6904 73.6599 94.9071 73.0821C95.1237 72.5044 95.232 71.9538 95.232 71.4302C95.232 71.015 95.1147 70.699 94.88 70.4824C94.6453 70.2657 94.3564 70.1574 94.0134 70.1574C93.4718 70.1574 92.867 70.3921 92.199 70.8615C91.531 71.3309 90.8991 71.9357 90.3033 72.6759C89.7075 73.3981 89.202 74.2015 88.7868 75.0861C88.3896 75.9708 88.191 76.8193 88.191 77.6317ZM104.611 70.0491L101.172 75.059L101.226 75.1132C101.479 74.8063 101.795 74.4542 102.174 74.0571C102.571 73.6418 102.995 73.2266 103.447 72.8113C103.916 72.378 104.404 71.9538 104.909 71.5385C105.415 71.1233 105.911 70.7532 106.399 70.4282C106.489 70.2477 106.588 70.1032 106.696 69.9949C106.805 69.8866 107.021 69.8324 107.346 69.8324C107.545 69.8324 107.716 69.8414 107.861 69.8595C108.023 69.8595 108.186 69.8685 108.348 69.8866C108.041 70.1935 107.744 70.5726 107.455 71.024C107.166 71.4573 107.021 71.9357 107.021 72.4593C107.021 72.8745 107.121 73.1995 107.319 73.4342C107.536 73.6689 107.798 73.7862 108.105 73.7862C108.375 73.7862 108.637 73.7321 108.89 73.6238C109.161 73.5154 109.414 73.38 109.648 73.2175C109.883 73.0551 110.109 72.8835 110.325 72.703C110.542 72.5225 110.731 72.36 110.894 72.2155L111.056 72.3239C110.876 72.5044 110.668 72.703 110.434 72.9197C110.199 73.1182 109.946 73.3078 109.675 73.4884C109.405 73.6689 109.116 73.8224 108.809 73.9487C108.502 74.0571 108.186 74.1112 107.861 74.1112C107.283 74.1112 106.814 73.9397 106.453 73.5967C106.11 73.2356 105.938 72.7391 105.938 72.1072C105.938 71.6739 106.037 71.2858 106.236 70.9427L106.182 70.8886C105.442 71.3941 104.629 72.0621 103.745 72.8926C102.86 73.705 101.921 74.6709 100.928 75.7902C100.567 76.1874 100.188 76.711 99.7908 77.3609C99.4116 78.0109 99.0776 78.6789 98.7888 79.3649H97.0285C98.0034 77.8123 98.9783 76.2687 99.9532 74.7341C100.928 73.1995 101.93 71.6378 102.959 70.0491H104.611ZM113.629 70.0491L110.19 75.059L110.244 75.1132C110.497 74.8063 110.813 74.4542 111.192 74.0571C111.589 73.6418 112.014 73.2266 112.465 72.8113C112.934 72.378 113.422 71.9538 113.927 71.5385C114.433 71.1233 114.929 70.7532 115.417 70.4282C115.507 70.2477 115.606 70.1032 115.715 69.9949C115.823 69.8866 116.04 69.8324 116.365 69.8324C116.563 69.8324 116.735 69.8414 116.879 69.8595C117.042 69.8595 117.204 69.8685 117.367 69.8866C117.06 70.1935 116.762 70.5726 116.473 71.024C116.184 71.4573 116.04 71.9357 116.04 72.4593C116.04 72.8745 116.139 73.1995 116.337 73.4342C116.554 73.6689 116.816 73.7862 117.123 73.7862C117.394 73.7862 117.655 73.7321 117.908 73.6238C118.179 73.5154 118.432 73.38 118.666 73.2175C118.901 73.0551 119.127 72.8835 119.343 72.703C119.56 72.5225 119.75 72.36 119.912 72.2155L120.075 72.3239C119.894 72.5044 119.686 72.703 119.452 72.9197C119.217 73.1182 118.964 73.3078 118.694 73.4884C118.423 73.6689 118.134 73.8224 117.827 73.9487C117.52 74.0571 117.204 74.1112 116.879 74.1112C116.301 74.1112 115.832 73.9397 115.471 73.5967C115.128 73.2356 114.956 72.7391 114.956 72.1072C114.956 71.6739 115.056 71.2858 115.254 70.9427L115.2 70.8886C114.46 71.3941 113.647 72.0621 112.763 72.8926C111.878 73.705 110.939 74.6709 109.946 75.7902C109.585 76.1874 109.206 76.711 108.809 77.3609C108.43 78.0109 108.096 78.6789 107.807 79.3649H106.047C107.022 77.8123 107.997 76.2687 108.971 74.7341C109.946 73.1995 110.948 71.6378 111.977 70.0491H113.629ZM122.918 70.0491C121.925 71.4753 121.086 72.6759 120.4 73.6508C119.714 74.6258 119.154 75.4382 118.721 76.0881C118.306 76.7381 117.999 77.2526 117.8 77.6317C117.62 78.0109 117.529 78.3178 117.529 78.5525C117.529 79.0219 117.719 79.2566 118.098 79.2566C118.459 79.2566 118.874 79.1302 119.344 78.8775C119.831 78.6067 120.337 78.2636 120.86 77.8484C121.384 77.4332 121.907 76.9637 122.431 76.4402C122.954 75.9166 123.442 75.4021 123.893 74.8966C124.363 74.373 124.769 73.8765 125.112 73.4071C125.473 72.9197 125.735 72.5225 125.897 72.2155L126.114 72.3509C125.897 72.712 125.599 73.1453 125.22 73.6508C124.859 74.1563 124.444 74.6799 123.975 75.2215C123.505 75.7451 123.009 76.2687 122.485 76.7922C121.961 77.3158 121.429 77.7852 120.887 78.2004C120.346 78.6157 119.813 78.9497 119.289 79.2024C118.784 79.4552 118.315 79.5816 117.881 79.5816C117.394 79.5816 117.033 79.4462 116.798 79.1754C116.563 78.9046 116.446 78.6067 116.446 78.2817C116.446 77.9026 116.527 77.5054 116.69 77.0901C116.87 76.6568 117.15 76.1333 117.529 75.5194C117.908 74.9056 118.396 74.1654 118.992 73.2988C119.605 72.4141 120.337 71.3309 121.185 70.0491H122.918ZM124.489 65.012C124.742 65.012 124.949 65.1023 125.112 65.2828C125.274 65.4453 125.356 65.6529 125.356 65.9057C125.356 66.1584 125.274 66.3751 125.112 66.5556C124.949 66.7181 124.742 66.7993 124.489 66.7993C124.236 66.7993 124.029 66.7181 123.866 66.5556C123.704 66.3751 123.622 66.1584 123.622 65.9057C123.622 65.6529 123.704 65.4453 123.866 65.2828C124.029 65.1023 124.236 65.012 124.489 65.012ZM128.597 70.0491L125.022 75.0049L125.076 75.059C125.455 74.6077 125.898 74.0841 126.403 73.4884C126.909 72.8745 127.45 72.2968 128.028 71.7552C128.606 71.2135 129.202 70.7622 129.815 70.4011C130.447 70.022 131.07 69.8324 131.684 69.8324C132.226 69.8324 132.641 69.9859 132.93 70.2928C133.237 70.5817 133.39 70.9608 133.39 71.4302C133.39 71.7191 133.282 72.0621 133.065 72.4593C132.866 72.8565 132.614 73.2807 132.307 73.7321C132 74.1834 131.666 74.6438 131.305 75.1132C130.944 75.5826 130.61 76.034 130.303 76.4673C129.996 76.8825 129.734 77.2707 129.517 77.6317C129.319 77.9748 129.22 78.2636 129.22 78.4983C129.22 79.0038 129.472 79.2566 129.978 79.2566C130.556 79.2566 131.169 79.067 131.819 78.6879C132.469 78.2907 133.246 77.6317 134.148 76.711C134.509 76.3499 134.87 75.9527 135.232 75.5194C135.611 75.0861 135.972 74.6619 136.315 74.2466C136.658 73.8133 136.965 73.4071 137.236 73.028C137.524 72.6488 137.75 72.3329 137.913 72.0801L138.102 72.1885C137.741 72.7301 137.272 73.38 136.694 74.1383C136.134 74.8785 135.52 75.6097 134.852 76.3319C134.455 76.7652 134.049 77.1804 133.634 77.5776C133.219 77.9748 132.803 78.3268 132.388 78.6337C131.973 78.9226 131.558 79.1573 131.142 79.3378C130.745 79.5003 130.348 79.5816 129.951 79.5816C129.427 79.5816 128.994 79.4371 128.651 79.1483C128.308 78.8594 128.136 78.4622 128.136 77.9567C128.136 77.4151 128.353 76.8283 128.786 76.1965C129.22 75.5465 129.698 74.8966 130.222 74.2466C130.745 73.5967 131.224 72.9738 131.657 72.378C132.09 71.7822 132.307 71.2587 132.307 70.8073C132.307 70.5907 132.235 70.4282 132.09 70.3199C131.946 70.2115 131.756 70.1574 131.521 70.1574C131.07 70.1574 130.565 70.3289 130.005 70.6719C129.445 70.9969 128.868 71.4392 128.272 71.9989C127.694 72.5405 127.107 73.1544 126.511 73.8404C125.934 74.5084 125.392 75.1854 124.887 75.8715C124.381 76.5395 123.93 77.1894 123.533 77.8213C123.135 78.4351 122.837 78.9497 122.639 79.3649H120.96C121.429 78.5706 121.935 77.7671 122.476 76.9547C123 76.1242 123.524 75.3118 124.047 74.5174C124.571 73.705 125.067 72.9287 125.537 72.1885C126.024 71.4302 126.457 70.7441 126.836 70.1303L128.597 70.0491ZM146.967 60.6249L137.38 74.8695L137.434 74.9236C137.795 74.4723 138.22 73.9578 138.707 73.38C139.194 72.7842 139.718 72.2246 140.278 71.701C140.855 71.1774 141.46 70.7351 142.092 70.374C142.724 70.013 143.356 69.8324 143.988 69.8324C145.089 69.8324 145.64 70.3831 145.64 71.4844C145.64 71.7732 145.531 72.1162 145.315 72.5134C145.116 72.9106 144.854 73.3349 144.529 73.7862C144.222 74.2195 143.888 74.6619 143.527 75.1132C143.166 75.5646 142.823 76.0069 142.498 76.4402C142.191 76.8554 141.93 77.2526 141.713 77.6317C141.514 77.9928 141.415 78.2997 141.415 78.5525C141.415 78.7511 141.469 78.9226 141.578 79.067C141.704 79.1934 141.866 79.2566 142.065 79.2566C142.48 79.2566 142.932 79.1302 143.419 78.8775C143.925 78.6067 144.439 78.2636 144.963 77.8484C145.504 77.4151 146.037 76.9367 146.56 76.4131C147.084 75.8895 147.562 75.375 147.996 74.8695C148.447 74.3459 148.844 73.8585 149.187 73.4071C149.548 72.9377 149.81 72.5586 149.973 72.2697L150.135 72.3239C149.937 72.6669 149.657 73.0821 149.296 73.5696C148.935 74.0571 148.519 74.5716 148.05 75.1132C147.599 75.6548 147.102 76.1965 146.56 76.7381C146.037 77.2616 145.504 77.7401 144.963 78.1734C144.439 78.5886 143.916 78.9316 143.392 79.2024C142.868 79.4552 142.381 79.5816 141.93 79.5816C141.46 79.5816 141.072 79.4371 140.765 79.1483C140.476 78.8594 140.332 78.4622 140.332 77.9567C140.332 77.5956 140.431 77.1984 140.63 76.7652C140.846 76.3319 141.108 75.8986 141.415 75.4653C141.74 75.0139 142.083 74.5716 142.444 74.1383C142.805 73.6869 143.139 73.2627 143.446 72.8655C143.771 72.4683 144.033 72.1072 144.232 71.7822C144.448 71.4392 144.556 71.1504 144.556 70.9157C144.556 70.6268 144.475 70.4282 144.313 70.3199C144.15 70.2115 143.952 70.1574 143.717 70.1574C143.266 70.1574 142.76 70.3289 142.2 70.6719C141.659 70.9969 141.09 71.4302 140.494 71.9718C139.917 72.5134 139.339 73.1273 138.761 73.8133C138.183 74.4813 137.633 75.1583 137.109 75.8444C136.604 76.5305 136.152 77.1804 135.755 77.7942C135.376 78.4081 135.078 78.9316 134.861 79.3649H133.101C134.094 77.8123 135.114 76.2326 136.161 74.6258C137.209 73.0189 138.247 71.4212 139.276 69.8324C140.323 68.2437 141.343 66.682 142.336 65.1474C143.329 63.5948 144.268 62.1143 145.152 60.7061L146.967 60.6249ZM157.185 70.0491H158.946C158.278 70.9879 157.637 71.8996 157.023 72.7842C156.409 73.6689 155.858 74.4903 155.371 75.2486C154.902 75.9888 154.522 76.6478 154.234 77.2255C153.945 77.7852 153.8 78.2275 153.8 78.5525C153.8 79.0219 154.044 79.2566 154.531 79.2566C154.911 79.2566 155.389 79.0761 155.967 78.715C156.562 78.3359 157.203 77.8213 157.889 77.1714C158.576 76.5214 159.28 75.7632 160.002 74.8966C160.724 74.03 161.41 73.1092 162.06 72.1343L162.222 72.1885C161.735 72.9287 161.157 73.7321 160.489 74.5987C159.839 75.4472 159.153 76.2416 158.431 76.9818C157.709 77.722 156.987 78.3449 156.265 78.8504C155.542 79.3378 154.865 79.5816 154.234 79.5816C153.71 79.5816 153.322 79.4552 153.069 79.2024C152.834 78.9316 152.717 78.6157 152.717 78.2546C152.717 78.0019 152.753 77.7581 152.825 77.5234C152.916 77.2707 153.006 77.0179 153.096 76.7652L153.042 76.7381C152.807 76.9908 152.509 77.2887 152.148 77.6317C151.805 77.9567 151.426 78.2636 151.011 78.5525C150.614 78.8414 150.198 79.0851 149.765 79.2837C149.332 79.4823 148.917 79.5816 148.519 79.5816C147.851 79.5816 147.382 79.374 147.111 78.9587C146.84 78.5435 146.705 78.0741 146.705 77.5505C146.705 76.8103 146.94 75.9979 147.409 75.1132C147.879 74.2105 148.474 73.371 149.196 72.5947C149.919 71.8003 150.704 71.1413 151.552 70.6178C152.401 70.0942 153.204 69.8324 153.963 69.8324C154.324 69.8324 154.64 69.8866 154.911 69.9949C155.181 70.0852 155.407 70.2206 155.588 70.4011C155.768 70.5636 155.904 70.7532 155.994 70.9698C156.102 71.1865 156.183 71.4121 156.238 71.6468H156.292L157.185 70.0491ZM148.33 77.6317C148.33 78.047 148.411 78.372 148.574 78.6067C148.754 78.8233 148.998 78.9316 149.305 78.9316C149.612 78.9316 149.973 78.8233 150.388 78.6067C150.803 78.372 151.237 78.065 151.688 77.6859C152.139 77.3068 152.582 76.8735 153.015 76.386C153.466 75.8805 153.863 75.3479 154.206 74.7882C154.549 74.2286 154.829 73.6599 155.046 73.0821C155.263 72.5044 155.371 71.9538 155.371 71.4302C155.371 71.015 155.254 70.699 155.019 70.4824C154.784 70.2657 154.495 70.1574 154.152 70.1574C153.611 70.1574 153.006 70.3921 152.338 70.8615C151.67 71.3309 151.038 71.9357 150.442 72.6759C149.846 73.3981 149.341 74.2015 148.926 75.0861C148.528 75.9708 148.33 76.8193 148.33 77.6317ZM157.871 82.5605C158.287 82.4883 158.711 82.3619 159.144 82.1814C159.596 82.0189 160.011 81.8022 160.39 81.5314C160.769 81.2606 161.085 80.9356 161.338 80.5565C161.591 80.1954 161.735 79.7802 161.771 79.3108C161.717 79.3469 161.609 79.3649 161.446 79.3649C161.248 79.3649 161.04 79.2927 160.823 79.1483C160.625 79.0038 160.525 78.7782 160.525 78.4713C160.525 78.1463 160.616 77.8845 160.796 77.6859C160.995 77.4693 161.257 77.3609 161.582 77.3609C161.925 77.3609 162.186 77.4963 162.367 77.7671C162.547 78.0199 162.638 78.2997 162.638 78.6067C162.638 79.1483 162.493 79.6538 162.204 80.1232C161.934 80.5926 161.564 81.0078 161.094 81.3689C160.643 81.73 160.128 82.0279 159.55 82.2626C158.991 82.4973 158.431 82.6508 157.871 82.723V82.5605ZM198.791 59.7854C198.376 59.9298 197.933 60.0923 197.464 60.2728C197.013 60.4353 196.606 60.6249 196.245 60.8415C197.04 61.2929 197.608 61.8435 197.951 62.4935C198.294 63.1434 198.466 63.9017 198.466 64.7683C198.466 65.4543 198.285 66.1043 197.924 66.7181C197.581 67.3319 197.139 67.8736 196.597 68.343C196.056 68.8124 195.451 69.1915 194.783 69.4804C194.133 69.7512 193.51 69.8866 192.914 69.8866C192.282 69.8866 191.795 69.7602 191.452 69.5074C191.127 69.2366 190.964 68.8936 190.964 68.4784C190.964 68.2256 191.046 68.009 191.208 67.8284C191.389 67.6298 191.614 67.5305 191.885 67.5305C192.012 67.5305 192.147 67.5757 192.291 67.6659C192.436 67.7382 192.535 67.8374 192.589 67.9638C192.499 68.0722 192.418 68.1805 192.346 68.2888C192.291 68.3971 192.264 68.5235 192.264 68.6679C192.264 68.9749 192.355 69.2005 192.535 69.345C192.716 69.4894 192.95 69.5616 193.239 69.5616C193.709 69.5616 194.16 69.3901 194.593 69.0471C195.045 68.704 195.451 68.2527 195.812 67.693C196.173 67.1333 196.462 66.5105 196.679 65.8244C196.895 65.1203 197.004 64.4162 197.004 63.7121C197.004 63.0622 196.904 62.5296 196.706 62.1143C196.525 61.6991 196.236 61.3561 195.839 61.0853C194.9 61.6269 194.043 62.3851 193.266 63.3601C192.49 64.335 191.732 65.4182 190.992 66.6098C190.269 67.7833 189.538 69.011 188.798 70.2928C188.058 71.5566 187.254 72.7662 186.388 73.9216C185.539 75.059 184.591 76.0881 183.544 77.0089C182.497 77.9296 181.297 78.6247 179.942 79.0941V79.1483C180.737 79.2747 181.477 79.3559 182.163 79.392C182.867 79.4462 183.625 79.4733 184.438 79.4733C187.128 79.4733 189.457 78.8504 191.425 77.6047C193.393 76.3409 195.09 74.6077 196.516 72.4051L196.733 72.5134C195.92 73.7411 195.09 74.8153 194.241 75.7361C193.411 76.6388 192.499 77.397 191.506 78.0109C190.513 78.6067 189.421 79.058 188.229 79.3649C187.056 79.6538 185.711 79.7982 184.194 79.7982C183.472 79.7982 182.678 79.7441 181.811 79.6357C180.963 79.5274 180.195 79.401 179.509 79.2566C179.347 79.2566 178.859 79.3469 178.047 79.5274C177.234 79.708 176.124 79.7982 174.716 79.7982C173.813 79.7982 173.172 79.726 172.793 79.5816C172.414 79.4371 172.224 79.2476 172.224 79.0129C172.224 78.7782 172.333 78.5886 172.549 78.4442C172.766 78.2997 173.145 78.2275 173.687 78.2275C174.12 78.2275 174.544 78.2456 174.96 78.2817C175.375 78.3178 175.808 78.372 176.259 78.4442C176.729 78.4983 177.216 78.5796 177.722 78.6879C178.245 78.7782 178.823 78.8865 179.455 79.0129C180.249 78.8323 181.044 78.3268 181.838 77.4963C182.633 76.6659 183.436 75.6639 184.248 74.4903C185.079 73.2988 185.918 72.0169 186.767 70.6448C187.633 69.2547 188.518 67.9187 189.421 66.6369C190.342 65.337 191.298 64.1725 192.291 63.1434C193.284 62.1143 194.332 61.3561 195.433 60.8686C195.054 60.6881 194.593 60.5707 194.052 60.5165C193.51 60.4443 193.023 60.4082 192.589 60.4082C191.614 60.4082 190.576 60.5346 189.475 60.7874C188.392 61.0221 187.318 61.3651 186.252 61.8164C185.187 62.2497 184.167 62.7914 183.192 63.4413C182.235 64.0912 181.387 64.8224 180.647 65.6349C179.906 66.4292 179.32 67.3139 178.886 68.2888C178.453 69.2457 178.236 70.2657 178.236 71.349C178.236 72.2155 178.435 72.8835 178.832 73.3529C179.247 73.8224 179.852 74.0571 180.647 74.0571C181.333 74.0571 181.974 73.8855 182.569 73.5425C183.165 73.1814 183.68 72.7301 184.113 72.1885C184.564 71.6288 184.916 71.015 185.169 70.347C185.422 69.6609 185.548 69.0019 185.548 68.37V67.341H185.873V68.37C185.873 69.038 185.738 69.7331 185.467 70.4553C185.196 71.1594 184.826 71.8093 184.357 72.4051C183.887 72.9828 183.319 73.4613 182.651 73.8404C182.001 74.2015 181.297 74.382 180.538 74.382C180.069 74.382 179.636 74.2918 179.238 74.1112C178.859 73.9307 178.525 73.6869 178.236 73.38C177.966 73.0731 177.749 72.7211 177.586 72.3239C177.442 71.9086 177.37 71.4663 177.37 70.9969C177.37 70.1664 177.559 69.3269 177.938 68.4784C178.336 67.6118 178.877 66.7723 179.563 65.9598C180.249 65.1474 181.071 64.3891 182.028 63.685C182.985 62.9629 184.032 62.34 185.169 61.8164C186.307 61.2748 187.516 60.8505 188.798 60.5436C190.098 60.2367 191.416 60.0833 192.752 60.0833C193.438 60.0833 194.025 60.1374 194.512 60.2457C195 60.336 195.451 60.4714 195.866 60.652C196.769 60.2548 197.726 59.9298 198.737 59.677L198.791 59.7854ZM199.639 70.0491C198.646 71.4753 197.807 72.6759 197.121 73.6508C196.434 74.6258 195.875 75.4382 195.441 76.0881C195.026 76.7381 194.719 77.2526 194.521 77.6317C194.34 78.0109 194.25 78.3178 194.25 78.5525C194.25 79.0219 194.439 79.2566 194.819 79.2566C195.18 79.2566 195.595 79.1302 196.064 78.8775C196.552 78.6067 197.057 78.2636 197.581 77.8484C198.104 77.4332 198.628 76.9637 199.152 76.4402C199.675 75.9166 200.163 75.4021 200.614 74.8966C201.083 74.373 201.49 73.8765 201.833 73.4071C202.194 72.9197 202.455 72.5225 202.618 72.2155L202.835 72.3509C202.618 72.712 202.32 73.1453 201.941 73.6508C201.58 74.1563 201.165 74.6799 200.695 75.2215C200.226 75.7451 199.729 76.2687 199.206 76.7922C198.682 77.3158 198.15 77.7852 197.608 78.2004C197.066 78.6157 196.534 78.9497 196.01 79.2024C195.505 79.4552 195.035 79.5816 194.602 79.5816C194.115 79.5816 193.753 79.4462 193.519 79.1754C193.284 78.9046 193.167 78.6067 193.167 78.2817C193.167 77.9026 193.248 77.5054 193.41 77.0901C193.591 76.6568 193.871 76.1333 194.25 75.5194C194.629 74.9056 195.117 74.1654 195.712 73.2988C196.326 72.4141 197.057 71.3309 197.906 70.0491H199.639ZM201.21 65.012C201.462 65.012 201.67 65.1023 201.833 65.2828C201.995 65.4453 202.076 65.6529 202.076 65.9057C202.076 66.1584 201.995 66.3751 201.833 66.5556C201.67 66.7181 201.462 66.7993 201.21 66.7993C200.957 66.7993 200.749 66.7181 200.587 66.5556C200.424 66.3751 200.343 66.1584 200.343 65.9057C200.343 65.6529 200.424 65.4453 200.587 65.2828C200.749 65.1023 200.957 65.012 201.21 65.012ZM209.84 70.0491H211.6C210.932 70.9879 210.291 71.8996 209.677 72.7842C209.064 73.6689 208.513 74.4903 208.025 75.2486C207.556 75.9888 207.177 76.6478 206.888 77.2255C206.599 77.7852 206.455 78.2275 206.455 78.5525C206.455 79.0219 206.699 79.2566 207.186 79.2566C207.565 79.2566 208.044 79.0761 208.621 78.715C209.217 78.3359 209.858 77.8213 210.544 77.1714C211.23 76.5214 211.934 75.7632 212.656 74.8966C213.378 74.03 214.065 73.1092 214.714 72.1343L214.877 72.1885C214.39 72.9287 213.812 73.7321 213.144 74.5987C212.494 75.4472 211.808 76.2416 211.086 76.9818C210.363 77.722 209.641 78.3449 208.919 78.8504C208.197 79.3378 207.52 79.5816 206.888 79.5816C206.365 79.5816 205.976 79.4552 205.724 79.2024C205.489 78.9316 205.372 78.6157 205.372 78.2546C205.372 78.0019 205.408 77.7581 205.48 77.5234C205.57 77.2707 205.66 77.0179 205.751 76.7652L205.697 76.7381C205.462 76.9908 205.164 77.2887 204.803 77.6317C204.46 77.9567 204.081 78.2636 203.665 78.5525C203.268 78.8414 202.853 79.0851 202.42 79.2837C201.986 79.4823 201.571 79.5816 201.174 79.5816C200.506 79.5816 200.037 79.374 199.766 78.9587C199.495 78.5435 199.36 78.0741 199.36 77.5505C199.36 76.8103 199.594 75.9979 200.064 75.1132C200.533 74.2105 201.129 73.371 201.851 72.5947C202.573 71.8003 203.359 71.1413 204.207 70.6178C205.056 70.0942 205.859 69.8324 206.617 69.8324C206.978 69.8324 207.294 69.8866 207.565 69.9949C207.836 70.0852 208.062 70.2206 208.242 70.4011C208.423 70.5636 208.558 70.7532 208.648 70.9698C208.757 71.1865 208.838 71.4121 208.892 71.6468H208.946L209.84 70.0491ZM200.984 77.6317C200.984 78.047 201.066 78.372 201.228 78.6067C201.409 78.8233 201.652 78.9316 201.959 78.9316C202.266 78.9316 202.627 78.8233 203.043 78.6067C203.458 78.372 203.891 78.065 204.342 77.6859C204.794 77.3068 205.236 76.8735 205.669 76.386C206.121 75.8805 206.518 75.3479 206.861 74.7882C207.204 74.2286 207.484 73.6599 207.701 73.0821C207.917 72.5044 208.025 71.9538 208.025 71.4302C208.025 71.015 207.908 70.699 207.673 70.4824C207.439 70.2657 207.15 70.1574 206.807 70.1574C206.265 70.1574 205.66 70.3921 204.992 70.8615C204.324 71.3309 203.693 71.9357 203.097 72.6759C202.501 73.3981 201.995 74.2015 201.58 75.0861C201.183 75.9708 200.984 76.8193 200.984 77.6317ZM217.675 70.0491C216.971 71.0059 216.294 71.9177 215.644 72.7842C214.994 73.6508 214.417 74.4452 213.911 75.1674C213.406 75.8895 212.999 76.5214 212.693 77.063C212.404 77.5866 212.259 78.0019 212.259 78.3088C212.259 78.5976 212.331 78.8143 212.476 78.9587C212.62 79.0851 212.81 79.1483 213.045 79.1483C213.388 79.1483 213.758 79.04 214.155 78.8233C214.57 78.6067 214.985 78.3268 215.401 77.9838C215.834 77.6408 216.249 77.2616 216.646 76.8464C217.062 76.4312 217.441 76.0249 217.784 75.6278C218.145 75.2125 218.452 74.8334 218.704 74.4903C218.975 74.1473 219.174 73.8765 219.3 73.6779L221.683 70.0491H223.552C222.577 71.3851 221.747 72.5225 221.061 73.4613C220.393 74.382 219.842 75.1674 219.409 75.8173C218.993 76.4673 218.695 76.9999 218.515 77.4151C218.334 77.8123 218.244 78.1643 218.244 78.4713C218.244 78.6879 218.307 78.8775 218.434 79.04C218.56 79.1844 218.741 79.2566 218.975 79.2566C219.336 79.2566 219.752 79.1302 220.221 78.8775C220.69 78.6067 221.178 78.2636 221.683 77.8484C222.189 77.4151 222.685 76.9367 223.173 76.4131C223.678 75.8715 224.148 75.3389 224.581 74.8153C225.032 74.2918 225.439 73.8043 225.8 73.3529C226.161 72.8835 226.441 72.5044 226.639 72.2155L226.91 72.2968C226.693 72.6037 226.405 73.0009 226.043 73.4884C225.682 73.9578 225.276 74.4633 224.825 75.0049C224.373 75.5285 223.895 76.0701 223.39 76.6297C222.884 77.1714 222.36 77.6588 221.819 78.0921C221.295 78.5254 220.772 78.8865 220.248 79.1754C219.743 79.4462 219.264 79.5816 218.813 79.5816C218.307 79.5816 217.901 79.4462 217.594 79.1754C217.305 78.8865 217.161 78.5074 217.161 78.038C217.161 77.6769 217.215 77.3339 217.323 77.0089C217.45 76.6659 217.54 76.4492 217.594 76.3589L217.54 76.3048C217.161 76.7381 216.764 77.1533 216.348 77.5505C215.933 77.9477 215.518 78.2997 215.103 78.6067C214.687 78.8955 214.263 79.1302 213.83 79.3108C213.415 79.4913 212.999 79.5816 212.584 79.5816C212.006 79.5816 211.591 79.4552 211.338 79.2024C211.086 78.9316 210.959 78.6157 210.959 78.2546C210.959 77.8033 211.086 77.3158 211.338 76.7922C211.573 76.2687 211.907 75.6819 212.34 75.032C212.774 74.382 213.288 73.6508 213.884 72.8384C214.498 72.026 215.166 71.0962 215.888 70.0491H217.675ZM229.708 70.0491C228.716 71.4753 227.876 72.6759 227.19 73.6508C226.504 74.6258 225.944 75.4382 225.511 76.0881C225.096 76.7381 224.789 77.2526 224.59 77.6317C224.41 78.0109 224.319 78.3178 224.319 78.5525C224.319 79.0219 224.509 79.2566 224.888 79.2566C225.249 79.2566 225.664 79.1302 226.134 78.8775C226.621 78.6067 227.127 78.2636 227.65 77.8484C228.174 77.4332 228.697 76.9637 229.221 76.4402C229.745 75.9166 230.232 75.4021 230.683 74.8966C231.153 74.373 231.559 73.8765 231.902 73.4071C232.263 72.9197 232.525 72.5225 232.687 72.2155L232.904 72.3509C232.687 72.712 232.39 73.1453 232.01 73.6508C231.649 74.1563 231.234 74.6799 230.765 75.2215C230.295 75.7451 229.799 76.2687 229.275 76.7922C228.752 77.3158 228.219 77.7852 227.677 78.2004C227.136 78.6157 226.603 78.9497 226.08 79.2024C225.574 79.4552 225.105 79.5816 224.671 79.5816C224.184 79.5816 223.823 79.4462 223.588 79.1754C223.353 78.9046 223.236 78.6067 223.236 78.2817C223.236 77.9026 223.317 77.5054 223.48 77.0901C223.66 76.6568 223.94 76.1333 224.319 75.5194C224.698 74.9056 225.186 74.1654 225.782 73.2988C226.396 72.4141 227.127 71.3309 227.975 70.0491H229.708ZM232.417 63.8746C232.615 63.8746 232.76 63.9649 232.85 64.1454C232.958 64.3079 233.012 64.4613 233.012 64.6058C233.012 64.9849 232.841 65.3911 232.498 65.8244C232.155 66.2577 231.767 66.6639 231.333 67.0431C230.918 67.4222 230.521 67.7382 230.142 67.9909C229.763 68.2437 229.528 68.37 229.438 68.37C229.347 68.37 229.302 68.3339 229.302 68.2617C229.302 68.1895 229.402 68.0722 229.6 67.9097C229.817 67.7472 230.052 67.5486 230.304 67.3139C230.557 67.0611 230.792 66.7903 231.008 66.5015C231.243 66.1945 231.369 65.8786 231.388 65.5536C231.424 65.0842 231.523 64.687 231.685 64.3621C231.866 64.0371 232.11 63.8746 232.417 63.8746Z" fill="black"/>
</svg>
