<svg width="24" height="25" viewBox="0 0 24 25" fill="none" xmlns="http://www.w3.org/2000/svg">
<path d="M13.2746 19.6543H10.7285V24.4996H13.2746V19.6543Z" fill="#210600"/>
<path d="M0 11.0293V13.5753H7.59014L9.4551 12.5012L10.767 11.7424L12.0011 11.0293H0Z" fill="#210600"/>
<path d="M17.0963 11.0289L23.0318 7.60297L21.7565 5.39746L12.002 11.0289H17.0963Z" fill="#210600"/>
<path d="M12.002 11.0293L13.2475 11.7492L14.548 12.5012L16.413 13.5753H24.0008V11.0293H12.002Z" fill="#210600"/>
<path d="M0.970703 17.3967L2.24601 19.6022L12.0005 13.9707L21.755 19.6022L23.0303 17.3967L12.0005 11.0293L0.970703 17.3967Z" fill="#210600"/>
<path d="M13.2746 7.74731V0.5H10.7285V7.74731L12.0015 9.95281L13.2746 7.74731Z" fill="#210600"/>
<path d="M16.8996 1.47168L13.2748 7.74765L12.0018 9.95316L10.7287 7.74765L7.10394 1.47168L4.89844 2.7447L8.52095 9.02068L10.7287 10.2937L12.0018 11.0296L12.468 10.7599L13.2748 10.2937L15.4803 9.02068L19.1051 2.7447L16.8996 1.47168Z" fill="#210600"/>
<path d="M2.24601 5.39746L0.970703 7.60297L6.90614 11.0289H9.68073H12.0005L2.24601 5.39746Z" fill="#210600"/>
</svg>
