<svg width="18" height="17" viewBox="0 0 18 17" fill="none" xmlns="http://www.w3.org/2000/svg">
<path d="M17.3127 15.7781L11.7941 10.2595C12.6505 9.15234 13.1137 7.79872 13.1137 6.37497C13.1137 4.67073 12.4486 3.07274 11.2458 1.86787C10.0431 0.662997 8.44086 0 6.73874 0C5.03662 0 3.43438 0.665122 2.23164 1.86787C1.02677 3.07061 0.36377 4.67073 0.36377 6.37497C0.36377 8.07709 1.02889 9.67933 2.23164 10.8821C3.43438 12.0869 5.0345 12.7499 6.73874 12.7499C8.16249 12.7499 9.51398 12.2867 10.6211 11.4325L16.1397 16.9489C16.1559 16.9651 16.1751 16.978 16.1962 16.9867C16.2174 16.9955 16.2401 17 16.2629 17C16.2858 17 16.3085 16.9955 16.3297 16.9867C16.3508 16.978 16.37 16.9651 16.3862 16.9489L17.3127 16.0246C17.3289 16.0084 17.3417 15.9892 17.3505 15.968C17.3593 15.9469 17.3638 15.9242 17.3638 15.9013C17.3638 15.8784 17.3593 15.8557 17.3505 15.8346C17.3417 15.8135 17.3289 15.7942 17.3127 15.7781ZM10.1047 9.74096C9.20373 10.6398 8.00949 11.135 6.73874 11.135C5.468 11.135 4.27375 10.6398 3.37276 9.74096C2.47389 8.83996 1.97876 7.64572 1.97876 6.37497C1.97876 5.10423 2.47389 3.90786 3.37276 3.00899C4.27375 2.11012 5.468 1.61499 6.73874 1.61499C8.00949 1.61499 9.20586 2.10799 10.1047 3.00899C11.0036 3.90998 11.4987 5.10423 11.4987 6.37497C11.4987 7.64572 11.0036 8.84209 10.1047 9.74096Z" fill="#F3D7BE"/>
</svg>
