<svg width="18" height="18" viewBox="0 0 18 18" fill="none" xmlns="http://www.w3.org/2000/svg">
<path d="M17.9128 16.2781L12.3942 10.7595C13.2506 9.65234 13.7138 8.29872 13.7138 6.87497C13.7138 5.17073 13.0487 3.57274 11.8459 2.36787C10.6432 1.163 9.04096 0.5 7.33884 0.5C5.63672 0.5 4.03448 1.16512 2.83173 2.36787C1.62686 3.57061 0.963867 5.17073 0.963867 6.87497C0.963867 8.57709 1.62899 10.1793 2.83173 11.3821C4.03448 12.5869 5.6346 13.2499 7.33884 13.2499C8.76258 13.2499 10.1141 12.7867 11.2212 11.9325L16.7398 17.4489C16.756 17.4651 16.7752 17.478 16.7963 17.4867C16.8175 17.4955 16.8402 17.5 16.863 17.5C16.8859 17.5 16.9086 17.4955 16.9298 17.4867C16.9509 17.478 16.9701 17.4651 16.9863 17.4489L17.9128 16.5246C17.929 16.5084 17.9418 16.4892 17.9506 16.468C17.9594 16.4469 17.9639 16.4242 17.9639 16.4013C17.9639 16.3784 17.9594 16.3557 17.9506 16.3346C17.9418 16.3135 17.929 16.2942 17.9128 16.2781ZM10.7048 10.241C9.80383 11.1398 8.60958 11.635 7.33884 11.635C6.06809 11.635 4.87385 11.1398 3.97285 10.241C3.07398 9.33996 2.57886 8.14572 2.57886 6.87497C2.57886 5.60423 3.07398 4.40786 3.97285 3.50899C4.87385 2.61012 6.06809 2.11499 7.33884 2.11499C8.60958 2.11499 9.80595 2.60799 10.7048 3.50899C11.6037 4.40998 12.0988 5.60423 12.0988 6.87497C12.0988 8.14572 11.6037 9.34209 10.7048 10.241Z" fill="#210600"/>
</svg>
