<svg width="18" height="18" viewBox="0 0 18 18" fill="none" xmlns="http://www.w3.org/2000/svg">
<path d="M17.3127 15.9145L11.7941 10.3959C12.6505 9.28881 13.1137 7.93519 13.1137 6.51145C13.1137 4.8072 12.4486 3.20921 11.2458 2.00434C10.0431 0.799472 8.44086 0.136475 6.73874 0.136475C5.03662 0.136475 3.43438 0.801597 2.23164 2.00434C1.02677 3.20709 0.36377 4.8072 0.36377 6.51145C0.36377 8.21356 1.02889 9.81581 2.23164 11.0186C3.43438 12.2234 5.0345 12.8864 6.73874 12.8864C8.16249 12.8864 9.51398 12.4232 10.6211 11.5689L16.1397 17.0854C16.1559 17.1016 16.1751 17.1144 16.1962 17.1232C16.2174 17.132 16.2401 17.1365 16.2629 17.1365C16.2858 17.1365 16.3085 17.132 16.3297 17.1232C16.3508 17.1144 16.37 17.1016 16.3862 17.0854L17.3127 16.161C17.3289 16.1448 17.3417 16.1256 17.3505 16.1045C17.3593 16.0833 17.3638 16.0607 17.3638 16.0378C17.3638 16.0149 17.3593 15.9922 17.3505 15.9711C17.3417 15.9499 17.3289 15.9307 17.3127 15.9145ZM10.1047 9.87743C9.20373 10.7763 8.00949 11.2714 6.73874 11.2714C5.468 11.2714 4.27375 10.7763 3.37276 9.87743C2.47389 8.97644 1.97876 7.78219 1.97876 6.51145C1.97876 5.2407 2.47389 4.04433 3.37276 3.14546C4.27375 2.24659 5.468 1.75147 6.73874 1.75147C8.00949 1.75147 9.20586 2.24447 10.1047 3.14546C11.0036 4.04646 11.4987 5.2407 11.4987 6.51145C11.4987 7.78219 11.0036 8.97856 10.1047 9.87743Z" fill="#A7BDD1"/>
</svg>
