<svg width="1363" height="736" viewBox="0 0 1363 736" fill="none" xmlns="http://www.w3.org/2000/svg">
<path fill-rule="evenodd" clip-rule="evenodd" d="M188.5 111.253V111.268C188.5 168.338 234.765 214.603 291.835 214.603H306.09C363.16 214.603 409.425 168.338 409.425 111.268V111.253C409.425 54.1824 363.16 7.91748 306.09 7.91748H291.835C234.765 7.91748 188.5 54.1824 188.5 111.253ZM455.992 111.282V111.268C455.992 54.197 502.257 7.93213 559.328 7.93213H620.164C677.235 7.93213 723.5 54.197 723.5 111.268V111.282C723.5 167.766 678.182 213.665 621.922 214.603H622.287C608.399 214.603 597.145 225.857 597.145 239.745C597.145 253.634 608.399 264.888 622.287 264.888H621.904C678.172 265.816 723.5 311.719 723.5 368.209V368.224C723.5 425.294 677.235 471.559 620.164 471.559H292.791L292.816 471.573C278.927 471.573 267.673 482.828 267.673 496.716C267.673 510.193 278.271 521.19 291.59 521.829C291.672 521.829 291.754 521.829 291.836 521.829H291.85C348.921 521.829 395.186 568.093 395.186 625.164V625.179C395.186 682.249 348.921 728.514 291.85 728.514H291.836C234.765 728.514 188.5 682.249 188.5 625.179V625.164C188.5 602.753 195.634 582.009 207.755 565.078L207.232 565.074C207.43 565.045 207.627 565.014 207.823 564.983C216.94 552.279 228.867 541.727 242.695 534.238C246.063 523.486 247.126 510.68 247.126 496.935C247.126 484.046 246.928 471.394 244.957 460.339C211.448 443.251 188.5 408.417 188.5 368.224V368.209C188.5 311.138 234.765 264.874 291.835 264.874H558.694C572.185 264.422 582.978 253.347 582.978 239.745C582.978 226.123 572.152 215.036 558.632 214.615C501.882 214.241 455.992 168.121 455.992 111.282Z" fill="#8A8C64"/>
<path d="M237.578 622.899V576.65H231.797V571.11C233.831 570.708 235.651 569.892 237.257 568.661C238.863 567.43 240.121 565.837 241.031 563.883H246.25V622.899H237.578ZM263.693 623.542C261.231 623.542 259.129 622.98 257.39 621.856C255.677 620.731 254.365 619.206 253.455 617.279C252.572 615.325 252.131 613.157 252.131 610.775V576.008C252.131 573.599 252.586 571.431 253.496 569.504C254.432 567.577 255.771 566.051 257.51 564.927C259.25 563.803 261.311 563.241 263.693 563.241C266.102 563.241 268.163 563.816 269.876 564.967C271.615 566.091 272.94 567.617 273.85 569.544C274.787 571.471 275.255 573.626 275.255 576.008V610.775C275.255 613.157 274.787 615.325 273.85 617.279C272.913 619.206 271.575 620.731 269.835 621.856C268.122 622.98 266.075 623.542 263.693 623.542ZM263.693 615.111C264.71 615.111 265.446 614.683 265.901 613.826C266.356 612.943 266.583 611.926 266.583 610.775V576.008C266.583 574.83 266.356 573.813 265.901 572.956C265.446 572.1 264.71 571.672 263.693 571.672C262.676 571.672 261.94 572.127 261.485 573.037C261.03 573.92 260.802 574.91 260.802 576.008V610.775C260.802 611.926 261.03 612.943 261.485 613.826C261.94 614.683 262.676 615.111 263.693 615.111ZM292.078 623.542C289.616 623.542 287.515 622.98 285.775 621.856C284.062 620.731 282.751 619.206 281.841 617.279C280.957 615.325 280.516 613.157 280.516 610.775V576.008C280.516 573.599 280.971 571.431 281.881 569.504C282.818 567.577 284.156 566.051 285.895 564.927C287.635 563.803 289.696 563.241 292.078 563.241C294.487 563.241 296.548 563.816 298.261 564.967C300 566.091 301.325 567.617 302.235 569.544C303.172 571.471 303.64 573.626 303.64 576.008V610.775C303.64 613.157 303.172 615.325 302.235 617.279C301.299 619.206 299.96 620.731 298.221 621.856C296.508 622.98 294.46 623.542 292.078 623.542ZM292.078 615.111C293.095 615.111 293.831 614.683 294.286 613.826C294.741 612.943 294.969 611.926 294.969 610.775V576.008C294.969 574.83 294.741 573.813 294.286 572.956C293.831 572.1 293.095 571.672 292.078 571.672C291.061 571.672 290.325 572.127 289.87 573.037C289.415 573.92 289.188 574.91 289.188 576.008V610.775C289.188 611.926 289.415 612.943 289.87 613.826C290.325 614.683 291.061 615.111 292.078 615.111ZM312.795 622.899L334.475 563.883H339.613L318.175 622.899H312.795ZM315.043 594.475C313.063 594.475 311.497 593.82 310.346 592.508C309.222 591.17 308.66 589.47 308.66 587.409V570.347C308.66 568.286 309.222 566.586 310.346 565.248C311.497 563.91 313.063 563.241 315.043 563.241C316.997 563.241 318.55 563.91 319.701 565.248C320.851 566.586 321.427 568.286 321.427 570.347V587.409C321.427 589.47 320.851 591.17 319.701 592.508C318.55 593.82 316.997 594.475 315.043 594.475ZM315.043 590.18C315.659 590.18 316.087 589.925 316.328 589.417C316.569 588.881 316.689 588.212 316.689 587.409V570.347C316.689 569.517 316.569 568.848 316.328 568.34C316.087 567.831 315.659 567.577 315.043 567.577C314.401 567.577 313.946 567.831 313.678 568.34C313.438 568.821 313.317 569.49 313.317 570.347V587.409C313.317 588.239 313.438 588.908 313.678 589.417C313.946 589.925 314.401 590.18 315.043 590.18ZM337.606 623.542C335.626 623.542 334.06 622.886 332.909 621.575C331.785 620.236 331.223 618.537 331.223 616.476V599.413C331.223 597.353 331.785 595.653 332.909 594.315C334.06 592.976 335.626 592.307 337.606 592.307C339.56 592.307 341.112 592.976 342.263 594.315C343.414 595.653 343.989 597.353 343.989 599.413V616.476C343.989 618.537 343.414 620.236 342.263 621.575C341.112 622.886 339.56 623.542 337.606 623.542ZM337.606 619.246C338.222 619.246 338.65 618.992 338.891 618.483C339.132 617.948 339.252 617.279 339.252 616.476V599.413C339.252 598.584 339.132 597.915 338.891 597.406C338.65 596.898 338.222 596.643 337.606 596.643C336.964 596.643 336.509 596.898 336.241 597.406C336 597.888 335.88 598.557 335.88 599.413V616.476C335.88 617.306 336 617.975 336.241 618.483C336.509 618.992 336.964 619.246 337.606 619.246Z" fill="#A7BDD1"/>
<path d="M259.204 653.185V659.899H257.218V653.185H256.515V651.339H257.218V648.034C257.218 646.956 257.405 646.194 257.78 645.749C258.296 645.128 259.046 644.817 260.03 644.817C260.382 644.817 260.824 644.92 261.357 645.125V647.146L261.155 647.041C260.728 646.824 260.376 646.716 260.101 646.716C259.749 646.716 259.512 646.842 259.389 647.094C259.266 647.34 259.204 647.814 259.204 648.518V651.339H261.357V653.185H259.204ZM262.324 655.558C262.324 654.321 262.767 653.27 263.651 652.402C264.536 651.535 265.614 651.102 266.886 651.102C268.163 651.102 269.247 651.538 270.138 652.411C271.017 653.284 271.456 654.356 271.456 655.628C271.456 656.911 271.014 657.986 270.129 658.854C269.238 659.715 268.146 660.146 266.851 660.146C265.567 660.146 264.492 659.706 263.625 658.827C262.758 657.96 262.324 656.87 262.324 655.558ZM264.346 655.593C264.346 656.448 264.574 657.125 265.031 657.623C265.5 658.127 266.118 658.379 266.886 658.379C267.659 658.379 268.277 658.13 268.74 657.632C269.203 657.134 269.435 656.469 269.435 655.637C269.435 654.805 269.203 654.14 268.74 653.642C268.271 653.138 267.653 652.886 266.886 652.886C266.13 652.886 265.518 653.138 265.049 653.642C264.58 654.146 264.346 654.796 264.346 655.593ZM280.219 651.708V654.336C279.768 653.785 279.363 653.407 279.006 653.202C278.654 652.991 278.241 652.886 277.767 652.886C277.022 652.886 276.404 653.146 275.912 653.668C275.42 654.189 275.174 654.843 275.174 655.628C275.174 656.431 275.411 657.09 275.886 657.605C276.366 658.121 276.979 658.379 277.723 658.379C278.197 658.379 278.616 658.276 278.979 658.071C279.331 657.872 279.744 657.485 280.219 656.911V659.521C279.416 659.938 278.613 660.146 277.811 660.146C276.486 660.146 275.379 659.718 274.488 658.862C273.598 658.001 273.152 656.932 273.152 655.654C273.152 654.377 273.604 653.299 274.506 652.42C275.408 651.541 276.516 651.102 277.828 651.102C278.672 651.102 279.469 651.304 280.219 651.708ZM281.73 655.558C281.73 654.321 282.173 653.27 283.058 652.402C283.942 651.535 285.021 651.102 286.292 651.102C287.569 651.102 288.653 651.538 289.544 652.411C290.423 653.284 290.862 654.356 290.862 655.628C290.862 656.911 290.42 657.986 289.535 658.854C288.645 659.715 287.552 660.146 286.257 660.146C284.974 660.146 283.898 659.706 283.031 658.827C282.164 657.96 281.73 656.87 281.73 655.558ZM283.752 655.593C283.752 656.448 283.98 657.125 284.438 657.623C284.906 658.127 285.524 658.379 286.292 658.379C287.065 658.379 287.684 658.13 288.146 657.632C288.609 657.134 288.841 656.469 288.841 655.637C288.841 654.805 288.609 654.14 288.146 653.642C287.678 653.138 287.06 652.886 286.292 652.886C285.536 652.886 284.924 653.138 284.455 653.642C283.986 654.146 283.752 654.796 283.752 655.593ZM306.313 656.085H300.179C300.231 656.788 300.46 657.348 300.864 657.764C301.269 658.174 301.787 658.379 302.42 658.379C302.912 658.379 303.319 658.262 303.642 658.027C303.958 657.793 304.318 657.359 304.723 656.727L306.393 657.658C306.135 658.098 305.862 658.476 305.575 658.792C305.288 659.103 304.98 659.36 304.652 659.565C304.324 659.765 303.97 659.911 303.589 660.005C303.208 660.099 302.795 660.146 302.35 660.146C301.072 660.146 300.047 659.735 299.273 658.915C298.5 658.089 298.113 656.993 298.113 655.628C298.113 654.274 298.488 653.179 299.238 652.341C299.994 651.515 300.996 651.102 302.244 651.102C303.504 651.102 304.5 651.503 305.232 652.306C305.959 653.103 306.322 654.207 306.322 655.619L306.313 656.085ZM304.283 654.468C304.008 653.413 303.343 652.886 302.288 652.886C302.048 652.886 301.822 652.924 301.611 653C301.4 653.07 301.207 653.176 301.031 653.316C300.861 653.451 300.715 653.615 300.592 653.809C300.469 654.002 300.375 654.222 300.311 654.468H304.283ZM308.484 651.339H310.462V652.13C310.843 651.731 311.168 651.462 311.438 651.321C311.725 651.175 312.085 651.102 312.519 651.102C313.485 651.102 314.25 651.523 314.812 652.367C315.434 651.523 316.274 651.102 317.335 651.102C319.263 651.102 320.227 652.271 320.227 654.608V659.899H318.24V655.145C318.24 654.324 318.141 653.744 317.941 653.404C317.736 653.059 317.399 652.886 316.931 652.886C316.386 652.886 315.987 653.091 315.735 653.501C315.489 653.911 315.366 654.57 315.366 655.479V659.899H313.38V655.171C313.38 653.647 312.94 652.886 312.062 652.886C311.505 652.886 311.098 653.094 310.84 653.51C310.588 653.926 310.462 654.582 310.462 655.479V659.899H308.484V651.339ZM234.27 677.185V683.899H232.292V677.185H231.448V675.339H232.292V672.201H234.27V675.339H235.808V677.185H234.27ZM243.621 675.339H245.607V683.899H243.621V683.003C242.807 683.765 241.931 684.146 240.993 684.146C239.81 684.146 238.831 683.718 238.058 682.862C237.29 681.989 236.906 680.899 236.906 679.593C236.906 678.31 237.29 677.24 238.058 676.385C238.825 675.529 239.786 675.102 240.94 675.102C241.937 675.102 242.83 675.512 243.621 676.332V675.339ZM238.928 679.593C238.928 680.413 239.147 681.081 239.587 681.597C240.038 682.118 240.606 682.379 241.292 682.379C242.024 682.379 242.616 682.127 243.067 681.623C243.519 681.102 243.744 680.439 243.744 679.637C243.744 678.834 243.519 678.172 243.067 677.65C242.616 677.141 242.03 676.886 241.31 676.886C240.63 676.886 240.062 677.144 239.604 677.659C239.153 678.181 238.928 678.825 238.928 679.593ZM250.081 669.055V683.899H248.104V669.055H250.081ZM260.382 680.085H254.247C254.3 680.788 254.528 681.348 254.933 681.764C255.337 682.174 255.855 682.379 256.488 682.379C256.98 682.379 257.388 682.262 257.71 682.027C258.026 681.793 258.387 681.359 258.791 680.727L260.461 681.658C260.203 682.098 259.931 682.476 259.644 682.792C259.356 683.103 259.049 683.36 258.721 683.565C258.393 683.765 258.038 683.911 257.657 684.005C257.276 684.099 256.863 684.146 256.418 684.146C255.141 684.146 254.115 683.735 253.342 682.915C252.568 682.089 252.182 680.993 252.182 679.628C252.182 678.274 252.557 677.179 253.307 676.341C254.062 675.515 255.064 675.102 256.312 675.102C257.572 675.102 258.568 675.503 259.301 676.306C260.027 677.103 260.391 678.207 260.391 679.619L260.382 680.085ZM258.352 678.468C258.076 677.413 257.411 676.886 256.356 676.886C256.116 676.886 255.891 676.924 255.68 677C255.469 677.07 255.275 677.176 255.1 677.316C254.93 677.451 254.783 677.615 254.66 677.809C254.537 678.002 254.443 678.222 254.379 678.468H258.352ZM262.553 675.339H264.539V676.13C265.23 675.444 266.01 675.102 266.877 675.102C267.873 675.102 268.649 675.415 269.206 676.042C269.687 676.575 269.927 677.445 269.927 678.652V683.899H267.94V679.118C267.94 678.274 267.823 677.691 267.589 677.369C267.36 677.041 266.944 676.877 266.341 676.877C265.685 676.877 265.219 677.094 264.943 677.527C264.674 677.955 264.539 678.702 264.539 679.769V683.899H262.553V675.339ZM274.471 677.185V683.899H272.493V677.185H271.649V675.339H272.493V672.201H274.471V675.339H276.009V677.185H274.471ZM277.072 679.558C277.072 678.321 277.515 677.27 278.399 676.402C279.284 675.535 280.362 675.102 281.634 675.102C282.911 675.102 283.995 675.538 284.886 676.411C285.765 677.284 286.204 678.356 286.204 679.628C286.204 680.911 285.762 681.986 284.877 682.854C283.986 683.715 282.894 684.146 281.599 684.146C280.315 684.146 279.24 683.706 278.373 682.827C277.506 681.96 277.072 680.87 277.072 679.558ZM279.094 679.593C279.094 680.448 279.322 681.125 279.779 681.623C280.248 682.127 280.866 682.379 281.634 682.379C282.407 682.379 283.025 682.13 283.488 681.632C283.951 681.134 284.183 680.469 284.183 679.637C284.183 678.805 283.951 678.14 283.488 677.642C283.02 677.138 282.401 676.886 281.634 676.886C280.878 676.886 280.266 677.138 279.797 677.642C279.328 678.146 279.094 678.796 279.094 679.593ZM293.279 676.798L291.645 677.668C291.387 677.141 291.067 676.877 290.687 676.877C290.505 676.877 290.35 676.938 290.221 677.062C290.092 677.179 290.027 677.331 290.027 677.519C290.027 677.847 290.408 678.172 291.17 678.494C292.219 678.945 292.925 679.361 293.288 679.742C293.651 680.123 293.833 680.636 293.833 681.28C293.833 682.106 293.528 682.798 292.919 683.354C292.327 683.882 291.612 684.146 290.774 684.146C289.339 684.146 288.322 683.445 287.725 682.045L289.412 681.263C289.646 681.673 289.825 681.934 289.948 682.045C290.188 682.268 290.476 682.379 290.81 682.379C291.478 682.379 291.812 682.074 291.812 681.465C291.812 681.113 291.554 680.785 291.038 680.48C290.839 680.381 290.64 680.284 290.44 680.19C290.241 680.097 290.039 680 289.834 679.9C289.26 679.619 288.855 679.338 288.621 679.057C288.322 678.699 288.173 678.239 288.173 677.677C288.173 676.933 288.428 676.317 288.938 675.831C289.459 675.345 290.092 675.102 290.836 675.102C291.932 675.102 292.746 675.667 293.279 676.798ZM303.149 669.055V683.899H301.172V669.055H303.149ZM305.25 679.558C305.25 678.321 305.692 677.27 306.577 676.402C307.462 675.535 308.54 675.102 309.812 675.102C311.089 675.102 312.173 675.538 313.063 676.411C313.942 677.284 314.382 678.356 314.382 679.628C314.382 680.911 313.939 681.986 313.055 682.854C312.164 683.715 311.071 684.146 309.776 684.146C308.493 684.146 307.418 683.706 306.551 682.827C305.684 681.96 305.25 680.87 305.25 679.558ZM307.271 679.593C307.271 680.448 307.5 681.125 307.957 681.623C308.426 682.127 309.044 682.379 309.812 682.379C310.585 682.379 311.203 682.13 311.666 681.632C312.129 681.134 312.36 680.469 312.36 679.637C312.36 678.805 312.129 678.14 311.666 677.642C311.197 677.138 310.579 676.886 309.812 676.886C309.056 676.886 308.443 677.138 307.975 677.642C307.506 678.146 307.271 678.796 307.271 679.593ZM323.145 675.708V678.336C322.693 677.785 322.289 677.407 321.932 677.202C321.58 676.991 321.167 676.886 320.692 676.886C319.948 676.886 319.33 677.146 318.838 677.668C318.346 678.189 318.1 678.843 318.1 679.628C318.1 680.431 318.337 681.09 318.812 681.605C319.292 682.121 319.904 682.379 320.648 682.379C321.123 682.379 321.542 682.276 321.905 682.071C322.257 681.872 322.67 681.485 323.145 680.911V683.521C322.342 683.938 321.539 684.146 320.736 684.146C319.412 684.146 318.305 683.718 317.414 682.862C316.523 682.001 316.078 680.932 316.078 679.654C316.078 678.377 316.529 677.299 317.432 676.42C318.334 675.541 319.441 675.102 320.754 675.102C321.598 675.102 322.395 675.304 323.145 675.708ZM331.371 675.339H333.357V683.899H331.371V683.003C330.557 683.765 329.681 684.146 328.743 684.146C327.56 684.146 326.581 683.718 325.808 682.862C325.04 681.989 324.656 680.899 324.656 679.593C324.656 678.31 325.04 677.24 325.808 676.385C326.575 675.529 327.536 675.102 328.69 675.102C329.687 675.102 330.58 675.512 331.371 676.332V675.339ZM326.678 679.593C326.678 680.413 326.897 681.081 327.337 681.597C327.788 682.118 328.356 682.379 329.042 682.379C329.774 682.379 330.366 682.127 330.817 681.623C331.269 681.102 331.494 680.439 331.494 679.637C331.494 678.834 331.269 678.172 330.817 677.65C330.366 677.141 329.78 676.886 329.06 676.886C328.38 676.886 327.812 677.144 327.354 677.659C326.903 678.181 326.678 678.825 326.678 679.593ZM337.831 675.339V683.899H335.854V675.339H337.831ZM335.555 671.779C335.555 671.434 335.681 671.135 335.933 670.883C336.185 670.631 336.486 670.505 336.838 670.505C337.195 670.505 337.5 670.631 337.752 670.883C338.004 671.129 338.13 671.431 338.13 671.788C338.13 672.146 338.004 672.45 337.752 672.702C337.506 672.954 337.204 673.08 336.847 673.08C336.489 673.08 336.185 672.954 335.933 672.702C335.681 672.45 335.555 672.143 335.555 671.779ZM345.311 676.798L343.676 677.668C343.418 677.141 343.099 676.877 342.718 676.877C342.536 676.877 342.381 676.938 342.252 677.062C342.123 677.179 342.059 677.331 342.059 677.519C342.059 677.847 342.439 678.172 343.201 678.494C344.25 678.945 344.956 679.361 345.319 679.742C345.683 680.123 345.864 680.636 345.864 681.28C345.864 682.106 345.56 682.798 344.95 683.354C344.358 683.882 343.644 684.146 342.806 684.146C341.37 684.146 340.354 683.445 339.756 682.045L341.443 681.263C341.678 681.673 341.856 681.934 341.979 682.045C342.22 682.268 342.507 682.379 342.841 682.379C343.509 682.379 343.843 682.074 343.843 681.465C343.843 681.113 343.585 680.785 343.069 680.48C342.87 680.381 342.671 680.284 342.472 680.19C342.272 680.097 342.07 680 341.865 679.9C341.291 679.619 340.887 679.338 340.652 679.057C340.354 678.699 340.204 678.239 340.204 677.677C340.204 676.933 340.459 676.317 340.969 675.831C341.49 675.345 342.123 675.102 342.867 675.102C343.963 675.102 344.777 675.667 345.311 676.798Z" fill="#210600"/>
<g clip-path="url(#clip0_2105_4252)">
<path d="M595.482 36.8994H589.902V63.4601H595.482V36.8994Z" fill="#A7BDD1"/>
<path d="M581.961 39.0265L577.129 41.8164L590.585 65.123L595.417 62.3331L581.961 39.0265Z" fill="#A7BDD1"/>
<path d="M603.421 39.0266L590.12 62.0645L594.953 64.8543L608.253 41.8164L603.421 39.0266Z" fill="#A7BDD1"/>
<path d="M592.692 59.9673L587.113 63.191L568.529 52.4606L571.319 47.6274L592.692 59.9673Z" fill="#A7BDD1"/>
<path d="M616.856 52.4606L598.272 63.191L592.692 59.9673L614.066 47.6274L616.856 52.4606Z" fill="#A7BDD1"/>
<path d="M618.982 59.9673H566.401V65.547H618.982V59.9673Z" fill="#A7BDD1"/>
<path d="M595.482 78.8638H589.902V89.4803H595.482V78.8638Z" fill="#A7BDD1"/>
<path d="M616.856 73.919L614.066 78.7522L592.692 66.4123L571.319 78.7522L568.529 73.919L587.113 63.191L592.692 59.9673L598.272 63.191L616.856 73.919Z" fill="#A7BDD1"/>
<path d="M543.962 126.307V100.459H549.517C550.533 100.459 551.43 100.592 552.203 100.859C552.976 101.126 553.679 101.598 554.309 102.274C554.94 102.953 555.373 103.746 555.616 104.652C555.858 105.559 555.979 106.788 555.979 108.337C555.979 109.498 555.912 110.479 555.781 111.277C555.647 112.077 555.364 112.826 554.927 113.528C554.418 114.377 553.742 115.036 552.894 115.506C552.045 115.979 550.933 116.214 549.554 116.214H547.666V126.307H543.962ZM547.666 103.944V112.731H549.445C550.194 112.731 550.775 112.622 551.187 112.404C551.599 112.186 551.9 111.883 552.094 111.497C552.288 111.134 552.402 110.688 552.438 110.154C552.475 109.621 552.491 109.03 552.491 108.375C552.491 107.772 552.479 107.195 552.455 106.652C552.431 106.107 552.322 105.629 552.128 105.217C551.934 104.805 551.643 104.49 551.258 104.274C550.87 104.056 550.315 103.947 549.588 103.947H547.663L547.666 103.944Z" fill="#A7BDD1"/>
<path d="M558.27 126.307V100.459H561.973V126.307H558.27Z" fill="#A7BDD1"/>
<path d="M563.881 126.307L569.652 100.459H572.738L578.509 126.307H574.805L573.717 120.752H568.671L567.582 126.307H563.879H563.881ZM573.029 117.268L571.213 107.903H571.141L569.325 117.268H573.029Z" fill="#A7BDD1"/>
<path d="M598.118 100.461L594.269 126.309H590.784L587.953 109.539H587.88L585.085 126.309H581.6L577.75 100.461H581.672L583.524 116.871H583.597L586.501 100.461H589.332L592.345 117.268H592.417L594.196 100.461H598.116H598.118Z" fill="#A7BDD1"/>
<path d="M599.708 106.56C599.708 105.52 599.89 104.599 600.254 103.802C600.617 103.004 601.1 102.338 601.706 101.804C602.287 101.295 602.947 100.91 603.683 100.643C604.42 100.377 605.167 100.243 605.916 100.243C606.665 100.243 607.409 100.377 608.148 100.643C608.885 100.91 609.559 101.298 610.162 101.804C610.744 102.338 611.214 103.002 611.578 103.802C611.941 104.602 612.123 105.52 612.123 106.56V120.209C612.123 121.297 611.941 122.23 611.578 123.003C611.214 123.779 610.744 124.419 610.162 124.928C609.556 125.461 608.885 125.861 608.148 126.125C607.409 126.392 606.665 126.525 605.916 126.525C605.167 126.525 604.42 126.392 603.683 126.125C602.944 125.859 602.285 125.459 601.706 124.928C601.1 124.419 600.617 123.779 600.254 123.003C599.89 122.23 599.708 121.297 599.708 120.209V106.56ZM603.412 120.209C603.412 121.103 603.659 121.765 604.156 122.187C604.65 122.611 605.24 122.822 605.916 122.822C606.592 122.822 607.181 122.611 607.675 122.187C608.172 121.762 608.42 121.103 608.42 120.209V106.56C608.42 105.666 608.172 105.006 607.675 104.582C607.179 104.158 606.592 103.947 605.916 103.947C605.24 103.947 604.65 104.16 604.156 104.582C603.659 105.006 603.412 105.666 603.412 106.56V120.209Z" fill="#A7BDD1"/>
<path d="M614.496 106.56C614.496 105.52 614.678 104.599 615.041 103.802C615.405 103.004 615.887 102.338 616.493 101.804C617.075 101.295 617.734 100.91 618.471 100.643C619.208 100.377 619.955 100.243 620.704 100.243C621.453 100.243 622.197 100.377 622.936 100.643C623.673 100.91 624.347 101.298 624.95 101.804C625.532 102.338 626.002 103.002 626.366 103.802C626.729 104.602 626.911 105.52 626.911 106.56V120.209C626.911 121.297 626.729 122.23 626.366 123.003C626.002 123.779 625.532 124.419 624.95 124.928C624.344 125.461 623.673 125.861 622.936 126.125C622.197 126.392 621.453 126.525 620.704 126.525C619.955 126.525 619.208 126.392 618.471 126.125C617.732 125.859 617.073 125.459 616.493 124.928C615.887 124.419 615.405 123.779 615.041 123.003C614.678 122.23 614.496 121.297 614.496 120.209V106.56ZM618.2 120.209C618.2 121.103 618.447 121.765 618.944 122.187C619.438 122.611 620.027 122.822 620.704 122.822C621.38 122.822 621.969 122.611 622.463 122.187C622.96 121.762 623.207 121.103 623.207 120.209V106.56C623.207 105.666 622.96 105.006 622.463 104.582C621.966 104.158 621.38 103.947 620.704 103.947C620.027 103.947 619.438 104.16 618.944 104.582C618.447 105.006 618.2 105.666 618.2 106.56V120.209Z" fill="#A7BDD1"/>
<path d="M629.439 126.307V100.459H634.922C637.053 100.459 638.667 101.041 639.767 102.202C640.868 103.363 641.42 105.009 641.42 107.139V119.227C641.42 121.648 640.834 123.432 639.661 124.581C638.487 125.73 636.798 126.305 634.597 126.305H629.442L629.439 126.307ZM633.143 103.944V122.822H634.849C635.889 122.822 636.628 122.562 637.065 122.041C637.501 121.52 637.719 120.703 637.719 119.591V107.139C637.719 106.124 637.513 105.336 637.101 104.778C636.689 104.221 635.94 103.944 634.849 103.944H633.143Z" fill="#A7BDD1"/>
</g>
<path d="M562.474 147.685V150.11C561.291 149.12 560.066 148.625 558.801 148.625C557.406 148.625 556.231 149.126 555.276 150.128C554.315 151.124 553.835 152.343 553.835 153.784C553.835 155.208 554.315 156.409 555.276 157.388C556.237 158.366 557.415 158.855 558.809 158.855C559.53 158.855 560.142 158.738 560.646 158.504C560.927 158.387 561.218 158.229 561.516 158.029C561.821 157.83 562.14 157.59 562.474 157.309V159.778C561.302 160.44 560.072 160.771 558.783 160.771C556.844 160.771 555.188 160.095 553.817 158.741C552.452 157.376 551.769 155.729 551.769 153.802C551.769 152.073 552.341 150.532 553.483 149.179C554.889 147.521 556.709 146.691 558.941 146.691C560.16 146.691 561.338 147.022 562.474 147.685ZM566.667 151.965V156.878C566.667 158.296 567.226 159.005 568.345 159.005C569.465 159.005 570.024 158.296 570.024 156.878V151.965H572.002V156.922C572.002 157.607 571.917 158.199 571.747 158.697C571.583 159.143 571.299 159.544 570.894 159.901C570.226 160.481 569.377 160.771 568.345 160.771C567.32 160.771 566.473 160.481 565.805 159.901C565.395 159.544 565.105 159.143 564.935 158.697C564.771 158.299 564.689 157.707 564.689 156.922V151.965H566.667ZM574.498 151.965H576.475V152.729C576.839 152.349 577.161 152.088 577.442 151.947C577.729 151.801 578.069 151.728 578.462 151.728C578.983 151.728 579.528 151.897 580.096 152.237L579.191 154.048C578.816 153.778 578.45 153.644 578.093 153.644C577.014 153.644 576.475 154.458 576.475 156.087V160.525H574.498V151.965ZM587.418 151.965H589.404V160.525H587.418V159.629C586.603 160.391 585.727 160.771 584.79 160.771C583.606 160.771 582.628 160.344 581.854 159.488C581.087 158.615 580.703 157.525 580.703 156.219C580.703 154.936 581.087 153.866 581.854 153.011C582.622 152.155 583.583 151.728 584.737 151.728C585.733 151.728 586.627 152.138 587.418 152.958V151.965ZM582.724 156.219C582.724 157.039 582.944 157.707 583.384 158.223C583.835 158.744 584.403 159.005 585.089 159.005C585.821 159.005 586.413 158.753 586.864 158.249C587.315 157.728 587.541 157.065 587.541 156.263C587.541 155.46 587.315 154.798 586.864 154.276C586.413 153.767 585.827 153.512 585.106 153.512C584.427 153.512 583.858 153.77 583.401 154.285C582.95 154.807 582.724 155.451 582.724 156.219ZM598.211 145.681H600.197V160.525H598.211V159.629C597.431 160.391 596.55 160.771 595.565 160.771C594.393 160.771 593.421 160.344 592.647 159.488C591.88 158.615 591.496 157.525 591.496 156.219C591.496 154.941 591.88 153.875 592.647 153.02C593.409 152.158 594.367 151.728 595.521 151.728C596.523 151.728 597.42 152.138 598.211 152.958V145.681ZM593.517 156.219C593.517 157.039 593.737 157.707 594.177 158.223C594.628 158.744 595.196 159.005 595.882 159.005C596.614 159.005 597.206 158.753 597.657 158.249C598.108 157.728 598.334 157.065 598.334 156.263C598.334 155.46 598.108 154.798 597.657 154.276C597.206 153.767 596.62 153.512 595.899 153.512C595.219 153.512 594.651 153.77 594.194 154.285C593.743 154.807 593.517 155.451 593.517 156.219ZM602.289 156.184C602.289 154.947 602.731 153.896 603.616 153.028C604.501 152.161 605.579 151.728 606.85 151.728C608.128 151.728 609.212 152.164 610.102 153.037C610.981 153.91 611.421 154.982 611.421 156.254C611.421 157.537 610.978 158.612 610.094 159.479C609.203 160.341 608.11 160.771 606.815 160.771C605.532 160.771 604.457 160.332 603.59 159.453C602.722 158.586 602.289 157.496 602.289 156.184ZM604.31 156.219C604.31 157.074 604.539 157.751 604.996 158.249C605.465 158.753 606.083 159.005 606.85 159.005C607.624 159.005 608.242 158.756 608.705 158.258C609.168 157.76 609.399 157.095 609.399 156.263C609.399 155.431 609.168 154.766 608.705 154.268C608.236 153.764 607.618 153.512 606.85 153.512C606.094 153.512 605.482 153.764 605.013 154.268C604.545 154.771 604.31 155.422 604.31 156.219ZM613.521 151.965H615.499V152.729C615.862 152.349 616.184 152.088 616.466 151.947C616.753 151.801 617.093 151.728 617.485 151.728C618.007 151.728 618.552 151.897 619.12 152.237L618.215 154.048C617.84 153.778 617.473 153.644 617.116 153.644C616.038 153.644 615.499 154.458 615.499 156.087V160.525H613.521V151.965ZM622.512 151.965V160.525H620.535V151.965H622.512ZM620.236 148.405C620.236 148.06 620.362 147.761 620.614 147.509C620.866 147.257 621.168 147.131 621.519 147.131C621.877 147.131 622.181 147.257 622.433 147.509C622.685 147.755 622.811 148.057 622.811 148.414C622.811 148.771 622.685 149.076 622.433 149.328C622.187 149.58 621.885 149.706 621.528 149.706C621.171 149.706 620.866 149.58 620.614 149.328C620.362 149.076 620.236 148.769 620.236 148.405ZM631.328 151.965H633.314V160.525H631.328V159.629C630.513 160.391 629.637 160.771 628.7 160.771C627.516 160.771 626.538 160.344 625.764 159.488C624.997 158.615 624.613 157.525 624.613 156.219C624.613 154.936 624.997 153.866 625.764 153.011C626.532 152.155 627.493 151.728 628.647 151.728C629.643 151.728 630.537 152.138 631.328 152.958V151.965ZM626.635 156.219C626.635 157.039 626.854 157.707 627.294 158.223C627.745 158.744 628.313 159.005 628.999 159.005C629.731 159.005 630.323 158.753 630.774 158.249C631.225 157.728 631.451 157.065 631.451 156.263C631.451 155.46 631.225 154.798 630.774 154.276C630.323 153.767 629.737 153.512 629.016 153.512C628.337 153.512 627.768 153.77 627.311 154.285C626.86 154.807 626.635 155.451 626.635 156.219Z" fill="#210600"/>
<path d="M236.712 398.542C234.892 398.542 233.313 398.261 231.975 397.699C230.663 397.11 229.566 396.294 228.683 395.25C227.826 394.179 227.144 392.921 226.635 391.476C226.127 390.004 225.765 388.371 225.551 386.578C225.337 384.785 225.23 382.884 225.23 380.877H233.741C233.741 382.59 233.795 384.223 233.902 385.775C234.009 387.301 234.276 388.545 234.705 389.509C235.133 390.445 235.802 390.914 236.712 390.914C237.622 390.914 238.291 390.553 238.719 389.83C239.174 389.08 239.469 388.144 239.603 387.02C239.763 385.869 239.844 384.678 239.844 383.446C239.844 380.235 239.616 377.786 239.161 376.1C238.733 374.387 237.957 373.182 236.833 372.486C235.735 371.79 234.169 371.376 232.135 371.242V364.015C234.169 363.908 235.682 363.534 236.672 362.891C237.662 362.249 238.318 361.192 238.639 359.72C238.96 358.221 239.121 356.146 239.121 353.497C239.121 352.185 239.067 350.954 238.96 349.803C238.88 348.626 238.652 347.675 238.278 346.953C237.903 346.23 237.274 345.869 236.391 345.869C235.561 345.869 234.932 346.351 234.504 347.314C234.076 348.251 233.781 349.482 233.621 351.008C233.487 352.533 233.42 354.166 233.42 355.906H224.909C224.909 353.336 225.083 350.981 225.431 348.84C225.779 346.672 226.381 344.798 227.237 343.219C228.094 341.64 229.258 340.422 230.73 339.566C232.229 338.683 234.116 338.241 236.391 338.241C238.211 338.241 239.817 338.589 241.209 339.285C242.627 339.954 243.805 340.891 244.741 342.095C245.705 343.299 246.428 344.691 246.909 346.27C247.391 347.849 247.632 349.536 247.632 351.329C247.632 354.005 247.445 356.428 247.07 358.595C246.695 360.737 246.133 362.557 245.384 364.055C244.661 365.528 243.724 366.638 242.574 367.388C244.474 368.833 245.906 370.907 246.869 373.61C247.86 376.314 248.355 379.378 248.355 382.804C248.355 385.507 247.913 388.063 247.03 390.472C246.173 392.854 244.889 394.795 243.176 396.294C241.463 397.792 239.308 398.542 236.712 398.542Z" fill="#A7BDD1"/>
<path d="M280.796 355.833H286.403V356.281C286.403 357.301 286.283 358.203 286.043 358.988C285.809 359.715 285.413 360.395 284.856 361.027C283.597 362.445 281.994 363.154 280.049 363.154C278.15 363.154 276.524 362.469 275.171 361.098C273.817 359.721 273.141 358.068 273.141 356.141C273.141 354.172 273.829 352.502 275.206 351.131C276.583 349.754 278.259 349.065 280.233 349.065C281.294 349.065 282.284 349.282 283.204 349.716C284.083 350.149 284.947 350.853 285.797 351.825L284.338 353.223C283.225 351.74 281.868 350.999 280.269 350.999C278.833 350.999 277.629 351.494 276.656 352.484C275.684 353.457 275.197 354.676 275.197 356.141C275.197 357.652 275.739 358.897 276.823 359.876C277.837 360.784 278.936 361.238 280.119 361.238C281.127 361.238 282.032 360.898 282.835 360.219C283.638 359.533 284.086 358.713 284.18 357.758H280.796V355.833ZM288.609 354.339H290.587V355.104C290.95 354.723 291.272 354.462 291.554 354.321C291.841 354.175 292.181 354.102 292.573 354.102C293.095 354.102 293.64 354.271 294.208 354.611L293.303 356.422C292.928 356.152 292.562 356.018 292.204 356.018C291.126 356.018 290.587 356.832 290.587 358.461V362.899H288.609V354.339ZM301.529 354.339H303.516V362.899H301.529V362.003C300.715 362.765 299.839 363.146 298.901 363.146C297.718 363.146 296.739 362.718 295.966 361.862C295.198 360.989 294.814 359.899 294.814 358.593C294.814 357.31 295.198 356.24 295.966 355.385C296.733 354.529 297.694 354.102 298.849 354.102C299.845 354.102 300.738 354.512 301.529 355.332V354.339ZM296.836 358.593C296.836 359.413 297.056 360.081 297.495 360.597C297.946 361.118 298.515 361.379 299.2 361.379C299.933 361.379 300.524 361.127 300.976 360.623C301.427 360.102 301.652 359.439 301.652 358.637C301.652 357.834 301.427 357.172 300.976 356.65C300.524 356.141 299.938 355.886 299.218 355.886C298.538 355.886 297.97 356.144 297.513 356.659C297.062 357.181 296.836 357.825 296.836 358.593ZM306.012 354.339H307.998V355.13C308.689 354.444 309.469 354.102 310.336 354.102C311.332 354.102 312.108 354.415 312.665 355.042C313.146 355.575 313.386 356.445 313.386 357.652V362.899H311.399V358.118C311.399 357.274 311.282 356.691 311.048 356.369C310.819 356.041 310.403 355.877 309.8 355.877C309.144 355.877 308.678 356.094 308.402 356.527C308.133 356.955 307.998 357.702 307.998 358.769V362.899H306.012V354.339ZM322.201 348.055H324.188V362.899H322.201V362.003C321.422 362.765 320.54 363.146 319.556 363.146C318.384 363.146 317.411 362.718 316.638 361.862C315.87 360.989 315.486 359.899 315.486 358.593C315.486 357.315 315.87 356.249 316.638 355.394C317.399 354.532 318.357 354.102 319.512 354.102C320.514 354.102 321.41 354.512 322.201 355.332V348.055ZM317.508 358.593C317.508 359.413 317.728 360.081 318.167 360.597C318.618 361.118 319.187 361.379 319.872 361.379C320.604 361.379 321.196 361.127 321.647 360.623C322.099 360.102 322.324 359.439 322.324 358.637C322.324 357.834 322.099 357.172 321.647 356.65C321.196 356.141 320.61 355.886 319.89 355.886C319.21 355.886 318.642 356.144 318.185 356.659C317.733 357.181 317.508 357.825 317.508 358.593ZM334.479 359.085H328.345C328.397 359.788 328.626 360.348 329.03 360.764C329.435 361.174 329.953 361.379 330.586 361.379C331.078 361.379 331.485 361.262 331.808 361.027C332.124 360.793 332.484 360.359 332.889 359.727L334.559 360.658C334.301 361.098 334.028 361.476 333.741 361.792C333.454 362.103 333.146 362.36 332.818 362.565C332.49 362.765 332.136 362.911 331.755 363.005C331.374 363.099 330.961 363.146 330.516 363.146C329.238 363.146 328.213 362.735 327.439 361.915C326.666 361.089 326.279 359.993 326.279 358.628C326.279 357.274 326.654 356.179 327.404 355.341C328.16 354.515 329.162 354.102 330.41 354.102C331.67 354.102 332.666 354.503 333.398 355.306C334.125 356.103 334.488 357.207 334.488 358.619L334.479 359.085ZM332.449 357.468C332.174 356.413 331.509 355.886 330.454 355.886C330.214 355.886 329.988 355.924 329.777 356C329.566 356.07 329.373 356.176 329.197 356.316C329.027 356.451 328.881 356.615 328.758 356.809C328.635 357.002 328.541 357.222 328.477 357.468H332.449ZM341.625 355.798L339.99 356.668C339.732 356.141 339.413 355.877 339.032 355.877C338.851 355.877 338.695 355.938 338.566 356.062C338.438 356.179 338.373 356.331 338.373 356.519C338.373 356.847 338.754 357.172 339.516 357.494C340.564 357.945 341.271 358.361 341.634 358.742C341.997 359.123 342.179 359.636 342.179 360.28C342.179 361.106 341.874 361.798 341.265 362.354C340.673 362.882 339.958 363.146 339.12 363.146C337.685 363.146 336.668 362.445 336.07 361.045L337.758 360.263C337.992 360.673 338.171 360.934 338.294 361.045C338.534 361.268 338.821 361.379 339.155 361.379C339.823 361.379 340.157 361.074 340.157 360.465C340.157 360.113 339.899 359.785 339.384 359.48C339.185 359.381 338.985 359.284 338.786 359.19C338.587 359.097 338.385 359 338.18 358.9C337.605 358.619 337.201 358.338 336.967 358.057C336.668 357.699 336.519 357.239 336.519 356.677C336.519 355.933 336.773 355.317 337.283 354.831C337.805 354.345 338.438 354.102 339.182 354.102C340.277 354.102 341.092 354.667 341.625 355.798ZM357.313 359.085H351.179C351.231 359.788 351.46 360.348 351.864 360.764C352.269 361.174 352.787 361.379 353.42 361.379C353.912 361.379 354.319 361.262 354.642 361.027C354.958 360.793 355.318 360.359 355.723 359.727L357.393 360.658C357.135 361.098 356.862 361.476 356.575 361.792C356.288 362.103 355.98 362.36 355.652 362.565C355.324 362.765 354.97 362.911 354.589 363.005C354.208 363.099 353.795 363.146 353.35 363.146C352.072 363.146 351.047 362.735 350.273 361.915C349.5 361.089 349.113 359.993 349.113 358.628C349.113 357.274 349.488 356.179 350.238 355.341C350.994 354.515 351.996 354.102 353.244 354.102C354.504 354.102 355.5 354.503 356.232 355.306C356.959 356.103 357.322 357.207 357.322 358.619L357.313 359.085ZM355.283 357.468C355.008 356.413 354.343 355.886 353.288 355.886C353.048 355.886 352.822 355.924 352.611 356C352.4 356.07 352.207 356.176 352.031 356.316C351.861 356.451 351.715 356.615 351.592 356.809C351.469 357.002 351.375 357.222 351.311 357.468H355.283ZM360.231 354.339L362.446 359.146L364.652 354.339H366.876L362.429 363.488L358.017 354.339H360.231ZM375.7 359.085H369.565C369.618 359.788 369.847 360.348 370.251 360.764C370.655 361.174 371.174 361.379 371.807 361.379C372.299 361.379 372.706 361.262 373.028 361.027C373.345 360.793 373.705 360.359 374.109 359.727L375.779 360.658C375.521 361.098 375.249 361.476 374.962 361.792C374.675 362.103 374.367 362.36 374.039 362.565C373.711 362.765 373.356 362.911 372.976 363.005C372.595 363.099 372.182 363.146 371.736 363.146C370.459 363.146 369.434 362.735 368.66 361.915C367.887 361.089 367.5 359.993 367.5 358.628C367.5 357.274 367.875 356.179 368.625 355.341C369.381 354.515 370.383 354.102 371.631 354.102C372.891 354.102 373.887 354.503 374.619 355.306C375.346 356.103 375.709 357.207 375.709 358.619L375.7 359.085ZM373.67 357.468C373.395 356.413 372.729 355.886 371.675 355.886C371.435 355.886 371.209 355.924 370.998 356C370.787 356.07 370.594 356.176 370.418 356.316C370.248 356.451 370.102 356.615 369.979 356.809C369.855 357.002 369.762 357.222 369.697 357.468H373.67ZM377.871 354.339H379.857V355.13C380.549 354.444 381.328 354.102 382.195 354.102C383.191 354.102 383.968 354.415 384.524 355.042C385.005 355.575 385.245 356.445 385.245 357.652V362.899H383.259V358.118C383.259 357.274 383.142 356.691 382.907 356.369C382.679 356.041 382.263 355.877 381.659 355.877C381.003 355.877 380.537 356.094 380.262 356.527C379.992 356.955 379.857 357.702 379.857 358.769V362.899H377.871V354.339ZM389.789 356.185V362.899H387.812V356.185H386.968V354.339H387.812V351.201H389.789V354.339H391.327V356.185H389.789ZM392.391 358.558C392.391 357.321 392.833 356.27 393.718 355.402C394.603 354.535 395.681 354.102 396.952 354.102C398.229 354.102 399.313 354.538 400.204 355.411C401.083 356.284 401.522 357.356 401.522 358.628C401.522 359.911 401.08 360.986 400.195 361.854C399.305 362.715 398.212 363.146 396.917 363.146C395.634 363.146 394.559 362.706 393.691 361.827C392.824 360.96 392.391 359.87 392.391 358.558ZM394.412 358.593C394.412 359.448 394.641 360.125 395.098 360.623C395.566 361.127 396.185 361.379 396.952 361.379C397.726 361.379 398.344 361.13 398.807 360.632C399.27 360.134 399.501 359.469 399.501 358.637C399.501 357.805 399.27 357.14 398.807 356.642C398.338 356.138 397.72 355.886 396.952 355.886C396.196 355.886 395.584 356.138 395.115 356.642C394.646 357.146 394.412 357.796 394.412 358.593ZM408.598 355.798L406.963 356.668C406.705 356.141 406.386 355.877 406.005 355.877C405.823 355.877 405.668 355.938 405.539 356.062C405.41 356.179 405.346 356.331 405.346 356.519C405.346 356.847 405.727 357.172 406.488 357.494C407.537 357.945 408.243 358.361 408.606 358.742C408.97 359.123 409.151 359.636 409.151 360.28C409.151 361.106 408.847 361.798 408.237 362.354C407.646 362.882 406.931 363.146 406.093 363.146C404.657 363.146 403.641 362.445 403.043 361.045L404.73 360.263C404.965 360.673 405.144 360.934 405.267 361.045C405.507 361.268 405.794 361.379 406.128 361.379C406.796 361.379 407.13 361.074 407.13 360.465C407.13 360.113 406.872 359.785 406.356 359.48C406.157 359.381 405.958 359.284 405.759 359.19C405.56 359.097 405.357 359 405.152 358.9C404.578 358.619 404.174 358.338 403.939 358.057C403.641 357.699 403.491 357.239 403.491 356.677C403.491 355.933 403.746 355.317 404.256 354.831C404.777 354.345 405.41 354.102 406.154 354.102C407.25 354.102 408.064 354.667 408.598 355.798ZM424.286 359.085H418.151C418.204 359.788 418.433 360.348 418.837 360.764C419.241 361.174 419.76 361.379 420.393 361.379C420.885 361.379 421.292 361.262 421.614 361.027C421.931 360.793 422.291 360.359 422.695 359.727L424.365 360.658C424.107 361.098 423.835 361.476 423.548 361.792C423.261 362.103 422.953 362.36 422.625 362.565C422.297 362.765 421.942 362.911 421.562 363.005C421.181 363.099 420.768 363.146 420.322 363.146C419.045 363.146 418.02 362.735 417.246 361.915C416.473 361.089 416.086 359.993 416.086 358.628C416.086 357.274 416.461 356.179 417.211 355.341C417.967 354.515 418.969 354.102 420.217 354.102C421.477 354.102 422.473 354.503 423.205 355.306C423.932 356.103 424.295 357.207 424.295 358.619L424.286 359.085ZM422.256 357.468C421.98 356.413 421.315 355.886 420.261 355.886C420.021 355.886 419.795 355.924 419.584 356C419.373 356.07 419.18 356.176 419.004 356.316C418.834 356.451 418.688 356.615 418.564 356.809C418.441 357.002 418.348 357.222 418.283 357.468H422.256ZM428.76 358.268L425.684 354.339H428.039L429.946 356.835L431.889 354.339H434.314L431.15 358.268L434.815 362.899H432.46L429.946 359.7L427.371 362.899H424.954L428.76 358.268ZM442.453 354.708V357.336C442.002 356.785 441.598 356.407 441.24 356.202C440.889 355.991 440.476 355.886 440.001 355.886C439.257 355.886 438.639 356.146 438.146 356.668C437.654 357.189 437.408 357.843 437.408 358.628C437.408 359.431 437.646 360.09 438.12 360.605C438.601 361.121 439.213 361.379 439.957 361.379C440.432 361.379 440.851 361.276 441.214 361.071C441.565 360.872 441.979 360.485 442.453 359.911V362.521C441.65 362.938 440.848 363.146 440.045 363.146C438.721 363.146 437.613 362.718 436.723 361.862C435.832 361.001 435.387 359.932 435.387 358.654C435.387 357.377 435.838 356.299 436.74 355.42C437.643 354.541 438.75 354.102 440.062 354.102C440.906 354.102 441.703 354.304 442.453 354.708ZM446.347 348.055V362.899H444.369V348.055H446.347ZM450.829 354.339V359.252C450.829 360.67 451.389 361.379 452.508 361.379C453.627 361.379 454.187 360.67 454.187 359.252V354.339H456.164V359.296C456.164 359.981 456.079 360.573 455.909 361.071C455.745 361.517 455.461 361.918 455.057 362.275C454.389 362.855 453.539 363.146 452.508 363.146C451.482 363.146 450.636 362.855 449.968 362.275C449.558 361.918 449.268 361.517 449.098 361.071C448.934 360.673 448.852 360.081 448.852 359.296V354.339H450.829ZM463.635 355.798L462 356.668C461.742 356.141 461.423 355.877 461.042 355.877C460.86 355.877 460.705 355.938 460.576 356.062C460.447 356.179 460.383 356.331 460.383 356.519C460.383 356.847 460.764 357.172 461.525 357.494C462.574 357.945 463.28 358.361 463.644 358.742C464.007 359.123 464.188 359.636 464.188 360.28C464.188 361.106 463.884 361.798 463.274 362.354C462.683 362.882 461.968 363.146 461.13 363.146C459.694 363.146 458.678 362.445 458.08 361.045L459.768 360.263C460.002 360.673 460.181 360.934 460.304 361.045C460.544 361.268 460.831 361.379 461.165 361.379C461.833 361.379 462.167 361.074 462.167 360.465C462.167 360.113 461.909 359.785 461.394 359.48C461.194 359.381 460.995 359.284 460.796 359.19C460.597 359.097 460.395 359 460.189 358.9C459.615 358.619 459.211 358.338 458.977 358.057C458.678 357.699 458.528 357.239 458.528 356.677C458.528 355.933 458.783 355.317 459.293 354.831C459.814 354.345 460.447 354.102 461.191 354.102C462.287 354.102 463.102 354.667 463.635 355.798ZM467.95 354.339V362.899H465.973V354.339H467.95ZM465.674 350.779C465.674 350.434 465.8 350.135 466.052 349.883C466.304 349.631 466.605 349.505 466.957 349.505C467.314 349.505 467.619 349.631 467.871 349.883C468.123 350.129 468.249 350.431 468.249 350.788C468.249 351.146 468.123 351.45 467.871 351.702C467.625 351.954 467.323 352.08 466.966 352.08C466.608 352.08 466.304 351.954 466.052 351.702C465.8 351.45 465.674 351.143 465.674 350.779ZM471.519 354.339L473.733 359.146L475.939 354.339H478.163L473.716 363.488L469.304 354.339H471.519ZM478.752 358.558C478.752 357.321 479.194 356.27 480.079 355.402C480.964 354.535 482.042 354.102 483.313 354.102C484.591 354.102 485.675 354.538 486.565 355.411C487.444 356.284 487.884 357.356 487.884 358.628C487.884 359.911 487.441 360.986 486.557 361.854C485.666 362.715 484.573 363.146 483.278 363.146C481.995 363.146 480.92 362.706 480.053 361.827C479.186 360.96 478.752 359.87 478.752 358.558ZM480.773 358.593C480.773 359.448 481.002 360.125 481.459 360.623C481.928 361.127 482.546 361.379 483.313 361.379C484.087 361.379 484.705 361.13 485.168 360.632C485.631 360.134 485.862 359.469 485.862 358.637C485.862 357.805 485.631 357.14 485.168 356.642C484.699 356.138 484.081 355.886 483.313 355.886C482.558 355.886 481.945 356.138 481.477 356.642C481.008 357.146 480.773 357.796 480.773 358.593ZM494.959 355.798L493.324 356.668C493.066 356.141 492.747 355.877 492.366 355.877C492.185 355.877 492.029 355.938 491.9 356.062C491.771 356.179 491.707 356.331 491.707 356.519C491.707 356.847 492.088 357.172 492.85 357.494C493.898 357.945 494.604 358.361 494.968 358.742C495.331 359.123 495.513 359.636 495.513 360.28C495.513 361.106 495.208 361.798 494.599 362.354C494.007 362.882 493.292 363.146 492.454 363.146C491.019 363.146 490.002 362.445 489.404 361.045L491.092 360.263C491.326 360.673 491.505 360.934 491.628 361.045C491.868 361.268 492.155 361.379 492.489 361.379C493.157 361.379 493.491 361.074 493.491 360.465C493.491 360.113 493.233 359.785 492.718 359.48C492.519 359.381 492.319 359.284 492.12 359.19C491.921 359.097 491.719 359 491.514 358.9C490.939 358.619 490.535 358.338 490.301 358.057C490.002 357.699 489.853 357.239 489.853 356.677C489.853 355.933 490.107 355.317 490.617 354.831C491.139 354.345 491.771 354.102 492.516 354.102C493.611 354.102 494.426 354.667 494.959 355.798ZM497.604 361.915C497.604 361.587 497.725 361.303 497.965 361.062C498.205 360.822 498.492 360.702 498.826 360.702C499.16 360.702 499.447 360.822 499.688 361.062C499.928 361.303 500.048 361.59 500.048 361.924C500.048 362.264 499.928 362.554 499.688 362.794C499.453 363.028 499.166 363.146 498.826 363.146C498.48 363.146 498.19 363.028 497.956 362.794C497.722 362.56 497.604 362.267 497.604 361.915ZM497.604 355.306C497.604 354.983 497.725 354.702 497.965 354.462C498.205 354.222 498.492 354.102 498.826 354.102C499.16 354.102 499.447 354.222 499.688 354.462C499.928 354.702 500.048 354.989 500.048 355.323C500.048 355.663 499.928 355.953 499.688 356.193C499.453 356.428 499.166 356.545 498.826 356.545C498.486 356.545 498.196 356.425 497.956 356.185C497.722 355.95 497.604 355.657 497.604 355.306ZM278.414 381.116L282.615 386.899H280.11L276.234 381.345H275.865V386.899H273.817V373.329H276.217C278.01 373.329 279.305 373.666 280.102 374.34C280.98 375.09 281.42 376.08 281.42 377.311C281.42 378.271 281.145 379.098 280.594 379.789C280.043 380.48 279.316 380.923 278.414 381.116ZM275.865 379.561H276.516C278.455 379.561 279.425 378.819 279.425 377.337C279.425 375.948 278.481 375.254 276.595 375.254H275.865V379.561ZM291.782 383.085H285.647C285.7 383.788 285.929 384.348 286.333 384.764C286.737 385.174 287.256 385.379 287.889 385.379C288.381 385.379 288.788 385.262 289.11 385.027C289.427 384.793 289.787 384.359 290.191 383.727L291.861 384.658C291.604 385.098 291.331 385.476 291.044 385.792C290.757 386.103 290.449 386.36 290.121 386.565C289.793 386.765 289.438 386.911 289.058 387.005C288.677 387.099 288.264 387.146 287.818 387.146C286.541 387.146 285.516 386.735 284.742 385.915C283.969 385.089 283.582 383.993 283.582 382.628C283.582 381.274 283.957 380.179 284.707 379.341C285.463 378.515 286.465 378.102 287.713 378.102C288.973 378.102 289.969 378.503 290.701 379.306C291.428 380.103 291.791 381.207 291.791 382.619L291.782 383.085ZM289.752 381.468C289.477 380.413 288.812 379.886 287.757 379.886C287.517 379.886 287.291 379.924 287.08 380C286.869 380.07 286.676 380.176 286.5 380.316C286.33 380.451 286.184 380.615 286.061 380.809C285.938 381.002 285.844 381.222 285.779 381.468H289.752ZM290.684 374.12L287.484 377.021L286.403 376.353L288.82 373.153L290.684 374.12ZM294.7 378.339L296.915 383.146L299.121 378.339H301.345L296.897 387.488L292.485 378.339H294.7ZM310.169 383.085H304.034C304.087 383.788 304.315 384.348 304.72 384.764C305.124 385.174 305.643 385.379 306.275 385.379C306.768 385.379 307.175 385.262 307.497 385.027C307.813 384.793 308.174 384.359 308.578 383.727L310.248 384.658C309.99 385.098 309.718 385.476 309.431 385.792C309.144 386.103 308.836 386.36 308.508 386.565C308.18 386.765 307.825 386.911 307.444 387.005C307.063 387.099 306.65 387.146 306.205 387.146C304.928 387.146 303.902 386.735 303.129 385.915C302.355 385.089 301.969 383.993 301.969 382.628C301.969 381.274 302.344 380.179 303.094 379.341C303.85 378.515 304.852 378.102 306.1 378.102C307.359 378.102 308.355 378.503 309.088 379.306C309.814 380.103 310.178 381.207 310.178 382.619L310.169 383.085ZM308.139 381.468C307.863 380.413 307.198 379.886 306.144 379.886C305.903 379.886 305.678 379.924 305.467 380C305.256 380.07 305.062 380.176 304.887 380.316C304.717 380.451 304.57 380.615 304.447 380.809C304.324 381.002 304.23 381.222 304.166 381.468H308.139ZM314.317 378.339V386.899H312.34V378.339H314.317ZM312.041 374.779C312.041 374.434 312.167 374.135 312.419 373.883C312.671 373.631 312.973 373.505 313.324 373.505C313.682 373.505 313.986 373.631 314.238 373.883C314.49 374.129 314.616 374.431 314.616 374.788C314.616 375.146 314.49 375.45 314.238 375.702C313.992 375.954 313.69 376.08 313.333 376.08C312.976 376.08 312.671 375.954 312.419 375.702C312.167 375.45 312.041 375.143 312.041 374.779ZM318.8 372.055V386.899H316.822V372.055H318.8ZM323.282 372.055V386.899H321.305V372.055H323.282ZM325.383 382.558C325.383 381.321 325.825 380.27 326.71 379.402C327.595 378.535 328.673 378.102 329.944 378.102C331.222 378.102 332.306 378.538 333.196 379.411C334.075 380.284 334.515 381.356 334.515 382.628C334.515 383.911 334.072 384.986 333.188 385.854C332.297 386.715 331.204 387.146 329.909 387.146C328.626 387.146 327.551 386.706 326.684 385.827C325.816 384.96 325.383 383.87 325.383 382.558ZM327.404 382.593C327.404 383.448 327.633 384.125 328.09 384.623C328.559 385.127 329.177 385.379 329.944 385.379C330.718 385.379 331.336 385.13 331.799 384.632C332.262 384.134 332.493 383.469 332.493 382.637C332.493 381.805 332.262 381.14 331.799 380.642C331.33 380.138 330.712 379.886 329.944 379.886C329.188 379.886 328.576 380.138 328.107 380.642C327.639 381.146 327.404 381.796 327.404 382.593ZM336.615 378.339H338.602V379.13C339.293 378.444 340.072 378.102 340.939 378.102C341.936 378.102 342.712 378.415 343.269 379.042C343.749 379.575 343.989 380.445 343.989 381.652V386.899H342.003V382.118C342.003 381.274 341.886 380.691 341.651 380.369C341.423 380.041 341.007 379.877 340.403 379.877C339.747 379.877 339.281 380.094 339.006 380.527C338.736 380.955 338.602 381.702 338.602 382.769V386.899H336.615V378.339ZM360.398 383.604H354.589L353.077 386.899H350.871L357.586 372.477L364.063 386.899H361.822L360.398 383.604ZM359.563 381.679L357.551 377.064L355.441 381.679H359.563ZM365.391 378.339H367.368V379.13C367.749 378.731 368.074 378.462 368.344 378.321C368.631 378.175 368.991 378.102 369.425 378.102C370.392 378.102 371.156 378.523 371.719 379.367C372.34 378.523 373.181 378.102 374.241 378.102C376.169 378.102 377.133 379.271 377.133 381.608V386.899H375.146V382.145C375.146 381.324 375.047 380.744 374.848 380.404C374.643 380.059 374.306 379.886 373.837 379.886C373.292 379.886 372.894 380.091 372.642 380.501C372.396 380.911 372.272 381.57 372.272 382.479V386.899H370.286V382.171C370.286 380.647 369.847 379.886 368.968 379.886C368.411 379.886 368.004 380.094 367.746 380.51C367.494 380.926 367.368 381.582 367.368 382.479V386.899H365.391V378.339ZM381.606 378.339V386.899H379.629V378.339H381.606ZM379.33 374.779C379.33 374.434 379.456 374.135 379.708 373.883C379.96 373.631 380.262 373.505 380.613 373.505C380.971 373.505 381.275 373.631 381.527 373.883C381.779 374.129 381.905 374.431 381.905 374.788C381.905 375.146 381.779 375.45 381.527 375.702C381.281 375.954 380.979 376.08 380.622 376.08C380.265 376.08 379.96 375.954 379.708 375.702C379.456 375.45 379.33 375.143 379.33 374.779ZM392.391 386.697C392.391 387.102 392.376 387.456 392.347 387.761C392.323 388.071 392.288 388.344 392.241 388.578C392.101 389.223 391.825 389.776 391.415 390.239C390.642 391.13 389.578 391.575 388.225 391.575C387.082 391.575 386.142 391.268 385.403 390.652C384.642 390.02 384.202 389.144 384.085 388.024H386.071C386.147 388.446 386.273 388.771 386.449 389C386.859 389.533 387.457 389.8 388.242 389.8C389.689 389.8 390.413 388.912 390.413 387.137V385.941C389.628 386.744 388.723 387.146 387.697 387.146C386.531 387.146 385.576 386.724 384.832 385.88C384.082 385.024 383.707 383.955 383.707 382.672C383.707 381.424 384.056 380.363 384.753 379.49C385.503 378.564 386.493 378.102 387.724 378.102C388.802 378.102 389.698 378.503 390.413 379.306V378.339H392.391V386.697ZM390.492 382.637C390.492 381.805 390.27 381.14 389.824 380.642C389.373 380.132 388.796 379.877 388.093 379.877C387.343 379.877 386.751 380.155 386.317 380.712C385.925 381.21 385.729 381.854 385.729 382.646C385.729 383.425 385.925 384.063 386.317 384.562C386.745 385.106 387.337 385.379 388.093 385.379C388.849 385.379 389.446 385.104 389.886 384.553C390.29 384.055 390.492 383.416 390.492 382.637ZM394.482 382.558C394.482 381.321 394.925 380.27 395.81 379.402C396.694 378.535 397.772 378.102 399.044 378.102C400.321 378.102 401.405 378.538 402.296 379.411C403.175 380.284 403.614 381.356 403.614 382.628C403.614 383.911 403.172 384.986 402.287 385.854C401.396 386.715 400.304 387.146 399.009 387.146C397.726 387.146 396.65 386.706 395.783 385.827C394.916 384.96 394.482 383.87 394.482 382.558ZM396.504 382.593C396.504 383.448 396.732 384.125 397.189 384.623C397.658 385.127 398.276 385.379 399.044 385.379C399.817 385.379 400.436 385.13 400.898 384.632C401.361 384.134 401.593 383.469 401.593 382.637C401.593 381.805 401.361 381.14 400.898 380.642C400.43 380.138 399.812 379.886 399.044 379.886C398.288 379.886 397.676 380.138 397.207 380.642C396.738 381.146 396.504 381.796 396.504 382.593ZM410.689 379.798L409.055 380.668C408.797 380.141 408.478 379.877 408.097 379.877C407.915 379.877 407.76 379.938 407.631 380.062C407.502 380.179 407.438 380.331 407.438 380.519C407.438 380.847 407.818 381.172 408.58 381.494C409.629 381.945 410.335 382.361 410.698 382.742C411.062 383.123 411.243 383.636 411.243 384.28C411.243 385.106 410.938 385.798 410.329 386.354C409.737 386.882 409.022 387.146 408.185 387.146C406.749 387.146 405.732 386.445 405.135 385.045L406.822 384.263C407.057 384.673 407.235 384.934 407.358 385.045C407.599 385.268 407.886 385.379 408.22 385.379C408.888 385.379 409.222 385.074 409.222 384.465C409.222 384.113 408.964 383.785 408.448 383.48C408.249 383.381 408.05 383.284 407.851 383.19C407.651 383.097 407.449 383 407.244 382.9C406.67 382.619 406.266 382.338 406.031 382.057C405.732 381.699 405.583 381.239 405.583 380.677C405.583 379.933 405.838 379.317 406.348 378.831C406.869 378.345 407.502 378.102 408.246 378.102C409.342 378.102 410.156 378.667 410.689 379.798ZM414.249 384.359L416.007 385.045L413.502 390.063L412.166 389.51L414.249 384.359ZM426.562 381.389V386.899H424.515V373.329H426.835C427.972 373.329 428.83 373.408 429.41 373.566C429.996 373.725 430.512 374.023 430.957 374.463C431.736 375.225 432.126 376.186 432.126 377.346C432.126 378.588 431.71 379.572 430.878 380.299C430.046 381.025 428.924 381.389 427.512 381.389H426.562ZM426.562 379.49H427.327C429.208 379.49 430.148 378.767 430.148 377.319C430.148 375.919 429.179 375.219 427.239 375.219H426.562V379.49ZM435.835 378.339V386.899H433.857V378.339H435.835ZM433.559 374.779C433.559 374.434 433.685 374.135 433.937 373.883C434.188 373.631 434.49 373.505 434.842 373.505C435.199 373.505 435.504 373.631 435.756 373.883C436.008 374.129 436.134 374.431 436.134 374.788C436.134 375.146 436.008 375.45 435.756 375.702C435.51 375.954 435.208 376.08 434.851 376.08C434.493 376.08 434.188 375.954 433.937 375.702C433.685 375.45 433.559 375.143 433.559 374.779ZM444.65 378.339H446.637V386.899H444.65V386.003C443.836 386.765 442.96 387.146 442.022 387.146C440.839 387.146 439.86 386.718 439.087 385.862C438.319 384.989 437.936 383.899 437.936 382.593C437.936 381.31 438.319 380.24 439.087 379.385C439.854 378.529 440.815 378.102 441.97 378.102C442.966 378.102 443.859 378.512 444.65 379.332V378.339ZM439.957 382.593C439.957 383.413 440.177 384.081 440.616 384.597C441.067 385.118 441.636 385.379 442.321 385.379C443.054 385.379 443.646 385.127 444.097 384.623C444.548 384.102 444.773 383.439 444.773 382.637C444.773 381.834 444.548 381.172 444.097 380.65C443.646 380.141 443.06 379.886 442.339 379.886C441.659 379.886 441.091 380.144 440.634 380.659C440.183 381.181 439.957 381.825 439.957 382.593ZM451.11 378.339V383.252C451.11 384.67 451.67 385.379 452.789 385.379C453.908 385.379 454.468 384.67 454.468 383.252V378.339H456.445V383.296C456.445 383.981 456.36 384.573 456.19 385.071C456.026 385.517 455.742 385.918 455.338 386.275C454.67 386.855 453.82 387.146 452.789 387.146C451.764 387.146 450.917 386.855 450.249 386.275C449.839 385.918 449.549 385.517 449.379 385.071C449.215 384.673 449.133 384.081 449.133 383.296V378.339H451.11ZM460.919 378.339V386.899H458.941V378.339H460.919ZM463.028 374.12L460.11 377.021L459.021 376.353L461.244 373.153L463.028 374.12ZM473.101 375.254V386.899H471.053V375.254H467.933V373.329H476.212V375.254H473.101ZM483.217 378.339H485.203V386.899H483.217V386.003C482.402 386.765 481.526 387.146 480.589 387.146C479.405 387.146 478.427 386.718 477.653 385.862C476.886 384.989 476.502 383.899 476.502 382.593C476.502 381.31 476.886 380.24 477.653 379.385C478.421 378.529 479.382 378.102 480.536 378.102C481.532 378.102 482.426 378.512 483.217 379.332V378.339ZM478.523 382.593C478.523 383.413 478.743 384.081 479.183 384.597C479.634 385.118 480.202 385.379 480.888 385.379C481.62 385.379 482.212 385.127 482.663 384.623C483.114 384.102 483.34 383.439 483.34 382.637C483.34 381.834 483.114 381.172 482.663 380.65C482.212 380.141 481.626 379.886 480.905 379.886C480.226 379.886 479.657 380.144 479.2 380.659C478.749 381.181 478.523 381.825 478.523 382.593ZM489.677 372.055V386.899H487.699V372.055H489.677ZM494.159 372.055V381.107L496.945 378.339H499.6L495.882 381.934L499.872 386.899H497.306L494.476 383.287L494.159 383.604V386.899H492.182V372.055H494.159ZM506.121 379.798L504.486 380.668C504.229 380.141 503.909 379.877 503.528 379.877C503.347 379.877 503.191 379.938 503.062 380.062C502.934 380.179 502.869 380.331 502.869 380.519C502.869 380.847 503.25 381.172 504.012 381.494C505.061 381.945 505.767 382.361 506.13 382.742C506.493 383.123 506.675 383.636 506.675 384.28C506.675 385.106 506.37 385.798 505.761 386.354C505.169 386.882 504.454 387.146 503.616 387.146C502.181 387.146 501.164 386.445 500.566 385.045L502.254 384.263C502.488 384.673 502.667 384.934 502.79 385.045C503.03 385.268 503.317 385.379 503.651 385.379C504.319 385.379 504.653 385.074 504.653 384.465C504.653 384.113 504.396 383.785 503.88 383.48C503.681 383.381 503.481 383.284 503.282 383.19C503.083 383.097 502.881 383 502.676 382.9C502.102 382.619 501.697 382.338 501.463 382.057C501.164 381.699 501.015 381.239 501.015 380.677C501.015 379.933 501.27 379.317 501.779 378.831C502.301 378.345 502.934 378.102 503.678 378.102C504.773 378.102 505.588 378.667 506.121 379.798ZM521.81 383.085H515.675C515.728 383.788 515.956 384.348 516.36 384.764C516.765 385.174 517.283 385.379 517.916 385.379C518.408 385.379 518.815 385.262 519.138 385.027C519.454 384.793 519.814 384.359 520.219 383.727L521.889 384.658C521.631 385.098 521.358 385.476 521.071 385.792C520.784 386.103 520.477 386.36 520.148 386.565C519.82 386.765 519.466 386.911 519.085 387.005C518.704 387.099 518.291 387.146 517.846 387.146C516.568 387.146 515.543 386.735 514.77 385.915C513.996 385.089 513.609 383.993 513.609 382.628C513.609 381.274 513.984 380.179 514.734 379.341C515.49 378.515 516.492 378.102 517.74 378.102C519 378.102 519.996 378.503 520.729 379.306C521.455 380.103 521.818 381.207 521.818 382.619L521.81 383.085ZM519.779 381.468C519.504 380.413 518.839 379.886 517.784 379.886C517.544 379.886 517.318 379.924 517.107 380C516.896 380.07 516.703 380.176 516.527 380.316C516.357 380.451 516.211 380.615 516.088 380.809C515.965 381.002 515.871 381.222 515.807 381.468H519.779ZM537.586 375.351L535.925 376.335C535.614 375.796 535.318 375.444 535.037 375.28C534.744 375.093 534.366 374.999 533.903 374.999C533.335 374.999 532.863 375.16 532.488 375.482C532.113 375.799 531.926 376.197 531.926 376.678C531.926 377.34 532.418 377.873 533.402 378.277L534.756 378.831C535.857 379.276 536.663 379.821 537.173 380.466C537.683 381.104 537.938 381.89 537.938 382.821C537.938 384.069 537.521 385.101 536.689 385.915C535.852 386.735 534.812 387.146 533.569 387.146C532.392 387.146 531.419 386.797 530.651 386.1C529.896 385.402 529.424 384.421 529.236 383.155L531.311 382.698C531.404 383.495 531.568 384.046 531.803 384.351C532.225 384.937 532.84 385.229 533.648 385.229C534.287 385.229 534.817 385.016 535.239 384.588C535.661 384.16 535.872 383.618 535.872 382.962C535.872 382.698 535.834 382.458 535.758 382.241C535.688 382.019 535.573 381.816 535.415 381.635C535.263 381.447 535.063 381.274 534.817 381.116C534.571 380.952 534.278 380.797 533.938 380.65L532.629 380.105C530.771 379.32 529.843 378.172 529.843 376.66C529.843 375.641 530.232 374.788 531.012 374.103C531.791 373.411 532.761 373.065 533.921 373.065C535.485 373.065 536.707 373.827 537.586 375.351ZM547.825 383.085H541.69C541.743 383.788 541.972 384.348 542.376 384.764C542.78 385.174 543.299 385.379 543.932 385.379C544.424 385.379 544.831 385.262 545.153 385.027C545.47 384.793 545.83 384.359 546.234 383.727L547.904 384.658C547.646 385.098 547.374 385.476 547.087 385.792C546.8 386.103 546.492 386.36 546.164 386.565C545.836 386.765 545.481 386.911 545.101 387.005C544.72 387.099 544.307 387.146 543.861 387.146C542.584 387.146 541.559 386.735 540.785 385.915C540.012 385.089 539.625 383.993 539.625 382.628C539.625 381.274 540 380.179 540.75 379.341C541.506 378.515 542.508 378.102 543.756 378.102C545.016 378.102 546.012 378.503 546.744 379.306C547.471 380.103 547.834 381.207 547.834 382.619L547.825 383.085ZM545.795 381.468C545.52 380.413 544.854 379.886 543.8 379.886C543.56 379.886 543.334 379.924 543.123 380C542.912 380.07 542.719 380.176 542.543 380.316C542.373 380.451 542.227 380.615 542.104 380.809C541.98 381.002 541.887 381.222 541.822 381.468H545.795ZM549.996 378.339H551.974V379.13C552.354 378.731 552.68 378.462 552.949 378.321C553.236 378.175 553.597 378.102 554.03 378.102C554.997 378.102 555.762 378.523 556.324 379.367C556.945 378.523 557.786 378.102 558.847 378.102C560.774 378.102 561.738 379.271 561.738 381.608V386.899H559.752V382.145C559.752 381.324 559.652 380.744 559.453 380.404C559.248 380.059 558.911 379.886 558.442 379.886C557.897 379.886 557.499 380.091 557.247 380.501C557.001 380.911 556.878 381.57 556.878 382.479V386.899H554.892V382.171C554.892 380.647 554.452 379.886 553.573 379.886C553.017 379.886 552.609 380.094 552.352 380.51C552.1 380.926 551.974 381.582 551.974 382.479V386.899H549.996V378.339ZM570.545 378.339H572.531V386.899H570.545V386.003C569.73 386.765 568.854 387.146 567.917 387.146C566.733 387.146 565.755 386.718 564.981 385.862C564.214 384.989 563.83 383.899 563.83 382.593C563.83 381.31 564.214 380.24 564.981 379.385C565.749 378.529 566.71 378.102 567.864 378.102C568.86 378.102 569.754 378.512 570.545 379.332V378.339ZM565.852 382.593C565.852 383.413 566.071 384.081 566.511 384.597C566.962 385.118 567.53 385.379 568.216 385.379C568.948 385.379 569.54 385.127 569.991 384.623C570.442 384.102 570.668 383.439 570.668 382.637C570.668 381.834 570.442 381.172 569.991 380.65C569.54 380.141 568.954 379.886 568.233 379.886C567.554 379.886 566.985 380.144 566.528 380.659C566.077 381.181 565.852 381.825 565.852 382.593ZM575.027 378.339H577.014V379.13C577.705 378.444 578.484 378.102 579.352 378.102C580.348 378.102 581.124 378.415 581.681 379.042C582.161 379.575 582.401 380.445 582.401 381.652V386.899H580.415V382.118C580.415 381.274 580.298 380.691 580.063 380.369C579.835 380.041 579.419 379.877 578.815 379.877C578.159 379.877 577.693 380.094 577.418 380.527C577.148 380.955 577.014 381.702 577.014 382.769V386.899H575.027V378.339ZM591.217 378.339H593.203V386.899H591.217V386.003C590.402 386.765 589.526 387.146 588.589 387.146C587.405 387.146 586.427 386.718 585.653 385.862C584.886 384.989 584.502 383.899 584.502 382.593C584.502 381.31 584.886 380.24 585.653 379.385C586.421 378.529 587.382 378.102 588.536 378.102C589.532 378.102 590.426 378.512 591.217 379.332V378.339ZM586.523 382.593C586.523 383.413 586.743 384.081 587.183 384.597C587.634 385.118 588.202 385.379 588.888 385.379C589.62 385.379 590.212 385.127 590.663 384.623C591.114 384.102 591.34 383.439 591.34 382.637C591.34 381.834 591.114 381.172 590.663 380.65C590.212 380.141 589.626 379.886 588.905 379.886C588.226 379.886 587.657 380.144 587.2 380.659C586.749 381.181 586.523 381.825 586.523 382.593ZM603.68 381.389V386.899H601.632V373.329H603.952C605.089 373.329 605.947 373.408 606.527 373.566C607.113 373.725 607.629 374.023 608.074 374.463C608.854 375.225 609.243 376.186 609.243 377.346C609.243 378.588 608.827 379.572 607.995 380.299C607.163 381.025 606.041 381.389 604.629 381.389H603.68ZM603.68 379.49H604.444C606.325 379.49 607.266 378.767 607.266 377.319C607.266 375.919 606.296 375.219 604.356 375.219H603.68V379.49ZM612.952 378.339V386.899H610.975V378.339H612.952ZM610.676 374.779C610.676 374.434 610.802 374.135 611.054 373.883C611.306 373.631 611.607 373.505 611.959 373.505C612.316 373.505 612.621 373.631 612.873 373.883C613.125 374.129 613.251 374.431 613.251 374.788C613.251 375.146 613.125 375.45 612.873 375.702C612.627 375.954 612.325 376.08 611.968 376.08C611.61 376.08 611.306 375.954 611.054 375.702C610.802 375.45 610.676 375.143 610.676 374.779ZM621.768 378.339H623.754V386.899H621.768V386.003C620.953 386.765 620.077 387.146 619.14 387.146C617.956 387.146 616.978 386.718 616.204 385.862C615.437 384.989 615.053 383.899 615.053 382.593C615.053 381.31 615.437 380.24 616.204 379.385C616.972 378.529 617.933 378.102 619.087 378.102C620.083 378.102 620.977 378.512 621.768 379.332V378.339ZM617.074 382.593C617.074 383.413 617.294 384.081 617.733 384.597C618.185 385.118 618.753 385.379 619.438 385.379C620.171 385.379 620.763 385.127 621.214 384.623C621.665 384.102 621.891 383.439 621.891 382.637C621.891 381.834 621.665 381.172 621.214 380.65C620.763 380.141 620.177 379.886 619.456 379.886C618.776 379.886 618.208 380.144 617.751 380.659C617.3 381.181 617.074 381.825 617.074 382.593ZM628.228 378.339V383.252C628.228 384.67 628.787 385.379 629.906 385.379C631.025 385.379 631.585 384.67 631.585 383.252V378.339H633.562V383.296C633.562 383.981 633.478 384.573 633.308 385.071C633.144 385.517 632.859 385.918 632.455 386.275C631.787 386.855 630.938 387.146 629.906 387.146C628.881 387.146 628.034 386.855 627.366 386.275C626.956 385.918 626.666 385.517 626.496 385.071C626.332 384.673 626.25 384.081 626.25 383.296V378.339H628.228ZM638.036 378.339V386.899H636.059V378.339H638.036ZM640.146 374.12L637.228 377.021L636.138 376.353L638.361 373.153L640.146 374.12Z" fill="#210600"/>
<path d="M333.253 104.631C332.43 104.631 331.596 104.443 330.821 104.044L320.014 98.4997C305.742 91.1757 288.739 91.258 274.532 98.717L264.436 104.021C261.822 105.395 258.592 104.385 257.224 101.777C255.849 99.1634 256.859 95.9331 259.473 94.5646L269.569 89.2611C286.848 80.1869 307.528 80.0871 324.895 88.9968L335.702 94.5411C338.327 95.8861 339.367 99.1105 338.016 101.736C337.07 103.58 335.197 104.643 333.259 104.643L333.253 104.631Z" fill="#A7BDD1"/>
<path d="M338.286 73.9967H319.321C318.247 73.9967 317.865 72.5754 318.793 72.035L335.038 62.6555C337.352 61.3223 338.339 58.3739 337.076 56.0187C335.767 53.5813 332.712 52.7297 330.34 54.104L313.918 63.5835C312.984 64.1238 311.945 63.0784 312.479 62.1445L321.859 45.8991C323.11 43.7319 322.681 40.8834 320.672 39.3798C318.282 37.6002 314.958 38.3344 313.513 40.8423L304.033 57.2638C303.493 58.1977 302.072 57.8159 302.072 56.7352V37.982C302.072 35.3097 300.01 32.978 297.344 32.9016C294.577 32.8194 292.316 35.0336 292.316 37.7764V56.7411C292.316 57.8159 290.895 58.1977 290.355 57.2697L280.875 40.8481C279.53 38.5165 276.629 37.7764 274.209 39.0627C271.595 40.7365 271.073 43.3971 272.424 45.7288L281.903 62.1504C282.443 63.0842 281.398 64.1238 280.464 63.5893L264.219 54.2098C262.051 52.9588 259.203 53.3875 257.699 55.3962C255.92 57.7866 256.654 61.1108 259.162 62.5556L275.583 72.035C276.517 72.5754 276.136 73.9967 275.055 73.9967H256.09C253.394 73.9967 251.209 76.1816 251.209 78.8774C251.209 81.5732 253.394 83.758 256.09 83.758H269.205C286.972 74.8424 307.986 74.8307 325.77 83.758H338.292C340.988 83.758 343.173 81.5732 343.173 78.8774C343.173 76.1816 340.988 73.9967 338.292 73.9967H338.286Z" fill="#A7BDD1"/>
<path d="M302.066 108.901C302.066 106.206 299.881 104.021 297.185 104.021C294.49 104.021 292.305 106.206 292.305 108.901V117.711C292.305 120.407 294.49 122.592 297.185 122.592C299.881 122.592 302.066 120.407 302.066 117.711V108.901Z" fill="#A7BDD1"/>
<path d="M212.992 142.772V148.283H210.944V134.713H213.265C214.401 134.713 215.26 134.792 215.84 134.95C216.426 135.108 216.941 135.407 217.387 135.846C218.166 136.608 218.556 137.569 218.556 138.729C218.556 139.971 218.14 140.956 217.308 141.682C216.476 142.409 215.354 142.772 213.941 142.772H212.992ZM212.992 140.874H213.757C215.638 140.874 216.578 140.15 216.578 138.703C216.578 137.302 215.608 136.602 213.669 136.602H212.992V140.874ZM220.287 139.722H222.265V140.487C222.628 140.106 222.95 139.845 223.231 139.705C223.519 139.558 223.858 139.485 224.251 139.485C224.772 139.485 225.317 139.655 225.886 139.995L224.98 141.805C224.605 141.536 224.239 141.401 223.882 141.401C222.804 141.401 222.265 142.216 222.265 143.844V148.283H220.287V139.722ZM226.457 143.941C226.457 142.705 226.899 141.653 227.784 140.786C228.669 139.919 229.747 139.485 231.019 139.485C232.296 139.485 233.38 139.922 234.271 140.795C235.149 141.668 235.589 142.74 235.589 144.011C235.589 145.295 235.146 146.37 234.262 147.237C233.371 148.098 232.278 148.529 230.983 148.529C229.7 148.529 228.625 148.09 227.758 147.211C226.891 146.344 226.457 145.254 226.457 143.941ZM228.479 143.976C228.479 144.832 228.707 145.509 229.164 146.007C229.633 146.51 230.251 146.762 231.019 146.762C231.792 146.762 232.41 146.513 232.873 146.015C233.336 145.517 233.567 144.852 233.567 144.02C233.567 143.188 233.336 142.523 232.873 142.025C232.404 141.521 231.786 141.269 231.019 141.269C230.263 141.269 229.65 141.521 229.182 142.025C228.713 142.529 228.479 143.179 228.479 143.976ZM244 133.438H245.986V148.283H244V147.386C243.221 148.148 242.339 148.529 241.354 148.529C240.183 148.529 239.21 148.101 238.437 147.246C237.669 146.373 237.285 145.283 237.285 143.976C237.285 142.699 237.669 141.633 238.437 140.777C239.198 139.916 240.156 139.485 241.311 139.485C242.312 139.485 243.209 139.895 244 140.716V133.438ZM239.307 143.976C239.307 144.797 239.526 145.465 239.966 145.98C240.417 146.502 240.985 146.762 241.671 146.762C242.403 146.762 242.995 146.51 243.446 146.007C243.897 145.485 244.123 144.823 244.123 144.02C244.123 143.218 243.897 142.555 243.446 142.034C242.995 141.524 242.409 141.269 241.688 141.269C241.009 141.269 240.44 141.527 239.983 142.043C239.532 142.564 239.307 143.209 239.307 143.976ZM250.46 139.722V144.635C250.46 146.053 251.02 146.762 252.139 146.762C253.258 146.762 253.817 146.053 253.817 144.635V139.722H255.795V144.679C255.795 145.365 255.71 145.957 255.54 146.455C255.376 146.9 255.092 147.302 254.688 147.659C254.02 148.239 253.17 148.529 252.139 148.529C251.113 148.529 250.267 148.239 249.599 147.659C249.188 147.302 248.898 146.9 248.729 146.455C248.564 146.056 248.482 145.465 248.482 144.679V139.722H250.46ZM264.953 140.092V142.719C264.502 142.169 264.098 141.791 263.74 141.586C263.389 141.375 262.976 141.269 262.501 141.269C261.757 141.269 261.139 141.53 260.646 142.052C260.154 142.573 259.908 143.226 259.908 144.011C259.908 144.814 260.146 145.473 260.62 145.989C261.101 146.505 261.713 146.762 262.457 146.762C262.932 146.762 263.351 146.66 263.714 146.455C264.065 146.256 264.479 145.869 264.953 145.295V147.905C264.15 148.321 263.348 148.529 262.545 148.529C261.221 148.529 260.113 148.101 259.223 147.246C258.332 146.385 257.887 145.315 257.887 144.038C257.887 142.76 258.338 141.682 259.24 140.803C260.143 139.925 261.25 139.485 262.562 139.485C263.406 139.485 264.203 139.687 264.953 140.092ZM263.318 150.032L261.218 152.721L259.935 152.08L261.684 149.364L263.318 150.032ZM273.18 139.722H275.166V148.283H273.18V147.386C272.365 148.148 271.489 148.529 270.552 148.529C269.368 148.529 268.39 148.101 267.616 147.246C266.849 146.373 266.465 145.283 266.465 143.976C266.465 142.693 266.849 141.624 267.616 140.768C268.384 139.913 269.345 139.485 270.499 139.485C271.495 139.485 272.389 139.895 273.18 140.716V139.722ZM268.486 143.976C268.486 144.797 268.706 145.465 269.146 145.98C269.597 146.502 270.165 146.762 270.851 146.762C271.583 146.762 272.175 146.51 272.626 146.007C273.077 145.485 273.303 144.823 273.303 144.02C273.303 143.218 273.077 142.555 272.626 142.034C272.175 141.524 271.589 141.269 270.868 141.269C270.188 141.269 269.62 141.527 269.163 142.043C268.712 142.564 268.486 143.209 268.486 143.976ZM268.697 138.263L267.546 137.288L267.801 136.927C267.965 136.693 268.123 136.497 268.275 136.339C268.428 136.175 268.583 136.043 268.741 135.943C268.899 135.838 269.063 135.764 269.233 135.723C269.403 135.677 269.588 135.653 269.787 135.653C270.244 135.653 270.774 135.805 271.378 136.11C271.987 136.421 272.38 136.576 272.556 136.576C272.884 136.576 273.247 136.26 273.646 135.627L274.762 136.558C274.199 137.683 273.438 138.246 272.477 138.246C272.148 138.246 271.612 138.082 270.868 137.754C270.335 137.484 269.937 137.349 269.673 137.349C269.351 137.349 269.025 137.654 268.697 138.263ZM277.258 143.941C277.258 142.705 277.7 141.653 278.585 140.786C279.47 139.919 280.548 139.485 281.819 139.485C283.097 139.485 284.181 139.922 285.071 140.795C285.95 141.668 286.39 142.74 286.39 144.011C286.39 145.295 285.947 146.37 285.062 147.237C284.172 148.098 283.079 148.529 281.784 148.529C280.501 148.529 279.426 148.09 278.559 147.211C277.691 146.344 277.258 145.254 277.258 143.941ZM279.279 143.976C279.279 144.832 279.508 145.509 279.965 146.007C280.434 146.51 281.052 146.762 281.819 146.762C282.593 146.762 283.211 146.513 283.674 146.015C284.137 145.517 284.368 144.852 284.368 144.02C284.368 143.188 284.137 142.523 283.674 142.025C283.205 141.521 282.587 141.269 281.819 141.269C281.063 141.269 280.451 141.521 279.982 142.025C279.514 142.529 279.279 143.179 279.279 143.976ZM300.355 139.722H302.342V148.283H300.355V147.386C299.541 148.148 298.665 148.529 297.728 148.529C296.544 148.529 295.565 148.101 294.792 147.246C294.024 146.373 293.641 145.283 293.641 143.976C293.641 142.693 294.024 141.624 294.792 140.768C295.56 139.913 296.521 139.485 297.675 139.485C298.671 139.485 299.564 139.895 300.355 140.716V139.722ZM295.662 143.976C295.662 144.797 295.882 145.465 296.321 145.98C296.772 146.502 297.341 146.762 298.026 146.762C298.759 146.762 299.351 146.51 299.802 146.007C300.253 145.485 300.479 144.823 300.479 144.02C300.479 143.218 300.253 142.555 299.802 142.034C299.351 141.524 298.765 141.269 298.044 141.269C297.364 141.269 296.796 141.527 296.339 142.043C295.888 142.564 295.662 143.209 295.662 143.976ZM306.815 139.722V144.635C306.815 146.053 307.375 146.762 308.494 146.762C309.613 146.762 310.173 146.053 310.173 144.635V139.722H312.15V144.679C312.15 145.365 312.065 145.957 311.896 146.455C311.731 146.9 311.447 147.302 311.043 147.659C310.375 148.239 309.525 148.529 308.494 148.529C307.469 148.529 306.622 148.239 305.954 147.659C305.544 147.302 305.254 146.9 305.084 146.455C304.92 146.056 304.838 145.465 304.838 144.679V139.722H306.815ZM320.957 133.438H322.943V148.283H320.957V147.386C320.178 148.148 319.296 148.529 318.312 148.529C317.14 148.529 316.167 148.101 315.394 147.246C314.626 146.373 314.242 145.283 314.242 143.976C314.242 142.699 314.626 141.633 315.394 140.777C316.155 139.916 317.113 139.485 318.268 139.485C319.27 139.485 320.166 139.895 320.957 140.716V133.438ZM316.264 143.976C316.264 144.797 316.483 145.465 316.923 145.98C317.374 146.502 317.942 146.762 318.628 146.762C319.36 146.762 319.952 146.51 320.403 146.007C320.854 145.485 321.08 144.823 321.08 144.02C321.08 143.218 320.854 142.555 320.403 142.034C319.952 141.524 319.366 141.269 318.646 141.269C317.966 141.269 317.397 141.527 316.94 142.043C316.489 142.564 316.264 143.209 316.264 143.976ZM327.417 139.722V148.283H325.439V139.722H327.417ZM325.141 136.163C325.141 135.817 325.267 135.518 325.519 135.266C325.771 135.014 326.072 134.888 326.424 134.888C326.781 134.888 327.086 135.014 327.338 135.266C327.59 135.512 327.716 135.814 327.716 136.172C327.716 136.529 327.59 136.834 327.338 137.086C327.092 137.338 326.79 137.464 326.433 137.464C326.075 137.464 325.771 137.338 325.519 137.086C325.267 136.834 325.141 136.526 325.141 136.163ZM329.518 143.941C329.518 142.705 329.96 141.653 330.845 140.786C331.729 139.919 332.808 139.485 334.079 139.485C335.356 139.485 336.44 139.922 337.331 140.795C338.21 141.668 338.649 142.74 338.649 144.011C338.649 145.295 338.207 146.37 337.322 147.237C336.432 148.098 335.339 148.529 334.044 148.529C332.761 148.529 331.686 148.09 330.818 147.211C329.951 146.344 329.518 145.254 329.518 143.941ZM331.539 143.976C331.539 144.832 331.768 145.509 332.225 146.007C332.693 146.51 333.312 146.762 334.079 146.762C334.853 146.762 335.471 146.513 335.934 146.015C336.396 145.517 336.628 144.852 336.628 144.02C336.628 143.188 336.396 142.523 335.934 142.025C335.465 141.521 334.847 141.269 334.079 141.269C333.323 141.269 332.711 141.521 332.242 142.025C331.773 142.529 331.539 143.179 331.539 143.976ZM341.444 139.722L343.659 144.53L345.865 139.722H348.089L343.642 148.872L339.229 139.722H341.444ZM351.411 139.722V148.283H349.434V139.722H351.411ZM349.135 136.163C349.135 135.817 349.261 135.518 349.513 135.266C349.765 135.014 350.066 134.888 350.418 134.888C350.775 134.888 351.08 135.014 351.332 135.266C351.584 135.512 351.71 135.814 351.71 136.172C351.71 136.529 351.584 136.834 351.332 137.086C351.086 137.338 350.784 137.464 350.427 137.464C350.069 137.464 349.765 137.338 349.513 137.086C349.261 136.834 349.135 136.526 349.135 136.163ZM358.891 141.181L357.256 142.052C356.998 141.524 356.679 141.26 356.298 141.26C356.116 141.26 355.961 141.322 355.832 141.445C355.703 141.562 355.639 141.715 355.639 141.902C355.639 142.23 356.02 142.555 356.781 142.878C357.83 143.329 358.536 143.745 358.899 144.126C359.263 144.507 359.444 145.019 359.444 145.664C359.444 146.49 359.14 147.181 358.53 147.738C357.938 148.265 357.224 148.529 356.386 148.529C354.95 148.529 353.934 147.829 353.336 146.428L355.023 145.646C355.258 146.056 355.437 146.317 355.56 146.428C355.8 146.651 356.087 146.762 356.421 146.762C357.089 146.762 357.423 146.458 357.423 145.848C357.423 145.497 357.165 145.169 356.649 144.864C356.45 144.764 356.251 144.668 356.052 144.574C355.853 144.48 355.65 144.384 355.445 144.284C354.871 144.003 354.467 143.721 354.232 143.44C353.934 143.083 353.784 142.623 353.784 142.06C353.784 141.316 354.039 140.701 354.549 140.215C355.07 139.728 355.703 139.485 356.447 139.485C357.543 139.485 358.357 140.051 358.891 141.181ZM363.206 139.722V144.635C363.206 146.053 363.766 146.762 364.885 146.762C366.004 146.762 366.563 146.053 366.563 144.635V139.722H368.541V144.679C368.541 145.365 368.456 145.957 368.286 146.455C368.122 146.9 367.838 147.302 367.434 147.659C366.766 148.239 365.916 148.529 364.885 148.529C363.859 148.529 363.013 148.239 362.345 147.659C361.935 147.302 361.645 146.9 361.475 146.455C361.311 146.056 361.229 145.465 361.229 144.679V139.722H363.206ZM377.348 139.722H379.334V148.283H377.348V147.386C376.533 148.148 375.657 148.529 374.72 148.529C373.536 148.529 372.558 148.101 371.784 147.246C371.017 146.373 370.633 145.283 370.633 143.976C370.633 142.693 371.017 141.624 371.784 140.768C372.552 139.913 373.513 139.485 374.667 139.485C375.663 139.485 376.557 139.895 377.348 140.716V139.722ZM372.654 143.976C372.654 144.797 372.874 145.465 373.313 145.98C373.765 146.502 374.333 146.762 375.019 146.762C375.751 146.762 376.343 146.51 376.794 146.007C377.245 145.485 377.471 144.823 377.471 144.02C377.471 143.218 377.245 142.555 376.794 142.034C376.343 141.524 375.757 141.269 375.036 141.269C374.356 141.269 373.788 141.527 373.331 142.043C372.88 142.564 372.654 143.209 372.654 143.976ZM383.808 133.438V148.283H381.83V133.438H383.808ZM251.102 166.421L246.672 158.713H249.027L252.13 164.135L255.241 158.713H257.597L253.149 166.421V172.283H251.102V166.421ZM265.428 168.469H259.293C259.346 169.172 259.574 169.731 259.979 170.147C260.383 170.557 260.901 170.762 261.534 170.762C262.026 170.762 262.434 170.645 262.756 170.411C263.072 170.177 263.433 169.743 263.837 169.11L265.507 170.042C265.249 170.481 264.977 170.859 264.689 171.176C264.402 171.486 264.095 171.744 263.767 171.949C263.438 172.148 263.084 172.295 262.703 172.388C262.322 172.482 261.909 172.529 261.464 172.529C260.187 172.529 259.161 172.119 258.388 171.299C257.614 170.472 257.228 169.377 257.228 168.011C257.228 166.658 257.603 165.562 258.353 164.724C259.108 163.898 260.11 163.485 261.358 163.485C262.618 163.485 263.614 163.886 264.347 164.689C265.073 165.486 265.437 166.591 265.437 168.003L265.428 168.469ZM263.397 166.851C263.122 165.797 262.457 165.269 261.402 165.269C261.162 165.269 260.937 165.307 260.726 165.384C260.515 165.454 260.321 165.559 260.146 165.7C259.976 165.835 259.829 165.999 259.706 166.192C259.583 166.385 259.489 166.605 259.425 166.851H263.397ZM269.576 157.438V172.283H267.599V157.438H269.576ZM274.059 157.438V172.283H272.081V157.438H274.059ZM276.159 167.941C276.159 166.705 276.602 165.653 277.486 164.786C278.371 163.919 279.449 163.485 280.721 163.485C281.998 163.485 283.082 163.922 283.973 164.795C284.852 165.668 285.291 166.74 285.291 168.011C285.291 169.295 284.849 170.37 283.964 171.237C283.073 172.098 281.98 172.529 280.686 172.529C279.402 172.529 278.327 172.09 277.46 171.211C276.593 170.344 276.159 169.254 276.159 167.941ZM278.181 167.976C278.181 168.832 278.409 169.509 278.866 170.007C279.335 170.51 279.953 170.762 280.721 170.762C281.494 170.762 282.112 170.513 282.575 170.015C283.038 169.517 283.27 168.852 283.27 168.02C283.27 167.188 283.038 166.523 282.575 166.025C282.106 165.521 281.488 165.269 280.721 165.269C279.965 165.269 279.353 165.521 278.884 166.025C278.415 166.529 278.181 167.179 278.181 167.976ZM288.112 163.722L290.354 168.609L292.771 162.94L295.205 168.609L297.42 163.722H299.635L295.152 172.925L292.771 167.414L290.362 172.925L285.889 163.722H288.112ZM313.688 160.637H308.96V163.898H313.521V165.823H308.96V172.283H306.912V158.713H313.688V160.637ZM317.705 163.722V172.283H315.728V163.722H317.705ZM315.429 160.163C315.429 159.817 315.555 159.518 315.807 159.266C316.059 159.014 316.36 158.888 316.712 158.888C317.069 158.888 317.374 159.014 317.626 159.266C317.878 159.512 318.004 159.814 318.004 160.172C318.004 160.529 317.878 160.834 317.626 161.086C317.38 161.338 317.078 161.464 316.721 161.464C316.363 161.464 316.059 161.338 315.807 161.086C315.555 160.834 315.429 160.526 315.429 160.163ZM322.188 157.438V172.283H320.21V157.438H322.188ZM324.692 163.722H326.67V164.513C327.051 164.115 327.376 163.845 327.646 163.705C327.933 163.558 328.293 163.485 328.727 163.485C329.693 163.485 330.458 163.907 331.021 164.751C331.642 163.907 332.482 163.485 333.543 163.485C335.471 163.485 336.435 164.654 336.435 166.992V172.283H334.448V167.528C334.448 166.708 334.349 166.128 334.149 165.788C333.944 165.442 333.607 165.269 333.139 165.269C332.594 165.269 332.195 165.474 331.943 165.885C331.697 166.295 331.574 166.954 331.574 167.862V172.283H329.588V167.554C329.588 166.031 329.148 165.269 328.27 165.269C327.713 165.269 327.306 165.477 327.048 165.893C326.796 166.309 326.67 166.966 326.67 167.862V172.283H324.692V163.722ZM346.727 168.469H340.592C340.645 169.172 340.873 169.731 341.277 170.147C341.682 170.557 342.2 170.762 342.833 170.762C343.325 170.762 343.732 170.645 344.055 170.411C344.371 170.177 344.731 169.743 345.136 169.11L346.806 170.042C346.548 170.481 346.275 170.859 345.988 171.176C345.701 171.486 345.394 171.744 345.065 171.949C344.737 172.148 344.383 172.295 344.002 172.388C343.621 172.482 343.208 172.529 342.763 172.529C341.485 172.529 340.46 172.119 339.687 171.299C338.913 170.472 338.526 169.377 338.526 168.011C338.526 166.658 338.901 165.562 339.651 164.724C340.407 163.898 341.409 163.485 342.657 163.485C343.917 163.485 344.913 163.886 345.646 164.689C346.372 165.486 346.735 166.591 346.735 168.003L346.727 168.469ZM344.696 166.851C344.421 165.797 343.756 165.269 342.701 165.269C342.461 165.269 342.235 165.307 342.024 165.384C341.813 165.454 341.62 165.559 341.444 165.7C341.274 165.835 341.128 165.999 341.005 166.192C340.882 166.385 340.788 166.605 340.724 166.851H344.696Z" fill="#210600"/>
<defs>
<clipPath id="clip0_2105_4252">
<rect width="97.4585" height="89.6258" fill="white" transform="translate(543.962 36.8994)"/>
</clipPath>
</defs>
</svg>
