<svg width="71" height="71" viewBox="0 0 71 71" fill="none" xmlns="http://www.w3.org/2000/svg">
<path d="M47.9111 33.1465H37.5205V22.7559C37.5205 22.4551 37.2744 22.209 36.9736 22.209H33.6924C33.3916 22.209 33.1455 22.4551 33.1455 22.7559V33.1465H22.7549C22.4541 33.1465 22.208 33.3926 22.208 33.6934V36.9746C22.208 37.2754 22.4541 37.5215 22.7549 37.5215H33.1455V47.9121C33.1455 48.2129 33.3916 48.459 33.6924 48.459H36.9736C37.2744 48.459 37.5205 48.2129 37.5205 47.9121V37.5215H47.9111C48.2119 37.5215 48.458 37.2754 48.458 36.9746V33.6934C48.458 33.3926 48.2119 33.1465 47.9111 33.1465Z" fill="#E47043"/>
<path d="M35.333 4.70898C18.4209 4.70898 4.70801 18.4219 4.70801 35.334C4.70801 52.2461 18.4209 65.959 35.333 65.959C52.2451 65.959 65.958 52.2461 65.958 35.334C65.958 18.4219 52.2451 4.70898 35.333 4.70898ZM35.333 60.7637C21.292 60.7637 9.90332 49.375 9.90332 35.334C9.90332 21.293 21.292 9.9043 35.333 9.9043C49.374 9.9043 60.7627 21.293 60.7627 35.334C60.7627 49.375 49.374 60.7637 35.333 60.7637Z" fill="#E47043"/>
</svg>
