<svg width="18" height="18" viewBox="0 0 18 18" fill="none" xmlns="http://www.w3.org/2000/svg">
<path d="M12.8613 8.57673H9.967V5.68244C9.967 5.59866 9.89845 5.53011 9.81467 5.53011H8.90069C8.8169 5.53011 8.74836 5.59866 8.74836 5.68244V8.57673H5.85407C5.77029 8.57673 5.70174 8.64527 5.70174 8.72906V9.64304C5.70174 9.72682 5.77029 9.79537 5.85407 9.79537H8.74836V12.6897C8.74836 12.7734 8.8169 12.842 8.90069 12.842H9.81467C9.89845 12.842 9.967 12.7734 9.967 12.6897V9.79537H12.8613C12.9451 9.79537 13.0136 9.72682 13.0136 9.64304V8.72906C13.0136 8.64527 12.9451 8.57673 12.8613 8.57673Z" fill="black" fill-opacity="0.45"/>
<path d="M9.35768 0.655518C4.64685 0.655518 0.827148 4.47522 0.827148 9.18605C0.827148 13.8969 4.64685 17.7166 9.35768 17.7166C14.0685 17.7166 17.8882 13.8969 17.8882 9.18605C17.8882 4.47522 14.0685 0.655518 9.35768 0.655518ZM9.35768 16.2694C5.44658 16.2694 2.27429 13.0971 2.27429 9.18605C2.27429 5.27495 5.44658 2.10266 9.35768 2.10266C13.2688 2.10266 16.4411 5.27495 16.4411 9.18605C16.4411 13.0971 13.2688 16.2694 9.35768 16.2694Z" fill="black" fill-opacity="0.45"/>
</svg>
