<svg width="34" height="34" viewBox="0 0 34 34" fill="none" xmlns="http://www.w3.org/2000/svg">
<path d="M16.8 0C26.0775 0 33.6 7.5225 33.6 16.8C33.6 26.0775 26.0775 33.6 16.8 33.6C7.52248 33.6 -2.28882e-05 26.0775 -2.28882e-05 16.8C-2.28882e-05 7.5225 7.52248 0 16.8 0ZM12.9 11.8837C12.9 12.2662 13.0837 12.63 13.395 12.855L18.8475 16.8L13.395 20.745C13.0837 20.97 12.9 21.33 12.9 21.7162V23.475C12.9 23.7187 13.1775 23.8612 13.3762 23.7187L22.6012 17.0437C22.6396 17.0161 22.6708 16.9798 22.6923 16.9377C22.7138 16.8957 22.7251 16.8491 22.7251 16.8019C22.7251 16.7546 22.7138 16.7081 22.6923 16.666C22.6708 16.624 22.6396 16.5876 22.6012 16.56L13.3762 9.885C13.3314 9.85245 13.2784 9.83295 13.2232 9.82866C13.168 9.82438 13.1126 9.83547 13.0633 9.86071C13.014 9.88595 12.9726 9.92436 12.9438 9.97167C12.915 10.019 12.8998 10.0733 12.9 10.1287V11.8837Z" fill="#884129"/>
</svg>
