<svg width="10" height="9" viewBox="0 0 10 9" fill="none" xmlns="http://www.w3.org/2000/svg">
<path d="M9.87471 1.34477C9.51611 1.49946 9.12588 1.61078 8.72392 1.65414C9.14124 1.40622 9.45376 1.01453 9.60283 0.552581C9.21123 0.785537 8.78223 0.948889 8.33486 1.03539C8.14788 0.835502 7.92174 0.67626 7.67053 0.567589C7.41932 0.458918 7.14842 0.403148 6.87471 0.403752C5.76728 0.403752 4.87666 1.30141 4.87666 2.40297C4.87666 2.55766 4.89541 2.71235 4.92588 2.86117C3.26768 2.77446 1.78877 1.98227 0.805566 0.769377C0.626416 1.07537 0.532535 1.42378 0.533691 1.77836C0.533691 2.47211 0.886426 3.08383 1.42432 3.4436C1.10733 3.43111 0.797765 3.34398 0.520801 3.1893V3.21391C0.520801 4.18539 1.20752 4.99047 2.12275 5.17563C1.95091 5.22026 1.77413 5.2431 1.59658 5.2436C1.4665 5.2436 1.34346 5.23071 1.21924 5.21313C1.47236 6.00532 2.20947 6.58071 3.08721 6.59946C2.40049 7.13735 1.54033 7.45375 0.606348 7.45375C0.43877 7.45375 0.284082 7.44789 0.123535 7.42914C1.00947 7.9975 2.06064 8.32563 3.19268 8.32563C6.86768 8.32563 8.87861 5.2811 8.87861 2.63852C8.87861 2.5518 8.87861 2.46508 8.87275 2.37836C9.26182 2.0936 9.60283 1.74086 9.87471 1.34477Z" fill="white"/>
</svg>
