<svg width="18" height="12" viewBox="0 0 18 12" fill="none" xmlns="http://www.w3.org/2000/svg">
<path d="M1.44067 10.0718C1.61286 10.3855 1.84087 10.6397 2.10499 10.8124C2.36911 10.9851 2.66141 11.0711 2.95664 11.063C3.25187 11.0711 3.54417 10.9851 3.80829 10.8124C4.07241 10.6397 4.30041 10.3855 4.4726 10.0718C4.64479 9.75808 4.87279 9.5039 5.13691 9.33121C5.40104 9.15851 5.69333 9.0725 5.98856 9.08058C6.2838 9.0725 6.57609 9.15851 6.84022 9.33121C7.10434 9.5039 7.33234 9.75808 7.50453 10.0718C7.67672 10.3855 7.90472 10.6397 8.16884 10.8124C8.43296 10.9851 8.72526 11.0711 9.02049 11.063C9.31572 11.0711 9.60802 10.9851 9.87214 10.8124C10.1363 10.6397 10.3643 10.3855 10.5365 10.0718C10.7086 9.75808 10.9366 9.5039 11.2008 9.33121C11.4649 9.15851 11.7572 9.0725 12.0524 9.08058C12.3477 9.0725 12.6399 9.15851 12.9041 9.33121C13.1682 9.5039 13.3962 9.75808 13.5684 10.0718C13.7406 10.3855 13.9686 10.6397 14.2327 10.8124C14.4968 10.9851 14.7891 11.0711 15.0843 11.063C15.3796 11.0711 15.6719 10.9851 15.936 10.8124C16.2001 10.6397 16.4281 10.3855 16.6003 10.0718M1.44067 6.10696C1.61286 6.42067 1.84087 6.67485 2.10499 6.84755C2.36911 7.02024 2.66141 7.10626 2.95664 7.09817C3.25187 7.10626 3.54417 7.02024 3.80829 6.84755C4.07241 6.67485 4.30041 6.42067 4.4726 6.10696C4.64479 5.79325 4.87279 5.53908 5.13691 5.36638C5.40104 5.19369 5.69333 5.10767 5.98856 5.11576C6.2838 5.10767 6.57609 5.19369 6.84022 5.36638C7.10434 5.53908 7.33234 5.79325 7.50453 6.10696C7.67672 6.42067 7.90472 6.67485 8.16884 6.84755C8.43296 7.02024 8.72526 7.10626 9.02049 7.09817C9.31572 7.10626 9.60802 7.02024 9.87214 6.84755C10.1363 6.67485 10.3643 6.42067 10.5365 6.10696C10.7086 5.79325 10.9366 5.53908 11.2008 5.36638C11.4649 5.19369 11.7572 5.10767 12.0524 5.11576C12.3477 5.10767 12.6399 5.19369 12.9041 5.36638C13.1682 5.53908 13.3962 5.79325 13.5684 6.10696C13.7406 6.42067 13.9686 6.67485 14.2327 6.84755C14.4968 7.02024 14.7891 7.10626 15.0843 7.09817C15.3796 7.10626 15.6719 7.02024 15.936 6.84755C16.2001 6.67485 16.4281 6.42067 16.6003 6.10696" stroke="black" stroke-opacity="0.45" stroke-width="1.16613" stroke-linecap="round" stroke-linejoin="round"/>
<path d="M1.44067 2.14261C1.61286 2.45632 1.84087 2.7105 2.10499 2.88319C2.36911 3.05588 2.66141 3.1419 2.95664 3.13381C3.25187 3.1419 3.54417 3.05588 3.80829 2.88319C4.07241 2.7105 4.30041 2.45632 4.4726 2.14261C4.64479 1.8289 4.87279 1.57472 5.13691 1.40203C5.40104 1.22933 5.69333 1.14331 5.98856 1.1514C6.2838 1.14331 6.57609 1.22933 6.84022 1.40203C7.10434 1.57472 7.33234 1.8289 7.50453 2.14261C7.67672 2.45632 7.90472 2.7105 8.16884 2.88319C8.43296 3.05588 8.72526 3.1419 9.02049 3.13381C9.31572 3.1419 9.60802 3.05588 9.87214 2.88319C10.1363 2.7105 10.3643 2.45632 10.5365 2.14261C10.7086 1.8289 10.9366 1.57472 11.2008 1.40203C11.4649 1.22933 11.7572 1.14331 12.0524 1.1514C12.3477 1.14331 12.6399 1.22933 12.9041 1.40203C13.1682 1.57472 13.3962 1.8289 13.5684 2.14261C13.7406 2.45632 13.9686 2.7105 14.2327 2.88319C14.4968 3.05588 14.7891 3.1419 15.0843 3.13381C15.3796 3.1419 15.6719 3.05588 15.936 2.88319C16.2001 2.7105 16.4281 2.45632 16.6003 2.14261" stroke="black" stroke-opacity="0.45" stroke-width="1.16613" stroke-linecap="round" stroke-linejoin="round"/>
</svg>
