<svg width="10" height="11" viewBox="0 0 10 11" fill="none" xmlns="http://www.w3.org/2000/svg">
<path d="M8.5249 1.8199C8.06643 1.35695 7.52041 0.989878 6.91866 0.740076C6.3169 0.490274 5.67144 0.362737 5.0199 0.364895C2.2899 0.364895 0.0649024 2.5899 0.0649024 5.3199C0.0649024 6.1949 0.294902 7.0449 0.724902 7.7949L0.0249023 10.3649L2.6499 9.6749C3.3749 10.0699 4.1899 10.2799 5.0199 10.2799C7.7499 10.2799 9.9749 8.0549 9.9749 5.3249C9.9749 3.9999 9.4599 2.75489 8.5249 1.8199ZM5.0199 9.43989C4.2799 9.43989 3.5549 9.23989 2.9199 8.86489L2.7699 8.77489L1.2099 9.18489L1.6249 7.6649L1.5249 7.5099C1.11368 6.85342 0.895365 6.09453 0.894902 5.3199C0.894902 3.0499 2.7449 1.1999 5.0149 1.1999C6.1149 1.1999 7.1499 1.6299 7.9249 2.4099C8.30871 2.79183 8.61286 3.24617 8.81971 3.74656C9.02657 4.24695 9.132 4.78344 9.1299 5.3249C9.1399 7.5949 7.2899 9.43989 5.0199 9.43989ZM7.2799 6.3599C7.1549 6.2999 6.5449 5.9999 6.4349 5.9549C6.3199 5.9149 6.2399 5.8949 6.1549 6.0149C6.0699 6.1399 5.8349 6.4199 5.7649 6.4999C5.6949 6.5849 5.6199 6.5949 5.4949 6.5299C5.3699 6.4699 4.9699 6.3349 4.4999 5.9149C4.1299 5.5849 3.8849 5.1799 3.8099 5.0549C3.7399 4.9299 3.7999 4.8649 3.8649 4.7999C3.9199 4.7449 3.9899 4.6549 4.0499 4.5849C4.1099 4.51489 4.1349 4.4599 4.1749 4.3799C4.2149 4.2949 4.1949 4.2249 4.1649 4.1649C4.1349 4.1049 3.8849 3.4949 3.7849 3.2449C3.6849 3.0049 3.5799 3.0349 3.5049 3.0299H3.2649C3.1799 3.0299 3.0499 3.0599 2.9349 3.1849C2.8249 3.3099 2.5049 3.6099 2.5049 4.2199C2.5049 4.8299 2.9499 5.4199 3.0099 5.4999C3.0699 5.5849 3.8849 6.8349 5.1249 7.3699C5.4199 7.4999 5.6499 7.5749 5.8299 7.6299C6.1249 7.7249 6.3949 7.7099 6.6099 7.67989C6.8499 7.6449 7.3449 7.3799 7.4449 7.0899C7.5499 6.7999 7.5499 6.5549 7.5149 6.4999C7.4799 6.4449 7.4049 6.4199 7.2799 6.3599Z" fill="white"/>
</svg>
