<svg width="22" height="21" viewBox="0 0 22 21" fill="none" xmlns="http://www.w3.org/2000/svg">
<path d="M18.0951 3.01751C17.1723 2.0857 16.0732 1.34687 14.862 0.844077C13.6508 0.341282 12.3517 0.0845768 11.0403 0.0889214C5.54539 0.0889214 1.06696 4.56735 1.06696 10.0622C1.06696 11.8234 1.5299 13.5343 2.39539 15.0439L0.98645 20.2167L6.26999 18.8279C7.72925 19.6229 9.36966 20.0456 11.0403 20.0456C16.5351 20.0456 21.0136 15.5672 21.0136 10.0723C21.0136 7.40536 19.977 4.89946 18.0951 3.01751ZM11.0403 18.3549C9.55081 18.3549 8.09155 17.9523 6.81344 17.1975L6.51152 17.0164L3.37159 17.8416L4.20689 14.7822L4.00562 14.4702C3.17791 13.1489 2.7385 11.6214 2.73757 10.0622C2.73757 5.49323 6.4612 1.76959 11.0302 1.76959C13.2443 1.76959 15.3275 2.63508 16.8874 4.20505C17.6599 4.97379 18.2721 5.88828 18.6884 6.89546C19.1048 7.90264 19.317 8.98246 19.3128 10.0723C19.3329 14.6413 15.6093 18.3549 11.0403 18.3549ZM15.5891 12.1555C15.3375 12.0348 14.1098 11.4309 13.8883 11.3403C13.6569 11.2598 13.4959 11.2196 13.3248 11.4611C13.1537 11.7127 12.6807 12.2763 12.5398 12.4373C12.3989 12.6084 12.2479 12.6285 11.9963 12.4977C11.7447 12.3769 10.9396 12.1052 9.99363 11.2598C9.2489 10.5956 8.75577 9.78044 8.60481 9.52884C8.46391 9.27725 8.58468 9.14642 8.71551 9.01559C8.82621 8.90488 8.96711 8.72373 9.08788 8.58284C9.20864 8.44194 9.25896 8.33124 9.33947 8.17022C9.41998 7.99913 9.37973 7.85824 9.31935 7.73747C9.25896 7.61671 8.75577 6.38891 8.55449 5.88572C8.35321 5.40265 8.14187 5.46304 7.99091 5.45297H7.50785C7.33676 5.45297 7.0751 5.51335 6.84363 5.76495C6.62222 6.01655 5.97814 6.62038 5.97814 7.84818C5.97814 9.07597 6.87382 10.2635 6.99459 10.4245C7.11536 10.5956 8.75577 13.1116 11.2516 14.1884C11.8454 14.4501 12.3083 14.601 12.6706 14.7117C13.2644 14.903 13.8078 14.8728 14.2406 14.8124C14.7237 14.7419 15.72 14.2085 15.9213 13.6248C16.1326 13.0411 16.1326 12.548 16.0621 12.4373C15.9917 12.3266 15.8407 12.2763 15.5891 12.1555Z" fill="#DBA73E"/>
</svg>
